M48
;Layer_Color=9474304
;FILE_FORMAT=4:4
METRIC,LZ
;TYPE=PLATED
T1F00S00C0.7112
T2F00S00C1.0160
T3F00S00C6.0000
%
T01
X0024765Y0033401
T02
X000223Y000837
X000477
Y001091
Y001345
Y001599
Y001853
Y002107
X000223
Y001853
Y001599
Y001345
Y001091
Y002361
X000477
Y002615
Y002869
Y003123
Y003377
Y003631
X000223
Y003377
Y003123
Y002869
Y002615
Y003885
X000477
X0020077Y0025052
Y0022512
Y0019972
Y0017432
Y0014892
X004572Y001651
Y001905
Y002159
X0043053Y0044831
Y0047371
Y0049911
Y0052451
Y0054991
Y0057531
Y0060071
X0051308Y0052578
Y0050038
Y0047498
Y0044958
X0009398Y0045466
Y0048006
Y0050546
Y0053086
Y0055626
Y0058166
Y0060706
X000477Y005663
Y005409
Y005155
Y004901
Y004647
Y004393
Y004139
X000223
Y004393
Y004647
Y004901
Y005155
Y005409
Y005663
T03
X00035Y00035
X00525
Y00615
X00035
M30
