G04*
G04 #@! TF.GenerationSoftware,Altium Limited,Altium Designer,23.4.1 (23)*
G04*
G04 Layer_Color=32896*
%FSLAX44Y44*%
%MOMM*%
G71*
G04*
G04 #@! TF.SameCoordinates,85A289D2-1239-4559-B1A6-7CFCC22C1876*
G04*
G04*
G04 #@! TF.FilePolarity,Positive*
G04*
G01*
G75*
G36*
X344385Y929390D02*
X345913D01*
Y928881D01*
X347442D01*
Y928371D01*
X348461D01*
Y927862D01*
X349989D01*
Y927352D01*
X351008D01*
Y926843D01*
X352027D01*
Y926333D01*
X354064D01*
Y925824D01*
X355083D01*
Y925314D01*
X355593D01*
Y924805D01*
X356102D01*
Y924296D01*
X357121D01*
Y923786D01*
X357631D01*
Y923277D01*
X358649D01*
Y922767D01*
X359159D01*
Y922258D01*
X359668D01*
Y921748D01*
X360178D01*
Y921239D01*
X360687D01*
Y920730D01*
X361706D01*
Y920220D01*
X362215D01*
Y919711D01*
X364253D01*
Y919201D01*
X365782D01*
Y918692D01*
X372914D01*
Y918182D01*
X383612D01*
Y917673D01*
X385650D01*
Y917163D01*
X387688D01*
Y916654D01*
X389216D01*
Y916145D01*
X389725D01*
Y915635D01*
X390235D01*
Y915126D01*
X391254D01*
Y914616D01*
X392273D01*
Y914107D01*
X392782D01*
Y913597D01*
X393292D01*
Y913088D01*
X394310D01*
Y912579D01*
X394820D01*
Y912069D01*
X395329D01*
Y911560D01*
X395839D01*
Y911050D01*
X396348D01*
Y910541D01*
X396858D01*
Y910031D01*
X397367D01*
Y909012D01*
X397877D01*
Y908503D01*
X398386D01*
Y907993D01*
X398895D01*
Y907484D01*
X399405D01*
Y906975D01*
X399914D01*
Y906465D01*
X400424D01*
Y905956D01*
X400933D01*
Y905446D01*
X401443D01*
Y904937D01*
X401952D01*
Y904427D01*
X402462D01*
Y903918D01*
X402971D01*
Y903409D01*
X403480D01*
Y902390D01*
X403990D01*
Y901880D01*
X404499D01*
Y900861D01*
X405009D01*
Y900352D01*
X405518D01*
Y899333D01*
X406027D01*
Y898824D01*
X406537D01*
Y898314D01*
X407046D01*
Y897295D01*
X407556D01*
Y896276D01*
X408065D01*
Y895257D01*
X408575D01*
Y894239D01*
X409084D01*
Y893220D01*
X409594D01*
Y891691D01*
X410103D01*
Y890673D01*
X410612D01*
Y889144D01*
X411122D01*
Y888125D01*
X411631D01*
Y886597D01*
X412141D01*
Y884559D01*
X412650D01*
Y881503D01*
X413160D01*
Y878955D01*
X413669D01*
Y873861D01*
X413160D01*
Y872333D01*
X413669D01*
Y858068D01*
X413160D01*
Y853993D01*
X412650D01*
Y851445D01*
X412141D01*
Y850427D01*
X411631D01*
Y848389D01*
X411122D01*
Y846351D01*
X410612D01*
Y844313D01*
X410103D01*
Y843294D01*
X409594D01*
Y841257D01*
X409084D01*
Y839728D01*
X408575D01*
Y839219D01*
X408065D01*
Y837691D01*
X407556D01*
Y836672D01*
X407046D01*
Y835143D01*
X406537D01*
Y834124D01*
X406027D01*
Y833106D01*
X405518D01*
Y832087D01*
X405009D01*
Y831577D01*
X404499D01*
Y831068D01*
X403990D01*
Y830049D01*
X403480D01*
Y829030D01*
X402971D01*
Y828521D01*
X402462D01*
Y828011D01*
X401952D01*
Y826992D01*
X401443D01*
Y826483D01*
X400933D01*
Y825464D01*
X400424D01*
Y824955D01*
X399914D01*
Y824445D01*
X399405D01*
Y822917D01*
X398895D01*
Y821898D01*
X398386D01*
Y820879D01*
X397877D01*
Y819351D01*
X397367D01*
Y818332D01*
X396858D01*
Y816803D01*
X396348D01*
Y815275D01*
X395839D01*
Y814256D01*
X395329D01*
Y813237D01*
X394820D01*
Y812218D01*
X394310D01*
Y811709D01*
X393801D01*
Y810690D01*
X393292D01*
Y809671D01*
X392782D01*
Y808652D01*
X392273D01*
Y807634D01*
X391763D01*
Y806615D01*
X391254D01*
Y805086D01*
X390744D01*
Y804067D01*
X390235D01*
Y803048D01*
X389725D01*
Y802030D01*
X389216D01*
Y801011D01*
X388707D01*
Y799992D01*
X388197D01*
Y798464D01*
X387688D01*
Y797445D01*
X387178D01*
Y796426D01*
X386669D01*
Y795407D01*
X386159D01*
Y793878D01*
X385650D01*
Y792860D01*
X385140D01*
Y791331D01*
X384631D01*
Y789803D01*
X384122D01*
Y789294D01*
X383103D01*
Y788784D01*
X382084D01*
Y788275D01*
X381065D01*
Y787765D01*
X380555D01*
Y787256D01*
X379537D01*
Y786746D01*
X379027D01*
Y786237D01*
X378008D01*
Y785727D01*
X376989D01*
Y785218D01*
X376480D01*
Y784709D01*
X375461D01*
Y784199D01*
X374952D01*
Y783690D01*
X373933D01*
Y783180D01*
X373423D01*
Y782671D01*
X372914D01*
Y781652D01*
X373933D01*
Y781143D01*
X375461D01*
Y780633D01*
X377499D01*
Y780124D01*
X379027D01*
Y779614D01*
X381065D01*
Y779105D01*
X381574D01*
Y778595D01*
X382593D01*
Y778086D01*
X383612D01*
Y777576D01*
X384631D01*
Y777067D01*
X386159D01*
Y776557D01*
X386669D01*
Y776048D01*
X388707D01*
Y775539D01*
X390744D01*
Y775029D01*
X391254D01*
Y774520D01*
X392782D01*
Y774010D01*
X394820D01*
Y773501D01*
X395839D01*
Y772991D01*
X397367D01*
Y772482D01*
X398895D01*
Y771973D01*
X400424D01*
Y771463D01*
X401443D01*
Y770954D01*
X402462D01*
Y770444D01*
X402971D01*
Y769935D01*
X403990D01*
Y769425D01*
X404499D01*
Y768916D01*
X405009D01*
Y768407D01*
X406027D01*
Y767897D01*
X407046D01*
Y767388D01*
X408065D01*
Y766878D01*
X409084D01*
Y766369D01*
X410103D01*
Y765859D01*
X410612D01*
Y765350D01*
X412141D01*
Y764840D01*
X412650D01*
Y764331D01*
X413669D01*
Y763821D01*
X414688D01*
Y763312D01*
X415197D01*
Y762803D01*
X416216D01*
Y762293D01*
X416726D01*
Y761274D01*
X417235D01*
Y760765D01*
X417745D01*
Y760255D01*
X418764D01*
Y759237D01*
X419273D01*
Y756689D01*
X418764D01*
Y753123D01*
X418254D01*
Y752614D01*
X417745D01*
Y752104D01*
X417235D01*
Y751595D01*
X416726D01*
Y750576D01*
X415197D01*
Y750067D01*
X414688D01*
Y749557D01*
X413669D01*
Y749048D01*
X412650D01*
Y748538D01*
X412141D01*
Y748029D01*
X411122D01*
Y747519D01*
X410103D01*
Y746500D01*
X409084D01*
Y745991D01*
X408575D01*
Y744972D01*
X407556D01*
Y743953D01*
X406537D01*
Y742934D01*
X405518D01*
Y742425D01*
X405009D01*
Y741916D01*
X406027D01*
Y741406D01*
X407556D01*
Y740897D01*
X409594D01*
Y740387D01*
X411122D01*
Y739878D01*
X411631D01*
Y739368D01*
X412650D01*
Y738859D01*
X414179D01*
Y738349D01*
X415197D01*
Y737840D01*
X416216D01*
Y737330D01*
X417745D01*
Y736821D01*
X418764D01*
Y736312D01*
X420292D01*
Y735802D01*
X421820D01*
Y735293D01*
X422839D01*
Y734783D01*
X423349D01*
Y734274D01*
X424367D01*
Y733764D01*
X425386D01*
Y732746D01*
X425896D01*
Y732236D01*
X426915D01*
Y731727D01*
X427424D01*
Y731217D01*
X427934D01*
Y730708D01*
X428952D01*
Y730198D01*
X429462D01*
Y729689D01*
X430481D01*
Y729179D01*
X431500D01*
Y728670D01*
X432009D01*
Y728160D01*
X432519D01*
Y726632D01*
X433028D01*
Y726123D01*
X433537D01*
Y725613D01*
X434047D01*
Y724594D01*
X434556D01*
Y724085D01*
X435066D01*
Y722557D01*
X435575D01*
Y722047D01*
X436085D01*
Y720010D01*
X436594D01*
Y718991D01*
X437104D01*
Y717972D01*
X437613D01*
Y716443D01*
X438122D01*
Y715424D01*
X438632D01*
Y714915D01*
X439141D01*
Y713387D01*
X439651D01*
Y711349D01*
X440160D01*
Y708802D01*
X440670D01*
Y704726D01*
X441179D01*
Y693519D01*
X440670D01*
Y692500D01*
X441179D01*
Y691990D01*
X442198D01*
Y692500D01*
X443217D01*
Y691990D01*
X444745D01*
Y691481D01*
X445764D01*
Y690971D01*
X446273D01*
Y690462D01*
X446783D01*
Y686386D01*
X446273D01*
Y682820D01*
X445764D01*
Y681292D01*
X445255D01*
Y679254D01*
X444745D01*
Y676707D01*
X444236D01*
Y674160D01*
X443726D01*
Y670084D01*
X443217D01*
Y666518D01*
X442707D01*
Y664480D01*
X445255D01*
Y663971D01*
X445764D01*
Y663461D01*
X446273D01*
Y662443D01*
X446783D01*
Y661424D01*
X447292D01*
Y658876D01*
X447802D01*
Y650216D01*
X447292D01*
Y649197D01*
X446783D01*
Y643084D01*
X447292D01*
Y636461D01*
X447802D01*
Y631367D01*
X448311D01*
Y630857D01*
X448821D01*
Y630348D01*
X449330D01*
Y628819D01*
X449840D01*
Y627291D01*
X450349D01*
Y626272D01*
X450858D01*
Y625253D01*
X451368D01*
Y624234D01*
X451877D01*
Y622197D01*
X452387D01*
Y615065D01*
X452896D01*
Y609970D01*
X453406D01*
Y608951D01*
X453915D01*
Y607423D01*
X454425D01*
Y606404D01*
X454934D01*
Y605895D01*
X455443D01*
Y605385D01*
X455953D01*
Y604876D01*
X456462D01*
Y604366D01*
X456972D01*
Y603347D01*
X457481D01*
Y602328D01*
X457991D01*
Y600800D01*
X458500D01*
Y598253D01*
X459010D01*
Y596215D01*
X459519D01*
Y593158D01*
X460028D01*
Y590611D01*
X459519D01*
Y590102D01*
X460028D01*
Y580422D01*
X459519D01*
Y577875D01*
X459010D01*
Y576347D01*
X458500D01*
Y572271D01*
X457991D01*
Y570234D01*
X457481D01*
Y569215D01*
X456972D01*
Y566668D01*
X456462D01*
Y565139D01*
X455953D01*
Y564120D01*
X455443D01*
Y563611D01*
X454934D01*
Y562082D01*
X454425D01*
Y560554D01*
X453915D01*
Y559026D01*
X453406D01*
Y558007D01*
X452896D01*
Y552403D01*
X453406D01*
Y545780D01*
X453915D01*
Y543233D01*
X454425D01*
Y539158D01*
X454934D01*
Y536610D01*
X455443D01*
Y535082D01*
X454934D01*
Y534573D01*
X454425D01*
Y534063D01*
X453915D01*
Y533554D01*
X452896D01*
Y533044D01*
X452387D01*
Y532535D01*
X451368D01*
Y532025D01*
X450858D01*
Y531516D01*
X450349D01*
Y531007D01*
X449840D01*
Y530497D01*
X449330D01*
Y529988D01*
X448821D01*
Y529478D01*
X448311D01*
Y528969D01*
X447802D01*
Y528459D01*
X447292D01*
Y527950D01*
X446783D01*
Y527440D01*
X446273D01*
Y526931D01*
X445764D01*
Y526422D01*
X445255D01*
Y525912D01*
X444745D01*
Y525403D01*
X444236D01*
Y524893D01*
X443726D01*
Y524384D01*
X443217D01*
Y523874D01*
X442707D01*
Y523365D01*
X442198D01*
Y522855D01*
X441688D01*
Y522346D01*
X441179D01*
Y521837D01*
X440670D01*
Y520818D01*
X440160D01*
Y519289D01*
X439651D01*
Y518780D01*
X439141D01*
Y518270D01*
X438632D01*
Y517761D01*
X438122D01*
Y517252D01*
X437613D01*
Y516742D01*
X437104D01*
Y516233D01*
X436594D01*
Y515723D01*
X436085D01*
Y515214D01*
X435575D01*
Y514704D01*
X435066D01*
Y514195D01*
X434556D01*
Y513686D01*
X434047D01*
Y513176D01*
X433537D01*
Y512667D01*
X433028D01*
Y512157D01*
X432519D01*
Y511648D01*
X432009D01*
Y511138D01*
X431500D01*
Y510629D01*
X430990D01*
Y510120D01*
X429971D01*
Y509610D01*
X429462D01*
Y509101D01*
X428443D01*
Y508591D01*
X427934D01*
Y508082D01*
X424877D01*
Y507572D01*
X422839D01*
Y507063D01*
X418764D01*
Y506553D01*
X417745D01*
Y506044D01*
X416726D01*
Y505535D01*
X416216D01*
Y505025D01*
X415707D01*
Y499931D01*
X416216D01*
Y498912D01*
X416726D01*
Y497383D01*
X417235D01*
Y495855D01*
X417745D01*
Y494327D01*
X418254D01*
Y492798D01*
X418764D01*
Y491780D01*
X419273D01*
Y490761D01*
X419782D01*
Y489742D01*
X420292D01*
Y488214D01*
X420801D01*
Y487704D01*
X421311D01*
Y487195D01*
X421820D01*
Y486685D01*
X422330D01*
Y486176D01*
X422839D01*
Y485157D01*
X423349D01*
Y484647D01*
X423858D01*
Y483119D01*
X424367D01*
Y481081D01*
X424877D01*
Y480062D01*
X425386D01*
Y479553D01*
X425896D01*
Y478534D01*
X426405D01*
Y478025D01*
X426915D01*
Y477006D01*
X427424D01*
Y475477D01*
X427934D01*
Y474459D01*
X428443D01*
Y473440D01*
X428952D01*
Y472421D01*
X429462D01*
Y471911D01*
X429971D01*
Y470892D01*
X430481D01*
Y470383D01*
X430990D01*
Y469364D01*
X431500D01*
Y468345D01*
X432009D01*
Y467836D01*
X432519D01*
Y467326D01*
X433028D01*
Y466307D01*
X433537D01*
Y465798D01*
X434047D01*
Y464779D01*
X434556D01*
Y464270D01*
X435066D01*
Y463760D01*
X435575D01*
Y463251D01*
X436085D01*
Y462741D01*
X436594D01*
Y461722D01*
X437104D01*
Y461213D01*
X437613D01*
Y460704D01*
X438122D01*
Y460194D01*
X438632D01*
Y459175D01*
X439141D01*
Y458666D01*
X439651D01*
Y457647D01*
X440160D01*
Y457137D01*
X440670D01*
Y456119D01*
X441179D01*
Y455100D01*
X441688D01*
Y454590D01*
X442198D01*
Y453571D01*
X442707D01*
Y453062D01*
X443217D01*
Y452552D01*
X443726D01*
Y452043D01*
X444236D01*
Y451024D01*
X444745D01*
Y449496D01*
X445255D01*
Y445930D01*
X444745D01*
Y443892D01*
X444236D01*
Y438288D01*
X443726D01*
Y429118D01*
X444236D01*
Y427080D01*
X444745D01*
Y426062D01*
X445255D01*
Y424533D01*
X445764D01*
Y423514D01*
X446273D01*
Y422495D01*
X446783D01*
Y421477D01*
X447292D01*
Y420458D01*
X447802D01*
Y419439D01*
X448311D01*
Y417910D01*
X448821D01*
Y416892D01*
X449330D01*
Y415873D01*
X449840D01*
Y414854D01*
X450349D01*
Y413326D01*
X450858D01*
Y412307D01*
X450349D01*
Y411288D01*
X449840D01*
Y410778D01*
X449330D01*
Y410269D01*
X448821D01*
Y409759D01*
X447802D01*
Y409250D01*
X446783D01*
Y408741D01*
X445764D01*
Y408231D01*
X445255D01*
Y407722D01*
X444236D01*
Y407212D01*
X443726D01*
Y406193D01*
X443217D01*
Y405684D01*
X442707D01*
Y406193D01*
X442198D01*
Y407212D01*
X441688D01*
Y407722D01*
X440160D01*
Y407212D01*
X439141D01*
Y406703D01*
X438122D01*
Y406193D01*
X436594D01*
Y405684D01*
X433028D01*
Y406193D01*
X434047D01*
Y406703D01*
X435575D01*
Y407212D01*
X437104D01*
Y407722D01*
X438122D01*
Y408231D01*
X439141D01*
Y408741D01*
X440670D01*
Y409250D01*
X442198D01*
Y409759D01*
X443217D01*
Y410269D01*
X443726D01*
Y410778D01*
X444745D01*
Y411288D01*
X445764D01*
Y411797D01*
X446273D01*
Y412307D01*
X447292D01*
Y412816D01*
X447802D01*
Y415873D01*
X447292D01*
Y416892D01*
X446783D01*
Y418420D01*
X446273D01*
Y419439D01*
X445764D01*
Y420458D01*
X445255D01*
Y421477D01*
X444745D01*
Y423514D01*
X444236D01*
Y425043D01*
X443726D01*
Y426062D01*
X443217D01*
Y427080D01*
X442707D01*
Y427590D01*
X442198D01*
Y427080D01*
X441179D01*
Y426571D01*
X440160D01*
Y426062D01*
X439651D01*
Y425552D01*
X438632D01*
Y425043D01*
X438122D01*
Y424533D01*
X437104D01*
Y424024D01*
X436085D01*
Y423514D01*
X435066D01*
Y423005D01*
X434047D01*
Y422495D01*
X433028D01*
Y421986D01*
X432009D01*
Y421477D01*
X429971D01*
Y421986D01*
X430481D01*
Y422495D01*
X432009D01*
Y423005D01*
X432519D01*
Y423514D01*
X434047D01*
Y424024D01*
X434556D01*
Y424533D01*
X435575D01*
Y425043D01*
X436594D01*
Y425552D01*
X437104D01*
Y426062D01*
X438122D01*
Y426571D01*
X439141D01*
Y427080D01*
X439651D01*
Y427590D01*
X440670D01*
Y428099D01*
X441688D01*
Y428609D01*
X442198D01*
Y440326D01*
X442707D01*
Y443892D01*
X443217D01*
Y449496D01*
X442707D01*
Y450515D01*
X442198D01*
Y451534D01*
X441688D01*
Y452043D01*
X441179D01*
Y453062D01*
X440670D01*
Y453571D01*
X440160D01*
Y454590D01*
X439651D01*
Y455100D01*
X439141D01*
Y456119D01*
X438632D01*
Y456628D01*
X438122D01*
Y457647D01*
X437613D01*
Y458156D01*
X437104D01*
Y458666D01*
X436594D01*
Y459175D01*
X436085D01*
Y460194D01*
X435575D01*
Y460704D01*
X435066D01*
Y461213D01*
X434556D01*
Y462232D01*
X434047D01*
Y462741D01*
X433537D01*
Y463251D01*
X433028D01*
Y464270D01*
X432519D01*
Y464779D01*
X432009D01*
Y465289D01*
X431500D01*
Y466307D01*
X430990D01*
Y466817D01*
X430481D01*
Y467836D01*
X429971D01*
Y468855D01*
X429462D01*
Y469364D01*
X428952D01*
Y470383D01*
X428443D01*
Y471402D01*
X427934D01*
Y471911D01*
X427424D01*
Y472421D01*
X426915D01*
Y474459D01*
X426405D01*
Y475477D01*
X425896D01*
Y476496D01*
X423858D01*
Y475987D01*
X422330D01*
Y475477D01*
X421311D01*
Y474968D01*
X420292D01*
Y474459D01*
X418764D01*
Y473949D01*
X416216D01*
Y473440D01*
X413160D01*
Y472930D01*
X409594D01*
Y472421D01*
X405518D01*
Y471911D01*
X400424D01*
Y471402D01*
X395329D01*
Y471911D01*
X394820D01*
Y480572D01*
X395329D01*
Y488723D01*
X395839D01*
Y500950D01*
X395329D01*
Y505025D01*
X395839D01*
Y507572D01*
X396348D01*
Y517252D01*
X395839D01*
Y524893D01*
X395329D01*
Y532025D01*
X394820D01*
Y531007D01*
X394310D01*
Y529478D01*
X393801D01*
Y527440D01*
X393292D01*
Y525403D01*
X392782D01*
Y524384D01*
X392273D01*
Y523365D01*
X391763D01*
Y521837D01*
X391254D01*
Y520308D01*
X390744D01*
Y519289D01*
X390235D01*
Y518270D01*
X389725D01*
Y516742D01*
X389216D01*
Y515214D01*
X388707D01*
Y513686D01*
X388197D01*
Y512157D01*
X387688D01*
Y511138D01*
X387178D01*
Y510120D01*
X386669D01*
Y509101D01*
X386159D01*
Y507572D01*
X385650D01*
Y506044D01*
X385140D01*
Y504006D01*
X384631D01*
Y502478D01*
X384122D01*
Y500950D01*
X383612D01*
Y499421D01*
X383103D01*
Y497893D01*
X382593D01*
Y496365D01*
X382084D01*
Y494836D01*
X381574D01*
Y493817D01*
X381065D01*
Y495346D01*
X381574D01*
Y496874D01*
X382084D01*
Y498402D01*
X382593D01*
Y499931D01*
X383103D01*
Y501968D01*
X383612D01*
Y503497D01*
X384122D01*
Y505025D01*
X384631D01*
Y507063D01*
X385140D01*
Y508082D01*
X385650D01*
Y509610D01*
X386159D01*
Y510629D01*
X386669D01*
Y512157D01*
X387178D01*
Y513686D01*
X387688D01*
Y515723D01*
X388197D01*
Y516742D01*
X388707D01*
Y518270D01*
X389216D01*
Y519289D01*
X389725D01*
Y520818D01*
X390235D01*
Y522346D01*
X390744D01*
Y523874D01*
X391254D01*
Y525403D01*
X391763D01*
Y527440D01*
X392273D01*
Y529478D01*
X392782D01*
Y531007D01*
X393292D01*
Y533044D01*
X393801D01*
Y535082D01*
X394310D01*
Y536610D01*
X394820D01*
Y540686D01*
X394310D01*
Y545271D01*
X393801D01*
Y548328D01*
X393292D01*
Y548837D01*
X392782D01*
Y549347D01*
X392273D01*
Y550365D01*
X391763D01*
Y552403D01*
X391254D01*
Y555969D01*
X390744D01*
Y558007D01*
X390235D01*
Y559535D01*
X389725D01*
Y560045D01*
X389216D01*
Y560554D01*
X388197D01*
Y561064D01*
X387688D01*
Y561573D01*
X386669D01*
Y562082D01*
X386159D01*
Y562592D01*
X385140D01*
Y563101D01*
X384631D01*
Y563611D01*
X383612D01*
Y564120D01*
X382593D01*
Y564630D01*
X382084D01*
Y565139D01*
X381065D01*
Y565649D01*
X380555D01*
Y566158D01*
X380046D01*
Y566668D01*
X379537D01*
Y567177D01*
X379027D01*
Y567686D01*
X378008D01*
Y568196D01*
X377499D01*
Y568705D01*
X376480D01*
Y569215D01*
X375970D01*
Y569724D01*
X374952D01*
Y570234D01*
X374442D01*
Y570743D01*
X373423D01*
Y571253D01*
X372914D01*
Y571762D01*
X371895D01*
Y572271D01*
X371385D01*
Y572781D01*
X370876D01*
Y573290D01*
X369857D01*
Y573800D01*
X369348D01*
Y574309D01*
X368329D01*
Y574819D01*
X367819D01*
Y575328D01*
X367310D01*
Y575838D01*
X366291D01*
Y576347D01*
X365272D01*
Y576856D01*
X364763D01*
Y577366D01*
X363744D01*
Y577875D01*
X362725D01*
Y578385D01*
X361706D01*
Y578894D01*
X361197D01*
Y579403D01*
X360178D01*
Y579913D01*
X359668D01*
Y580422D01*
X358649D01*
Y580932D01*
X357631D01*
Y581441D01*
X356612D01*
Y581951D01*
X355593D01*
Y582460D01*
X355083D01*
Y582970D01*
X354574D01*
Y583479D01*
X354064D01*
Y583988D01*
X353046D01*
Y584498D01*
X352536D01*
Y585007D01*
X351517D01*
Y585517D01*
X351008D01*
Y586026D01*
X350498D01*
Y586536D01*
X349479D01*
Y587045D01*
X348970D01*
Y587555D01*
X348461D01*
Y588064D01*
X347951D01*
Y588573D01*
X347442D01*
Y589083D01*
X346423D01*
Y589592D01*
X345913D01*
Y590102D01*
X345404D01*
Y590611D01*
X344385D01*
Y591121D01*
X343366D01*
Y591630D01*
X342857D01*
Y592140D01*
X341838D01*
Y592649D01*
X341328D01*
Y593158D01*
X340309D01*
Y593668D01*
X339291D01*
Y594177D01*
X338781D01*
Y594687D01*
X337762D01*
Y595196D01*
X336743D01*
Y595706D01*
X336234D01*
Y596215D01*
X335215D01*
Y596725D01*
X333687D01*
Y597234D01*
X332668D01*
Y597743D01*
X331649D01*
Y598253D01*
X331140D01*
Y598762D01*
X330121D01*
Y599272D01*
X322989D01*
Y598762D01*
X316875D01*
Y598253D01*
X312290D01*
Y598762D01*
X311271D01*
Y597743D01*
X310762D01*
Y596215D01*
X310252D01*
Y594687D01*
X309743D01*
Y593668D01*
X309234D01*
Y592140D01*
X308724D01*
Y591121D01*
X308215D01*
Y590102D01*
X307705D01*
Y588064D01*
X308215D01*
Y586026D01*
X307705D01*
Y583479D01*
X307196D01*
Y579913D01*
X306686D01*
Y577366D01*
X306177D01*
Y575328D01*
X305667D01*
Y573290D01*
X305158D01*
Y572781D01*
X304649D01*
Y572271D01*
X303630D01*
Y571762D01*
X303120D01*
Y571253D01*
X302611D01*
Y570743D01*
X302101D01*
Y567686D01*
X302611D01*
Y565649D01*
X303120D01*
Y565139D01*
X303630D01*
Y564630D01*
X304139D01*
Y563611D01*
X304649D01*
Y561064D01*
X305158D01*
Y558516D01*
X305667D01*
Y555460D01*
X306177D01*
Y552913D01*
X306686D01*
Y551894D01*
X306177D01*
Y550875D01*
X305667D01*
Y548328D01*
X306177D01*
Y546290D01*
X306686D01*
Y544252D01*
X307196D01*
Y541705D01*
X307705D01*
Y539667D01*
X308215D01*
Y536101D01*
X308724D01*
Y534573D01*
X309234D01*
Y532535D01*
X309743D01*
Y529478D01*
X310252D01*
Y527440D01*
X310762D01*
Y525403D01*
X311271D01*
Y523365D01*
X311781D01*
Y521327D01*
X312290D01*
Y519289D01*
X312800D01*
Y517761D01*
X313309D01*
Y515214D01*
X313819D01*
Y513686D01*
X314328D01*
Y511648D01*
X314837D01*
Y510629D01*
X315347D01*
Y509101D01*
X315856D01*
Y507063D01*
X316366D01*
Y505025D01*
X316875D01*
Y503497D01*
X317385D01*
Y501459D01*
X317894D01*
Y499931D01*
X318404D01*
Y498402D01*
X318913D01*
Y496874D01*
X319422D01*
Y494836D01*
X319932D01*
Y492798D01*
X320441D01*
Y491270D01*
X320951D01*
Y489232D01*
X321460D01*
Y487195D01*
X321970D01*
Y486176D01*
X322479D01*
Y484647D01*
X322989D01*
Y483119D01*
X323498D01*
Y481591D01*
X324007D01*
Y480572D01*
X324517D01*
Y479553D01*
X325026D01*
Y477515D01*
X325536D01*
Y475987D01*
X326045D01*
Y474459D01*
X326555D01*
Y473440D01*
X327064D01*
Y471911D01*
X327574D01*
Y469874D01*
X328083D01*
Y468345D01*
X328592D01*
Y467836D01*
X329102D01*
Y466817D01*
X329611D01*
Y466307D01*
X330121D01*
Y465798D01*
X330630D01*
Y465289D01*
X331140D01*
Y464779D01*
X332159D01*
Y465289D01*
X353555D01*
Y464779D01*
X358649D01*
Y463760D01*
X359159D01*
Y462741D01*
X359668D01*
Y460704D01*
X360178D01*
Y457647D01*
X360687D01*
Y456119D01*
X361197D01*
Y454590D01*
X361706D01*
Y453571D01*
X362215D01*
Y452043D01*
X362725D01*
Y451024D01*
X363234D01*
Y449496D01*
X363744D01*
Y447968D01*
X364253D01*
Y446949D01*
X364763D01*
Y445420D01*
X366291D01*
Y445930D01*
X366800D01*
Y446439D01*
X367310D01*
Y446949D01*
X367819D01*
Y447458D01*
X368838D01*
Y448477D01*
X369348D01*
Y448987D01*
X370367D01*
Y449496D01*
X370876D01*
Y450005D01*
X371385D01*
Y450515D01*
X371895D01*
Y451534D01*
X372914D01*
Y452552D01*
X373423D01*
Y453571D01*
X373933D01*
Y454081D01*
X374442D01*
Y454590D01*
X374952D01*
Y455609D01*
X375461D01*
Y456119D01*
X375970D01*
Y457137D01*
X376480D01*
Y457647D01*
X376989D01*
Y458666D01*
X377499D01*
Y459685D01*
X378008D01*
Y460704D01*
X378518D01*
Y461213D01*
X379027D01*
Y462232D01*
X379537D01*
Y463251D01*
X380046D01*
Y463760D01*
X380555D01*
Y464270D01*
X381065D01*
Y465289D01*
X381574D01*
Y466307D01*
X382084D01*
Y467326D01*
X382593D01*
Y467836D01*
X383103D01*
Y470892D01*
X382593D01*
Y473949D01*
X382084D01*
Y476496D01*
X381574D01*
Y479044D01*
X381065D01*
Y482100D01*
X380555D01*
Y484138D01*
X380046D01*
Y488214D01*
X379537D01*
Y489232D01*
X379027D01*
Y490251D01*
X379537D01*
Y491780D01*
X380046D01*
Y492798D01*
X380555D01*
Y493817D01*
X381065D01*
Y491780D01*
X380555D01*
Y490761D01*
X380046D01*
Y488723D01*
X380555D01*
Y485666D01*
X381065D01*
Y483119D01*
X381574D01*
Y480572D01*
X382084D01*
Y478025D01*
X382593D01*
Y475477D01*
X383103D01*
Y472421D01*
X383612D01*
Y470892D01*
X384122D01*
Y467326D01*
X384631D01*
Y465798D01*
X385140D01*
Y464779D01*
X385650D01*
Y464270D01*
X386159D01*
Y463760D01*
X386669D01*
Y463251D01*
X387178D01*
Y462741D01*
X387688D01*
Y461213D01*
X388197D01*
Y459685D01*
X387688D01*
Y458666D01*
X387178D01*
Y458156D01*
X386669D01*
Y457647D01*
X386159D01*
Y457137D01*
X386669D01*
Y456119D01*
X387178D01*
Y453571D01*
X387688D01*
Y450515D01*
X388197D01*
Y447458D01*
X388707D01*
Y444911D01*
X389725D01*
Y443892D01*
X389216D01*
Y442873D01*
X389725D01*
Y440326D01*
X390235D01*
Y438798D01*
X390744D01*
Y438288D01*
X391254D01*
Y437779D01*
X392782D01*
Y438288D01*
X393292D01*
Y438798D01*
X393801D01*
Y439817D01*
X394310D01*
Y441345D01*
X394820D01*
Y444402D01*
X395329D01*
Y445420D01*
X395839D01*
Y450515D01*
X395329D01*
Y453062D01*
X394820D01*
Y456119D01*
X394310D01*
Y458666D01*
X393801D01*
Y460194D01*
X394310D01*
Y468855D01*
X399405D01*
Y468345D01*
X400424D01*
Y468855D01*
X401443D01*
Y469364D01*
X403480D01*
Y469874D01*
X403990D01*
Y468855D01*
X403480D01*
Y468345D01*
X402971D01*
Y467836D01*
X402462D01*
Y467326D01*
X401952D01*
Y466817D01*
X401443D01*
Y466307D01*
X400933D01*
Y465289D01*
X400424D01*
Y464779D01*
X399914D01*
Y464270D01*
X399405D01*
Y463760D01*
X398895D01*
Y463251D01*
X398386D01*
Y462232D01*
X397877D01*
Y461722D01*
X397367D01*
Y461213D01*
X396858D01*
Y460194D01*
X396348D01*
Y459175D01*
X395839D01*
Y458666D01*
X395329D01*
Y457137D01*
X394820D01*
Y456119D01*
X395329D01*
Y455100D01*
X395839D01*
Y452043D01*
X396348D01*
Y449496D01*
X396858D01*
Y447458D01*
X396348D01*
Y442364D01*
X395839D01*
Y441345D01*
X395329D01*
Y439307D01*
X394820D01*
Y438288D01*
X394310D01*
Y437779D01*
X393801D01*
Y436760D01*
X389216D01*
Y436250D01*
X388197D01*
Y435741D01*
X386669D01*
Y435232D01*
X385650D01*
Y434722D01*
X384122D01*
Y434213D01*
X382593D01*
Y433703D01*
X381065D01*
Y433194D01*
X379537D01*
Y432684D01*
X378008D01*
Y432175D01*
X374952D01*
Y431665D01*
X373423D01*
Y431156D01*
X370367D01*
Y430647D01*
X367819D01*
Y430137D01*
X366291D01*
Y429628D01*
X365272D01*
Y430137D01*
X358140D01*
Y430647D01*
X355593D01*
Y431156D01*
X354574D01*
Y431665D01*
X353046D01*
Y432175D01*
X350498D01*
Y432684D01*
X348461D01*
Y433194D01*
X346932D01*
Y433703D01*
X344894D01*
Y434213D01*
X343366D01*
Y434722D01*
X341328D01*
Y435232D01*
X339800D01*
Y435741D01*
X338272D01*
Y436250D01*
X336234D01*
Y436760D01*
X334706D01*
Y437269D01*
X333177D01*
Y437779D01*
X331140D01*
Y438288D01*
X329611D01*
Y438798D01*
X328083D01*
Y439307D01*
X325536D01*
Y439817D01*
X322989D01*
Y440326D01*
X321460D01*
Y440835D01*
X318404D01*
Y441345D01*
X316366D01*
Y441854D01*
X313309D01*
Y442364D01*
X310762D01*
Y442873D01*
X308215D01*
Y443383D01*
X307705D01*
Y443892D01*
X307196D01*
Y444402D01*
X306686D01*
Y445930D01*
X307196D01*
Y446439D01*
X310762D01*
Y445930D01*
X312800D01*
Y445420D01*
X314328D01*
Y444911D01*
X315856D01*
Y444402D01*
X317385D01*
Y443892D01*
X318404D01*
Y443383D01*
X319932D01*
Y442873D01*
X320951D01*
Y442364D01*
X321970D01*
Y441854D01*
X323498D01*
Y441345D01*
X325536D01*
Y440835D01*
X327064D01*
Y440326D01*
X329102D01*
Y439817D01*
X330121D01*
Y439307D01*
X332159D01*
Y438798D01*
X334196D01*
Y438288D01*
X335725D01*
Y437779D01*
X338272D01*
Y437269D01*
X340309D01*
Y436760D01*
X342347D01*
Y436250D01*
X344385D01*
Y435741D01*
X346932D01*
Y435232D01*
X351008D01*
Y434722D01*
X353046D01*
Y434213D01*
X355593D01*
Y433703D01*
X357631D01*
Y434722D01*
X355083D01*
Y435232D01*
X353555D01*
Y435741D01*
X351517D01*
Y436250D01*
X349989D01*
Y436760D01*
X347442D01*
Y437269D01*
X345404D01*
Y437779D01*
X343366D01*
Y438288D01*
X341328D01*
Y438798D01*
X340309D01*
Y439307D01*
X338781D01*
Y439817D01*
X337762D01*
Y440326D01*
X336743D01*
Y440835D01*
X335215D01*
Y441345D01*
X333687D01*
Y441854D01*
X332159D01*
Y442364D01*
X330630D01*
Y442873D01*
X328083D01*
Y443383D01*
X327064D01*
Y443892D01*
X325026D01*
Y444402D01*
X322989D01*
Y444911D01*
X321460D01*
Y445420D01*
X319932D01*
Y445930D01*
X318404D01*
Y446439D01*
X316875D01*
Y446949D01*
X315347D01*
Y447458D01*
X313819D01*
Y447968D01*
X312800D01*
Y448477D01*
X312290D01*
Y448987D01*
X311781D01*
Y449496D01*
X311271D01*
Y450005D01*
X310762D01*
Y451024D01*
X310252D01*
Y452043D01*
X309743D01*
Y453062D01*
X309234D01*
Y453571D01*
X309743D01*
Y454590D01*
X315856D01*
Y454081D01*
X317385D01*
Y453571D01*
X319932D01*
Y453062D01*
X321970D01*
Y454081D01*
X321460D01*
Y454590D01*
X320951D01*
Y455100D01*
X320441D01*
Y456119D01*
X319932D01*
Y457137D01*
X319422D01*
Y458156D01*
X318913D01*
Y459175D01*
X318404D01*
Y462232D01*
X318913D01*
Y462741D01*
X319422D01*
Y463251D01*
X325026D01*
Y462741D01*
X327064D01*
Y462232D01*
X328083D01*
Y461722D01*
X329102D01*
Y461213D01*
X329611D01*
Y460704D01*
X330121D01*
Y460194D01*
X330630D01*
Y458156D01*
X331140D01*
Y454081D01*
X331649D01*
Y453571D01*
Y453062D01*
Y448987D01*
X332159D01*
Y448477D01*
X333177D01*
Y447968D01*
X334706D01*
Y447458D01*
X336234D01*
Y446949D01*
X337253D01*
Y446439D01*
X338272D01*
Y445930D01*
X339800D01*
Y445420D01*
X340819D01*
Y444911D01*
X341838D01*
Y444402D01*
X343366D01*
Y443892D01*
X344385D01*
Y443383D01*
X345913D01*
Y442873D01*
X346932D01*
Y442364D01*
X348461D01*
Y441854D01*
X349479D01*
Y441345D01*
X350498D01*
Y440835D01*
X351517D01*
Y440326D01*
X352536D01*
Y439817D01*
X354064D01*
Y439307D01*
X355083D01*
Y438798D01*
X356612D01*
Y438288D01*
X358140D01*
Y437779D01*
X359668D01*
Y437269D01*
X360687D01*
Y436760D01*
X362725D01*
Y436250D01*
X365782D01*
Y437779D01*
X366800D01*
Y438288D01*
X368329D01*
Y438798D01*
X369348D01*
Y439307D01*
X370367D01*
Y439817D01*
X371895D01*
Y440326D01*
X372914D01*
Y440835D01*
X373933D01*
Y441345D01*
X374952D01*
Y441854D01*
X376480D01*
Y442364D01*
X377499D01*
Y442873D01*
X378518D01*
Y443383D01*
X379537D01*
Y443892D01*
X380555D01*
Y444402D01*
X381574D01*
Y444911D01*
X382084D01*
Y445420D01*
X381065D01*
Y444911D01*
X380046D01*
Y444402D01*
X378518D01*
Y443892D01*
X377499D01*
Y443383D01*
X376480D01*
Y442873D01*
X375461D01*
Y442364D01*
X374442D01*
Y441854D01*
X373423D01*
Y441345D01*
X372404D01*
Y440835D01*
X370876D01*
Y440326D01*
X367819D01*
Y439817D01*
X367310D01*
Y440326D01*
X366800D01*
Y440835D01*
X365782D01*
Y441345D01*
X365272D01*
Y441854D01*
X364763D01*
Y442873D01*
X364253D01*
Y442364D01*
X362725D01*
Y442873D01*
X361706D01*
Y443383D01*
X361197D01*
Y443892D01*
X360687D01*
Y444402D01*
X359668D01*
Y444911D01*
X359159D01*
Y445420D01*
X358140D01*
Y445930D01*
X357631D01*
Y446439D01*
X357121D01*
Y446949D01*
X356612D01*
Y447458D01*
X355593D01*
Y447968D01*
X355083D01*
Y448477D01*
X354574D01*
Y448987D01*
X354064D01*
Y449496D01*
X353555D01*
Y450005D01*
X352536D01*
Y450515D01*
X352027D01*
Y451024D01*
X351008D01*
Y451534D01*
X350498D01*
Y452043D01*
X349479D01*
Y452552D01*
X348970D01*
Y453062D01*
X348461D01*
Y453571D01*
X347442D01*
Y454081D01*
X346932D01*
Y454590D01*
X346423D01*
Y455100D01*
X345404D01*
Y455609D01*
X344894D01*
Y456119D01*
X344385D01*
Y456628D01*
X343366D01*
Y457137D01*
X342857D01*
Y457647D01*
X343366D01*
Y458156D01*
X343876D01*
Y457647D01*
X345913D01*
Y457137D01*
X346932D01*
Y456628D01*
X347442D01*
Y456119D01*
X348461D01*
Y455609D01*
X349479D01*
Y455100D01*
X349989D01*
Y454590D01*
X350498D01*
Y454081D01*
X351008D01*
Y453571D01*
X351517D01*
Y453062D01*
X352027D01*
Y452552D01*
X352536D01*
Y452043D01*
X353046D01*
Y451534D01*
X353555D01*
Y451024D01*
X354064D01*
Y450515D01*
X354574D01*
Y450005D01*
X355083D01*
Y449496D01*
X356102D01*
Y448987D01*
X356612D01*
Y448477D01*
X357121D01*
Y447968D01*
X357631D01*
Y447458D01*
X358140D01*
Y446949D01*
X358649D01*
Y446439D01*
X359668D01*
Y445930D01*
X360178D01*
Y445420D01*
X360687D01*
Y444911D01*
X361706D01*
Y444402D01*
X362215D01*
Y443892D01*
X363234D01*
Y443383D01*
X364253D01*
Y443892D01*
X363744D01*
Y445420D01*
X363234D01*
Y447458D01*
X362725D01*
Y448477D01*
X362215D01*
Y450005D01*
X361706D01*
Y452043D01*
X361197D01*
Y453062D01*
X360687D01*
Y454590D01*
X360178D01*
Y455609D01*
X359668D01*
Y457137D01*
X359159D01*
Y458666D01*
X358649D01*
Y460704D01*
X358140D01*
Y462232D01*
X357631D01*
Y463251D01*
X353555D01*
Y463760D01*
X333687D01*
Y463251D01*
X334196D01*
Y462741D01*
X335215D01*
Y462232D01*
X336234D01*
Y461722D01*
X336743D01*
Y461213D01*
X337253D01*
Y460194D01*
X338272D01*
Y459685D01*
X339291D01*
Y459175D01*
X339800D01*
Y458666D01*
X340309D01*
Y458156D01*
X340819D01*
Y457647D01*
X341838D01*
Y457137D01*
X342347D01*
Y456628D01*
X342857D01*
Y456119D01*
X343366D01*
Y455609D01*
X344385D01*
Y454590D01*
X345404D01*
Y454081D01*
X345913D01*
Y453571D01*
X346932D01*
Y453062D01*
X347442D01*
Y452552D01*
X347951D01*
Y452043D01*
X348970D01*
Y451534D01*
X349479D01*
Y451024D01*
X349989D01*
Y450515D01*
X351008D01*
Y450005D01*
X351517D01*
Y449496D01*
X352027D01*
Y448987D01*
X351517D01*
Y449496D01*
X350498D01*
Y450005D01*
X349479D01*
Y450515D01*
X348461D01*
Y451024D01*
X347951D01*
Y451534D01*
X346932D01*
Y452043D01*
X345913D01*
Y452552D01*
X344894D01*
Y453571D01*
X343876D01*
Y454081D01*
X342857D01*
Y454590D01*
X342347D01*
Y455100D01*
X341328D01*
Y455609D01*
X340819D01*
Y456119D01*
X339800D01*
Y456628D01*
X339291D01*
Y457137D01*
X338781D01*
Y457647D01*
X337762D01*
Y458156D01*
X336234D01*
Y457647D01*
X335725D01*
Y458666D01*
X335215D01*
Y459175D01*
X334706D01*
Y460194D01*
X334196D01*
Y460704D01*
X333687D01*
Y461213D01*
X333177D01*
Y461722D01*
X332668D01*
Y462232D01*
X331649D01*
Y462741D01*
X331140D01*
Y463251D01*
X329102D01*
Y463760D01*
X328083D01*
Y464270D01*
X327574D01*
Y464779D01*
X326555D01*
Y465289D01*
X325536D01*
Y465798D01*
X324517D01*
Y466307D01*
X323498D01*
Y466817D01*
X322479D01*
Y467326D01*
X320951D01*
Y467836D01*
X319932D01*
Y468345D01*
X318404D01*
Y468855D01*
X317894D01*
Y469364D01*
X316366D01*
Y469874D01*
X315347D01*
Y470383D01*
X314328D01*
Y470892D01*
X312800D01*
Y471402D01*
X311781D01*
Y471911D01*
X310252D01*
Y472421D01*
X308724D01*
Y472930D01*
X306686D01*
Y473440D01*
X305667D01*
Y473949D01*
X304139D01*
Y474459D01*
X303120D01*
Y474968D01*
X302101D01*
Y475477D01*
X301082D01*
Y475987D01*
X299045D01*
Y476496D01*
X298026D01*
Y477006D01*
X295988D01*
Y477515D01*
X294969D01*
Y478025D01*
X293950D01*
Y478534D01*
X292422D01*
Y479044D01*
X291403D01*
Y479553D01*
X290384D01*
Y480062D01*
X289875D01*
Y480572D01*
X288856D01*
Y481081D01*
X287837D01*
Y481591D01*
X286818D01*
Y482100D01*
X285799D01*
Y482610D01*
X285290D01*
Y483119D01*
X283762D01*
Y483629D01*
X282743D01*
Y484138D01*
X281724D01*
Y484647D01*
X281214D01*
Y485157D01*
X280195D01*
Y485666D01*
X279686D01*
Y486176D01*
X278667D01*
Y486685D01*
X278158D01*
Y487195D01*
X277139D01*
Y488214D01*
X277648D01*
Y487704D01*
X278158D01*
Y487195D01*
X279686D01*
Y486685D01*
X280705D01*
Y486176D01*
X281724D01*
Y485666D01*
X282233D01*
Y485157D01*
X283252D01*
Y484647D01*
X284271D01*
Y484138D01*
X284780D01*
Y483629D01*
X285799D01*
Y483119D01*
X286818D01*
Y482610D01*
X288347D01*
Y482100D01*
X289365D01*
Y481591D01*
X289875D01*
Y481081D01*
X290384D01*
Y480572D01*
X291913D01*
Y480062D01*
X292931D01*
Y479553D01*
X293950D01*
Y479044D01*
X295479D01*
Y478534D01*
X296498D01*
Y478025D01*
X298026D01*
Y477515D01*
X299554D01*
Y477006D01*
X300573D01*
Y476496D01*
X302611D01*
Y475987D01*
X303120D01*
Y475477D01*
X304649D01*
Y474968D01*
X306177D01*
Y474459D01*
X307705D01*
Y473949D01*
X309234D01*
Y473440D01*
X310762D01*
Y472930D01*
X311781D01*
Y472421D01*
X313309D01*
Y471911D01*
X314837D01*
Y471402D01*
X315856D01*
Y470892D01*
X316875D01*
Y472421D01*
X316366D01*
Y473949D01*
X315856D01*
Y475477D01*
X315347D01*
Y477515D01*
X314837D01*
Y479044D01*
X314328D01*
Y480572D01*
X313819D01*
Y482100D01*
X313309D01*
Y483119D01*
X312800D01*
Y484647D01*
X312290D01*
Y486685D01*
X311781D01*
Y488723D01*
X311271D01*
Y490251D01*
X310762D01*
Y491270D01*
X310252D01*
Y493308D01*
X309743D01*
Y494836D01*
X309234D01*
Y496874D01*
X308724D01*
Y497893D01*
X308215D01*
Y499931D01*
X307705D01*
Y501459D01*
X307196D01*
Y503497D01*
X306686D01*
Y505535D01*
X306177D01*
Y507572D01*
X305667D01*
Y509101D01*
X305158D01*
Y511138D01*
X304649D01*
Y513176D01*
X304139D01*
Y515723D01*
X303630D01*
Y517252D01*
X303120D01*
Y519799D01*
X302611D01*
Y522346D01*
X302101D01*
Y524893D01*
X301592D01*
Y526931D01*
X301082D01*
Y530497D01*
X300573D01*
Y532535D01*
X300064D01*
Y536101D01*
X299554D01*
Y538139D01*
X299045D01*
Y540177D01*
X298535D01*
Y543743D01*
X298026D01*
Y545271D01*
X297516D01*
Y546290D01*
X295988D01*
Y545780D01*
X294969D01*
Y545271D01*
X294460D01*
Y544762D01*
X293441D01*
Y544252D01*
X292931D01*
Y543743D01*
X292422D01*
Y543233D01*
X291913D01*
Y542724D01*
X291403D01*
Y542214D01*
X290384D01*
Y541705D01*
X289875D01*
Y541195D01*
X289365D01*
Y540686D01*
X288856D01*
Y540177D01*
X287837D01*
Y539667D01*
X287328D01*
Y539158D01*
X286818D01*
Y538648D01*
X286309D01*
Y538139D01*
X285799D01*
Y537629D01*
X284780D01*
Y536610D01*
X284271D01*
Y536101D01*
X283252D01*
Y535592D01*
X282743D01*
Y535082D01*
X282233D01*
Y534573D01*
X281724D01*
Y534063D01*
X281214D01*
Y533554D01*
X280705D01*
Y533044D01*
X280195D01*
Y532535D01*
X279686D01*
Y532025D01*
X279177D01*
Y531516D01*
X278667D01*
Y531007D01*
X278158D01*
Y530497D01*
X277648D01*
Y529988D01*
X277139D01*
Y529478D01*
X276629D01*
Y528969D01*
X276120D01*
Y527950D01*
X275610D01*
Y527440D01*
X275101D01*
Y526931D01*
X274592D01*
Y526422D01*
X274082D01*
Y525912D01*
X273573D01*
Y524893D01*
X273063D01*
Y524384D01*
X272554D01*
Y523365D01*
X272044D01*
Y522855D01*
X271535D01*
Y522346D01*
X271025D01*
Y521837D01*
X270516D01*
Y520818D01*
X270007D01*
Y519799D01*
X269497D01*
Y518780D01*
X268988D01*
Y518270D01*
X268478D01*
Y517252D01*
X267969D01*
Y516233D01*
X267459D01*
Y515723D01*
X266950D01*
Y515214D01*
X266441D01*
Y514195D01*
X265931D01*
Y513686D01*
X265422D01*
Y512667D01*
X264912D01*
Y511648D01*
X264403D01*
Y511138D01*
X263893D01*
Y510120D01*
X263384D01*
Y509610D01*
X262874D01*
Y509101D01*
X262365D01*
Y508082D01*
X261856D01*
Y507063D01*
X261346D01*
Y506553D01*
X260837D01*
Y505535D01*
X260327D01*
Y504006D01*
X259818D01*
Y503497D01*
X259308D01*
Y502478D01*
X259818D01*
Y499931D01*
X260327D01*
Y499421D01*
X260837D01*
Y498912D01*
X261346D01*
Y498402D01*
X261856D01*
Y497893D01*
X262365D01*
Y497383D01*
X262874D01*
Y496874D01*
X263893D01*
Y496365D01*
X264403D01*
Y495855D01*
X264912D01*
Y495346D01*
X265931D01*
Y494836D01*
X266950D01*
Y494327D01*
X267459D01*
Y493817D01*
X268478D01*
Y493308D01*
X268988D01*
Y492798D01*
X270007D01*
Y492289D01*
X271025D01*
Y491780D01*
X271535D01*
Y491270D01*
X272044D01*
Y490761D01*
X273063D01*
Y490251D01*
X274082D01*
Y489742D01*
X274592D01*
Y489232D01*
X273063D01*
Y489742D01*
X272044D01*
Y490251D01*
X271535D01*
Y490761D01*
X271025D01*
Y491270D01*
X270007D01*
Y491780D01*
X268988D01*
Y492289D01*
X267969D01*
Y492798D01*
X267459D01*
Y493308D01*
X266441D01*
Y493817D01*
X265931D01*
Y494327D01*
X264912D01*
Y494836D01*
X264403D01*
Y495346D01*
X263384D01*
Y495855D01*
X262874D01*
Y496365D01*
X262365D01*
Y496874D01*
X261346D01*
Y497383D01*
X260327D01*
Y495855D01*
X259818D01*
Y494836D01*
X259308D01*
Y493817D01*
X258799D01*
Y492798D01*
X258289D01*
Y490251D01*
X257780D01*
Y488723D01*
X257271D01*
Y488214D01*
X257780D01*
Y485666D01*
X257271D01*
Y484647D01*
X256761D01*
Y484138D01*
X256252D01*
Y483629D01*
X255742D01*
Y482100D01*
X256252D01*
Y474968D01*
X256761D01*
Y474459D01*
X257271D01*
Y473440D01*
X256252D01*
Y469874D01*
X255742D01*
Y466307D01*
X256252D01*
Y465798D01*
X256761D01*
Y465289D01*
X257271D01*
Y464270D01*
X257780D01*
Y463760D01*
X258289D01*
Y463251D01*
X258799D01*
Y462741D01*
X259308D01*
Y462232D01*
X259818D01*
Y461722D01*
X260327D01*
Y461213D01*
X260837D01*
Y460704D01*
X261346D01*
Y460194D01*
X261856D01*
Y459685D01*
X262365D01*
Y459175D01*
X262874D01*
Y458666D01*
X263384D01*
Y458156D01*
X263893D01*
Y457647D01*
X264912D01*
Y457137D01*
X265422D01*
Y456119D01*
X266441D01*
Y455609D01*
X266950D01*
Y455100D01*
X267459D01*
Y454590D01*
X267969D01*
Y454081D01*
X268478D01*
Y453571D01*
X268988D01*
Y453062D01*
X269497D01*
Y452552D01*
X270007D01*
Y452043D01*
X271025D01*
Y451534D01*
X272044D01*
Y451024D01*
X272554D01*
Y450515D01*
X273063D01*
Y450005D01*
X273573D01*
Y449496D01*
X274082D01*
Y448987D01*
X275101D01*
Y448477D01*
X275610D01*
Y447968D01*
X276629D01*
Y447458D01*
X277139D01*
Y446949D01*
X278158D01*
Y446439D01*
X278667D01*
Y445930D01*
X279686D01*
Y445420D01*
X280705D01*
Y444911D01*
X281214D01*
Y444402D01*
X282233D01*
Y443892D01*
X283762D01*
Y443383D01*
X284271D01*
Y442873D01*
X285290D01*
Y442364D01*
X285799D01*
Y441854D01*
X286818D01*
Y441345D01*
X287328D01*
Y440835D01*
X288347D01*
Y440326D01*
X288856D01*
Y439817D01*
X289875D01*
Y439307D01*
X290384D01*
Y438798D01*
X290894D01*
Y438288D01*
X291913D01*
Y437779D01*
X292422D01*
Y437269D01*
X293441D01*
Y436760D01*
X294460D01*
Y436250D01*
X294969D01*
Y435741D01*
X295988D01*
Y435232D01*
X296498D01*
Y434722D01*
X297516D01*
Y434213D01*
X298535D01*
Y433703D01*
X299045D01*
Y433194D01*
X300064D01*
Y432684D01*
X300573D01*
Y432175D01*
X301592D01*
Y431665D01*
X302101D01*
Y431156D01*
X303630D01*
Y430647D01*
X304139D01*
Y430137D01*
X305158D01*
Y429628D01*
X305667D01*
Y429118D01*
X306177D01*
Y428609D01*
X307196D01*
Y428099D01*
X307705D01*
Y427590D01*
X308724D01*
Y427080D01*
X309234D01*
Y426571D01*
X309743D01*
Y426062D01*
X310762D01*
Y425552D01*
X311271D01*
Y425043D01*
X312290D01*
Y424533D01*
X312800D01*
Y424024D01*
X313819D01*
Y423514D01*
X314328D01*
Y423005D01*
X315347D01*
Y422495D01*
X315856D01*
Y421986D01*
X316875D01*
Y421477D01*
X317894D01*
Y420967D01*
X318404D01*
Y420458D01*
X319422D01*
Y419948D01*
X319932D01*
Y419439D01*
X320441D01*
Y420458D01*
X321460D01*
Y419948D01*
X322479D01*
Y419439D01*
X322989D01*
Y418929D01*
X324007D01*
Y418420D01*
X324517D01*
Y417910D01*
X325026D01*
Y417401D01*
X325536D01*
Y416892D01*
X326045D01*
Y416382D01*
X327064D01*
Y415873D01*
X327574D01*
Y415363D01*
X328083D01*
Y414854D01*
X329102D01*
Y414344D01*
X330121D01*
Y413835D01*
X331140D01*
Y413326D01*
X332159D01*
Y412816D01*
X333177D01*
Y412307D01*
X334196D01*
Y411797D01*
X335215D01*
Y411288D01*
X336234D01*
Y410778D01*
X337253D01*
Y410269D01*
X338272D01*
Y409759D01*
X339800D01*
Y409250D01*
X340819D01*
Y408741D01*
X341838D01*
Y408231D01*
X342857D01*
Y407722D01*
X343366D01*
Y407212D01*
X344385D01*
Y406703D01*
X345404D01*
Y406193D01*
X345913D01*
Y405684D01*
X338781D01*
Y406193D01*
X337253D01*
Y406703D01*
X336743D01*
Y407212D01*
X335725D01*
Y407722D01*
X335215D01*
Y408231D01*
X334706D01*
Y408741D01*
X334196D01*
Y409250D01*
X333177D01*
Y409759D01*
X332668D01*
Y410269D01*
X331649D01*
Y410778D01*
X331140D01*
Y411288D01*
X330121D01*
Y411797D01*
X329611D01*
Y412307D01*
X329102D01*
Y412816D01*
X328083D01*
Y413326D01*
X327574D01*
Y413835D01*
X327064D01*
Y414344D01*
X326555D01*
Y414854D01*
X325536D01*
Y415363D01*
X324517D01*
Y415873D01*
X323498D01*
Y416382D01*
X322479D01*
Y416892D01*
X321460D01*
Y417401D01*
X320951D01*
Y417910D01*
X319932D01*
Y418420D01*
X319422D01*
Y418929D01*
X318404D01*
Y419439D01*
X317894D01*
Y419948D01*
X316875D01*
Y420458D01*
X315856D01*
Y420967D01*
X314837D01*
Y421477D01*
X314328D01*
Y421986D01*
X313309D01*
Y422495D01*
X312800D01*
Y423005D01*
X312290D01*
Y423514D01*
X311271D01*
Y424024D01*
X310252D01*
Y424533D01*
X309743D01*
Y425043D01*
X309234D01*
Y425552D01*
X308724D01*
Y426062D01*
X307705D01*
Y426571D01*
X306686D01*
Y427080D01*
X306177D01*
Y427590D01*
X305667D01*
Y428099D01*
X304649D01*
Y428609D01*
X304139D01*
Y429118D01*
X303120D01*
Y429628D01*
X302611D01*
Y430137D01*
X301592D01*
Y430647D01*
X300573D01*
Y431156D01*
X300064D01*
Y431665D01*
X299554D01*
Y432175D01*
X298535D01*
Y432684D01*
X297516D01*
Y433194D01*
X297007D01*
Y433703D01*
X295988D01*
Y434213D01*
X295479D01*
Y434722D01*
X294460D01*
Y435232D01*
X293950D01*
Y435741D01*
X292931D01*
Y436250D01*
X292422D01*
Y436760D01*
X291403D01*
Y437269D01*
X290384D01*
Y437779D01*
X289875D01*
Y438288D01*
X289365D01*
Y438798D01*
X288347D01*
Y439307D01*
X287837D01*
Y439817D01*
X286818D01*
Y440326D01*
X285799D01*
Y440835D01*
X285290D01*
Y441345D01*
X284271D01*
Y441854D01*
X283252D01*
Y442364D01*
X282743D01*
Y441854D01*
X283252D01*
Y441345D01*
X283762D01*
Y440835D01*
X284271D01*
Y440326D01*
X285290D01*
Y439817D01*
X285799D01*
Y439307D01*
X286818D01*
Y438798D01*
X287328D01*
Y438288D01*
X287837D01*
Y437779D01*
X288347D01*
Y437269D01*
X289365D01*
Y436760D01*
X289875D01*
Y436250D01*
X290384D01*
Y435741D01*
X290894D01*
Y435232D01*
X291403D01*
Y434722D01*
X292422D01*
Y434213D01*
X292931D01*
Y433703D01*
X293950D01*
Y433194D01*
X294460D01*
Y432684D01*
X295479D01*
Y432175D01*
X295988D01*
Y431665D01*
X296498D01*
Y431156D01*
X297516D01*
Y430647D01*
X298026D01*
Y430137D01*
X299045D01*
Y429628D01*
X299554D01*
Y429118D01*
X300573D01*
Y428609D01*
X301082D01*
Y428099D01*
X302101D01*
Y427590D01*
X302611D01*
Y427080D01*
X303630D01*
Y426571D01*
X304139D01*
Y426062D01*
X304649D01*
Y425552D01*
X305158D01*
Y425043D01*
X306177D01*
Y424533D01*
X306686D01*
Y424024D01*
X307196D01*
Y423514D01*
X308215D01*
Y423005D01*
X308724D01*
Y422495D01*
X309743D01*
Y421477D01*
X310762D01*
Y420967D01*
X311271D01*
Y420458D01*
X311781D01*
Y419948D01*
X312290D01*
Y419439D01*
X313309D01*
Y418929D01*
X313819D01*
Y418420D01*
X314328D01*
Y417910D01*
X313309D01*
Y418420D01*
X312800D01*
Y418929D01*
X311781D01*
Y419439D01*
X310762D01*
Y419948D01*
X310252D01*
Y420458D01*
X309743D01*
Y420967D01*
X309234D01*
Y421477D01*
X308215D01*
Y421986D01*
X307705D01*
Y422495D01*
X307196D01*
Y423005D01*
X306686D01*
Y423514D01*
X305667D01*
Y424024D01*
X304649D01*
Y424533D01*
X304139D01*
Y425043D01*
X303630D01*
Y425552D01*
X303120D01*
Y426062D01*
X301592D01*
Y426571D01*
X301082D01*
Y427080D01*
X300573D01*
Y427590D01*
X299554D01*
Y428099D01*
X299045D01*
Y428609D01*
X298535D01*
Y429118D01*
X297516D01*
Y429628D01*
X296498D01*
Y430137D01*
X295988D01*
Y430647D01*
X295479D01*
Y431156D01*
X294969D01*
Y431665D01*
X293950D01*
Y432175D01*
X293441D01*
Y432684D01*
X292422D01*
Y433194D01*
X291403D01*
Y433703D01*
X290894D01*
Y434213D01*
X289875D01*
Y434722D01*
X289365D01*
Y435741D01*
X288347D01*
Y436250D01*
X287837D01*
Y436760D01*
X287328D01*
Y437269D01*
X286818D01*
Y437779D01*
X286309D01*
Y438288D01*
X285799D01*
Y438798D01*
X284780D01*
Y439307D01*
X284271D01*
Y439817D01*
X283762D01*
Y440326D01*
X282743D01*
Y440835D01*
X282233D01*
Y441345D01*
X281724D01*
Y441854D01*
X281214D01*
Y442364D01*
X280705D01*
Y442873D01*
X279686D01*
Y443383D01*
X279177D01*
Y443892D01*
X278667D01*
Y444402D01*
X278158D01*
Y444911D01*
X277648D01*
Y445420D01*
X276629D01*
Y445930D01*
X276120D01*
Y446439D01*
X275610D01*
Y446949D01*
X275101D01*
Y447458D01*
X274082D01*
Y447968D01*
X273573D01*
Y448477D01*
X273063D01*
Y448987D01*
X272044D01*
Y449496D01*
X271535D01*
Y450005D01*
X271025D01*
Y450515D01*
X270516D01*
Y451024D01*
X269497D01*
Y451534D01*
X268988D01*
Y452043D01*
X268478D01*
Y452552D01*
X267459D01*
Y453571D01*
X266950D01*
Y454081D01*
X266441D01*
Y454590D01*
X265931D01*
Y455100D01*
X265422D01*
Y455609D01*
X264912D01*
Y456119D01*
X264403D01*
Y456628D01*
X263384D01*
Y457137D01*
X262874D01*
Y457647D01*
X262365D01*
Y458156D01*
X261856D01*
Y458666D01*
X261346D01*
Y459175D01*
X260837D01*
Y458666D01*
X261346D01*
Y458156D01*
X261856D01*
Y457647D01*
X262365D01*
Y456628D01*
X262874D01*
Y456119D01*
X263384D01*
Y455609D01*
X263893D01*
Y455100D01*
X264403D01*
Y454081D01*
X264912D01*
Y453571D01*
X265422D01*
Y453062D01*
X265931D01*
Y452043D01*
X266441D01*
Y451534D01*
X266950D01*
Y450515D01*
X267459D01*
Y450005D01*
X267969D01*
Y449496D01*
X268988D01*
Y448477D01*
X269497D01*
Y447968D01*
X270516D01*
Y447458D01*
X271025D01*
Y446949D01*
X271535D01*
Y446439D01*
X272044D01*
Y445930D01*
X272554D01*
Y445420D01*
X273063D01*
Y444911D01*
X273573D01*
Y444402D01*
X274082D01*
Y443892D01*
X274592D01*
Y443383D01*
X275101D01*
Y442873D01*
X275610D01*
Y442364D01*
X276120D01*
Y441854D01*
X276629D01*
Y441345D01*
X277139D01*
Y440835D01*
X277648D01*
Y440326D01*
X278158D01*
Y439817D01*
X278667D01*
Y439307D01*
X279177D01*
Y438798D01*
X279686D01*
Y438288D01*
X280195D01*
Y437779D01*
X281214D01*
Y437269D01*
X281724D01*
Y436760D01*
X282233D01*
Y436250D01*
X282743D01*
Y435741D01*
X283252D01*
Y435232D01*
X283762D01*
Y434722D01*
X284271D01*
Y434213D01*
X285290D01*
Y433703D01*
X285799D01*
Y433194D01*
X286309D01*
Y432684D01*
X286818D01*
Y432175D01*
X287328D01*
Y431665D01*
X287837D01*
Y431156D01*
X288347D01*
Y430647D01*
X289365D01*
Y430137D01*
X289875D01*
Y429628D01*
X290384D01*
Y429118D01*
X290894D01*
Y428609D01*
X291403D01*
Y428099D01*
X291913D01*
Y427590D01*
X292422D01*
Y427080D01*
X293441D01*
Y426571D01*
X293950D01*
Y426062D01*
X294460D01*
Y425552D01*
X295479D01*
Y425043D01*
X296498D01*
Y424533D01*
X297007D01*
Y424024D01*
X297516D01*
Y423514D01*
X298535D01*
Y423005D01*
X299045D01*
Y422495D01*
X299554D01*
Y421986D01*
X300064D01*
Y421477D01*
X300573D01*
Y420967D01*
X301082D01*
Y420458D01*
X301592D01*
Y419948D01*
X302611D01*
Y419439D01*
X303120D01*
Y418929D01*
X303630D01*
Y418420D01*
X304649D01*
Y417910D01*
X305158D01*
Y417401D01*
X306177D01*
Y416892D01*
X306686D01*
Y416382D01*
X307705D01*
Y415363D01*
X308724D01*
Y414854D01*
X309234D01*
Y414344D01*
X310252D01*
Y413835D01*
X310762D01*
Y413326D01*
X311781D01*
Y412816D01*
X312800D01*
Y412307D01*
X313819D01*
Y411797D01*
X314328D01*
Y411288D01*
X315347D01*
Y410778D01*
X316366D01*
Y410269D01*
X317385D01*
Y409759D01*
X317894D01*
Y409250D01*
X318913D01*
Y408741D01*
X319932D01*
Y408231D01*
X320441D01*
Y407722D01*
X321460D01*
Y407212D01*
X322479D01*
Y406703D01*
X323498D01*
Y406193D01*
X324007D01*
Y405684D01*
X318913D01*
Y406193D01*
X316875D01*
Y406703D01*
X315856D01*
Y407212D01*
X314328D01*
Y407722D01*
X312800D01*
Y408231D01*
X311271D01*
Y408741D01*
X310252D01*
Y409250D01*
X308724D01*
Y409759D01*
X307196D01*
Y410269D01*
X305667D01*
Y410778D01*
X304139D01*
Y411288D01*
X303120D01*
Y411797D01*
X301592D01*
Y412307D01*
X300064D01*
Y412816D01*
X299045D01*
Y413326D01*
X297516D01*
Y413835D01*
X296498D01*
Y414344D01*
X295479D01*
Y414854D01*
X294460D01*
Y415363D01*
X293441D01*
Y415873D01*
X292422D01*
Y416382D01*
X291403D01*
Y416892D01*
X290384D01*
Y417401D01*
X289875D01*
Y417910D01*
X288856D01*
Y418420D01*
X288347D01*
Y418929D01*
X287328D01*
Y419439D01*
X286309D01*
Y419948D01*
X285799D01*
Y420458D01*
X285290D01*
Y420967D01*
X284271D01*
Y421477D01*
X283762D01*
Y421986D01*
X282743D01*
Y422495D01*
X282233D01*
Y423005D01*
X281724D01*
Y423514D01*
X280705D01*
Y424024D01*
X279686D01*
Y424533D01*
X279177D01*
Y425043D01*
X278158D01*
Y425552D01*
X277648D01*
Y426062D01*
X276629D01*
Y426571D01*
X276120D01*
Y427080D01*
X275610D01*
Y427590D01*
X274592D01*
Y428099D01*
X274082D01*
Y428609D01*
X273573D01*
Y429118D01*
X272554D01*
Y429628D01*
X272044D01*
Y430137D01*
X271535D01*
Y430647D01*
X271025D01*
Y431156D01*
X270007D01*
Y431665D01*
X269497D01*
Y432175D01*
X268478D01*
Y432684D01*
X267969D01*
Y433194D01*
X267459D01*
Y433703D01*
X266950D01*
Y434213D01*
X265931D01*
Y434722D01*
X265422D01*
Y435232D01*
X264912D01*
Y435741D01*
X263893D01*
Y436250D01*
X263384D01*
Y436760D01*
X262874D01*
Y437269D01*
X261856D01*
Y437779D01*
X261346D01*
Y438288D01*
X260327D01*
Y438798D01*
X259818D01*
Y439307D01*
X259308D01*
Y439817D01*
X258289D01*
Y440326D01*
X257780D01*
Y440835D01*
X257271D01*
Y441345D01*
X256252D01*
Y441854D01*
X255742D01*
Y442364D01*
X255233D01*
Y442873D01*
X254723D01*
Y443383D01*
X254214D01*
Y443892D01*
X253195D01*
Y444402D01*
X252686D01*
Y444911D01*
X251157D01*
Y444402D01*
X250648D01*
Y443892D01*
X249629D01*
Y442873D01*
X249119D01*
Y441345D01*
X248610D01*
Y439817D01*
X248101D01*
Y438288D01*
X247591D01*
Y437269D01*
X247082D01*
Y435232D01*
X246572D01*
Y432684D01*
X246063D01*
Y431156D01*
X245553D01*
Y429118D01*
X245044D01*
Y427590D01*
X246063D01*
Y427080D01*
X248101D01*
Y426571D01*
X248610D01*
Y426062D01*
X249629D01*
Y425552D01*
X251157D01*
Y425043D01*
X252686D01*
Y424533D01*
X254723D01*
Y424024D01*
X256252D01*
Y423514D01*
X257780D01*
Y423005D01*
X259818D01*
Y422495D01*
X261346D01*
Y421986D01*
X262874D01*
Y421477D01*
X264403D01*
Y420967D01*
X265931D01*
Y420458D01*
X267969D01*
Y419948D01*
X269497D01*
Y419439D01*
X271025D01*
Y418929D01*
X272554D01*
Y418420D01*
X274592D01*
Y417910D01*
X276120D01*
Y417401D01*
X277648D01*
Y416892D01*
X279177D01*
Y416382D01*
X280195D01*
Y415873D01*
X281724D01*
Y415363D01*
X283252D01*
Y414854D01*
X284780D01*
Y414344D01*
X286309D01*
Y413835D01*
X287328D01*
Y413326D01*
X288856D01*
Y412816D01*
X290384D01*
Y412307D01*
X291403D01*
Y411797D01*
X292422D01*
Y411288D01*
X293950D01*
Y410778D01*
X295479D01*
Y410269D01*
X297007D01*
Y409759D01*
X298026D01*
Y409250D01*
X299554D01*
Y408741D01*
X301082D01*
Y408231D01*
X302101D01*
Y407722D01*
X303630D01*
Y407212D01*
X304649D01*
Y406703D01*
X306177D01*
Y405684D01*
X303630D01*
Y406193D01*
X302101D01*
Y406703D01*
X301082D01*
Y407212D01*
X299554D01*
Y407722D01*
X298026D01*
Y408231D01*
X297007D01*
Y408741D01*
X295479D01*
Y409250D01*
X293950D01*
Y409759D01*
X292422D01*
Y410269D01*
X290894D01*
Y410778D01*
X289875D01*
Y411288D01*
X288347D01*
Y411797D01*
X287328D01*
Y412307D01*
X285799D01*
Y412816D01*
X284271D01*
Y413326D01*
X283252D01*
Y413835D01*
X281214D01*
Y414344D01*
X279686D01*
Y414854D01*
X278667D01*
Y415363D01*
X276629D01*
Y415873D01*
X275101D01*
Y416382D01*
X273573D01*
Y416892D01*
X272044D01*
Y417401D01*
X270516D01*
Y417910D01*
X268478D01*
Y418420D01*
X266950D01*
Y418929D01*
X265422D01*
Y419439D01*
X263384D01*
Y419948D01*
X261856D01*
Y420458D01*
X260837D01*
Y420967D01*
X259308D01*
Y421477D01*
X256761D01*
Y421986D01*
X254723D01*
Y422495D01*
X253704D01*
Y423005D01*
X253195D01*
Y420967D01*
X253704D01*
Y418420D01*
X254214D01*
Y415873D01*
X254723D01*
Y412307D01*
X255233D01*
Y410269D01*
X255742D01*
Y408231D01*
X256252D01*
Y405684D01*
X253704D01*
Y406193D01*
X253195D01*
Y407722D01*
X252686D01*
Y409250D01*
X252176D01*
Y410778D01*
X251667D01*
Y412816D01*
X251157D01*
Y414854D01*
X250648D01*
Y417401D01*
X250138D01*
Y419439D01*
X249629D01*
Y420967D01*
X249119D01*
Y423514D01*
X248610D01*
Y424533D01*
X248101D01*
Y425043D01*
X247591D01*
Y425552D01*
X247082D01*
Y426062D01*
X245553D01*
Y426571D01*
X244025D01*
Y427080D01*
X242497D01*
Y427590D01*
X240968D01*
Y428099D01*
X238931D01*
Y428609D01*
X238421D01*
Y429118D01*
X237402D01*
Y431665D01*
X237912D01*
Y432684D01*
X238421D01*
Y434213D01*
X238931D01*
Y435232D01*
X239440D01*
Y436250D01*
X239949D01*
Y436760D01*
X240968D01*
Y437779D01*
X241478D01*
Y439817D01*
X241987D01*
Y441345D01*
X242497D01*
Y442364D01*
X243006D01*
Y443892D01*
X243516D01*
Y444911D01*
X244025D01*
Y447968D01*
X243516D01*
Y448987D01*
X244025D01*
Y451024D01*
X244534D01*
Y452043D01*
X245553D01*
Y452552D01*
X246572D01*
Y453571D01*
X247082D01*
Y454081D01*
X247591D01*
Y458666D01*
X247082D01*
Y461722D01*
X247591D01*
Y462741D01*
X248101D01*
Y463251D01*
X248610D01*
Y464779D01*
X248101D01*
Y466307D01*
X247591D01*
Y472421D01*
X248101D01*
Y474459D01*
X248610D01*
Y476496D01*
X249119D01*
Y479553D01*
X249629D01*
Y480572D01*
X250138D01*
Y482610D01*
X250648D01*
Y484647D01*
X251157D01*
Y485666D01*
X251667D01*
Y487704D01*
X252176D01*
Y489232D01*
X252686D01*
Y490761D01*
X253195D01*
Y492798D01*
X253704D01*
Y493817D01*
X254214D01*
Y494836D01*
X254723D01*
Y496365D01*
X255233D01*
Y497383D01*
X255742D01*
Y498402D01*
X256252D01*
Y499421D01*
X256761D01*
Y500950D01*
X257271D01*
Y501968D01*
X257780D01*
Y502987D01*
X258289D01*
Y503497D01*
X258799D01*
Y504006D01*
X259308D01*
Y505535D01*
X259818D01*
Y506553D01*
X260327D01*
Y507063D01*
X260837D01*
Y508082D01*
X261346D01*
Y509610D01*
X261856D01*
Y510629D01*
X262365D01*
Y511138D01*
X262874D01*
Y512667D01*
X263384D01*
Y513176D01*
X263893D01*
Y514195D01*
X264403D01*
Y514704D01*
X264912D01*
Y515214D01*
X265422D01*
Y515723D01*
X265931D01*
Y516742D01*
X266441D01*
Y517252D01*
X266950D01*
Y518270D01*
X267459D01*
Y518780D01*
X267969D01*
Y519799D01*
X268478D01*
Y520308D01*
X268988D01*
Y521327D01*
X269497D01*
Y521837D01*
X270007D01*
Y522346D01*
X270516D01*
Y523365D01*
X271025D01*
Y523874D01*
X271535D01*
Y524893D01*
X272044D01*
Y525403D01*
X272554D01*
Y525912D01*
X273063D01*
Y526931D01*
X273573D01*
Y527440D01*
X274082D01*
Y527950D01*
X274592D01*
Y528969D01*
X275101D01*
Y529478D01*
X275610D01*
Y529988D01*
X276120D01*
Y530497D01*
X276629D01*
Y532025D01*
X277139D01*
Y534063D01*
X276629D01*
Y536101D01*
X276120D01*
Y539158D01*
X275610D01*
Y545780D01*
X275101D01*
Y551384D01*
X274592D01*
Y551894D01*
X271025D01*
Y552403D01*
X268988D01*
Y552913D01*
X266950D01*
Y553422D01*
X265422D01*
Y553932D01*
X263893D01*
Y554441D01*
X262874D01*
Y554950D01*
X261346D01*
Y555460D01*
X260327D01*
Y555969D01*
X259308D01*
Y556479D01*
X258289D01*
Y556988D01*
X257271D01*
Y557497D01*
X256252D01*
Y558007D01*
X255233D01*
Y558516D01*
X254723D01*
Y559026D01*
X253704D01*
Y559535D01*
X252176D01*
Y560045D01*
X251667D01*
Y560554D01*
X250648D01*
Y561064D01*
X249629D01*
Y561573D01*
X248610D01*
Y562082D01*
X248101D01*
Y562592D01*
X247591D01*
Y563101D01*
X246572D01*
Y563611D01*
X245553D01*
Y564120D01*
X244534D01*
Y564630D01*
X244025D01*
Y565139D01*
X243006D01*
Y565649D01*
X241478D01*
Y566158D01*
X240968D01*
Y566668D01*
X240459D01*
Y567177D01*
X239949D01*
Y567686D01*
X238931D01*
Y568196D01*
X237912D01*
Y568705D01*
X237402D01*
Y569215D01*
X236383D01*
Y569724D01*
X235874D01*
Y570234D01*
X234855D01*
Y570743D01*
X233836D01*
Y571253D01*
X233327D01*
Y571762D01*
X232308D01*
Y572271D01*
X231798D01*
Y572781D01*
X230779D01*
Y573290D01*
X230270D01*
Y573800D01*
X229251D01*
Y574309D01*
X228742D01*
Y574819D01*
X228232D01*
Y575328D01*
X227723D01*
Y575838D01*
X226704D01*
Y576347D01*
X226195D01*
Y576856D01*
X225685D01*
Y577366D01*
X224666D01*
Y577875D01*
X224157D01*
Y578385D01*
X223138D01*
Y578894D01*
X222628D01*
Y579403D01*
X222119D01*
Y579913D01*
X221610D01*
Y580422D01*
X221100D01*
Y580932D01*
X220591D01*
Y581441D01*
X220081D01*
Y581951D01*
X219572D01*
Y582460D01*
X219062D01*
Y582970D01*
X218553D01*
Y583479D01*
X218043D01*
Y583988D01*
X217534D01*
Y584498D01*
X217025D01*
Y585007D01*
X216515D01*
Y585517D01*
X216006D01*
Y586026D01*
X215496D01*
Y586536D01*
X214477D01*
Y587045D01*
X213968D01*
Y588064D01*
X213458D01*
Y588573D01*
X212949D01*
Y589083D01*
X211930D01*
Y589592D01*
X211421D01*
Y590102D01*
X210911D01*
Y590611D01*
X210402D01*
Y591121D01*
X209892D01*
Y591630D01*
X208874D01*
Y592140D01*
X208364D01*
Y592649D01*
X207855D01*
Y593158D01*
X207345D01*
Y593668D01*
X206836D01*
Y594177D01*
X206326D01*
Y594687D01*
X205817D01*
Y595196D01*
X205308D01*
Y595706D01*
X204798D01*
Y596215D01*
X204289D01*
Y596725D01*
X203779D01*
Y597234D01*
X203270D01*
Y598253D01*
X202760D01*
Y598762D01*
X202251D01*
Y599272D01*
X201741D01*
Y599781D01*
X201232D01*
Y600291D01*
X200723D01*
Y600800D01*
X199704D01*
Y601819D01*
X199194D01*
Y602328D01*
X198685D01*
Y602838D01*
X198175D01*
Y603857D01*
X197666D01*
Y604366D01*
X197156D01*
Y604876D01*
X196647D01*
Y605385D01*
X196138D01*
Y605895D01*
X195628D01*
Y606404D01*
X195119D01*
Y606913D01*
X194609D01*
Y607423D01*
X194100D01*
Y607932D01*
X193590D01*
Y608442D01*
X193081D01*
Y608951D01*
X192571D01*
Y609461D01*
X192062D01*
Y610480D01*
X191553D01*
Y610989D01*
X191043D01*
Y611498D01*
X190534D01*
Y612008D01*
X190024D01*
Y612517D01*
X189515D01*
Y613536D01*
X189005D01*
Y614046D01*
X188496D01*
Y615065D01*
X187986D01*
Y615574D01*
X187477D01*
Y616083D01*
X186968D01*
Y616593D01*
X186458D01*
Y617102D01*
X185949D01*
Y618121D01*
X185439D01*
Y618631D01*
X184930D01*
Y619650D01*
X184420D01*
Y620159D01*
X183911D01*
Y620668D01*
X183402D01*
Y621178D01*
X182892D01*
Y622197D01*
X182383D01*
Y622706D01*
X181873D01*
Y623725D01*
X181364D01*
Y624744D01*
X180854D01*
Y625253D01*
X180345D01*
Y625763D01*
X179835D01*
Y626782D01*
X179326D01*
Y627291D01*
X178817D01*
Y627800D01*
X178307D01*
Y628310D01*
X177798D01*
Y629329D01*
X177288D01*
Y629838D01*
X176779D01*
Y630857D01*
X176269D01*
Y631367D01*
X175760D01*
Y632385D01*
X175250D01*
Y632895D01*
X174741D01*
Y633404D01*
X174231D01*
Y634423D01*
X173722D01*
Y635442D01*
X173213D01*
Y635952D01*
X172703D01*
Y636970D01*
X172194D01*
Y637989D01*
X171684D01*
Y638499D01*
X171175D01*
Y639518D01*
X170665D01*
Y640537D01*
X170156D01*
Y641046D01*
X169646D01*
Y641555D01*
X169137D01*
Y642574D01*
X168628D01*
Y643593D01*
X168118D01*
Y644103D01*
X167609D01*
Y645122D01*
X167099D01*
Y646140D01*
X166590D01*
Y646650D01*
X166080D01*
Y647669D01*
X165571D01*
Y648178D01*
X165061D01*
Y648688D01*
X164552D01*
Y649706D01*
X164043D01*
Y650216D01*
X163533D01*
Y650725D01*
X163024D01*
Y651744D01*
X162514D01*
Y652254D01*
X162005D01*
Y653273D01*
X161495D01*
Y653782D01*
X160986D01*
Y654801D01*
X160477D01*
Y655820D01*
X159967D01*
Y656329D01*
X159458D01*
Y656839D01*
X158948D01*
Y657858D01*
X158439D01*
Y658876D01*
X157929D01*
Y659895D01*
X157420D01*
Y660914D01*
X156910D01*
Y661933D01*
X156401D01*
Y662952D01*
X155892D01*
Y663461D01*
X155382D01*
Y664480D01*
X154873D01*
Y665499D01*
X154363D01*
Y666009D01*
X153854D01*
Y667028D01*
X153344D01*
Y668046D01*
X152835D01*
Y669065D01*
X152325D01*
Y670084D01*
X151816D01*
Y671103D01*
X151307D01*
Y671612D01*
X150797D01*
Y672631D01*
X150288D01*
Y673650D01*
X149778D01*
Y674160D01*
X149269D01*
Y675179D01*
X148759D01*
Y676198D01*
X148250D01*
Y677216D01*
X147740D01*
Y677726D01*
X147231D01*
Y678745D01*
X146722D01*
Y679764D01*
X146212D01*
Y680782D01*
X145703D01*
Y681292D01*
X145193D01*
Y682311D01*
X144684D01*
Y683330D01*
X144174D01*
Y683839D01*
X143665D01*
Y684858D01*
X143156D01*
Y685367D01*
X142646D01*
Y686386D01*
X142137D01*
Y687405D01*
X141627D01*
Y687915D01*
X141118D01*
Y688933D01*
X140608D01*
Y689952D01*
X140099D01*
Y690971D01*
X139590D01*
Y691481D01*
X139080D01*
Y691990D01*
X138571D01*
Y693519D01*
X138061D01*
Y694028D01*
X137552D01*
Y694537D01*
X135514D01*
Y695047D01*
X134495D01*
Y695556D01*
X133476D01*
Y696066D01*
X132457D01*
Y696575D01*
X131948D01*
Y697085D01*
X130929D01*
Y697594D01*
X130420D01*
Y698103D01*
X129910D01*
Y698613D01*
X129401D01*
Y699122D01*
X128891D01*
Y699632D01*
X128382D01*
Y700141D01*
X127872D01*
Y700651D01*
X127363D01*
Y701670D01*
X126344D01*
Y702179D01*
X125835D01*
Y702689D01*
X124306D01*
Y702179D01*
X123797D01*
Y701670D01*
X123287D01*
Y701160D01*
X122778D01*
Y700651D01*
X122268D01*
Y700141D01*
X121250D01*
Y699632D01*
X120740D01*
Y699122D01*
X120231D01*
Y698613D01*
X116665D01*
Y699122D01*
X115646D01*
Y699632D01*
X115136D01*
Y700141D01*
X114627D01*
Y700651D01*
X114117D01*
Y701160D01*
X113608D01*
Y701670D01*
X113098D01*
Y702689D01*
X112080D01*
Y703707D01*
X111570D01*
Y704217D01*
X111061D01*
Y704726D01*
X110551D01*
Y705236D01*
X110042D01*
Y706255D01*
X109532D01*
Y706764D01*
X109023D01*
Y707273D01*
X108513D01*
Y707783D01*
X108004D01*
Y708292D01*
X107495D01*
Y708802D01*
X106985D01*
Y709821D01*
X106476D01*
Y710330D01*
X105966D01*
Y710839D01*
X105457D01*
Y711858D01*
X104947D01*
Y712877D01*
X104438D01*
Y715424D01*
X103928D01*
Y716443D01*
X101891D01*
Y716953D01*
X99853D01*
Y717462D01*
X98325D01*
Y717972D01*
X97306D01*
Y718481D01*
X95778D01*
Y718991D01*
X94759D01*
Y719500D01*
X94249D01*
Y720010D01*
X93740D01*
Y720519D01*
X93230D01*
Y721028D01*
X92721D01*
Y721538D01*
X92211D01*
Y722047D01*
X91702D01*
Y722557D01*
X91193D01*
Y723066D01*
X90683D01*
Y723576D01*
X90174D01*
Y724085D01*
X89664D01*
Y724594D01*
X89155D01*
Y725104D01*
X88645D01*
Y725613D01*
X88136D01*
Y726123D01*
X87626D01*
Y726632D01*
X87117D01*
Y727142D01*
X86608D01*
Y727651D01*
X86098D01*
Y728670D01*
X85589D01*
Y729179D01*
X85079D01*
Y729689D01*
X84570D01*
Y730198D01*
X84060D01*
Y730708D01*
X83551D01*
Y731217D01*
X83041D01*
Y731727D01*
X82532D01*
Y733255D01*
X82022D01*
Y734274D01*
X82532D01*
Y737330D01*
X83041D01*
Y741406D01*
X82532D01*
Y742425D01*
X82022D01*
Y743444D01*
X81513D01*
Y753633D01*
X82022D01*
Y754651D01*
X82532D01*
Y755161D01*
X83041D01*
Y755670D01*
X83551D01*
Y756689D01*
X84060D01*
Y757199D01*
X84570D01*
Y757708D01*
X85079D01*
Y758218D01*
X85589D01*
Y758727D01*
X86098D01*
Y759237D01*
X86608D01*
Y759746D01*
X87117D01*
Y760255D01*
X87626D01*
Y760765D01*
X88136D01*
Y761274D01*
X88645D01*
Y761784D01*
X89155D01*
Y762293D01*
X90174D01*
Y762803D01*
X90683D01*
Y763312D01*
X91193D01*
Y763821D01*
X91702D01*
Y764331D01*
X92721D01*
Y765350D01*
X93230D01*
Y765859D01*
X94249D01*
Y766369D01*
X94759D01*
Y766878D01*
X95268D01*
Y767388D01*
X95778D01*
Y767897D01*
X96796D01*
Y768407D01*
X97306D01*
Y768916D01*
X97815D01*
Y769425D01*
X98325D01*
Y769935D01*
X99344D01*
Y770444D01*
X100362D01*
Y770954D01*
X101381D01*
Y771463D01*
X102400D01*
Y771973D01*
X102910D01*
Y772482D01*
X103419D01*
Y772991D01*
X103928D01*
Y774010D01*
X104438D01*
Y774520D01*
X104947D01*
Y775029D01*
X105457D01*
Y775539D01*
X105966D01*
Y776557D01*
X106476D01*
Y777067D01*
X106985D01*
Y777576D01*
X107495D01*
Y778086D01*
X108004D01*
Y778595D01*
X108513D01*
Y779105D01*
X109023D01*
Y779614D01*
X109532D01*
Y780124D01*
X110042D01*
Y780633D01*
X110551D01*
Y781143D01*
X111061D01*
Y781652D01*
X111570D01*
Y782161D01*
X112080D01*
Y782671D01*
X113098D01*
Y783180D01*
X113608D01*
Y783690D01*
X114627D01*
Y784199D01*
X115136D01*
Y784709D01*
X116155D01*
Y785218D01*
X117174D01*
Y785727D01*
X118702D01*
Y786237D01*
X120231D01*
Y786746D01*
X121250D01*
Y787256D01*
X122778D01*
Y787765D01*
X123797D01*
Y788275D01*
X124816D01*
Y788784D01*
X126344D01*
Y789294D01*
X128382D01*
Y788784D01*
X129401D01*
Y788275D01*
X130420D01*
Y787765D01*
X131438D01*
Y787256D01*
X132967D01*
Y786746D01*
X133986D01*
Y786237D01*
X135514D01*
Y785727D01*
X136533D01*
Y785218D01*
X137552D01*
Y784709D01*
X138571D01*
Y784199D01*
X139590D01*
Y783690D01*
X140608D01*
Y783180D01*
X141627D01*
Y782671D01*
X142646D01*
Y782161D01*
X143665D01*
Y781652D01*
X144684D01*
Y781143D01*
X145703D01*
Y780633D01*
X146722D01*
Y780124D01*
X147231D01*
Y779614D01*
X147740D01*
Y779105D01*
X148759D01*
Y778595D01*
X149269D01*
Y778086D01*
X149778D01*
Y777576D01*
X150288D01*
Y777067D01*
X150797D01*
Y776557D01*
X151816D01*
Y776048D01*
X153344D01*
Y776557D01*
X154363D01*
Y777067D01*
X154873D01*
Y777576D01*
X155892D01*
Y778086D01*
X156910D01*
Y778595D01*
X157929D01*
Y779105D01*
X158948D01*
Y779614D01*
X159967D01*
Y780124D01*
X160986D01*
Y780633D01*
X163533D01*
Y781143D01*
X167609D01*
Y780633D01*
X169137D01*
Y780124D01*
X171175D01*
Y779614D01*
X172703D01*
Y779105D01*
X173722D01*
Y778595D01*
X174741D01*
Y778086D01*
X176269D01*
Y777576D01*
X177288D01*
Y777067D01*
X177798D01*
Y776557D01*
X178817D01*
Y776048D01*
X179326D01*
Y775539D01*
X180345D01*
Y775029D01*
X180854D01*
Y774520D01*
X181873D01*
Y774010D01*
X182383D01*
Y773501D01*
X183402D01*
Y772991D01*
X183911D01*
Y772482D01*
X184930D01*
Y771973D01*
X185439D01*
Y771463D01*
X185949D01*
Y771973D01*
X187477D01*
Y772482D01*
X196647D01*
Y772991D01*
X200213D01*
Y773501D01*
X202251D01*
Y774010D01*
X206326D01*
Y774520D01*
X208364D01*
Y775029D01*
X208874D01*
Y775539D01*
X213968D01*
Y776048D01*
X216515D01*
Y776557D01*
X217534D01*
Y777067D01*
X219572D01*
Y777576D01*
X222119D01*
Y778086D01*
X223138D01*
Y778595D01*
X225176D01*
Y779105D01*
X229761D01*
Y779614D01*
X232817D01*
Y780124D01*
X241987D01*
Y782161D01*
X241478D01*
Y782671D01*
X241987D01*
Y783180D01*
X242497D01*
Y782671D01*
X243006D01*
Y781652D01*
X243516D01*
Y780633D01*
X244025D01*
Y780124D01*
X250138D01*
Y779614D01*
X252176D01*
Y779105D01*
X254214D01*
Y778595D01*
X255742D01*
Y778086D01*
X257780D01*
Y777576D01*
X259308D01*
Y777067D01*
X260837D01*
Y776557D01*
X263384D01*
Y776048D01*
X264912D01*
Y775539D01*
X265931D01*
Y775029D01*
X266950D01*
Y774520D01*
X267969D01*
Y774010D01*
X268988D01*
Y773501D01*
X270007D01*
Y772482D01*
X271025D01*
Y772991D01*
X271535D01*
Y773501D01*
X272044D01*
Y774010D01*
X272554D01*
Y774520D01*
X273063D01*
Y775029D01*
X273573D01*
Y775539D01*
X274592D01*
Y776048D01*
X275101D01*
Y777067D01*
X275610D01*
Y780124D01*
X275101D01*
Y795916D01*
X274592D01*
Y796935D01*
X275101D01*
Y809162D01*
X274592D01*
Y819860D01*
X274082D01*
Y828521D01*
X273573D01*
Y833615D01*
X273063D01*
Y837181D01*
X272554D01*
Y840238D01*
X272044D01*
Y842785D01*
X271535D01*
Y845332D01*
X271025D01*
Y847370D01*
X270516D01*
Y849408D01*
X270007D01*
Y851445D01*
X269497D01*
Y853993D01*
X268988D01*
Y856540D01*
X268478D01*
Y858578D01*
X267969D01*
Y861125D01*
X267459D01*
Y863163D01*
X266950D01*
Y864691D01*
X266441D01*
Y866729D01*
X265931D01*
Y868766D01*
X265422D01*
Y870804D01*
X264912D01*
Y872333D01*
X264403D01*
Y874370D01*
X263893D01*
Y877427D01*
X263384D01*
Y879974D01*
X262874D01*
Y886087D01*
X262365D01*
Y895257D01*
X262874D01*
Y897295D01*
X263893D01*
Y898824D01*
X265422D01*
Y899333D01*
X265931D01*
Y899842D01*
X266950D01*
Y900352D01*
X267969D01*
Y900861D01*
X268988D01*
Y901371D01*
X269497D01*
Y901880D01*
X270516D01*
Y902390D01*
X271025D01*
Y902899D01*
X272044D01*
Y903409D01*
X273063D01*
Y903918D01*
X274082D01*
Y904427D01*
X275101D01*
Y904937D01*
X275610D01*
Y905446D01*
X276120D01*
Y905956D01*
X277139D01*
Y906465D01*
X278158D01*
Y906975D01*
X279177D01*
Y907484D01*
X279686D01*
Y907993D01*
X280705D01*
Y908503D01*
X281724D01*
Y909012D01*
X282743D01*
Y909522D01*
X283252D01*
Y910031D01*
X284780D01*
Y910541D01*
X285290D01*
Y911050D01*
X286309D01*
Y911560D01*
X287328D01*
Y912069D01*
X288347D01*
Y912579D01*
X289875D01*
Y913088D01*
X290894D01*
Y913597D01*
X291913D01*
Y914107D01*
X292931D01*
Y914616D01*
X294460D01*
Y915126D01*
X295479D01*
Y915635D01*
X296498D01*
Y916145D01*
X298026D01*
Y916654D01*
X299554D01*
Y917163D01*
X300573D01*
Y917673D01*
X301592D01*
Y918182D01*
X303120D01*
Y918692D01*
X304649D01*
Y919201D01*
X305667D01*
Y919711D01*
X306686D01*
Y920220D01*
X307705D01*
Y920730D01*
X309234D01*
Y921239D01*
X310252D01*
Y921748D01*
X311271D01*
Y922258D01*
X312800D01*
Y922767D01*
X314328D01*
Y923277D01*
X315856D01*
Y923786D01*
X316875D01*
Y924296D01*
X318913D01*
Y924805D01*
X319932D01*
Y925314D01*
X321460D01*
Y925824D01*
X322989D01*
Y926333D01*
X325026D01*
Y926843D01*
X326555D01*
Y927352D01*
X328083D01*
Y927862D01*
X329611D01*
Y928371D01*
X332159D01*
Y928881D01*
X333687D01*
Y929390D01*
X336234D01*
Y929900D01*
X344385D01*
Y929390D01*
D02*
G37*
G36*
X360687Y538648D02*
Y538139D01*
X360178D01*
Y539158D01*
X360687D01*
Y538648D01*
D02*
G37*
G36*
X359159Y534063D02*
Y533554D01*
Y532535D01*
X358649D01*
Y533554D01*
X358140D01*
Y534063D01*
X358649D01*
Y535082D01*
X359159D01*
Y534063D01*
D02*
G37*
G36*
X360178Y537120D02*
X360687D01*
Y534573D01*
X361197D01*
Y531007D01*
X362215D01*
Y532025D01*
X362725D01*
Y532535D01*
X363234D01*
Y531516D01*
X362725D01*
Y531007D01*
Y530497D01*
X362215D01*
Y528969D01*
X361706D01*
Y528459D01*
X360687D01*
Y529478D01*
X360178D01*
Y530497D01*
X360687D01*
Y533044D01*
X360178D01*
Y535592D01*
X359159D01*
Y537120D01*
X359668D01*
Y537629D01*
X360178D01*
Y537120D01*
D02*
G37*
G36*
X279686Y456119D02*
X279177D01*
Y456628D01*
X279686D01*
Y456119D01*
D02*
G37*
G36*
X283762Y452043D02*
X283252D01*
Y452552D01*
X283762D01*
Y452043D01*
D02*
G37*
G36*
X411631Y447968D02*
X410612D01*
Y448477D01*
X411631D01*
Y447968D01*
D02*
G37*
G36*
X410103Y447458D02*
X409594D01*
Y447968D01*
X410103D01*
Y447458D01*
D02*
G37*
G36*
X353555Y447968D02*
X354574D01*
Y447458D01*
X355083D01*
Y446949D01*
X356102D01*
Y446439D01*
X356612D01*
Y445930D01*
X356102D01*
Y446439D01*
X355083D01*
Y446949D01*
X354574D01*
Y447458D01*
X353555D01*
Y447968D01*
X353046D01*
Y448477D01*
X353555D01*
Y447968D01*
D02*
G37*
G36*
X392782Y447458D02*
X393801D01*
Y446949D01*
X394310D01*
Y445930D01*
X394820D01*
Y444911D01*
X394310D01*
Y445420D01*
X393801D01*
Y445930D01*
X393292D01*
Y446439D01*
X392782D01*
Y446949D01*
X390744D01*
Y447458D01*
X391763D01*
Y447968D01*
X392782D01*
Y447458D01*
D02*
G37*
G36*
X337762Y456119D02*
X338781D01*
Y455609D01*
X339800D01*
Y455100D01*
X340309D01*
Y454590D01*
X341838D01*
Y454081D01*
X342347D01*
Y453571D01*
X343366D01*
Y453062D01*
X344385D01*
Y452552D01*
X344894D01*
Y452043D01*
X345913D01*
Y451534D01*
X346423D01*
Y451024D01*
X346932D01*
Y450515D01*
X347951D01*
Y450005D01*
X348461D01*
Y449496D01*
X349479D01*
Y448987D01*
X350498D01*
Y448477D01*
X351008D01*
Y447968D01*
X352027D01*
Y447458D01*
X353046D01*
Y446949D01*
X354064D01*
Y446439D01*
X354574D01*
Y445930D01*
X355083D01*
Y445420D01*
X356102D01*
Y444911D01*
X357121D01*
Y444402D01*
X357631D01*
Y443892D01*
X358649D01*
Y443383D01*
X359668D01*
Y442873D01*
X360687D01*
Y441854D01*
X359159D01*
Y442364D01*
X358140D01*
Y442873D01*
X357631D01*
Y443383D01*
X356612D01*
Y443892D01*
X355593D01*
Y444402D01*
X354574D01*
Y444911D01*
X354064D01*
Y445420D01*
X353555D01*
Y445930D01*
X352536D01*
Y446439D01*
X351517D01*
Y446949D01*
X350498D01*
Y447458D01*
X349989D01*
Y447968D01*
X348970D01*
Y448477D01*
X348461D01*
Y448987D01*
X347442D01*
Y449496D01*
X346423D01*
Y450005D01*
X345913D01*
Y450515D01*
X344894D01*
Y451024D01*
X344385D01*
Y451534D01*
X343366D01*
Y452043D01*
X342857D01*
Y452552D01*
X341328D01*
Y453062D01*
X340819D01*
Y453571D01*
X339291D01*
Y454081D01*
X338781D01*
Y454590D01*
X338272D01*
Y455100D01*
X337762D01*
Y455609D01*
X337253D01*
Y456119D01*
X336743D01*
Y456628D01*
X337762D01*
Y456119D01*
D02*
G37*
G36*
X408065Y446439D02*
X407046D01*
Y445930D01*
X406537D01*
Y445420D01*
X405518D01*
Y444911D01*
X404499D01*
Y444402D01*
X403990D01*
Y443892D01*
X402971D01*
Y442873D01*
X401952D01*
Y442364D01*
X401443D01*
Y441854D01*
X400424D01*
Y441345D01*
X399405D01*
Y440835D01*
X398386D01*
Y440326D01*
X396348D01*
Y441854D01*
X396858D01*
Y442873D01*
X397367D01*
Y443383D01*
X398386D01*
Y443892D01*
X399914D01*
Y444402D01*
X401443D01*
Y444911D01*
X402971D01*
Y445420D01*
X404499D01*
Y445930D01*
X405518D01*
Y446439D01*
X406537D01*
Y446949D01*
X408065D01*
Y446439D01*
D02*
G37*
G36*
X440160D02*
X440670D01*
Y445930D01*
X441179D01*
Y443892D01*
X440670D01*
Y441345D01*
X440160D01*
Y435741D01*
X439651D01*
Y432684D01*
X440160D01*
Y432175D01*
X439651D01*
Y431665D01*
X440160D01*
Y431156D01*
X439651D01*
Y430647D01*
X440160D01*
Y430137D01*
X439651D01*
Y429118D01*
X439141D01*
Y428609D01*
X438122D01*
Y429118D01*
X437104D01*
Y429628D01*
X436594D01*
Y430137D01*
X436085D01*
Y430647D01*
X435066D01*
Y431156D01*
X434047D01*
Y431665D01*
X433028D01*
Y432175D01*
X432519D01*
Y432684D01*
X432009D01*
Y433194D01*
X431500D01*
Y433703D01*
X430990D01*
Y434213D01*
X429971D01*
Y434722D01*
X428443D01*
Y435232D01*
X422839D01*
Y434722D01*
X421820D01*
Y434213D01*
X420292D01*
Y433703D01*
X418764D01*
Y433194D01*
X417745D01*
Y432684D01*
X416216D01*
Y432175D01*
X414179D01*
Y431665D01*
X411631D01*
Y431156D01*
X409594D01*
Y431665D01*
X410612D01*
Y432175D01*
X412141D01*
Y432684D01*
X412650D01*
Y433194D01*
X413669D01*
Y433703D01*
X414688D01*
Y434213D01*
X415707D01*
Y434722D01*
X416726D01*
Y435232D01*
X417745D01*
Y435741D01*
X418764D01*
Y436250D01*
X419782D01*
Y436760D01*
X420801D01*
Y437269D01*
X421820D01*
Y437779D01*
X422839D01*
Y438288D01*
X423858D01*
Y438798D01*
X424877D01*
Y439307D01*
X425896D01*
Y439817D01*
X426915D01*
Y440326D01*
X427934D01*
Y440835D01*
X428952D01*
Y441345D01*
X429971D01*
Y441854D01*
X430990D01*
Y442364D01*
X432009D01*
Y442873D01*
X432519D01*
Y443383D01*
X434047D01*
Y443892D01*
X435066D01*
Y444402D01*
X435575D01*
Y444911D01*
X436594D01*
Y445420D01*
X437104D01*
Y445930D01*
X438122D01*
Y446439D01*
X439141D01*
Y446949D01*
X440160D01*
Y446439D01*
D02*
G37*
G36*
X401952Y427590D02*
X400933D01*
Y428099D01*
X401952D01*
Y427590D01*
D02*
G37*
G36*
X365272D02*
X364763D01*
Y428099D01*
X365272D01*
Y427590D01*
D02*
G37*
G36*
X400933Y427080D02*
X399914D01*
Y427590D01*
X400933D01*
Y427080D01*
D02*
G37*
G36*
X435575Y447968D02*
X435066D01*
Y447458D01*
X434556D01*
Y446949D01*
X433537D01*
Y446439D01*
X432519D01*
Y445420D01*
X432009D01*
Y444911D01*
X430990D01*
Y444402D01*
X429971D01*
Y443892D01*
X428952D01*
Y443383D01*
X428443D01*
Y442873D01*
X427424D01*
Y442364D01*
X425896D01*
Y441854D01*
X424877D01*
Y441345D01*
X423349D01*
Y440835D01*
X422330D01*
Y440326D01*
X421311D01*
Y439817D01*
X420292D01*
Y439307D01*
X419273D01*
Y438798D01*
X417745D01*
Y438288D01*
X416726D01*
Y437779D01*
X415197D01*
Y437269D01*
X414688D01*
Y436760D01*
X413160D01*
Y436250D01*
X412141D01*
Y435741D01*
X410612D01*
Y435232D01*
X409594D01*
Y434722D01*
X408575D01*
Y434213D01*
X407556D01*
Y433703D01*
X406027D01*
Y433194D01*
X405009D01*
Y432684D01*
X403480D01*
Y432175D01*
X401952D01*
Y431665D01*
X400933D01*
Y431156D01*
X399405D01*
Y430647D01*
X397877D01*
Y430137D01*
X396348D01*
Y429628D01*
X395329D01*
Y429118D01*
X393801D01*
Y428609D01*
X392273D01*
Y428099D01*
X390744D01*
Y427590D01*
X389216D01*
Y427080D01*
X387178D01*
Y426571D01*
X385650D01*
Y426062D01*
X384122D01*
Y425552D01*
X381065D01*
Y425043D01*
X379537D01*
Y424533D01*
X376989D01*
Y424024D01*
X374952D01*
Y423514D01*
X371895D01*
Y423005D01*
X370876D01*
Y423514D01*
X370367D01*
Y424024D01*
X371385D01*
Y424533D01*
X373933D01*
Y425043D01*
X376480D01*
Y425552D01*
X379027D01*
Y426062D01*
X381065D01*
Y426571D01*
X383103D01*
Y427080D01*
X385140D01*
Y427590D01*
X386669D01*
Y428099D01*
X387688D01*
Y428609D01*
X389725D01*
Y429118D01*
X391254D01*
Y429628D01*
X392273D01*
Y430137D01*
X393292D01*
Y430647D01*
X394820D01*
Y431156D01*
X395839D01*
Y431665D01*
X396348D01*
Y432175D01*
X397367D01*
Y432684D01*
X398386D01*
Y433194D01*
X399405D01*
Y433703D01*
X400933D01*
Y434213D01*
X401443D01*
Y434722D01*
X402462D01*
Y435232D01*
X403990D01*
Y435741D01*
X405518D01*
Y436250D01*
X406537D01*
Y436760D01*
X407556D01*
Y437269D01*
X408575D01*
Y437779D01*
X409594D01*
Y438288D01*
X411122D01*
Y438798D01*
X412141D01*
Y439307D01*
X413669D01*
Y439817D01*
X414688D01*
Y440326D01*
X416216D01*
Y440835D01*
X417745D01*
Y441345D01*
X419273D01*
Y441854D01*
X420801D01*
Y442364D01*
X421820D01*
Y442873D01*
X422839D01*
Y443383D01*
X423858D01*
Y443892D01*
X424877D01*
Y444402D01*
X425896D01*
Y444911D01*
X427424D01*
Y445420D01*
X428443D01*
Y445930D01*
X429462D01*
Y446439D01*
X429971D01*
Y446949D01*
X431500D01*
Y447458D01*
X433028D01*
Y447968D01*
X434047D01*
Y448477D01*
X435575D01*
Y447968D01*
D02*
G37*
G36*
X417745Y419948D02*
X417235D01*
Y420458D01*
X417745D01*
Y419948D01*
D02*
G37*
G36*
X316366Y436250D02*
X316875D01*
Y435741D01*
X317894D01*
Y435232D01*
X319422D01*
Y434722D01*
X319932D01*
Y434213D01*
X320951D01*
Y433703D01*
X321460D01*
Y433194D01*
X322479D01*
Y432684D01*
X323498D01*
Y432175D01*
X325026D01*
Y431665D01*
X325536D01*
Y431156D01*
X326555D01*
Y430647D01*
X328083D01*
Y430137D01*
X329611D01*
Y429628D01*
X331140D01*
Y429118D01*
X332668D01*
Y428609D01*
X333687D01*
Y428099D01*
X335215D01*
Y427590D01*
X336743D01*
Y427080D01*
X338272D01*
Y426571D01*
X339800D01*
Y426062D01*
X341328D01*
Y425552D01*
X343366D01*
Y425043D01*
X344385D01*
Y424533D01*
X345913D01*
Y424024D01*
X347442D01*
Y423514D01*
X349479D01*
Y423005D01*
X351008D01*
Y422495D01*
X352536D01*
Y421986D01*
X355083D01*
Y421477D01*
X357631D01*
Y420967D01*
X360687D01*
Y419439D01*
X359159D01*
Y419948D01*
X356612D01*
Y420458D01*
X354574D01*
Y420967D01*
X352536D01*
Y421477D01*
X350498D01*
Y421986D01*
X348461D01*
Y422495D01*
X347442D01*
Y423005D01*
X345404D01*
Y423514D01*
X344385D01*
Y424024D01*
X342347D01*
Y424533D01*
X340819D01*
Y425043D01*
X339291D01*
Y425552D01*
X337762D01*
Y426062D01*
X336234D01*
Y426571D01*
X334706D01*
Y427080D01*
X333687D01*
Y427590D01*
X332159D01*
Y428099D01*
X330630D01*
Y428609D01*
X329102D01*
Y429118D01*
X327574D01*
Y429628D01*
X326555D01*
Y430137D01*
X325026D01*
Y430647D01*
X324007D01*
Y431156D01*
X322989D01*
Y431665D01*
X321970D01*
Y432175D01*
X320951D01*
Y432684D01*
X320441D01*
Y433194D01*
X319932D01*
Y433703D01*
X318913D01*
Y434213D01*
X317385D01*
Y434722D01*
X316366D01*
Y435232D01*
X315347D01*
Y435741D01*
X314837D01*
Y436760D01*
X316366D01*
Y436250D01*
D02*
G37*
G36*
X316875Y416382D02*
X316366D01*
Y416892D01*
X316875D01*
Y416382D01*
D02*
G37*
G36*
X284780Y451534D02*
X285290D01*
Y451024D01*
X286309D01*
Y450515D01*
X286818D01*
Y450005D01*
X287328D01*
Y449496D01*
X287837D01*
Y448477D01*
X288856D01*
Y447968D01*
X289365D01*
Y447458D01*
X289875D01*
Y446949D01*
X290384D01*
Y446439D01*
X291403D01*
Y445930D01*
X292422D01*
Y445420D01*
X292931D01*
Y444911D01*
X293950D01*
Y444402D01*
X294460D01*
Y443892D01*
X295479D01*
Y443383D01*
X295988D01*
Y442873D01*
X297007D01*
Y442364D01*
X297516D01*
Y441854D01*
X298535D01*
Y441345D01*
X299045D01*
Y440835D01*
X300064D01*
Y440326D01*
X300573D01*
Y439817D01*
X301592D01*
Y439307D01*
X302101D01*
Y438798D01*
X302611D01*
Y438288D01*
X303120D01*
Y437779D01*
X303630D01*
Y437269D01*
X304649D01*
Y436760D01*
X305158D01*
Y436250D01*
X306177D01*
Y435741D01*
X307196D01*
Y435232D01*
X308215D01*
Y434722D01*
X308724D01*
Y434213D01*
X309743D01*
Y433703D01*
X310762D01*
Y433194D01*
X311781D01*
Y432684D01*
X312290D01*
Y432175D01*
X313309D01*
Y431665D01*
X314328D01*
Y431156D01*
X315347D01*
Y430647D01*
X316366D01*
Y430137D01*
X317385D01*
Y429628D01*
X318913D01*
Y429118D01*
X319932D01*
Y428609D01*
X320441D01*
Y428099D01*
X321460D01*
Y427590D01*
X322479D01*
Y427080D01*
X323498D01*
Y426571D01*
X325026D01*
Y426062D01*
X326555D01*
Y425552D01*
X328592D01*
Y425043D01*
X330630D01*
Y424533D01*
X331649D01*
Y424024D01*
X332668D01*
Y423514D01*
X333687D01*
Y423005D01*
X334706D01*
Y422495D01*
X337253D01*
Y421986D01*
X338781D01*
Y421477D01*
X340309D01*
Y420967D01*
X341838D01*
Y420458D01*
X343366D01*
Y419948D01*
X344894D01*
Y419439D01*
X346423D01*
Y418929D01*
X347951D01*
Y418420D01*
X349989D01*
Y417910D01*
X352536D01*
Y417401D01*
X355083D01*
Y416892D01*
X357631D01*
Y416382D01*
X364763D01*
Y416892D01*
X365272D01*
Y418420D01*
X365782D01*
Y420967D01*
X365272D01*
Y421477D01*
X364763D01*
Y421986D01*
X364253D01*
Y423514D01*
X363744D01*
Y425043D01*
X364253D01*
Y426571D01*
X364763D01*
Y424533D01*
Y424024D01*
X364253D01*
Y423514D01*
X364763D01*
Y422495D01*
X365782D01*
Y421986D01*
X366291D01*
Y421477D01*
X366800D01*
Y420967D01*
X367310D01*
Y420458D01*
X366800D01*
Y417910D01*
X366291D01*
Y416892D01*
X369857D01*
Y417401D01*
X372404D01*
Y417910D01*
X374442D01*
Y418420D01*
X376480D01*
Y418929D01*
X378008D01*
Y419439D01*
X380046D01*
Y419948D01*
X382084D01*
Y420458D01*
X383612D01*
Y420967D01*
X385140D01*
Y421477D01*
X386669D01*
Y421986D01*
X388197D01*
Y422495D01*
X389725D01*
Y423005D01*
X390744D01*
Y423514D01*
X392273D01*
Y424024D01*
X393292D01*
Y424533D01*
X394820D01*
Y425043D01*
X395839D01*
Y425552D01*
X397367D01*
Y426062D01*
X397877D01*
Y426571D01*
X398895D01*
Y427080D01*
X399914D01*
Y426571D01*
X399405D01*
Y426062D01*
X398386D01*
Y425552D01*
X397877D01*
Y425043D01*
X397367D01*
Y424533D01*
X396348D01*
Y424024D01*
X395839D01*
Y423514D01*
X394820D01*
Y423005D01*
X393801D01*
Y422495D01*
X392782D01*
Y421986D01*
X391763D01*
Y421477D01*
X390744D01*
Y420967D01*
X389725D01*
Y420458D01*
X389216D01*
Y419948D01*
X387688D01*
Y419439D01*
X386159D01*
Y418929D01*
X385650D01*
Y418420D01*
X384631D01*
Y417910D01*
X383612D01*
Y417401D01*
X382084D01*
Y416892D01*
X381065D01*
Y416382D01*
X380046D01*
Y415873D01*
X379537D01*
Y415363D01*
X378008D01*
Y414854D01*
X376989D01*
Y414344D01*
X375970D01*
Y413835D01*
X374442D01*
Y413326D01*
X373423D01*
Y412816D01*
X372404D01*
Y412307D01*
X370876D01*
Y411797D01*
X369857D01*
Y411288D01*
X366800D01*
Y410778D01*
X364763D01*
Y408741D01*
X364253D01*
Y407212D01*
X363744D01*
Y406193D01*
X363234D01*
Y408741D01*
X363744D01*
Y410269D01*
X359668D01*
Y410778D01*
X355083D01*
Y411288D01*
X352536D01*
Y411797D01*
X350498D01*
Y412307D01*
X348461D01*
Y412816D01*
X346932D01*
Y413326D01*
X344894D01*
Y413835D01*
X343366D01*
Y414344D01*
X342347D01*
Y414854D01*
X340819D01*
Y415363D01*
X339291D01*
Y415873D01*
X338272D01*
Y416382D01*
X336743D01*
Y416892D01*
X335725D01*
Y417401D01*
X334196D01*
Y417910D01*
X333687D01*
Y418420D01*
X332159D01*
Y418929D01*
X331140D01*
Y419439D01*
X329611D01*
Y419948D01*
X329102D01*
Y420458D01*
X327574D01*
Y420967D01*
X327064D01*
Y421477D01*
X326045D01*
Y421986D01*
X325026D01*
Y422495D01*
X324007D01*
Y423005D01*
X323498D01*
Y423514D01*
X321970D01*
Y424024D01*
X321460D01*
Y424533D01*
X320441D01*
Y425043D01*
X319932D01*
Y425552D01*
X318913D01*
Y426062D01*
X317894D01*
Y426571D01*
X317385D01*
Y427080D01*
X316366D01*
Y427590D01*
X315347D01*
Y428099D01*
X314328D01*
Y428609D01*
X313309D01*
Y429118D01*
X312800D01*
Y429628D01*
X312290D01*
Y430137D01*
X311781D01*
Y430647D01*
X310762D01*
Y431156D01*
X310252D01*
Y431665D01*
X309743D01*
Y432175D01*
X308724D01*
Y432684D01*
X308215D01*
Y433194D01*
X307196D01*
Y433703D01*
X306686D01*
Y434213D01*
X305667D01*
Y434722D01*
X304649D01*
Y435232D01*
X303630D01*
Y435741D01*
X303120D01*
Y436250D01*
X302611D01*
Y436760D01*
X301592D01*
Y437779D01*
X300573D01*
Y438288D01*
X300064D01*
Y438798D01*
X299554D01*
Y439307D01*
X298535D01*
Y439817D01*
X298026D01*
Y440326D01*
X297007D01*
Y440835D01*
X296498D01*
Y441345D01*
X295479D01*
Y441854D01*
X294969D01*
Y442364D01*
X294460D01*
Y442873D01*
X293950D01*
Y443383D01*
X293441D01*
Y443892D01*
X292422D01*
Y444402D01*
X291403D01*
Y445420D01*
X290384D01*
Y445930D01*
X289875D01*
Y446439D01*
X289365D01*
Y446949D01*
X288856D01*
Y447458D01*
X288347D01*
Y447968D01*
X287837D01*
Y448477D01*
X287328D01*
Y448987D01*
X286818D01*
Y449496D01*
X286309D01*
Y450005D01*
X285799D01*
Y450515D01*
X285290D01*
Y451024D01*
X284780D01*
Y451534D01*
X284271D01*
Y452043D01*
X284780D01*
Y451534D01*
D02*
G37*
G36*
X418254Y428099D02*
X417745D01*
Y427590D01*
X416726D01*
Y427080D01*
X415707D01*
Y426062D01*
X414688D01*
Y425552D01*
X413669D01*
Y425043D01*
X413160D01*
Y424533D01*
X412650D01*
Y424024D01*
X411631D01*
Y423514D01*
X411122D01*
Y423005D01*
X410103D01*
Y422495D01*
X409594D01*
Y421986D01*
X408575D01*
Y421477D01*
X408065D01*
Y420967D01*
X407046D01*
Y420458D01*
X406537D01*
Y419948D01*
X405518D01*
Y419439D01*
X404499D01*
Y418929D01*
X403990D01*
Y418420D01*
X402971D01*
Y417910D01*
X401443D01*
Y417401D01*
X400933D01*
Y416892D01*
X399914D01*
Y416382D01*
X399405D01*
Y415873D01*
X398386D01*
Y415363D01*
X397367D01*
Y414854D01*
X396858D01*
Y414344D01*
X396348D01*
Y413835D01*
X395839D01*
Y413326D01*
X395329D01*
Y412816D01*
X394820D01*
Y412307D01*
X393801D01*
Y411797D01*
X393292D01*
Y411288D01*
X392273D01*
Y410778D01*
X391763D01*
Y410269D01*
X391254D01*
Y409250D01*
X390235D01*
Y408741D01*
X389725D01*
Y408231D01*
X389216D01*
Y407722D01*
X388707D01*
Y407212D01*
X388197D01*
Y406193D01*
X386159D01*
Y405684D01*
X374952D01*
Y406703D01*
X376989D01*
Y407212D01*
X378008D01*
Y407722D01*
X379537D01*
Y408231D01*
X380555D01*
Y408741D01*
X381574D01*
Y409250D01*
X383103D01*
Y409759D01*
X383612D01*
Y410269D01*
X385140D01*
Y410778D01*
X386159D01*
Y411288D01*
X387688D01*
Y411797D01*
X388197D01*
Y412307D01*
X389216D01*
Y412816D01*
X390235D01*
Y413326D01*
X391254D01*
Y413835D01*
X392273D01*
Y414344D01*
X393292D01*
Y414854D01*
X394310D01*
Y415363D01*
X395329D01*
Y415873D01*
X396348D01*
Y416382D01*
X397367D01*
Y416892D01*
X398386D01*
Y417401D01*
X398895D01*
Y417910D01*
X399914D01*
Y418420D01*
X400933D01*
Y418929D01*
X401952D01*
Y419439D01*
X402971D01*
Y419948D01*
X403990D01*
Y420458D01*
X405009D01*
Y420967D01*
X405518D01*
Y421477D01*
X406537D01*
Y421986D01*
X407556D01*
Y422495D01*
X408065D01*
Y423005D01*
X409084D01*
Y423514D01*
X410103D01*
Y424024D01*
X410612D01*
Y424533D01*
X411631D01*
Y425043D01*
X412141D01*
Y425552D01*
X412650D01*
Y426062D01*
X413669D01*
Y426571D01*
X414179D01*
Y427080D01*
X415197D01*
Y427590D01*
X416216D01*
Y428099D01*
X416726D01*
Y428609D01*
X417235D01*
Y429118D01*
X418254D01*
Y428099D01*
D02*
G37*
%LPC*%
G36*
X291403Y875899D02*
X290894D01*
Y869785D01*
X290384D01*
Y870295D01*
X289875D01*
Y870804D01*
X289365D01*
Y871823D01*
X288856D01*
Y871314D01*
X288347D01*
Y870295D01*
X287837D01*
Y868766D01*
X287328D01*
Y866729D01*
X286818D01*
Y864691D01*
X286309D01*
Y861125D01*
X286818D01*
Y860615D01*
X287328D01*
Y859597D01*
X287837D01*
Y859087D01*
X288347D01*
Y858578D01*
X288856D01*
Y857559D01*
X289365D01*
Y857049D01*
X289875D01*
Y856540D01*
X290384D01*
Y856030D01*
X290894D01*
Y855521D01*
X291403D01*
Y854502D01*
X291913D01*
Y853993D01*
X292422D01*
Y853483D01*
X292931D01*
Y852974D01*
X293441D01*
Y852464D01*
X293950D01*
Y851955D01*
X294460D01*
Y851445D01*
X294969D01*
Y850936D01*
X295479D01*
Y850427D01*
X295988D01*
Y849917D01*
X296498D01*
Y849408D01*
X297007D01*
Y848898D01*
X297516D01*
Y848389D01*
X298535D01*
Y847879D01*
X299045D01*
Y846861D01*
X299554D01*
Y845332D01*
X300064D01*
Y843294D01*
X300573D01*
Y842275D01*
X301082D01*
Y837691D01*
X301592D01*
Y836672D01*
X302101D01*
Y835143D01*
X302611D01*
Y834124D01*
X301592D01*
Y834634D01*
X300573D01*
Y833106D01*
X299554D01*
Y832087D01*
X301082D01*
Y831577D01*
X300573D01*
Y831068D01*
X300064D01*
Y831577D01*
X297516D01*
Y832087D01*
X294460D01*
Y832596D01*
X293441D01*
Y833106D01*
X292931D01*
Y833615D01*
X292422D01*
Y834124D01*
X291913D01*
Y834634D01*
X291403D01*
Y835143D01*
X292422D01*
Y834634D01*
X293441D01*
Y834124D01*
X294460D01*
Y833615D01*
X295479D01*
Y834634D01*
X294969D01*
Y836162D01*
X294460D01*
Y839219D01*
X293950D01*
Y839728D01*
X295988D01*
Y840238D01*
X296498D01*
Y842275D01*
X295988D01*
Y842785D01*
X293950D01*
Y843294D01*
X293441D01*
Y844313D01*
X291913D01*
Y844823D01*
X290894D01*
Y844313D01*
X289875D01*
Y843804D01*
X289365D01*
Y843294D01*
X288856D01*
Y842785D01*
X288347D01*
Y842275D01*
X287328D01*
Y843294D01*
X286818D01*
Y844313D01*
X286309D01*
Y844823D01*
X285799D01*
Y845842D01*
X285290D01*
Y846861D01*
X284780D01*
Y847370D01*
X284271D01*
Y845842D01*
X284780D01*
Y843294D01*
X285290D01*
Y839219D01*
X285799D01*
Y823936D01*
X286309D01*
Y822917D01*
X286818D01*
Y821898D01*
X287328D01*
Y821388D01*
X287837D01*
Y820369D01*
X288347D01*
Y819860D01*
X288856D01*
Y818841D01*
X289365D01*
Y818332D01*
X289875D01*
Y817822D01*
X290384D01*
Y816803D01*
X289875D01*
Y817313D01*
X289365D01*
Y817822D01*
X288856D01*
Y818332D01*
X288347D01*
Y818841D01*
X287837D01*
Y819351D01*
X287328D01*
Y820369D01*
X286818D01*
Y820879D01*
X286309D01*
Y820369D01*
X285799D01*
Y819351D01*
X286309D01*
Y813747D01*
X286818D01*
Y811709D01*
X287328D01*
Y810181D01*
X287837D01*
Y809162D01*
X288347D01*
Y807634D01*
X288856D01*
Y806105D01*
X289365D01*
Y805086D01*
X289875D01*
Y804067D01*
X290384D01*
Y803048D01*
X290894D01*
Y802030D01*
X291403D01*
Y801520D01*
X291913D01*
Y802030D01*
X297007D01*
Y802539D01*
X299045D01*
Y803048D01*
X298535D01*
Y803558D01*
X298026D01*
Y804067D01*
X299554D01*
Y803558D01*
X300064D01*
Y803048D01*
X300573D01*
Y802539D01*
X301592D01*
Y802030D01*
X303120D01*
Y801520D01*
X307705D01*
Y801011D01*
X308724D01*
Y800501D01*
X310252D01*
Y799992D01*
X311781D01*
Y799482D01*
X312800D01*
Y798973D01*
X313819D01*
Y798464D01*
X315856D01*
Y797954D01*
X317894D01*
Y797445D01*
X324007D01*
Y796426D01*
X322989D01*
Y795916D01*
X321970D01*
Y795407D01*
X320441D01*
Y794897D01*
X318913D01*
Y793878D01*
X319422D01*
Y793369D01*
X319932D01*
Y792350D01*
X320441D01*
Y791841D01*
X320951D01*
Y791331D01*
X321460D01*
Y790822D01*
X321970D01*
Y790312D01*
X322479D01*
Y789803D01*
X322989D01*
Y789294D01*
X323498D01*
Y788784D01*
X324007D01*
Y788275D01*
X324517D01*
Y787765D01*
X325026D01*
Y787256D01*
X325536D01*
Y786746D01*
X326045D01*
Y786237D01*
X326555D01*
Y785727D01*
X327064D01*
Y785218D01*
X327574D01*
Y784709D01*
X328083D01*
Y783690D01*
X329102D01*
Y783180D01*
X329611D01*
Y782161D01*
X330630D01*
Y781143D01*
X331649D01*
Y780633D01*
X332159D01*
Y781143D01*
X333687D01*
Y781652D01*
X335215D01*
Y782161D01*
X336743D01*
Y782671D01*
X337762D01*
Y783180D01*
X339291D01*
Y783690D01*
X340309D01*
Y784199D01*
X340819D01*
Y785727D01*
X341328D01*
Y786746D01*
X341838D01*
Y787765D01*
X342347D01*
Y789294D01*
X342857D01*
Y790312D01*
X343366D01*
Y791841D01*
X343876D01*
Y792860D01*
X344385D01*
Y793878D01*
X344894D01*
Y795407D01*
X345404D01*
Y796935D01*
X345913D01*
Y798464D01*
X346423D01*
Y799482D01*
X346932D01*
Y801011D01*
X347442D01*
Y802030D01*
X347951D01*
Y803048D01*
X348461D01*
Y804577D01*
X348970D01*
Y805596D01*
X349479D01*
Y807124D01*
X349989D01*
Y808143D01*
X350498D01*
Y809162D01*
X351008D01*
Y810181D01*
X350498D01*
Y809671D01*
X349989D01*
Y809162D01*
X349479D01*
Y808652D01*
X348970D01*
Y808143D01*
X348461D01*
Y807634D01*
X347951D01*
Y807124D01*
X347442D01*
Y806615D01*
X346932D01*
Y806105D01*
X346423D01*
Y805596D01*
X345913D01*
Y805086D01*
X345404D01*
Y804577D01*
X344894D01*
Y804067D01*
X344385D01*
Y803558D01*
X343876D01*
Y803048D01*
X342857D01*
Y802539D01*
X342347D01*
Y802030D01*
X341838D01*
Y801520D01*
X341328D01*
Y801011D01*
X340309D01*
Y800501D01*
X339800D01*
Y799992D01*
X338781D01*
Y799482D01*
X337762D01*
Y798973D01*
X336743D01*
Y798464D01*
X336234D01*
Y797954D01*
X335215D01*
Y797445D01*
X334196D01*
Y796935D01*
X333177D01*
Y796426D01*
X332159D01*
Y795916D01*
X331140D01*
Y795407D01*
X330121D01*
Y794897D01*
X328083D01*
Y795407D01*
X329102D01*
Y795916D01*
X330630D01*
Y796426D01*
X331649D01*
Y796935D01*
X332668D01*
Y797445D01*
X333177D01*
Y797954D01*
X334196D01*
Y798464D01*
X335215D01*
Y798973D01*
X336234D01*
Y799482D01*
X336743D01*
Y799992D01*
X337253D01*
Y800501D01*
X338272D01*
Y801011D01*
X338781D01*
Y801520D01*
X339291D01*
Y802030D01*
X339800D01*
Y802539D01*
X340309D01*
Y803048D01*
X340819D01*
Y803558D01*
X341328D01*
Y804067D01*
X341838D01*
Y804577D01*
X342347D01*
Y805086D01*
X342857D01*
Y805596D01*
X343366D01*
Y806105D01*
X343876D01*
Y806615D01*
X344385D01*
Y807634D01*
X344894D01*
Y808143D01*
X345404D01*
Y808652D01*
X345913D01*
Y809671D01*
X346423D01*
Y810181D01*
X346932D01*
Y811200D01*
X347442D01*
Y811709D01*
X347951D01*
Y812728D01*
X348461D01*
Y813747D01*
X348970D01*
Y814256D01*
X349479D01*
Y814766D01*
X349989D01*
Y815785D01*
X350498D01*
Y817313D01*
X351008D01*
Y817822D01*
X351517D01*
Y818841D01*
X352027D01*
Y819860D01*
X352536D01*
Y821388D01*
X353046D01*
Y822407D01*
X353555D01*
Y823426D01*
X354064D01*
Y824955D01*
X354574D01*
Y825973D01*
X355083D01*
Y827502D01*
X355593D01*
Y829030D01*
X356102D01*
Y831577D01*
X356612D01*
Y833615D01*
X357121D01*
Y835653D01*
X357631D01*
Y838200D01*
X358140D01*
Y840238D01*
X358649D01*
Y842275D01*
X359159D01*
Y845842D01*
X359668D01*
Y850427D01*
X358649D01*
Y850936D01*
X354064D01*
Y851445D01*
X356612D01*
Y851955D01*
X358649D01*
Y852464D01*
X359159D01*
Y852974D01*
X349989D01*
Y853483D01*
X347951D01*
Y853993D01*
X348970D01*
Y854502D01*
X350498D01*
Y855012D01*
X351008D01*
Y855521D01*
X352027D01*
Y856030D01*
X353046D01*
Y856540D01*
X353555D01*
Y857049D01*
X352536D01*
Y856540D01*
X351008D01*
Y856030D01*
X349989D01*
Y855521D01*
X347442D01*
Y856030D01*
X348461D01*
Y856540D01*
X350498D01*
Y857049D01*
X351517D01*
Y857559D01*
X352536D01*
Y858068D01*
X351008D01*
Y857559D01*
X349479D01*
Y857049D01*
X346932D01*
Y856540D01*
X342347D01*
Y856030D01*
X339291D01*
Y856540D01*
X340309D01*
Y857049D01*
X341838D01*
Y857559D01*
X342857D01*
Y858068D01*
X343366D01*
Y858578D01*
X344385D01*
Y859087D01*
X345404D01*
Y859597D01*
X346423D01*
Y860106D01*
X344894D01*
Y859597D01*
X343366D01*
Y859087D01*
X341328D01*
Y858578D01*
X338272D01*
Y858068D01*
X336743D01*
Y857559D01*
X335215D01*
Y857049D01*
X333177D01*
Y856540D01*
X331140D01*
Y856030D01*
X329611D01*
Y855521D01*
X328083D01*
Y855012D01*
X326045D01*
Y855521D01*
X327064D01*
Y856030D01*
X328083D01*
Y856540D01*
X329102D01*
Y857049D01*
X330121D01*
Y857559D01*
X331140D01*
Y858068D01*
X332159D01*
Y858578D01*
X333687D01*
Y859087D01*
X334706D01*
Y859597D01*
X335725D01*
Y860106D01*
X336743D01*
Y861125D01*
X336234D01*
Y860615D01*
X334706D01*
Y860106D01*
X333177D01*
Y859597D01*
X330630D01*
Y859087D01*
X328083D01*
Y858578D01*
X327064D01*
Y858068D01*
X326045D01*
Y857559D01*
X325026D01*
Y857049D01*
X324007D01*
Y856540D01*
X323498D01*
Y857049D01*
X324007D01*
Y858068D01*
X323498D01*
Y857559D01*
X322479D01*
Y857049D01*
X321970D01*
Y856540D01*
X320951D01*
Y856030D01*
X319932D01*
Y856540D01*
X320441D01*
Y857049D01*
X320951D01*
Y857559D01*
X321970D01*
Y858068D01*
X322479D01*
Y858578D01*
X320441D01*
Y858068D01*
X319422D01*
Y857559D01*
X318913D01*
Y857049D01*
X317894D01*
Y856540D01*
X316875D01*
Y856030D01*
X316366D01*
Y855521D01*
X315856D01*
Y855012D01*
X314837D01*
Y854502D01*
X314328D01*
Y853993D01*
X313309D01*
Y854502D01*
X313819D01*
Y855012D01*
X314328D01*
Y855521D01*
X314837D01*
Y856030D01*
X315347D01*
Y856540D01*
X315856D01*
Y857049D01*
X316366D01*
Y857559D01*
X316875D01*
Y858068D01*
X317385D01*
Y859087D01*
X317894D01*
Y859597D01*
X318404D01*
Y860615D01*
X317894D01*
Y860106D01*
X317385D01*
Y859597D01*
X316875D01*
Y859087D01*
X316366D01*
Y858578D01*
X315856D01*
Y858068D01*
X315347D01*
Y857559D01*
X314328D01*
Y857049D01*
X313819D01*
Y856540D01*
X313309D01*
Y856030D01*
X312290D01*
Y855521D01*
X311781D01*
Y855012D01*
X311271D01*
Y853993D01*
X310762D01*
Y853483D01*
X309743D01*
Y853993D01*
X310252D01*
Y854502D01*
X310762D01*
Y855521D01*
X311271D01*
Y856030D01*
X311781D01*
Y856540D01*
X312290D01*
Y857559D01*
X312800D01*
Y858068D01*
X313309D01*
Y858578D01*
X313819D01*
Y859597D01*
X314328D01*
Y860106D01*
X314837D01*
Y861125D01*
X315347D01*
Y861634D01*
X315856D01*
Y862653D01*
X316366D01*
Y863163D01*
X316875D01*
Y863672D01*
X317385D01*
Y864691D01*
X317894D01*
Y865200D01*
X318404D01*
Y866219D01*
X318913D01*
Y866729D01*
X319422D01*
Y867238D01*
X319932D01*
Y867748D01*
X320441D01*
Y868257D01*
X320951D01*
Y869276D01*
X321460D01*
Y869785D01*
X321970D01*
Y870295D01*
X320951D01*
Y869785D01*
X320441D01*
Y869276D01*
X319932D01*
Y868766D01*
X319422D01*
Y868257D01*
X318913D01*
Y867748D01*
X318404D01*
Y867238D01*
X317385D01*
Y866729D01*
X316875D01*
Y866219D01*
X316366D01*
Y865710D01*
X315856D01*
Y865200D01*
X315347D01*
Y864691D01*
X314837D01*
Y864182D01*
X314328D01*
Y863672D01*
X313819D01*
Y863163D01*
X313309D01*
Y862653D01*
X312800D01*
Y862144D01*
X312290D01*
Y861634D01*
X311781D01*
Y860615D01*
X311271D01*
Y860106D01*
X310762D01*
Y859597D01*
X310252D01*
Y858578D01*
X309743D01*
Y858068D01*
X309234D01*
Y857049D01*
X308724D01*
Y856540D01*
X308215D01*
Y855521D01*
X307705D01*
Y855012D01*
X307196D01*
Y854502D01*
X306686D01*
Y855521D01*
X307196D01*
Y856540D01*
X307705D01*
Y858068D01*
X308215D01*
Y859087D01*
X308724D01*
Y860106D01*
X308215D01*
Y859597D01*
X307705D01*
Y858578D01*
X307196D01*
Y857559D01*
X306686D01*
Y856540D01*
X306177D01*
Y855521D01*
X305667D01*
Y854502D01*
X304649D01*
Y857049D01*
X304139D01*
Y861634D01*
X304649D01*
Y863672D01*
X303630D01*
Y857559D01*
X302611D01*
Y859597D01*
X302101D01*
Y861634D01*
X301592D01*
Y864691D01*
X301082D01*
Y866729D01*
X300573D01*
Y862144D01*
X300064D01*
Y859597D01*
X300573D01*
Y859087D01*
X299554D01*
Y860615D01*
X299045D01*
Y861634D01*
X298535D01*
Y863672D01*
X298026D01*
Y865710D01*
X297516D01*
Y866729D01*
X297007D01*
Y862653D01*
X296498D01*
Y866219D01*
X295988D01*
Y867748D01*
X295479D01*
Y870804D01*
X294969D01*
Y873352D01*
X294460D01*
Y872842D01*
X293950D01*
Y869276D01*
X293441D01*
Y868257D01*
X292931D01*
Y869276D01*
X292422D01*
Y870804D01*
X291913D01*
Y873861D01*
X291403D01*
Y875899D01*
D02*
G37*
G36*
X317385Y904427D02*
X311271D01*
Y903918D01*
X309234D01*
Y903409D01*
X307705D01*
Y902899D01*
X306686D01*
Y902390D01*
X306177D01*
Y901880D01*
X305158D01*
Y901371D01*
X304649D01*
Y900861D01*
X304139D01*
Y900352D01*
X303120D01*
Y899842D01*
X302611D01*
Y899333D01*
X302101D01*
Y898824D01*
X301082D01*
Y898314D01*
X300573D01*
Y897805D01*
X299554D01*
Y897295D01*
X299045D01*
Y896786D01*
X298535D01*
Y896276D01*
X298026D01*
Y895767D01*
X297516D01*
Y895257D01*
X297007D01*
Y894748D01*
X296498D01*
Y894239D01*
X295988D01*
Y893729D01*
X295479D01*
Y893220D01*
X294969D01*
Y892710D01*
X294460D01*
Y892201D01*
X293950D01*
Y891691D01*
X295479D01*
Y892201D01*
X299045D01*
Y892710D01*
X304139D01*
Y892201D01*
X307705D01*
Y891691D01*
X310762D01*
Y891182D01*
X313309D01*
Y890673D01*
X314837D01*
Y890163D01*
X316366D01*
Y889654D01*
X317894D01*
Y889144D01*
X319422D01*
Y888635D01*
X320441D01*
Y888125D01*
X321970D01*
Y887616D01*
X322989D01*
Y887106D01*
X324517D01*
Y886597D01*
X325536D01*
Y886087D01*
X327064D01*
Y885578D01*
X328083D01*
Y885069D01*
X329102D01*
Y884559D01*
X330121D01*
Y884050D01*
X331649D01*
Y883540D01*
X332668D01*
Y883031D01*
X333687D01*
Y882521D01*
X334706D01*
Y882012D01*
X335725D01*
Y881503D01*
X336743D01*
Y880993D01*
X337762D01*
Y880484D01*
X338272D01*
Y879974D01*
X339291D01*
Y879465D01*
X340309D01*
Y878955D01*
X341838D01*
Y878446D01*
X342347D01*
Y877936D01*
X343366D01*
Y877427D01*
X344385D01*
Y876918D01*
X344894D01*
Y876408D01*
X345913D01*
Y875899D01*
X346932D01*
Y875389D01*
X347442D01*
Y874880D01*
X348461D01*
Y873861D01*
X349479D01*
Y873352D01*
X349989D01*
Y872842D01*
X351008D01*
Y872333D01*
X351517D01*
Y871823D01*
X352536D01*
Y871314D01*
X353046D01*
Y870804D01*
X353555D01*
Y870295D01*
X354574D01*
Y869785D01*
X355083D01*
Y869276D01*
X355593D01*
Y868766D01*
X356612D01*
Y867748D01*
X357631D01*
Y867238D01*
X358649D01*
Y867748D01*
X358140D01*
Y871314D01*
X357631D01*
Y873861D01*
X357121D01*
Y874880D01*
X356612D01*
Y876918D01*
X356102D01*
Y878446D01*
X355593D01*
Y879974D01*
X355083D01*
Y880993D01*
X354574D01*
Y882521D01*
X354064D01*
Y883031D01*
X353555D01*
Y884559D01*
X353046D01*
Y885578D01*
X352536D01*
Y886597D01*
X352027D01*
Y887106D01*
X351517D01*
Y887616D01*
X351008D01*
Y888125D01*
X350498D01*
Y888635D01*
X349989D01*
Y889144D01*
X349479D01*
Y889654D01*
X348970D01*
Y890163D01*
X347951D01*
Y890673D01*
X347442D01*
Y891182D01*
X346932D01*
Y891691D01*
X346423D01*
Y892201D01*
X345404D01*
Y892710D01*
X344894D01*
Y893220D01*
X344385D01*
Y893729D01*
X343366D01*
Y894239D01*
X342347D01*
Y894748D01*
X341838D01*
Y895257D01*
X340819D01*
Y895767D01*
X340309D01*
Y896276D01*
X339291D01*
Y896786D01*
X338272D01*
Y897295D01*
X337762D01*
Y897805D01*
X336743D01*
Y898314D01*
X335725D01*
Y898824D01*
X334706D01*
Y899333D01*
X333687D01*
Y899842D01*
X332668D01*
Y900352D01*
X331649D01*
Y900861D01*
X330121D01*
Y901371D01*
X328592D01*
Y901880D01*
X327064D01*
Y902390D01*
X325536D01*
Y902899D01*
X323498D01*
Y903409D01*
X320951D01*
Y903918D01*
X317385D01*
Y904427D01*
D02*
G37*
G36*
X285799Y860106D02*
X285290D01*
Y858068D01*
X284780D01*
Y855521D01*
X284271D01*
Y851445D01*
X283762D01*
Y849917D01*
X284271D01*
Y849408D01*
X284780D01*
Y848898D01*
X285290D01*
Y847879D01*
X285799D01*
Y847370D01*
X286309D01*
Y846861D01*
X286818D01*
Y846351D01*
X287328D01*
Y845842D01*
X288347D01*
Y846351D01*
X289365D01*
Y846861D01*
X290384D01*
Y847370D01*
X291913D01*
Y847879D01*
X290384D01*
Y848898D01*
X292422D01*
Y848389D01*
X293441D01*
Y848898D01*
X292931D01*
Y849408D01*
X292422D01*
Y850427D01*
X291913D01*
Y850936D01*
X291403D01*
Y851445D01*
X290894D01*
Y852464D01*
X290384D01*
Y853483D01*
X289875D01*
Y853993D01*
X289365D01*
Y855012D01*
X288856D01*
Y855521D01*
X288347D01*
Y856540D01*
X287837D01*
Y857559D01*
X287328D01*
Y858068D01*
X286818D01*
Y858578D01*
X286309D01*
Y859597D01*
X285799D01*
Y860106D01*
D02*
G37*
G36*
X298026Y835143D02*
X297516D01*
Y834634D01*
X298026D01*
Y835143D01*
D02*
G37*
G36*
X306686Y798973D02*
X305158D01*
Y797954D01*
X305667D01*
Y797445D01*
X308215D01*
Y796935D01*
X309743D01*
Y797954D01*
X308724D01*
Y798464D01*
X306686D01*
Y798973D01*
D02*
G37*
G36*
X304139Y797445D02*
X303630D01*
Y796935D01*
X304139D01*
Y797445D01*
D02*
G37*
G36*
X312800Y794897D02*
X312290D01*
Y794388D01*
X312800D01*
Y794897D01*
D02*
G37*
G36*
X312290Y794388D02*
X311781D01*
Y793878D01*
X312290D01*
Y794388D01*
D02*
G37*
G36*
X306177Y795916D02*
X305158D01*
Y794897D01*
X305667D01*
Y793878D01*
X309743D01*
Y793369D01*
X310762D01*
Y793878D01*
X311271D01*
Y794897D01*
X310252D01*
Y794388D01*
X309234D01*
Y795407D01*
X308215D01*
Y794897D01*
X307705D01*
Y795407D01*
X306177D01*
Y795916D01*
D02*
G37*
G36*
X301592Y798973D02*
X299554D01*
Y798464D01*
X295479D01*
Y797954D01*
X293950D01*
Y796426D01*
X294460D01*
Y795916D01*
X294969D01*
Y795407D01*
X295479D01*
Y794897D01*
X295988D01*
Y793878D01*
X296498D01*
Y793369D01*
X297007D01*
Y792350D01*
X297516D01*
Y791331D01*
X297007D01*
Y791841D01*
Y792350D01*
X296498D01*
Y792860D01*
X295988D01*
Y793369D01*
X295479D01*
Y794388D01*
X293441D01*
Y793878D01*
X292931D01*
Y793369D01*
X292422D01*
Y792860D01*
X291403D01*
Y791841D01*
X290894D01*
Y791331D01*
X290384D01*
Y790312D01*
X289875D01*
Y789803D01*
X289365D01*
Y788784D01*
X290894D01*
Y789294D01*
X292422D01*
Y789803D01*
X294460D01*
Y790312D01*
X297516D01*
Y791331D01*
X298026D01*
Y790312D01*
X298535D01*
Y789803D01*
X299045D01*
Y788784D01*
X299554D01*
Y787765D01*
X300064D01*
Y786746D01*
X300573D01*
Y786237D01*
X301082D01*
Y785218D01*
X301592D01*
Y784199D01*
X302101D01*
Y783690D01*
X302611D01*
Y782671D01*
X303120D01*
Y782161D01*
X303630D01*
Y781143D01*
X304139D01*
Y780124D01*
X304649D01*
Y779614D01*
X305158D01*
Y779105D01*
X305667D01*
Y778086D01*
X306686D01*
Y777576D01*
X307705D01*
Y777067D01*
X315856D01*
Y777576D01*
X320441D01*
Y778086D01*
X322479D01*
Y778595D01*
X324517D01*
Y779105D01*
X326555D01*
Y780633D01*
X326045D01*
Y781143D01*
X325536D01*
Y781652D01*
X325026D01*
Y782161D01*
X324517D01*
Y783180D01*
X324007D01*
Y783690D01*
X323498D01*
Y784199D01*
X322989D01*
Y784709D01*
X322479D01*
Y785218D01*
X321970D01*
Y785727D01*
X321460D01*
Y786237D01*
X320951D01*
Y787256D01*
X320441D01*
Y787765D01*
X319932D01*
Y788784D01*
X319422D01*
Y789294D01*
X318913D01*
Y789803D01*
X318404D01*
Y790312D01*
X317894D01*
Y790822D01*
X317385D01*
Y791331D01*
X316875D01*
Y791841D01*
X316366D01*
Y792350D01*
X315856D01*
Y792860D01*
X311781D01*
Y792350D01*
X309743D01*
Y792860D01*
X305667D01*
Y793369D01*
X304649D01*
Y793878D01*
X304139D01*
Y794388D01*
X303630D01*
Y794897D01*
X303120D01*
Y795916D01*
X302611D01*
Y797445D01*
X302101D01*
Y798464D01*
X301592D01*
Y798973D01*
D02*
G37*
G36*
X120231Y784199D02*
X119721D01*
Y783690D01*
X120231D01*
Y784199D01*
D02*
G37*
G36*
X338781Y782161D02*
X338272D01*
Y781652D01*
X337762D01*
Y781143D01*
X336234D01*
Y780633D01*
X334706D01*
Y780124D01*
X332668D01*
Y779614D01*
X333177D01*
Y779105D01*
X333687D01*
Y778595D01*
X334196D01*
Y778086D01*
X334706D01*
Y777576D01*
X335215D01*
Y777067D01*
X335725D01*
Y776048D01*
X336234D01*
Y776557D01*
X336743D01*
Y777067D01*
X337253D01*
Y778086D01*
X337762D01*
Y779105D01*
X338272D01*
Y780124D01*
X338781D01*
Y782161D01*
D02*
G37*
G36*
X327064Y778595D02*
X326555D01*
Y778086D01*
X325536D01*
Y777576D01*
X322989D01*
Y777067D01*
X321460D01*
Y776557D01*
X318404D01*
Y776048D01*
X307196D01*
Y776557D01*
X306686D01*
Y776048D01*
X306177D01*
Y775029D01*
X305667D01*
Y774520D01*
X305158D01*
Y774010D01*
X304649D01*
Y772991D01*
X303630D01*
Y771973D01*
X303120D01*
Y771463D01*
X302101D01*
Y770954D01*
X301082D01*
Y770444D01*
X300064D01*
Y769935D01*
X299554D01*
Y769425D01*
X299045D01*
Y768407D01*
X298535D01*
Y766878D01*
X298026D01*
Y761274D01*
X298535D01*
Y759746D01*
X299045D01*
Y759237D01*
X299554D01*
Y758727D01*
X300573D01*
Y758218D01*
X301592D01*
Y757708D01*
X302101D01*
Y757199D01*
X303120D01*
Y756689D01*
X304139D01*
Y756180D01*
X304649D01*
Y755670D01*
X305667D01*
Y755161D01*
X306686D01*
Y754651D01*
X307196D01*
Y754142D01*
X308215D01*
Y753633D01*
X309234D01*
Y753123D01*
X310252D01*
Y752614D01*
X311271D01*
Y752104D01*
X312800D01*
Y751595D01*
X313819D01*
Y751085D01*
X315347D01*
Y750576D01*
X317385D01*
Y750067D01*
X318913D01*
Y749557D01*
X319932D01*
Y749048D01*
X321970D01*
Y748538D01*
X323498D01*
Y748029D01*
X324517D01*
Y747519D01*
X325536D01*
Y747010D01*
X327064D01*
Y746500D01*
X328083D01*
Y745991D01*
X329102D01*
Y745482D01*
X329611D01*
Y744972D01*
X328083D01*
Y745482D01*
X327064D01*
Y745991D01*
X326045D01*
Y746500D01*
X325026D01*
Y747010D01*
X323498D01*
Y747519D01*
X321970D01*
Y748029D01*
X319932D01*
Y748538D01*
X318404D01*
Y749048D01*
X316366D01*
Y749557D01*
X314837D01*
Y750067D01*
X313309D01*
Y750576D01*
X312290D01*
Y751085D01*
X310762D01*
Y751595D01*
X309743D01*
Y752104D01*
X308724D01*
Y752614D01*
X307705D01*
Y753123D01*
X307196D01*
Y753633D01*
X306177D01*
Y754142D01*
X305158D01*
Y754651D01*
X304649D01*
Y755161D01*
X303630D01*
Y755670D01*
X302611D01*
Y756180D01*
X301592D01*
Y756689D01*
X301082D01*
Y757199D01*
X300064D01*
Y757708D01*
X299045D01*
Y758218D01*
X298026D01*
Y758727D01*
X297007D01*
Y758218D01*
X297516D01*
Y755161D01*
X298026D01*
Y753633D01*
X298535D01*
Y751595D01*
X299045D01*
Y750576D01*
X299554D01*
Y748538D01*
X300064D01*
Y745482D01*
X300573D01*
Y743953D01*
X300064D01*
Y744463D01*
X299554D01*
Y747010D01*
X299045D01*
Y748029D01*
X298535D01*
Y749557D01*
X298026D01*
Y751085D01*
X297516D01*
Y752614D01*
X297007D01*
Y754142D01*
X296498D01*
Y755670D01*
X295988D01*
Y753633D01*
X296498D01*
Y751595D01*
X297007D01*
Y748538D01*
X297516D01*
Y748029D01*
X296498D01*
Y749048D01*
X295988D01*
Y750576D01*
X295479D01*
Y753123D01*
X294969D01*
Y759237D01*
X295479D01*
Y759746D01*
Y762293D01*
X295988D01*
Y764840D01*
X295479D01*
Y763821D01*
X294969D01*
Y762293D01*
X294460D01*
Y758218D01*
X293950D01*
Y754651D01*
X294460D01*
Y749048D01*
X294969D01*
Y744463D01*
X295479D01*
Y742934D01*
X295988D01*
Y740897D01*
X295479D01*
Y741916D01*
X294969D01*
Y743444D01*
X294460D01*
Y744972D01*
X293950D01*
Y747010D01*
X293441D01*
Y749048D01*
X292931D01*
Y751595D01*
X292422D01*
Y763312D01*
X292931D01*
Y764840D01*
X293441D01*
Y765350D01*
X293950D01*
Y766369D01*
X294460D01*
Y767388D01*
X294969D01*
Y768407D01*
X295479D01*
Y769425D01*
X295988D01*
Y769935D01*
X296498D01*
Y770954D01*
X297007D01*
Y774010D01*
X295479D01*
Y773501D01*
X294460D01*
Y772991D01*
X293950D01*
Y772482D01*
X293441D01*
Y771973D01*
X292931D01*
Y771463D01*
X292422D01*
Y769935D01*
X291913D01*
Y768916D01*
X291403D01*
Y767388D01*
X290894D01*
Y764840D01*
X290384D01*
Y767897D01*
X289875D01*
Y769935D01*
X289365D01*
Y770444D01*
X288856D01*
Y770954D01*
X288347D01*
Y771463D01*
X287837D01*
Y771973D01*
X287328D01*
Y772991D01*
X286818D01*
Y773501D01*
X286309D01*
Y774010D01*
X285799D01*
Y775029D01*
X285290D01*
Y776048D01*
X284780D01*
Y776557D01*
X284271D01*
Y778086D01*
X283762D01*
Y778595D01*
X283252D01*
Y778086D01*
X282743D01*
Y777067D01*
X282233D01*
Y775539D01*
X281724D01*
Y774520D01*
X281214D01*
Y774010D01*
X280705D01*
Y771973D01*
X280195D01*
Y770954D01*
X279686D01*
Y769935D01*
X279177D01*
Y768407D01*
X278667D01*
Y766878D01*
X278158D01*
Y765350D01*
X277648D01*
Y762803D01*
X277139D01*
Y762293D01*
X276120D01*
Y760765D01*
X275610D01*
Y760255D01*
X275101D01*
Y761784D01*
X274592D01*
Y762803D01*
X274082D01*
Y764331D01*
X273573D01*
Y765859D01*
X273063D01*
Y767388D01*
X272554D01*
Y769425D01*
X272044D01*
Y770954D01*
X271535D01*
Y771463D01*
X270516D01*
Y770954D01*
X270007D01*
Y770444D01*
X269497D01*
Y769935D01*
X268988D01*
Y769425D01*
X268478D01*
Y768916D01*
X267969D01*
Y768407D01*
X266950D01*
Y767897D01*
X266441D01*
Y767388D01*
X265931D01*
Y766878D01*
X265422D01*
Y766369D01*
X264912D01*
Y765859D01*
X263893D01*
Y765350D01*
X263384D01*
Y764840D01*
X262874D01*
Y764331D01*
X262365D01*
Y763821D01*
X261346D01*
Y763312D01*
X260327D01*
Y762803D01*
X259818D01*
Y762293D01*
X260327D01*
Y761784D01*
X260837D01*
Y761274D01*
X261346D01*
Y760765D01*
X261856D01*
Y760255D01*
X262365D01*
Y759746D01*
X262874D01*
Y759237D01*
X263384D01*
Y758727D01*
X263893D01*
Y758218D01*
X264403D01*
Y757708D01*
X264912D01*
Y757199D01*
X265422D01*
Y756689D01*
X265931D01*
Y756180D01*
X266950D01*
Y755670D01*
X267459D01*
Y755161D01*
X267969D01*
Y754651D01*
X268478D01*
Y754142D01*
X268988D01*
Y753633D01*
X269497D01*
Y753123D01*
X270007D01*
Y752614D01*
X271025D01*
Y752104D01*
X271535D01*
Y751595D01*
X272044D01*
Y751085D01*
X272554D01*
Y750576D01*
X273063D01*
Y750067D01*
X273573D01*
Y749557D01*
X274592D01*
Y749048D01*
X275101D01*
Y748538D01*
X275610D01*
Y748029D01*
X276120D01*
Y747519D01*
X276629D01*
Y747010D01*
X277139D01*
Y746500D01*
X277648D01*
Y745991D01*
X278158D01*
Y745482D01*
X279177D01*
Y744972D01*
X279686D01*
Y744463D01*
X280195D01*
Y743953D01*
X281214D01*
Y743444D01*
X281724D01*
Y742934D01*
X282743D01*
Y742425D01*
X283252D01*
Y741916D01*
X284271D01*
Y741406D01*
X284780D01*
Y740897D01*
X285290D01*
Y740387D01*
X286309D01*
Y739878D01*
X286818D01*
Y739368D01*
X287837D01*
Y738859D01*
X288347D01*
Y738349D01*
X289365D01*
Y737840D01*
X289875D01*
Y737330D01*
X290894D01*
Y736821D01*
X291913D01*
Y736312D01*
X292931D01*
Y735802D01*
X293950D01*
Y735293D01*
X294460D01*
Y734783D01*
X295988D01*
Y734274D01*
X297007D01*
Y733764D01*
X298026D01*
Y733255D01*
X299554D01*
Y732746D01*
X300064D01*
Y731727D01*
X299554D01*
Y731217D01*
X298026D01*
Y731727D01*
X297007D01*
Y732236D01*
X295988D01*
Y732746D01*
X294460D01*
Y733255D01*
X293441D01*
Y733764D01*
X291913D01*
Y734274D01*
X290894D01*
Y734783D01*
X289365D01*
Y735293D01*
X287837D01*
Y735802D01*
X286309D01*
Y736312D01*
X285290D01*
Y736821D01*
X283252D01*
Y737330D01*
X281214D01*
Y737840D01*
X279686D01*
Y738349D01*
X277648D01*
Y738859D01*
X276120D01*
Y739368D01*
X275610D01*
Y738859D01*
X275101D01*
Y736312D01*
X274592D01*
Y736821D01*
X274082D01*
Y739878D01*
X273063D01*
Y740387D01*
X272554D01*
Y739368D01*
X272044D01*
Y735293D01*
X272554D01*
Y734274D01*
X271535D01*
Y735802D01*
X271025D01*
Y736821D01*
X270516D01*
Y737330D01*
X270007D01*
Y737840D01*
X270516D01*
Y737330D01*
X271535D01*
Y738859D01*
X271025D01*
Y747010D01*
X270516D01*
Y751085D01*
X270007D01*
Y751595D01*
X269497D01*
Y752104D01*
X268988D01*
Y752614D01*
X268478D01*
Y753123D01*
X267969D01*
Y753633D01*
X267459D01*
Y754142D01*
X266441D01*
Y754651D01*
X265931D01*
Y755161D01*
X265422D01*
Y755670D01*
X264912D01*
Y756180D01*
X264403D01*
Y757199D01*
X263893D01*
Y757708D01*
X263384D01*
Y758218D01*
X262874D01*
Y758727D01*
X262365D01*
Y759237D01*
X261856D01*
Y759746D01*
X261346D01*
Y760255D01*
X260837D01*
Y760765D01*
X260327D01*
Y761274D01*
X259818D01*
Y761784D01*
X259308D01*
Y762293D01*
X258799D01*
Y762803D01*
X259308D01*
Y763312D01*
X259818D01*
Y763821D01*
X260327D01*
Y764331D01*
X261346D01*
Y764840D01*
X261856D01*
Y765350D01*
X262365D01*
Y765859D01*
X263384D01*
Y766369D01*
X263893D01*
Y766878D01*
X264403D01*
Y767388D01*
X264912D01*
Y767897D01*
X265422D01*
Y768407D01*
X266441D01*
Y768916D01*
X266950D01*
Y769425D01*
X267459D01*
Y770444D01*
X266950D01*
Y772482D01*
X265422D01*
Y771973D01*
X263893D01*
Y772482D01*
X262365D01*
Y772991D01*
X260837D01*
Y773501D01*
X258799D01*
Y774010D01*
X257780D01*
Y774520D01*
X254723D01*
Y775029D01*
X251667D01*
Y775539D01*
X249629D01*
Y776048D01*
X247591D01*
Y776557D01*
X245044D01*
Y774010D01*
X245553D01*
Y771463D01*
X246063D01*
Y768916D01*
X246572D01*
Y767897D01*
X247082D01*
Y766878D01*
X247591D01*
Y765350D01*
X248101D01*
Y764840D01*
X248610D01*
Y763821D01*
X249119D01*
Y762803D01*
X249629D01*
Y761784D01*
X250138D01*
Y760765D01*
X250648D01*
Y759746D01*
X251157D01*
Y759237D01*
X251667D01*
Y758218D01*
X252176D01*
Y757708D01*
X252686D01*
Y756689D01*
X253704D01*
Y756180D01*
X254723D01*
Y755670D01*
X256252D01*
Y755161D01*
X257271D01*
Y754651D01*
X258799D01*
Y754142D01*
X260327D01*
Y753633D01*
X261346D01*
Y753123D01*
X261856D01*
Y752614D01*
X262365D01*
Y752104D01*
X262874D01*
Y751085D01*
X263384D01*
Y750576D01*
X263893D01*
Y749557D01*
X264403D01*
Y748538D01*
X264912D01*
Y747519D01*
X265422D01*
Y746500D01*
X265931D01*
Y745991D01*
X266441D01*
Y744972D01*
X266950D01*
Y744463D01*
X267459D01*
Y742425D01*
X267969D01*
Y741406D01*
X268478D01*
Y740387D01*
X268988D01*
Y739878D01*
X269497D01*
Y738859D01*
X270007D01*
Y737840D01*
X269497D01*
Y738349D01*
X268988D01*
Y738859D01*
X268478D01*
Y739878D01*
X267969D01*
Y740387D01*
X267459D01*
Y741406D01*
X266950D01*
Y742425D01*
X266441D01*
Y743444D01*
X265422D01*
Y743953D01*
X264912D01*
Y744463D01*
X264403D01*
Y744972D01*
X263384D01*
Y745482D01*
X262874D01*
Y745991D01*
X262365D01*
Y746500D01*
X261346D01*
Y747010D01*
X260837D01*
Y747519D01*
X260327D01*
Y748029D01*
X259818D01*
Y748538D01*
X259308D01*
Y749048D01*
X258289D01*
Y749557D01*
X257780D01*
Y750067D01*
X257271D01*
Y750576D01*
X256252D01*
Y751085D01*
X255742D01*
Y751595D01*
X255233D01*
Y752104D01*
X254723D01*
Y752614D01*
X253704D01*
Y753123D01*
X253195D01*
Y753633D01*
X252686D01*
Y754142D01*
X251667D01*
Y754651D01*
X251157D01*
Y755161D01*
X250648D01*
Y755670D01*
X250138D01*
Y756180D01*
X249629D01*
Y756689D01*
X249119D01*
Y757199D01*
X248610D01*
Y757708D01*
X247591D01*
Y758218D01*
X246572D01*
Y758727D01*
X245553D01*
Y759237D01*
X244534D01*
Y759746D01*
X244025D01*
Y760255D01*
X242497D01*
Y760765D01*
X240968D01*
Y761274D01*
X239440D01*
Y761784D01*
X238421D01*
Y762293D01*
X236893D01*
Y762803D01*
X234855D01*
Y763312D01*
X225685D01*
Y762803D01*
X223138D01*
Y762293D01*
X220591D01*
Y761784D01*
X217025D01*
Y761274D01*
X214987D01*
Y760765D01*
X212440D01*
Y760255D01*
X209383D01*
Y759746D01*
X204798D01*
Y759237D01*
X202251D01*
Y758727D01*
X197156D01*
Y758218D01*
X187477D01*
Y758727D01*
X182892D01*
Y759237D01*
X178817D01*
Y759746D01*
X173213D01*
Y760255D01*
X170156D01*
Y760765D01*
X165061D01*
Y761274D01*
X162005D01*
Y761784D01*
X158439D01*
Y762293D01*
X154873D01*
Y762803D01*
X150288D01*
Y763312D01*
X146722D01*
Y763821D01*
X142646D01*
Y764331D01*
X138571D01*
Y764840D01*
X135005D01*
Y765350D01*
X130420D01*
Y765859D01*
X125325D01*
Y765350D01*
X124816D01*
Y764840D01*
X124306D01*
Y764331D01*
X123287D01*
Y763821D01*
X122778D01*
Y763312D01*
X122268D01*
Y762803D01*
X121759D01*
Y762293D01*
X121250D01*
Y761784D01*
X120740D01*
Y761274D01*
X120231D01*
Y760765D01*
X119721D01*
Y760255D01*
X119212D01*
Y759746D01*
X118702D01*
Y759237D01*
X118193D01*
Y758727D01*
X117683D01*
Y757708D01*
X117174D01*
Y757199D01*
X116665D01*
Y756180D01*
X116155D01*
Y755161D01*
X115646D01*
Y754142D01*
X115136D01*
Y753123D01*
X114627D01*
Y752104D01*
X114117D01*
Y751085D01*
X113608D01*
Y750067D01*
X113098D01*
Y748538D01*
X112589D01*
Y747519D01*
X112080D01*
Y747010D01*
X111570D01*
Y746500D01*
X111061D01*
Y744972D01*
X110551D01*
Y744463D01*
X110042D01*
Y742934D01*
X109532D01*
Y741406D01*
X109023D01*
Y740387D01*
X108513D01*
Y739878D01*
X108004D01*
Y738859D01*
X107495D01*
Y737330D01*
X106985D01*
Y736312D01*
X106476D01*
Y735802D01*
X105966D01*
Y734783D01*
X105457D01*
Y733764D01*
X104947D01*
Y731727D01*
X105457D01*
Y731217D01*
X105966D01*
Y730708D01*
X106985D01*
Y730198D01*
X108004D01*
Y729179D01*
X109023D01*
Y728670D01*
X110042D01*
Y728160D01*
X110551D01*
Y727651D01*
X111570D01*
Y727142D01*
X112080D01*
Y726632D01*
X113608D01*
Y726123D01*
X114117D01*
Y725613D01*
X115136D01*
Y725104D01*
X116665D01*
Y724594D01*
X119212D01*
Y724085D01*
X132457D01*
Y724594D01*
X134495D01*
Y725104D01*
X136533D01*
Y725613D01*
X138571D01*
Y726123D01*
X141627D01*
Y726632D01*
X143665D01*
Y727142D01*
X145703D01*
Y727651D01*
X147231D01*
Y728160D01*
X148759D01*
Y728670D01*
X150797D01*
Y729179D01*
X152835D01*
Y729689D01*
X155892D01*
Y730198D01*
X158439D01*
Y730708D01*
X160986D01*
Y731217D01*
X165061D01*
Y731727D01*
X169137D01*
Y732236D01*
X172194D01*
Y732746D01*
X176269D01*
Y733255D01*
X175760D01*
Y733764D01*
X177288D01*
Y733255D01*
X177798D01*
Y732746D01*
X181364D01*
Y732236D01*
X182892D01*
Y732746D01*
X184930D01*
Y733255D01*
X186458D01*
Y733764D01*
X187477D01*
Y733255D01*
X189515D01*
Y732746D01*
X188496D01*
Y732236D01*
X189515D01*
Y731727D01*
X191043D01*
Y731217D01*
X192571D01*
Y730708D01*
X193590D01*
Y730198D01*
X194100D01*
Y729689D01*
X194609D01*
Y729179D01*
X195628D01*
Y728670D01*
X196647D01*
Y728160D01*
X197156D01*
Y727651D01*
X197666D01*
Y727142D01*
X198685D01*
Y726632D01*
X199704D01*
Y726123D01*
X200213D01*
Y725613D01*
X200723D01*
Y724594D01*
X201232D01*
Y724085D01*
X203779D01*
Y723576D01*
X206326D01*
Y723066D01*
X207855D01*
Y722557D01*
X208874D01*
Y722047D01*
X210402D01*
Y721538D01*
X210911D01*
Y721028D01*
X212440D01*
Y720519D01*
X214477D01*
Y720010D01*
X216515D01*
Y719500D01*
X218043D01*
Y718991D01*
X218553D01*
Y718481D01*
X219572D01*
Y717972D01*
X221100D01*
Y717462D01*
X222628D01*
Y716953D01*
X225176D01*
Y716443D01*
X226195D01*
Y715934D01*
X226704D01*
Y715424D01*
X227723D01*
Y714915D01*
X231798D01*
Y714406D01*
X234346D01*
Y713896D01*
X239440D01*
Y713387D01*
X244025D01*
Y712877D01*
X246572D01*
Y713387D01*
X247082D01*
Y714406D01*
X247591D01*
Y715424D01*
X248101D01*
Y716443D01*
X248610D01*
Y718481D01*
X246572D01*
Y718991D01*
X245553D01*
Y719500D01*
X243516D01*
Y720010D01*
X241987D01*
Y720519D01*
X240968D01*
Y721028D01*
X238931D01*
Y721538D01*
X236893D01*
Y722047D01*
X235364D01*
Y722557D01*
X234346D01*
Y723066D01*
X232817D01*
Y723576D01*
X232308D01*
Y724085D01*
X234346D01*
Y723576D01*
X235874D01*
Y723066D01*
X237912D01*
Y722557D01*
X240459D01*
Y722047D01*
X242497D01*
Y721538D01*
X243006D01*
Y721028D01*
X244025D01*
Y720519D01*
X245044D01*
Y720010D01*
X247591D01*
Y719500D01*
X250138D01*
Y718991D01*
X250648D01*
Y718481D01*
X252176D01*
Y717972D01*
X253195D01*
Y717462D01*
X254214D01*
Y716953D01*
X255742D01*
Y716443D01*
X256761D01*
Y715934D01*
X259818D01*
Y716443D01*
X260837D01*
Y716953D01*
X261346D01*
Y717462D01*
X261856D01*
Y717972D01*
X262365D01*
Y718481D01*
X262874D01*
Y718991D01*
X262365D01*
Y719500D01*
X261856D01*
Y720010D01*
X260837D01*
Y720519D01*
X260327D01*
Y721028D01*
X259308D01*
Y721538D01*
X258799D01*
Y722047D01*
X257780D01*
Y722557D01*
X256761D01*
Y723066D01*
X256252D01*
Y723576D01*
X255233D01*
Y724085D01*
X254723D01*
Y724594D01*
X253704D01*
Y725104D01*
X253195D01*
Y725613D01*
X251667D01*
Y726123D01*
X250648D01*
Y726632D01*
X249629D01*
Y727142D01*
X248610D01*
Y727651D01*
X247591D01*
Y728160D01*
X246572D01*
Y728670D01*
X246063D01*
Y729179D01*
X245553D01*
Y729689D01*
X244534D01*
Y730198D01*
X243516D01*
Y730708D01*
X242497D01*
Y731217D01*
X241478D01*
Y731727D01*
X240459D01*
Y732236D01*
X239440D01*
Y732746D01*
X238931D01*
Y733255D01*
X237912D01*
Y733764D01*
X236893D01*
Y734274D01*
X236383D01*
Y734783D01*
X235364D01*
Y735293D01*
X234346D01*
Y735802D01*
X233836D01*
Y736312D01*
X235364D01*
Y735802D01*
X236383D01*
Y735293D01*
X237402D01*
Y734783D01*
X238421D01*
Y734274D01*
X239440D01*
Y733764D01*
X239949D01*
Y733255D01*
X240968D01*
Y732746D01*
X241987D01*
Y732236D01*
X242497D01*
Y731727D01*
X243516D01*
Y731217D01*
X244534D01*
Y730708D01*
X245553D01*
Y730198D01*
X246572D01*
Y729689D01*
X247591D01*
Y729179D01*
X248610D01*
Y728670D01*
X249629D01*
Y728160D01*
X250648D01*
Y727651D01*
X251667D01*
Y727142D01*
X252176D01*
Y726632D01*
X253704D01*
Y726123D01*
X254723D01*
Y725613D01*
X255742D01*
Y725104D01*
X256252D01*
Y724594D01*
X257271D01*
Y724085D01*
X257780D01*
Y723576D01*
X258799D01*
Y723066D01*
X259818D01*
Y722557D01*
X260327D01*
Y722047D01*
X261346D01*
Y721538D01*
X262365D01*
Y721028D01*
X262874D01*
Y720519D01*
X263893D01*
Y720010D01*
X264403D01*
Y719500D01*
X265422D01*
Y718991D01*
X265931D01*
Y718481D01*
X266441D01*
Y717972D01*
X267459D01*
Y717462D01*
X267969D01*
Y716953D01*
X268478D01*
Y716443D01*
X269497D01*
Y717462D01*
X270516D01*
Y716953D01*
X271025D01*
Y715934D01*
X271535D01*
Y715424D01*
X272044D01*
Y714915D01*
X273063D01*
Y714406D01*
X273573D01*
Y713896D01*
X274592D01*
Y713387D01*
X276120D01*
Y712877D01*
X278158D01*
Y713387D01*
X279177D01*
Y715424D01*
X278667D01*
Y715934D01*
X278158D01*
Y716443D01*
X277648D01*
Y716953D01*
X277139D01*
Y717462D01*
X276629D01*
Y717972D01*
X275610D01*
Y718481D01*
X274082D01*
Y718991D01*
X271535D01*
Y720010D01*
X274082D01*
Y721028D01*
X273573D01*
Y722047D01*
X273063D01*
Y723576D01*
X272554D01*
Y725104D01*
X273573D01*
Y722557D01*
X274082D01*
Y721538D01*
X274592D01*
Y721028D01*
X275101D01*
Y720519D01*
X275610D01*
Y720010D01*
X276120D01*
Y719500D01*
X277139D01*
Y718991D01*
X277648D01*
Y718481D01*
X280195D01*
Y718991D01*
X280705D01*
Y721538D01*
X280195D01*
Y722557D01*
X279686D01*
Y723066D01*
X279177D01*
Y723576D01*
X278667D01*
Y724085D01*
X278158D01*
Y724594D01*
X277648D01*
Y725104D01*
X277139D01*
Y725613D01*
X276120D01*
Y726123D01*
X275101D01*
Y726632D01*
X276629D01*
Y728160D01*
X276120D01*
Y728670D01*
X275610D01*
Y729179D01*
X275101D01*
Y730198D01*
X274592D01*
Y731217D01*
X274082D01*
Y731727D01*
X273573D01*
Y732746D01*
X273063D01*
Y733255D01*
X272554D01*
Y733764D01*
Y734274D01*
X273063D01*
Y733255D01*
X273573D01*
Y732746D01*
X274082D01*
Y733764D01*
Y734274D01*
Y734783D01*
X275101D01*
Y730198D01*
X275610D01*
Y729689D01*
X276120D01*
Y729179D01*
X276629D01*
Y728670D01*
Y728160D01*
X277139D01*
Y727651D01*
X277648D01*
Y727142D01*
X278158D01*
Y726632D01*
X278667D01*
Y725613D01*
X279177D01*
Y725104D01*
X279686D01*
Y724594D01*
X280195D01*
Y723576D01*
X280705D01*
Y722557D01*
X281214D01*
Y721028D01*
X281724D01*
Y720010D01*
X283252D01*
Y720519D01*
X285290D01*
Y721028D01*
X286818D01*
Y721538D01*
X288347D01*
Y722047D01*
X289875D01*
Y722557D01*
X291403D01*
Y723066D01*
X293441D01*
Y723576D01*
X294460D01*
Y724085D01*
X295988D01*
Y724594D01*
X297007D01*
Y725104D01*
X298535D01*
Y725613D01*
X299554D01*
Y726123D01*
X301082D01*
Y726632D01*
X302101D01*
Y727142D01*
X302611D01*
Y727651D01*
X302101D01*
Y728160D01*
X301592D01*
Y729179D01*
X302611D01*
Y728670D01*
X303120D01*
Y728160D01*
X303630D01*
Y727651D01*
X304139D01*
Y728160D01*
X305158D01*
Y728670D01*
X304649D01*
Y729179D01*
X304139D01*
Y729689D01*
X303630D01*
Y730198D01*
X303120D01*
Y731217D01*
X303630D01*
Y730708D01*
X304139D01*
Y730198D01*
X304649D01*
Y729689D01*
X305158D01*
Y728670D01*
X306686D01*
Y729179D01*
X307196D01*
Y729689D01*
X308215D01*
Y730198D01*
X309234D01*
Y730708D01*
X310252D01*
Y731217D01*
X310762D01*
Y731727D01*
X311781D01*
Y732236D01*
X312800D01*
Y732746D01*
X314837D01*
Y732236D01*
X317385D01*
Y732746D01*
X321460D01*
Y733255D01*
X322479D01*
Y735802D01*
X322989D01*
Y736821D01*
X323498D01*
Y737330D01*
X324007D01*
Y737840D01*
X324517D01*
Y738349D01*
X325536D01*
Y738859D01*
X326045D01*
Y739368D01*
X327064D01*
Y739878D01*
X328083D01*
Y740387D01*
X329102D01*
Y740897D01*
X329611D01*
Y741406D01*
X330630D01*
Y741916D01*
X331140D01*
Y742425D01*
X332159D01*
Y742934D01*
X333177D01*
Y743444D01*
X333687D01*
Y743953D01*
X334196D01*
Y744463D01*
X334706D01*
Y744972D01*
X335215D01*
Y745482D01*
X336234D01*
Y745991D01*
X336743D01*
Y746500D01*
X337253D01*
Y747010D01*
X337762D01*
Y747519D01*
X338272D01*
Y748029D01*
X338781D01*
Y748538D01*
X339291D01*
Y749048D01*
X339800D01*
Y749557D01*
X340309D01*
Y750067D01*
X340819D01*
Y750576D01*
X341328D01*
Y751085D01*
X341838D01*
Y751595D01*
X342347D01*
Y752104D01*
X342857D01*
Y752614D01*
X343366D01*
Y753123D01*
X343876D01*
Y753633D01*
X344894D01*
Y754142D01*
X345404D01*
Y754651D01*
X346423D01*
Y756180D01*
X345913D01*
Y756689D01*
X345404D01*
Y757199D01*
X344894D01*
Y757708D01*
X344385D01*
Y758727D01*
X343876D01*
Y759237D01*
X343366D01*
Y759746D01*
X342347D01*
Y760255D01*
X341838D01*
Y760765D01*
X341328D01*
Y761274D01*
X340819D01*
Y761784D01*
X340309D01*
Y761274D01*
X339291D01*
Y760765D01*
X338272D01*
Y760255D01*
X337253D01*
Y759746D01*
X336743D01*
Y759237D01*
X335215D01*
Y758727D01*
X334706D01*
Y758218D01*
X333687D01*
Y757708D01*
X332668D01*
Y757199D01*
X331649D01*
Y756689D01*
X330630D01*
Y756180D01*
X329611D01*
Y755670D01*
X328592D01*
Y755161D01*
X327574D01*
Y754651D01*
X327064D01*
Y754142D01*
X326045D01*
Y753633D01*
X325026D01*
Y753123D01*
X324517D01*
Y752614D01*
X324007D01*
Y752104D01*
X322989D01*
Y753123D01*
X323498D01*
Y753633D01*
X324007D01*
Y754142D01*
X324517D01*
Y755161D01*
X324007D01*
Y754651D01*
X323498D01*
Y754142D01*
X322989D01*
Y753633D01*
X322479D01*
Y752614D01*
X321460D01*
Y752104D01*
X320951D01*
Y751595D01*
X319932D01*
Y752614D01*
X320441D01*
Y753123D01*
X321460D01*
Y754142D01*
X322479D01*
Y755161D01*
X322989D01*
Y755670D01*
X323498D01*
Y756180D01*
X324007D01*
Y756689D01*
X324517D01*
Y757708D01*
X325026D01*
Y758218D01*
X325536D01*
Y758727D01*
X326045D01*
Y759746D01*
X326555D01*
Y760255D01*
X327064D01*
Y760765D01*
X327574D01*
Y761784D01*
X328083D01*
Y762293D01*
X328592D01*
Y762803D01*
X329102D01*
Y763821D01*
X329611D01*
Y764840D01*
X330121D01*
Y765350D01*
X330630D01*
Y766369D01*
X331140D01*
Y767388D01*
X331649D01*
Y767897D01*
X332159D01*
Y768916D01*
X332668D01*
Y769935D01*
X333177D01*
Y770954D01*
X333687D01*
Y771463D01*
X333177D01*
Y771973D01*
X332668D01*
Y772482D01*
X332159D01*
Y772991D01*
X331649D01*
Y774010D01*
X331140D01*
Y774520D01*
X330630D01*
Y775029D01*
X330121D01*
Y775539D01*
X329611D01*
Y776557D01*
X329102D01*
Y777067D01*
X328592D01*
Y777576D01*
X328083D01*
Y778086D01*
X327064D01*
Y778595D01*
D02*
G37*
G36*
X173722Y775029D02*
X173213D01*
Y774520D01*
X173722D01*
Y775029D01*
D02*
G37*
G36*
X149269D02*
X148759D01*
Y774520D01*
X149269D01*
Y775029D01*
D02*
G37*
G36*
X357121Y773501D02*
X356612D01*
Y772991D01*
Y772482D01*
X356102D01*
Y771973D01*
X356612D01*
X357121Y772482D01*
Y773501D01*
D02*
G37*
G36*
X268988Y771973D02*
X267459D01*
Y770954D01*
X268988D01*
Y771973D01*
D02*
G37*
G36*
X242497Y777067D02*
X235364D01*
Y776557D01*
X233327D01*
Y776048D01*
X230779D01*
Y775539D01*
X228742D01*
Y775029D01*
X225685D01*
Y774520D01*
X222628D01*
Y774010D01*
X220591D01*
Y773501D01*
X218043D01*
Y772991D01*
X216515D01*
Y772482D01*
X213458D01*
Y771973D01*
X211421D01*
Y771463D01*
X209383D01*
Y770954D01*
X206326D01*
Y770444D01*
X200723D01*
Y769935D01*
X189005D01*
Y769425D01*
X189515D01*
Y768916D01*
X190024D01*
Y768407D01*
X190534D01*
Y767897D01*
X191043D01*
Y767388D01*
X192062D01*
Y766369D01*
X192571D01*
Y765859D01*
X193081D01*
Y765350D01*
X193590D01*
Y764840D01*
X194609D01*
Y764331D01*
X195119D01*
Y763821D01*
X195628D01*
Y763312D01*
X196138D01*
Y762293D01*
X196647D01*
Y761784D01*
X197156D01*
Y761274D01*
X197666D01*
Y760255D01*
X198685D01*
Y759746D01*
X199194D01*
Y760255D01*
X199704D01*
Y760765D01*
X201741D01*
Y761274D01*
X203779D01*
Y761784D01*
X205308D01*
Y762293D01*
X207345D01*
Y762803D01*
X210911D01*
Y763312D01*
X213458D01*
Y763821D01*
X216006D01*
Y764331D01*
X218043D01*
Y764840D01*
X219572D01*
Y765350D01*
X234855D01*
Y764840D01*
X239949D01*
Y764331D01*
X241987D01*
Y763821D01*
X243006D01*
Y763312D01*
X244025D01*
Y762803D01*
X244534D01*
Y762293D01*
X245553D01*
Y761274D01*
X246572D01*
Y760765D01*
X247082D01*
Y760255D01*
X247591D01*
Y759746D01*
X248101D01*
Y760255D01*
X247591D01*
Y761274D01*
X247082D01*
Y762803D01*
X246572D01*
Y764331D01*
X246063D01*
Y765350D01*
X245553D01*
Y766369D01*
X245044D01*
Y767897D01*
X244534D01*
Y769425D01*
X244025D01*
Y770954D01*
X243516D01*
Y772991D01*
X243006D01*
Y775539D01*
X242497D01*
Y777067D01*
D02*
G37*
G36*
X86098Y755670D02*
X85589D01*
Y755161D01*
X86098D01*
Y755670D01*
D02*
G37*
G36*
X85079Y754651D02*
X84570D01*
Y754142D01*
X85079D01*
Y754651D01*
D02*
G37*
G36*
X346932Y751085D02*
X346423D01*
Y750576D01*
X346932D01*
Y751085D01*
D02*
G37*
G36*
X346423Y750576D02*
X345913D01*
Y750067D01*
X345404D01*
Y749048D01*
X345913D01*
Y749557D01*
X346423D01*
Y750576D01*
D02*
G37*
G36*
X345404Y749048D02*
X344894D01*
Y748538D01*
X345404D01*
Y749048D01*
D02*
G37*
G36*
X341838Y745991D02*
X341328D01*
Y745482D01*
X341838D01*
Y745991D01*
D02*
G37*
G36*
X254723Y755161D02*
X254214D01*
Y754142D01*
X254723D01*
Y753123D01*
X255233D01*
Y752614D01*
X255742D01*
Y752104D01*
X256252D01*
Y751595D01*
X256761D01*
Y751085D01*
X257780D01*
Y750576D01*
X258289D01*
Y750067D01*
X258799D01*
Y749557D01*
X259818D01*
Y749048D01*
X260327D01*
Y748538D01*
X260837D01*
Y748029D01*
X261856D01*
Y747519D01*
X262365D01*
Y747010D01*
X262874D01*
Y746500D01*
X263384D01*
Y745991D01*
X263893D01*
Y745482D01*
X264912D01*
Y745991D01*
X264403D01*
Y747010D01*
X263893D01*
Y748029D01*
X263384D01*
Y749048D01*
X262874D01*
Y750067D01*
X262365D01*
Y750576D01*
X261856D01*
Y751085D01*
X261346D01*
Y752104D01*
X260327D01*
Y752614D01*
X259818D01*
Y753123D01*
X258799D01*
Y753633D01*
X257271D01*
Y754142D01*
X255742D01*
Y754651D01*
X254723D01*
Y755161D01*
D02*
G37*
G36*
X340309Y744463D02*
X339800D01*
Y743953D01*
X340309D01*
Y744463D01*
D02*
G37*
G36*
X339291Y743953D02*
X338781D01*
Y743444D01*
X338272D01*
Y742934D01*
X338781D01*
X339291Y743444D01*
Y743953D01*
D02*
G37*
G36*
X185949Y731217D02*
X185439D01*
Y730708D01*
X185949D01*
Y731217D01*
D02*
G37*
G36*
X181873Y730198D02*
X181364D01*
Y729689D01*
X181873D01*
Y730198D01*
D02*
G37*
G36*
X190024Y729689D02*
X189515D01*
Y729179D01*
X190024D01*
Y729689D01*
D02*
G37*
G36*
X371895Y781143D02*
X371385D01*
Y780633D01*
X370876D01*
Y780124D01*
X370367D01*
Y779614D01*
X369857D01*
Y779105D01*
X368838D01*
Y778595D01*
X368329D01*
Y778086D01*
X367310D01*
Y777576D01*
X366800D01*
Y777067D01*
X365782D01*
Y776557D01*
X365272D01*
Y776048D01*
X364763D01*
Y775539D01*
X362725D01*
Y774520D01*
X362215D01*
Y774010D01*
X360687D01*
Y773501D01*
X360178D01*
Y772991D01*
X359668D01*
Y772482D01*
X358649D01*
Y771463D01*
X359159D01*
Y770954D01*
X360178D01*
Y770444D01*
X361197D01*
Y769935D01*
X362215D01*
Y769425D01*
X362725D01*
Y768916D01*
X363234D01*
Y768407D01*
X363744D01*
Y767897D01*
X364763D01*
Y767388D01*
X365272D01*
Y766878D01*
X365782D01*
Y766369D01*
X366800D01*
Y765859D01*
X367819D01*
Y765350D01*
X368329D01*
Y764840D01*
X368838D01*
Y764331D01*
X369348D01*
Y763821D01*
X369857D01*
Y763312D01*
X370367D01*
Y762803D01*
X370876D01*
Y762293D01*
X371385D01*
Y761784D01*
X371895D01*
Y761274D01*
X372404D01*
Y760765D01*
X373423D01*
Y760255D01*
X373933D01*
Y759746D01*
X374442D01*
Y759237D01*
X374952D01*
Y758727D01*
X375461D01*
Y758218D01*
X375970D01*
Y757708D01*
X376480D01*
Y757199D01*
X376989D01*
Y756689D01*
X377499D01*
Y756180D01*
X378008D01*
Y755670D01*
X379027D01*
Y755161D01*
X379537D01*
Y754651D01*
X380046D01*
Y754142D01*
X380555D01*
Y753633D01*
X381065D01*
Y752614D01*
X381574D01*
Y752104D01*
X382084D01*
Y751595D01*
X382593D01*
Y751085D01*
X383103D01*
Y750576D01*
X383612D01*
Y749557D01*
X384631D01*
Y749048D01*
X385140D01*
Y748538D01*
X385650D01*
Y749048D01*
X386159D01*
Y748538D01*
X386669D01*
Y748029D01*
X387178D01*
Y747010D01*
X388197D01*
Y745991D01*
X388707D01*
Y745482D01*
X389216D01*
Y744972D01*
X389725D01*
Y744463D01*
X390235D01*
Y743444D01*
X390744D01*
Y742934D01*
X391254D01*
Y741916D01*
X391763D01*
Y740897D01*
X392273D01*
Y739368D01*
X392782D01*
Y737330D01*
X392273D01*
Y736821D01*
X392782D01*
Y736312D01*
X393292D01*
Y737330D01*
X393801D01*
Y737840D01*
X394820D01*
Y738349D01*
X395329D01*
Y737330D01*
X394820D01*
Y736821D01*
X393801D01*
Y729179D01*
Y728670D01*
Y727651D01*
X393292D01*
Y729689D01*
X392782D01*
Y733255D01*
X392273D01*
Y735802D01*
X391763D01*
Y737330D01*
X391254D01*
Y738859D01*
X390744D01*
Y740387D01*
X390235D01*
Y741916D01*
X389725D01*
Y742934D01*
X389216D01*
Y744463D01*
X388707D01*
Y745482D01*
X388197D01*
Y745991D01*
X387688D01*
Y746500D01*
X387178D01*
Y747010D01*
X386669D01*
Y747519D01*
Y748029D01*
X385650D01*
Y747519D01*
X385140D01*
Y746500D01*
X385650D01*
Y745482D01*
X386159D01*
Y744972D01*
Y744463D01*
X385650D01*
Y745482D01*
X385140D01*
Y746500D01*
X384631D01*
Y747519D01*
X384122D01*
Y748538D01*
X383612D01*
Y749557D01*
X383103D01*
Y750067D01*
X382593D01*
Y750576D01*
X382084D01*
Y751085D01*
X381574D01*
Y751595D01*
X381065D01*
Y752104D01*
X380555D01*
Y752614D01*
X380046D01*
Y753123D01*
X379537D01*
Y753633D01*
X379027D01*
Y754142D01*
X378518D01*
Y754651D01*
X377499D01*
Y755161D01*
X376989D01*
Y755670D01*
X376480D01*
Y756180D01*
X375970D01*
Y756689D01*
X375461D01*
Y757199D01*
X374952D01*
Y757708D01*
X374442D01*
Y758218D01*
X373933D01*
Y758727D01*
X373423D01*
Y759237D01*
X372914D01*
Y759746D01*
X371895D01*
Y760255D01*
X371385D01*
Y760765D01*
X370876D01*
Y761274D01*
X370367D01*
Y761784D01*
X369857D01*
Y762293D01*
X369348D01*
Y762803D01*
X368838D01*
Y763312D01*
X367819D01*
Y763821D01*
X367310D01*
Y764331D01*
X365782D01*
Y764840D01*
X364763D01*
Y765350D01*
X363744D01*
Y765859D01*
X363234D01*
Y766369D01*
X362725D01*
Y766878D01*
X362215D01*
Y767388D01*
X361197D01*
Y767897D01*
X360687D01*
Y767388D01*
X361197D01*
Y766369D01*
X361706D01*
Y765859D01*
X362215D01*
Y765350D01*
X362725D01*
Y764840D01*
X363234D01*
Y764331D01*
X363744D01*
Y763821D01*
X364253D01*
Y763312D01*
X364763D01*
Y762803D01*
X365272D01*
Y762293D01*
X365782D01*
Y761784D01*
X366291D01*
Y761274D01*
X366800D01*
Y760765D01*
X367310D01*
Y760255D01*
X368329D01*
Y759237D01*
X368838D01*
Y758727D01*
X369857D01*
Y757708D01*
X370876D01*
Y757199D01*
X371385D01*
Y756689D01*
X372404D01*
Y756180D01*
X372914D01*
Y755670D01*
X373933D01*
Y755161D01*
X374442D01*
Y754651D01*
X374952D01*
Y754142D01*
X375461D01*
Y753633D01*
X375970D01*
Y753123D01*
X376989D01*
Y752614D01*
X377499D01*
Y752104D01*
X378008D01*
Y751595D01*
X378518D01*
Y751085D01*
X379027D01*
Y750576D01*
X379537D01*
Y750067D01*
X380046D01*
Y749557D01*
X380555D01*
Y749048D01*
X381065D01*
Y748029D01*
X381574D01*
Y747519D01*
X382084D01*
Y747010D01*
X382593D01*
Y746500D01*
X383103D01*
Y745991D01*
X383612D01*
Y744972D01*
X384122D01*
Y744463D01*
X384631D01*
Y743444D01*
X385140D01*
Y741916D01*
X385650D01*
Y740897D01*
X386159D01*
Y739878D01*
X386669D01*
Y737840D01*
X387178D01*
Y735802D01*
X387688D01*
Y733255D01*
X388197D01*
Y729179D01*
X388707D01*
Y724085D01*
X389216D01*
Y721538D01*
X388707D01*
Y721028D01*
X388197D01*
Y723576D01*
X387688D01*
Y728160D01*
X387178D01*
Y731217D01*
X386669D01*
Y732746D01*
X386159D01*
Y735293D01*
X385650D01*
Y737330D01*
X385140D01*
Y739368D01*
X384631D01*
Y740387D01*
X384122D01*
Y741916D01*
X383612D01*
Y742934D01*
X383103D01*
Y743953D01*
X382593D01*
Y744463D01*
X381574D01*
Y743953D01*
X380046D01*
Y743444D01*
X379537D01*
Y742934D01*
X379027D01*
Y742425D01*
X378008D01*
Y741916D01*
X376989D01*
Y741406D01*
X375461D01*
Y740897D01*
X373933D01*
Y741406D01*
X374952D01*
Y741916D01*
X375970D01*
Y742425D01*
X376989D01*
Y742934D01*
X378008D01*
Y743444D01*
X378518D01*
Y743953D01*
X379537D01*
Y744463D01*
X380555D01*
Y744972D01*
X381065D01*
Y746500D01*
X380555D01*
Y747519D01*
X380046D01*
Y748029D01*
X379537D01*
Y748538D01*
X379027D01*
Y749048D01*
X378518D01*
Y749557D01*
X378008D01*
Y750067D01*
X377499D01*
Y750576D01*
X376989D01*
Y751085D01*
X376480D01*
Y751595D01*
X375970D01*
Y752104D01*
X375461D01*
Y752614D01*
X374952D01*
Y753123D01*
X373933D01*
Y753633D01*
X373423D01*
Y754142D01*
X372914D01*
Y754651D01*
X371895D01*
Y755161D01*
X371385D01*
Y755670D01*
X370876D01*
Y756180D01*
X370367D01*
Y756689D01*
X369348D01*
Y757199D01*
X368838D01*
Y757708D01*
X367819D01*
Y758727D01*
X367310D01*
Y759237D01*
X366800D01*
Y759746D01*
X365782D01*
Y760255D01*
X365272D01*
Y760765D01*
X364763D01*
Y761274D01*
X364253D01*
Y761784D01*
X363744D01*
Y762293D01*
X363234D01*
Y763312D01*
X362725D01*
Y763821D01*
X362215D01*
Y764331D01*
X361706D01*
Y764840D01*
X361197D01*
Y765859D01*
X360687D01*
Y766878D01*
X360178D01*
Y767388D01*
X359668D01*
Y767897D01*
X359159D01*
Y768916D01*
X358649D01*
Y769425D01*
X358140D01*
Y770444D01*
X357631D01*
Y770954D01*
X356612D01*
Y770444D01*
X355083D01*
Y769935D01*
X354574D01*
Y768916D01*
X354064D01*
Y768407D01*
X353046D01*
Y767897D01*
X352027D01*
Y767388D01*
X351517D01*
Y766878D01*
X351008D01*
Y766369D01*
X350498D01*
Y765859D01*
X349479D01*
Y765350D01*
X347951D01*
Y764840D01*
X346932D01*
Y764331D01*
X346423D01*
Y763312D01*
X346932D01*
Y762803D01*
X347442D01*
Y761784D01*
X347951D01*
Y761274D01*
X348461D01*
Y760765D01*
X348970D01*
Y760255D01*
X349479D01*
Y759237D01*
X349989D01*
Y758727D01*
X350498D01*
Y758218D01*
X351008D01*
Y757708D01*
X351517D01*
Y757199D01*
X352027D01*
Y755670D01*
X351517D01*
Y755161D01*
X351008D01*
Y754142D01*
X350498D01*
Y753633D01*
X349989D01*
Y753123D01*
X349479D01*
Y752614D01*
X348970D01*
Y752104D01*
X348461D01*
Y751085D01*
X347951D01*
Y750067D01*
X347442D01*
Y749048D01*
X346932D01*
Y748029D01*
X346423D01*
Y747519D01*
X345913D01*
Y746500D01*
X345404D01*
Y745482D01*
X344894D01*
Y744972D01*
X344385D01*
Y743953D01*
X343876D01*
Y743444D01*
X343366D01*
Y742425D01*
X342857D01*
Y741916D01*
X342347D01*
Y741406D01*
X341838D01*
Y740897D01*
X341328D01*
Y739878D01*
X340819D01*
Y739368D01*
X340309D01*
Y738859D01*
X339800D01*
Y738349D01*
X339291D01*
Y737840D01*
X338781D01*
Y737330D01*
X338272D01*
Y736821D01*
X337762D01*
Y736312D01*
X337253D01*
Y735802D01*
X336743D01*
Y735293D01*
X336234D01*
Y734783D01*
X335725D01*
Y734274D01*
X335215D01*
Y733764D01*
X334196D01*
Y733255D01*
X333687D01*
Y732746D01*
X332668D01*
Y732236D01*
X332159D01*
Y731727D01*
X331140D01*
Y731217D01*
X329611D01*
Y730708D01*
X328592D01*
Y730198D01*
X326555D01*
Y729689D01*
X324517D01*
Y730198D01*
X320441D01*
Y729689D01*
X317385D01*
Y729179D01*
X315856D01*
Y728670D01*
X314328D01*
Y728160D01*
X313309D01*
Y727651D01*
X312800D01*
Y727142D01*
X312290D01*
Y726123D01*
X313309D01*
Y725613D01*
X315856D01*
Y725104D01*
X317385D01*
Y724594D01*
X319422D01*
Y724085D01*
X320951D01*
Y723576D01*
X322989D01*
Y723066D01*
X324517D01*
Y722557D01*
X326045D01*
Y722047D01*
X328083D01*
Y721538D01*
X329611D01*
Y721028D01*
X330630D01*
Y718481D01*
X331140D01*
Y715934D01*
X331649D01*
Y712877D01*
X332159D01*
Y710330D01*
X332668D01*
Y707273D01*
X333177D01*
Y704726D01*
X333687D01*
Y701160D01*
X334196D01*
Y697085D01*
X334706D01*
Y695556D01*
Y695047D01*
Y694537D01*
X335215D01*
Y693519D01*
X335725D01*
Y692500D01*
X336234D01*
Y691481D01*
X336743D01*
Y690971D01*
X337253D01*
Y689952D01*
X337762D01*
Y688933D01*
X338272D01*
Y688424D01*
X338781D01*
Y687915D01*
X339291D01*
Y686896D01*
X339800D01*
Y685877D01*
X340309D01*
Y685367D01*
X340819D01*
Y684349D01*
X341328D01*
Y683839D01*
X341838D01*
Y683330D01*
X342347D01*
Y682311D01*
X342857D01*
Y681801D01*
X343366D01*
Y681292D01*
X343876D01*
Y680273D01*
X344385D01*
Y679254D01*
X344894D01*
Y678745D01*
X345404D01*
Y678235D01*
X345913D01*
Y677216D01*
X346423D01*
Y676707D01*
X346932D01*
Y675688D01*
X347442D01*
Y675179D01*
X347951D01*
Y674669D01*
X348461D01*
Y673650D01*
X348970D01*
Y673141D01*
X349479D01*
Y672631D01*
X349989D01*
Y672122D01*
X350498D01*
Y671612D01*
X351008D01*
Y671103D01*
X351517D01*
Y671612D01*
X352027D01*
Y679764D01*
X351517D01*
Y682820D01*
X351008D01*
Y685367D01*
X350498D01*
Y687915D01*
X349989D01*
Y689443D01*
X349479D01*
Y690971D01*
X348970D01*
Y692500D01*
X348461D01*
Y693519D01*
X347951D01*
Y694028D01*
X348970D01*
Y693519D01*
X349479D01*
Y691990D01*
X349989D01*
Y690971D01*
X350498D01*
Y689443D01*
X351008D01*
Y688424D01*
X351517D01*
Y686896D01*
X352027D01*
Y684349D01*
X352536D01*
Y682311D01*
X353046D01*
Y680782D01*
X353555D01*
Y677216D01*
X354064D01*
Y672122D01*
X354574D01*
Y668556D01*
X354064D01*
Y667028D01*
X354574D01*
Y666518D01*
X355083D01*
Y666009D01*
X355593D01*
Y665499D01*
X356612D01*
Y666009D01*
X357121D01*
Y667028D01*
X357631D01*
Y667537D01*
X358140D01*
Y668556D01*
X358649D01*
Y669575D01*
X359159D01*
Y670084D01*
X359668D01*
Y670594D01*
X360178D01*
Y671612D01*
X360687D01*
Y672631D01*
X361197D01*
Y673141D01*
X361706D01*
Y673650D01*
X362215D01*
Y674669D01*
X362725D01*
Y675179D01*
X363234D01*
Y675688D01*
X363744D01*
Y676198D01*
X364253D01*
Y677216D01*
X364763D01*
Y677726D01*
X365272D01*
Y678235D01*
X365782D01*
Y678745D01*
X366291D01*
Y679254D01*
X366800D01*
Y680273D01*
X367310D01*
Y680782D01*
X367819D01*
Y681292D01*
X368329D01*
Y681801D01*
X368838D01*
Y682820D01*
X369348D01*
Y683330D01*
X369857D01*
Y683839D01*
X370367D01*
Y684349D01*
X370876D01*
Y685367D01*
X371385D01*
Y685877D01*
X371895D01*
Y686386D01*
X372404D01*
Y686896D01*
X372914D01*
Y687915D01*
X373423D01*
Y688933D01*
X373933D01*
Y689443D01*
X374442D01*
Y690462D01*
X374952D01*
Y690971D01*
X375461D01*
Y689952D01*
X375970D01*
Y690462D01*
X376480D01*
Y690971D01*
X376989D01*
Y691481D01*
X377499D01*
Y691990D01*
X378518D01*
Y692500D01*
X379027D01*
Y693009D01*
X379537D01*
Y693519D01*
X380046D01*
Y694028D01*
X381065D01*
Y695047D01*
X382084D01*
Y695556D01*
X382593D01*
Y696066D01*
X383103D01*
Y696575D01*
X384122D01*
Y697594D01*
X385140D01*
Y698613D01*
X385650D01*
Y699632D01*
X386159D01*
Y700651D01*
X386669D01*
Y701160D01*
X387178D01*
Y701670D01*
X387688D01*
Y702689D01*
X388197D01*
Y703707D01*
X388707D01*
Y704217D01*
X389216D01*
Y705236D01*
X389725D01*
Y705745D01*
X390235D01*
Y706764D01*
X390744D01*
Y707783D01*
X391254D01*
Y708802D01*
X391763D01*
Y709311D01*
X392273D01*
Y709821D01*
X392782D01*
Y710839D01*
X393292D01*
Y711349D01*
X393801D01*
Y712368D01*
X394310D01*
Y712877D01*
X394820D01*
Y713896D01*
X395329D01*
Y714915D01*
X395839D01*
Y715424D01*
X396348D01*
Y715934D01*
X396858D01*
Y716953D01*
X397367D01*
Y717462D01*
X397877D01*
Y717972D01*
X398386D01*
Y718991D01*
X398895D01*
Y719500D01*
X399405D01*
Y720010D01*
X398895D01*
Y720519D01*
X398386D01*
Y721028D01*
X397877D01*
Y721538D01*
X396858D01*
Y722047D01*
X395839D01*
Y722557D01*
X395329D01*
Y723066D01*
X394310D01*
Y723576D01*
X393292D01*
Y725613D01*
X393801D01*
Y724594D01*
X394310D01*
Y724085D01*
X395329D01*
Y723576D01*
X395839D01*
Y723066D01*
X396858D01*
Y722557D01*
X397877D01*
Y722047D01*
X398386D01*
Y721538D01*
X399405D01*
Y721028D01*
X400424D01*
Y720519D01*
X400933D01*
Y720010D01*
X401443D01*
Y719500D01*
X402462D01*
Y717972D01*
X401952D01*
Y716953D01*
X401443D01*
Y716443D01*
X400933D01*
Y715934D01*
X400424D01*
Y714915D01*
X399914D01*
Y714406D01*
X399405D01*
Y713896D01*
X398895D01*
Y712877D01*
X398386D01*
Y712368D01*
X397877D01*
Y711858D01*
X397367D01*
Y710839D01*
X396858D01*
Y709821D01*
X397877D01*
Y709311D01*
X398386D01*
Y708292D01*
X397877D01*
Y707273D01*
X397367D01*
Y706764D01*
X396858D01*
Y706255D01*
X396348D01*
Y705745D01*
X395839D01*
Y704726D01*
X395329D01*
Y704217D01*
X394820D01*
Y703707D01*
X394310D01*
Y703198D01*
X393801D01*
Y702689D01*
X393292D01*
Y702179D01*
X392273D01*
Y701670D01*
X391763D01*
Y700651D01*
X391254D01*
Y700141D01*
X390744D01*
Y699632D01*
X390235D01*
Y698613D01*
X389725D01*
Y698103D01*
X389216D01*
Y697594D01*
X388707D01*
Y697085D01*
X388197D01*
Y696575D01*
X387688D01*
Y696066D01*
X387178D01*
Y695047D01*
X386669D01*
Y694537D01*
X386159D01*
Y694028D01*
X385650D01*
Y693519D01*
X385140D01*
Y693009D01*
X384631D01*
Y692500D01*
X383612D01*
Y691990D01*
X383103D01*
Y691481D01*
X382593D01*
Y690971D01*
X381574D01*
Y690462D01*
X381065D01*
Y689952D01*
X380555D01*
Y689443D01*
X379537D01*
Y688933D01*
X379027D01*
Y688424D01*
X378008D01*
Y687405D01*
X377499D01*
Y686896D01*
X376989D01*
Y686386D01*
X376480D01*
Y685877D01*
X375970D01*
Y685367D01*
X375461D01*
Y684858D01*
X374952D01*
Y684349D01*
X373933D01*
Y683330D01*
X372914D01*
Y682820D01*
X372404D01*
Y681801D01*
X371385D01*
Y680782D01*
X370876D01*
Y680273D01*
X370367D01*
Y679764D01*
X369857D01*
Y679254D01*
X369348D01*
Y678745D01*
X368838D01*
Y678235D01*
X368329D01*
Y677726D01*
X367819D01*
Y677216D01*
X367310D01*
Y676707D01*
X366800D01*
Y675688D01*
X366291D01*
Y675179D01*
X365782D01*
Y674160D01*
X365272D01*
Y673141D01*
X364763D01*
Y672631D01*
X364253D01*
Y672122D01*
X363744D01*
Y671103D01*
X363234D01*
Y670594D01*
X362725D01*
Y669575D01*
X362215D01*
Y669065D01*
X361706D01*
Y668046D01*
X361197D01*
Y667537D01*
X360687D01*
Y666518D01*
X360178D01*
Y665499D01*
X359668D01*
Y664480D01*
X359159D01*
Y663971D01*
X360178D01*
Y664480D01*
X361706D01*
Y664990D01*
X362215D01*
Y665499D01*
X362725D01*
Y666518D01*
X363234D01*
Y667028D01*
X363744D01*
Y668046D01*
X364253D01*
Y668556D01*
X364763D01*
Y670084D01*
X365272D01*
Y670594D01*
X365782D01*
Y671103D01*
X366291D01*
Y672122D01*
X366800D01*
Y673141D01*
X367310D01*
Y673650D01*
X367819D01*
Y674160D01*
X368329D01*
Y675179D01*
X368838D01*
Y675688D01*
X369348D01*
Y676707D01*
X369857D01*
Y677216D01*
X370367D01*
Y677726D01*
X370876D01*
Y678745D01*
X371385D01*
Y679254D01*
X371895D01*
Y679764D01*
X372404D01*
Y680273D01*
X372914D01*
Y681292D01*
X373933D01*
Y681801D01*
X374442D01*
Y682311D01*
X374952D01*
Y682820D01*
X375461D01*
Y683839D01*
X375970D01*
Y684349D01*
X376480D01*
Y684858D01*
X376989D01*
Y685367D01*
X378008D01*
Y684349D01*
X377499D01*
Y683839D01*
X376989D01*
Y683330D01*
X376480D01*
Y682820D01*
X379537D01*
Y682311D01*
X380046D01*
Y681801D01*
X380555D01*
Y681292D01*
X381065D01*
Y679254D01*
X381574D01*
Y677216D01*
X382084D01*
Y674669D01*
X382593D01*
Y672122D01*
X383103D01*
Y667028D01*
X383612D01*
Y661933D01*
X384122D01*
Y657348D01*
X384631D01*
Y649706D01*
X385140D01*
Y647159D01*
X385650D01*
Y645122D01*
X386159D01*
Y643593D01*
X386669D01*
Y642065D01*
X387178D01*
Y640537D01*
X387688D01*
Y639518D01*
X388197D01*
Y638499D01*
X388707D01*
Y637989D01*
X389216D01*
Y636461D01*
X389725D01*
Y635952D01*
X390235D01*
Y635442D01*
X390744D01*
Y634423D01*
X391254D01*
Y633914D01*
X391763D01*
Y633404D01*
X392273D01*
Y632895D01*
X393292D01*
Y631876D01*
X393801D01*
Y631367D01*
X394820D01*
Y630857D01*
X395329D01*
Y630348D01*
X395839D01*
Y629838D01*
X396858D01*
Y629329D01*
X397367D01*
Y628819D01*
X398386D01*
Y628310D01*
X399405D01*
Y627800D01*
X400424D01*
Y627291D01*
X401952D01*
Y626782D01*
X403990D01*
Y626272D01*
X414179D01*
Y626782D01*
X415707D01*
Y627291D01*
X417235D01*
Y627800D01*
X418764D01*
Y628310D01*
X419273D01*
Y628819D01*
X419782D01*
Y629329D01*
X420801D01*
Y629838D01*
X421311D01*
Y630348D01*
X421820D01*
Y630857D01*
X422330D01*
Y631367D01*
X422839D01*
Y631876D01*
X423349D01*
Y632385D01*
X423858D01*
Y632895D01*
X424367D01*
Y633404D01*
X424877D01*
Y634423D01*
X425386D01*
Y634933D01*
X425896D01*
Y635442D01*
X426405D01*
Y636461D01*
X426915D01*
Y637480D01*
X427424D01*
Y637989D01*
X427934D01*
Y639518D01*
X428443D01*
Y641046D01*
X428952D01*
Y642574D01*
X429462D01*
Y645122D01*
X429971D01*
Y647669D01*
X430481D01*
Y650725D01*
X430990D01*
Y662443D01*
X430481D01*
Y664990D01*
X429971D01*
Y667537D01*
X429462D01*
Y669065D01*
X428952D01*
Y671103D01*
X428443D01*
Y672122D01*
X427934D01*
Y673650D01*
X427424D01*
Y674669D01*
X426915D01*
Y676198D01*
X426405D01*
Y677216D01*
X425896D01*
Y678235D01*
X425386D01*
Y679254D01*
X424877D01*
Y679764D01*
X424367D01*
Y681292D01*
X423858D01*
Y682311D01*
X423349D01*
Y683330D01*
X422839D01*
Y684349D01*
X422330D01*
Y684858D01*
X421820D01*
Y685367D01*
X421311D01*
Y685877D01*
X420801D01*
Y686896D01*
X420292D01*
Y687405D01*
X419782D01*
Y688424D01*
X419273D01*
Y689443D01*
X418764D01*
Y689952D01*
X418254D01*
Y690462D01*
X417745D01*
Y691481D01*
X417235D01*
Y691990D01*
X416726D01*
Y692500D01*
X416216D01*
Y693519D01*
X415707D01*
Y694028D01*
X415197D01*
Y694537D01*
X414688D01*
Y695556D01*
X414179D01*
Y696066D01*
X413669D01*
Y696575D01*
X413160D01*
Y697085D01*
X412650D01*
Y697594D01*
X412141D01*
Y698103D01*
X411631D01*
Y698613D01*
X411122D01*
Y699122D01*
X410612D01*
Y700141D01*
X410103D01*
Y700651D01*
X409594D01*
Y701160D01*
X409084D01*
Y701670D01*
X408575D01*
Y702179D01*
X408065D01*
Y703198D01*
X408575D01*
Y702689D01*
X409084D01*
Y707783D01*
X409594D01*
Y706764D01*
X410103D01*
Y703198D01*
X410612D01*
Y700651D01*
X411122D01*
Y700141D01*
X411631D01*
Y699632D01*
X412141D01*
Y699122D01*
X412650D01*
Y704217D01*
X412141D01*
Y710330D01*
X411631D01*
Y713387D01*
X411122D01*
Y716443D01*
X411631D01*
Y715424D01*
X412141D01*
Y711349D01*
X412650D01*
Y709311D01*
X413160D01*
Y703707D01*
X413669D01*
Y697085D01*
X414179D01*
Y696575D01*
X414688D01*
Y696066D01*
X415197D01*
Y695047D01*
X415707D01*
Y694537D01*
X416216D01*
Y694028D01*
X416726D01*
Y693009D01*
X417235D01*
Y692500D01*
X417745D01*
Y691990D01*
X418254D01*
Y691481D01*
X418764D01*
Y690971D01*
X419273D01*
Y690462D01*
X419782D01*
Y689443D01*
X420292D01*
Y688933D01*
X420801D01*
Y687915D01*
X421311D01*
Y687405D01*
X421820D01*
Y686386D01*
X422330D01*
Y685877D01*
X422839D01*
Y684858D01*
X423349D01*
Y684349D01*
X423858D01*
Y683330D01*
X424367D01*
Y682311D01*
X424877D01*
Y681801D01*
X425386D01*
Y680273D01*
X425896D01*
Y679254D01*
X426405D01*
Y678235D01*
X426915D01*
Y677216D01*
X427424D01*
Y675688D01*
X427934D01*
Y674669D01*
X428443D01*
Y673141D01*
X428952D01*
Y672122D01*
X429462D01*
Y670594D01*
X429971D01*
Y669065D01*
X430481D01*
Y668046D01*
X430990D01*
Y666518D01*
X431500D01*
Y663971D01*
X432009D01*
Y665499D01*
X432519D01*
Y666518D01*
X433028D01*
Y668046D01*
X433537D01*
Y669575D01*
X434047D01*
Y670594D01*
X434556D01*
Y672122D01*
X435066D01*
Y673650D01*
X435575D01*
Y675179D01*
X436085D01*
Y676198D01*
X436594D01*
Y678235D01*
X437104D01*
Y680273D01*
X437613D01*
Y682311D01*
X438122D01*
Y683839D01*
X438632D01*
Y685367D01*
X439141D01*
Y688424D01*
X439651D01*
Y703707D01*
X439141D01*
Y707783D01*
X438632D01*
Y710839D01*
X438122D01*
Y712368D01*
X437613D01*
Y714406D01*
X437104D01*
Y715934D01*
X436594D01*
Y717972D01*
X436085D01*
Y718991D01*
X435575D01*
Y720519D01*
X435066D01*
Y721538D01*
X434556D01*
Y722557D01*
X433537D01*
Y723066D01*
X433028D01*
Y723576D01*
X432519D01*
Y724594D01*
X432009D01*
Y725613D01*
X431500D01*
Y726123D01*
X430990D01*
Y727142D01*
X430481D01*
Y727651D01*
X429971D01*
Y728160D01*
X428952D01*
Y728670D01*
X427934D01*
Y729179D01*
X426915D01*
Y729689D01*
X425896D01*
Y730198D01*
X425386D01*
Y730708D01*
X424877D01*
Y731217D01*
X423858D01*
Y731727D01*
X423349D01*
Y732236D01*
X422330D01*
Y732746D01*
X421311D01*
Y733255D01*
X419782D01*
Y733764D01*
X418254D01*
Y734274D01*
X417235D01*
Y734783D01*
X416216D01*
Y735293D01*
X415197D01*
Y735802D01*
X414179D01*
Y736312D01*
X413160D01*
Y736821D01*
X411631D01*
Y737330D01*
X411122D01*
Y737840D01*
X410103D01*
Y738349D01*
X408575D01*
Y738859D01*
X406027D01*
Y739368D01*
X404499D01*
Y738859D01*
X402971D01*
Y739368D01*
X402462D01*
Y739878D01*
X401952D01*
Y740387D01*
X401443D01*
Y741406D01*
X400424D01*
Y741916D01*
X399914D01*
Y742934D01*
X400933D01*
Y743444D01*
X401443D01*
Y743953D01*
X402462D01*
Y744463D01*
X403480D01*
Y745482D01*
X403990D01*
Y745991D01*
X404499D01*
Y746500D01*
X405009D01*
Y747010D01*
X405518D01*
Y748029D01*
X406027D01*
Y748538D01*
X407046D01*
Y749048D01*
X407556D01*
Y749557D01*
X408575D01*
Y750067D01*
X409084D01*
Y750576D01*
X410103D01*
Y751085D01*
X411631D01*
Y751595D01*
X412650D01*
Y752104D01*
X413160D01*
Y752614D01*
X413669D01*
Y754142D01*
X414179D01*
Y755161D01*
X414688D01*
Y756180D01*
X415197D01*
Y757199D01*
X415707D01*
Y757708D01*
X416216D01*
Y758727D01*
X415707D01*
Y759237D01*
X415197D01*
Y759746D01*
X414688D01*
Y760255D01*
X414179D01*
Y760765D01*
X413160D01*
Y761274D01*
X412650D01*
Y761784D01*
X412141D01*
Y762293D01*
X411122D01*
Y762803D01*
X410612D01*
Y763312D01*
X410103D01*
Y763821D01*
X409084D01*
Y764331D01*
X408575D01*
Y764840D01*
X407556D01*
Y765350D01*
X406537D01*
Y765859D01*
X405009D01*
Y766369D01*
X403990D01*
Y766878D01*
X402971D01*
Y767388D01*
X401952D01*
Y767897D01*
X400424D01*
Y768407D01*
X398895D01*
Y768916D01*
X397877D01*
Y769425D01*
X396858D01*
Y769935D01*
X395839D01*
Y770444D01*
X394310D01*
Y770954D01*
X392782D01*
Y771463D01*
X391254D01*
Y771973D01*
X389725D01*
Y772482D01*
X388707D01*
Y772991D01*
X387688D01*
Y773501D01*
X385650D01*
Y774010D01*
X384122D01*
Y774520D01*
X382593D01*
Y775029D01*
X381574D01*
Y775539D01*
X380046D01*
Y776048D01*
X379537D01*
Y776557D01*
X378008D01*
Y777067D01*
X377499D01*
Y777576D01*
X376989D01*
Y778086D01*
X375461D01*
Y778595D01*
X374952D01*
Y779105D01*
X373933D01*
Y779614D01*
X373423D01*
Y780124D01*
X372914D01*
Y780633D01*
X371895D01*
Y781143D01*
D02*
G37*
G36*
X311781Y728160D02*
X311271D01*
Y727651D01*
X311781D01*
Y728160D01*
D02*
G37*
G36*
X194100Y727142D02*
X193590D01*
Y726632D01*
X194100D01*
Y727142D01*
D02*
G37*
G36*
X311271Y727651D02*
X310762D01*
Y727142D01*
X310252D01*
Y726123D01*
X310762D01*
Y726632D01*
X311271D01*
Y727651D01*
D02*
G37*
G36*
X305667Y725104D02*
X305158D01*
Y724594D01*
X305667D01*
Y725104D01*
D02*
G37*
G36*
X198175Y724594D02*
X197666D01*
Y724085D01*
X198175D01*
Y724594D01*
D02*
G37*
G36*
X309234Y726632D02*
X308724D01*
Y726123D01*
X308215D01*
Y725613D01*
X309234D01*
Y725104D01*
X308724D01*
Y724594D01*
X307705D01*
Y723576D01*
X307196D01*
Y722557D01*
X307705D01*
Y723066D01*
X308215D01*
Y723576D01*
X308724D01*
Y724085D01*
X309234D01*
Y724594D01*
X309743D01*
Y725104D01*
X310252D01*
Y726123D01*
X309743D01*
Y725613D01*
X309234D01*
Y726632D01*
D02*
G37*
G36*
X198175Y723066D02*
X197666D01*
Y722557D01*
X198175D01*
Y723066D01*
D02*
G37*
G36*
X301082Y722557D02*
X300573D01*
Y722047D01*
X301082D01*
Y722557D01*
D02*
G37*
G36*
X299554Y722047D02*
X299045D01*
Y721538D01*
X299554D01*
Y722047D01*
D02*
G37*
G36*
X299045Y721538D02*
X298535D01*
Y721028D01*
X299045D01*
Y721538D01*
D02*
G37*
G36*
X298026Y721028D02*
X297007D01*
Y720519D01*
X298026D01*
Y721028D01*
D02*
G37*
G36*
X295479Y720010D02*
X294460D01*
Y719500D01*
X295479D01*
Y720010D01*
D02*
G37*
G36*
X206326Y717972D02*
X205817D01*
Y717462D01*
X206326D01*
Y716953D01*
X206836D01*
Y717462D01*
X206326D01*
Y717972D01*
D02*
G37*
G36*
X264403Y718481D02*
X263384D01*
Y717462D01*
X262874D01*
Y716953D01*
X262365D01*
Y716443D01*
X261856D01*
Y715934D01*
X261346D01*
Y715424D01*
X260837D01*
Y714915D01*
X259818D01*
Y714406D01*
X256761D01*
Y714915D01*
X255742D01*
Y715424D01*
X254214D01*
Y714406D01*
X254723D01*
Y713387D01*
X255233D01*
Y712368D01*
X255742D01*
Y710839D01*
X256252D01*
Y710330D01*
X256761D01*
Y709311D01*
X257271D01*
Y708292D01*
X257780D01*
Y707273D01*
X258289D01*
Y706764D01*
X258799D01*
Y705745D01*
X259308D01*
Y704726D01*
X259818D01*
Y704217D01*
X260327D01*
Y703707D01*
X260837D01*
Y702689D01*
X261346D01*
Y701670D01*
X261856D01*
Y701160D01*
X262365D01*
Y700651D01*
X262874D01*
Y699632D01*
X263893D01*
Y698613D01*
X264403D01*
Y697085D01*
X265422D01*
Y699632D01*
X265931D01*
Y701160D01*
X266441D01*
Y703198D01*
X266950D01*
Y704726D01*
X267459D01*
Y706764D01*
X267969D01*
Y708802D01*
X268478D01*
Y704726D01*
X267969D01*
Y702689D01*
X268478D01*
Y702179D01*
X269497D01*
Y702689D01*
X270007D01*
Y705745D01*
X270516D01*
Y707783D01*
X271025D01*
Y710330D01*
X271535D01*
Y711858D01*
X272044D01*
Y708802D01*
X271535D01*
Y705236D01*
X271025D01*
Y701670D01*
X270516D01*
Y700651D01*
X271025D01*
Y699632D01*
X271535D01*
Y699122D01*
X273063D01*
Y699632D01*
X273573D01*
Y700651D01*
X274082D01*
Y701670D01*
X274592D01*
Y702689D01*
X275101D01*
Y703707D01*
X275610D01*
Y704726D01*
X276120D01*
Y705236D01*
X276629D01*
Y705745D01*
X277139D01*
Y706255D01*
X277648D01*
Y707273D01*
X278158D01*
Y707783D01*
X278667D01*
Y708292D01*
X279177D01*
Y708802D01*
X279686D01*
Y709311D01*
X280195D01*
Y708802D01*
X279686D01*
Y707273D01*
X279177D01*
Y705745D01*
X278667D01*
Y704217D01*
X278158D01*
Y703198D01*
X277648D01*
Y701670D01*
X281214D01*
Y702179D01*
X282233D01*
Y703198D01*
X282743D01*
Y704217D01*
X283252D01*
Y705236D01*
X283762D01*
Y705745D01*
X284271D01*
Y706255D01*
X284780D01*
Y707273D01*
X285290D01*
Y707783D01*
X285799D01*
Y708292D01*
X286309D01*
Y708802D01*
X286818D01*
Y709311D01*
X287328D01*
Y709821D01*
X287837D01*
Y710330D01*
X288347D01*
Y710839D01*
X288856D01*
Y711349D01*
X289365D01*
Y711858D01*
X290384D01*
Y712368D01*
X290894D01*
Y712877D01*
X291403D01*
Y713387D01*
X291913D01*
Y713896D01*
X281214D01*
Y714406D01*
X280705D01*
Y713896D01*
X280195D01*
Y712368D01*
X279177D01*
Y711858D01*
X275101D01*
Y712368D01*
X274082D01*
Y712877D01*
X273063D01*
Y713387D01*
X272044D01*
Y713896D01*
X271025D01*
Y714406D01*
X270007D01*
Y714915D01*
X268988D01*
Y715424D01*
X268478D01*
Y715934D01*
X267459D01*
Y716443D01*
X266441D01*
Y716953D01*
X265931D01*
Y717462D01*
X264912D01*
Y717972D01*
X264403D01*
Y718481D01*
D02*
G37*
G36*
X223647Y714406D02*
X222628D01*
Y713896D01*
X223647D01*
Y714406D01*
D02*
G37*
G36*
X251157Y717462D02*
X249629D01*
Y715934D01*
X249119D01*
Y714406D01*
X248610D01*
Y713896D01*
X248101D01*
Y712368D01*
X247591D01*
Y711858D01*
X246572D01*
Y711349D01*
X245044D01*
Y711858D01*
X243006D01*
Y710839D01*
X243516D01*
Y709311D01*
X244025D01*
Y707783D01*
X244534D01*
Y706255D01*
X245044D01*
Y704726D01*
X245553D01*
Y703707D01*
X246063D01*
Y702689D01*
X246572D01*
Y700651D01*
X247082D01*
Y700141D01*
X247591D01*
Y698613D01*
X248101D01*
Y697594D01*
X248610D01*
Y696066D01*
X249119D01*
Y695047D01*
X249629D01*
Y694537D01*
X250138D01*
Y693519D01*
X251157D01*
Y692500D01*
X251667D01*
Y691990D01*
X252176D01*
Y691481D01*
X252686D01*
Y690971D01*
X253195D01*
Y690462D01*
X253704D01*
Y689952D01*
X254214D01*
Y689443D01*
X254723D01*
Y688424D01*
X255742D01*
Y687915D01*
X256252D01*
Y687405D01*
X256761D01*
Y686896D01*
X257271D01*
Y686386D01*
X257780D01*
Y685877D01*
X259818D01*
Y686386D01*
X260327D01*
Y686896D01*
X260837D01*
Y687405D01*
X261346D01*
Y688424D01*
X261856D01*
Y688933D01*
X262365D01*
Y689952D01*
X262874D01*
Y690462D01*
X263384D01*
Y690971D01*
Y691990D01*
X263893D01*
Y693009D01*
X264403D01*
Y695047D01*
X263384D01*
Y696066D01*
X262874D01*
Y696575D01*
X262365D01*
Y698103D01*
X261856D01*
Y699122D01*
X261346D01*
Y699632D01*
X260837D01*
Y700141D01*
X260327D01*
Y701160D01*
X259818D01*
Y702179D01*
X259308D01*
Y703198D01*
X257780D01*
Y703707D01*
X257271D01*
Y704726D01*
X256761D01*
Y705236D01*
X256252D01*
Y706255D01*
X256761D01*
Y705745D01*
X257271D01*
Y706255D01*
X256761D01*
Y707273D01*
X256252D01*
Y708292D01*
X255742D01*
Y709821D01*
X255233D01*
Y711349D01*
X254723D01*
Y712368D01*
X254214D01*
Y713896D01*
X253704D01*
Y714406D01*
X253195D01*
Y715934D01*
X252686D01*
Y716443D01*
X252176D01*
Y716953D01*
X251157D01*
Y717462D01*
D02*
G37*
G36*
X321970Y722557D02*
X319932D01*
Y722047D01*
X317894D01*
Y717462D01*
X316366D01*
Y716443D01*
X315856D01*
Y715934D01*
X315347D01*
Y714406D01*
X315856D01*
Y713896D01*
X316366D01*
Y713387D01*
X316875D01*
Y712877D01*
X317894D01*
Y712368D01*
X318404D01*
Y711858D01*
X318913D01*
Y711349D01*
X319422D01*
Y709821D01*
X319932D01*
Y708802D01*
X320441D01*
Y708292D01*
X320951D01*
Y707783D01*
X321460D01*
Y706764D01*
X321970D01*
Y705745D01*
X322479D01*
Y704726D01*
X322989D01*
Y703198D01*
X321970D01*
Y703707D01*
X321460D01*
Y704217D01*
X320951D01*
Y704726D01*
X320441D01*
Y705236D01*
X319932D01*
Y705745D01*
X319422D01*
Y706764D01*
X318913D01*
Y707273D01*
X318404D01*
Y708292D01*
X317894D01*
Y708802D01*
X317385D01*
Y709821D01*
X316875D01*
Y710330D01*
X316366D01*
Y710839D01*
X315856D01*
Y711858D01*
X315347D01*
Y712368D01*
X314837D01*
Y712877D01*
X314328D01*
Y713896D01*
X313819D01*
Y714406D01*
X313309D01*
Y715424D01*
X312800D01*
Y715934D01*
X312290D01*
Y716443D01*
X311781D01*
Y717462D01*
X311271D01*
Y717972D01*
X310762D01*
Y718991D01*
X310252D01*
Y719500D01*
X309743D01*
Y720010D01*
X309234D01*
Y720519D01*
X308724D01*
Y721028D01*
X307705D01*
Y720519D01*
X308215D01*
Y720010D01*
X308724D01*
Y718991D01*
X309234D01*
Y718481D01*
X309743D01*
Y717972D01*
X310252D01*
Y716953D01*
X310762D01*
Y715934D01*
X311271D01*
Y715424D01*
X311781D01*
Y714406D01*
X312290D01*
Y713387D01*
X312800D01*
Y712368D01*
X312290D01*
Y711858D01*
X310762D01*
Y711349D01*
X307705D01*
Y710839D01*
X305667D01*
Y710330D01*
X304139D01*
Y709821D01*
X302611D01*
Y709311D01*
X301592D01*
Y708802D01*
X300573D01*
Y708292D01*
X299554D01*
Y707783D01*
X298026D01*
Y707273D01*
X297516D01*
Y706764D01*
X296498D01*
Y706255D01*
X295479D01*
Y705745D01*
X294969D01*
Y705236D01*
X294460D01*
Y704726D01*
X293441D01*
Y704217D01*
X292931D01*
Y703707D01*
X292422D01*
Y703198D01*
X291913D01*
Y702689D01*
X291403D01*
Y702179D01*
X290894D01*
Y701670D01*
X290384D01*
Y701160D01*
X289875D01*
Y700651D01*
X289365D01*
Y700141D01*
X288856D01*
Y699632D01*
X288347D01*
Y698613D01*
X287837D01*
Y697594D01*
X287328D01*
Y693519D01*
X286818D01*
Y692500D01*
X286309D01*
Y691481D01*
X285799D01*
Y690971D01*
X284780D01*
Y691481D01*
X282233D01*
Y689952D01*
X281724D01*
Y689443D01*
X280705D01*
Y688933D01*
X278667D01*
Y688424D01*
X277139D01*
Y687915D01*
X276629D01*
Y687405D01*
X276120D01*
Y686896D01*
X275610D01*
Y686386D01*
X275101D01*
Y685367D01*
X274592D01*
Y684858D01*
X274082D01*
Y684349D01*
X273573D01*
Y682820D01*
X273063D01*
Y681801D01*
X272554D01*
Y680273D01*
X272044D01*
Y678235D01*
X272554D01*
Y673141D01*
X273063D01*
Y670594D01*
X273573D01*
Y668556D01*
X274082D01*
Y666518D01*
X274592D01*
Y664990D01*
X275101D01*
Y663461D01*
X275610D01*
Y662443D01*
X276120D01*
Y661933D01*
X276629D01*
Y661424D01*
X277139D01*
Y660914D01*
X277648D01*
Y659895D01*
X278158D01*
Y659386D01*
X278667D01*
Y658876D01*
X279177D01*
Y657858D01*
X279686D01*
Y657348D01*
X280195D01*
Y656839D01*
X280705D01*
Y656329D01*
X281214D01*
Y655820D01*
X281724D01*
Y655310D01*
X282233D01*
Y654801D01*
X282743D01*
Y654292D01*
X283252D01*
Y653782D01*
X283762D01*
Y653273D01*
X284271D01*
Y652763D01*
X284780D01*
Y652254D01*
X285290D01*
Y651744D01*
X286309D01*
Y651235D01*
X286818D01*
Y650725D01*
X287328D01*
Y650216D01*
X288347D01*
Y649706D01*
X289365D01*
Y649197D01*
X289875D01*
Y648688D01*
X290894D01*
Y648178D01*
X291913D01*
Y647669D01*
X292931D01*
Y647159D01*
X293950D01*
Y646650D01*
X294969D01*
Y646140D01*
X296498D01*
Y645631D01*
X297516D01*
Y645122D01*
X299554D01*
Y644612D01*
X301082D01*
Y644103D01*
X303630D01*
Y643593D01*
X306686D01*
Y643084D01*
X314328D01*
Y643593D01*
X318913D01*
Y644103D01*
X321460D01*
Y644612D01*
X323498D01*
Y645122D01*
X325026D01*
Y645631D01*
X325536D01*
Y646140D01*
X327064D01*
Y646650D01*
X328083D01*
Y647159D01*
X328592D01*
Y647669D01*
X329611D01*
Y648178D01*
X330630D01*
Y648688D01*
X331140D01*
Y649197D01*
X332159D01*
Y649706D01*
X333177D01*
Y650216D01*
X333687D01*
Y650725D01*
X334196D01*
Y651235D01*
X334706D01*
Y651744D01*
X335725D01*
Y652254D01*
X336234D01*
Y652763D01*
X336743D01*
Y653273D01*
X337253D01*
Y653782D01*
X337762D01*
Y654292D01*
X338272D01*
Y654801D01*
X338781D01*
Y655310D01*
X339291D01*
Y655820D01*
X339800D01*
Y656329D01*
X340309D01*
Y656839D01*
X340819D01*
Y657348D01*
X341328D01*
Y657858D01*
X341838D01*
Y658876D01*
X342347D01*
Y659386D01*
X342857D01*
Y659895D01*
X343366D01*
Y660914D01*
X343876D01*
Y661424D01*
X344385D01*
Y662443D01*
X344894D01*
Y662952D01*
X345404D01*
Y663971D01*
X345913D01*
Y664990D01*
X346423D01*
Y666009D01*
X346932D01*
Y667028D01*
X347442D01*
Y669065D01*
X347951D01*
Y670084D01*
X347442D01*
Y670594D01*
X346932D01*
Y671103D01*
X346423D01*
Y671612D01*
X345913D01*
Y672122D01*
X345404D01*
Y672631D01*
X344894D01*
Y673141D01*
X343876D01*
Y673650D01*
X343366D01*
Y674160D01*
X342857D01*
Y674669D01*
X341838D01*
Y675179D01*
X341328D01*
Y675688D01*
X340309D01*
Y676198D01*
X339291D01*
Y676707D01*
X338781D01*
Y677216D01*
X337762D01*
Y677726D01*
X337253D01*
Y678235D01*
X336234D01*
Y678745D01*
X335725D01*
Y679254D01*
X334706D01*
Y679764D01*
X334196D01*
Y680273D01*
X332668D01*
Y680782D01*
X331649D01*
Y681292D01*
X331140D01*
Y681801D01*
X330630D01*
Y683330D01*
X330121D01*
Y685367D01*
X329611D01*
Y686386D01*
X329102D01*
Y688424D01*
X328592D01*
Y689443D01*
X328083D01*
Y690971D01*
X327574D01*
Y693519D01*
X327064D01*
Y696575D01*
X326555D01*
Y697594D01*
X326045D01*
Y699632D01*
X325536D01*
Y701670D01*
X325026D01*
Y702689D01*
X324517D01*
Y704726D01*
X324007D01*
Y706255D01*
X323498D01*
Y707273D01*
X322989D01*
Y707783D01*
X322479D01*
Y708802D01*
X321970D01*
Y709821D01*
X321460D01*
Y710839D01*
X320951D01*
Y711858D01*
X320441D01*
Y712877D01*
X321460D01*
Y711858D01*
X321970D01*
Y711349D01*
X322479D01*
Y710330D01*
X322989D01*
Y709311D01*
X323498D01*
Y708802D01*
X324007D01*
Y707273D01*
X324517D01*
Y706255D01*
X325026D01*
Y705236D01*
X325536D01*
Y703707D01*
X326045D01*
Y701670D01*
X326555D01*
Y699632D01*
X327064D01*
Y699122D01*
X327574D01*
Y698103D01*
X328083D01*
Y697085D01*
X328592D01*
Y696575D01*
X329102D01*
Y695556D01*
X329611D01*
Y694537D01*
X330121D01*
Y692500D01*
X330630D01*
Y691481D01*
X331140D01*
Y690971D01*
X331649D01*
Y689952D01*
X332159D01*
Y694537D01*
X331649D01*
Y698103D01*
X331140D01*
Y701160D01*
X330630D01*
Y704217D01*
X330121D01*
Y706764D01*
X329611D01*
Y709311D01*
X329102D01*
Y710839D01*
X328592D01*
Y712877D01*
X328083D01*
Y715424D01*
X327574D01*
Y716953D01*
X327064D01*
Y718991D01*
X326555D01*
Y721028D01*
X326045D01*
Y721538D01*
X323498D01*
Y722047D01*
X321970D01*
Y722557D01*
D02*
G37*
G36*
X442707Y689952D02*
X442198D01*
Y689443D01*
X441688D01*
Y688933D01*
Y688424D01*
Y687915D01*
X442198D01*
Y688424D01*
X442707D01*
Y688933D01*
X443217D01*
Y689443D01*
X442707D01*
Y689952D01*
D02*
G37*
G36*
X441179Y684349D02*
X440670D01*
Y683839D01*
Y683330D01*
Y682820D01*
X441179D01*
Y684349D01*
D02*
G37*
G36*
X336234Y689952D02*
X335725D01*
Y687405D01*
X336234D01*
Y684858D01*
X336743D01*
Y684349D01*
X337253D01*
Y683839D01*
X338272D01*
Y683330D01*
X338781D01*
Y682820D01*
X339291D01*
Y682311D01*
X339800D01*
Y681801D01*
X340309D01*
Y681292D01*
X340819D01*
Y680782D01*
X341328D01*
Y680273D01*
X341838D01*
Y679764D01*
X342857D01*
Y679254D01*
X343366D01*
Y679764D01*
X342857D01*
Y680273D01*
X342347D01*
Y681292D01*
X341838D01*
Y681801D01*
X341328D01*
Y682820D01*
X340819D01*
Y683330D01*
X340309D01*
Y684349D01*
X339800D01*
Y684858D01*
X339291D01*
Y685877D01*
X338781D01*
Y686386D01*
X338272D01*
Y687405D01*
X337762D01*
Y687915D01*
X337253D01*
Y688424D01*
X336743D01*
Y689443D01*
X336234D01*
Y689952D01*
D02*
G37*
G36*
X436085Y664480D02*
X435575D01*
Y663971D01*
X436085D01*
Y664480D01*
D02*
G37*
G36*
X438632Y660405D02*
X438122D01*
Y659895D01*
X438632D01*
Y660405D01*
D02*
G37*
G36*
X437104Y660914D02*
X436594D01*
Y660405D01*
X436085Y659895D01*
Y659386D01*
X436594D01*
Y659895D01*
X437104D01*
Y660914D01*
D02*
G37*
G36*
X434047Y661424D02*
X433537D01*
Y660405D01*
X433028D01*
Y659895D01*
X433537D01*
Y658367D01*
Y657858D01*
Y656329D01*
X434047D01*
Y661424D01*
D02*
G37*
G36*
X403990Y616083D02*
X402971D01*
Y615574D01*
X403990D01*
Y616083D01*
D02*
G37*
G36*
X397877Y610989D02*
X397367D01*
Y610480D01*
X397877D01*
Y610989D01*
D02*
G37*
G36*
X383612Y625253D02*
X382084D01*
Y624744D01*
X381065D01*
Y624234D01*
X379537D01*
Y623725D01*
X378518D01*
Y623215D01*
X376989D01*
Y622706D01*
X375461D01*
Y622197D01*
X374442D01*
Y621687D01*
X372914D01*
Y621178D01*
X371895D01*
Y619650D01*
X372404D01*
Y618631D01*
X372914D01*
Y618121D01*
X373423D01*
Y617102D01*
X373933D01*
Y616083D01*
X374442D01*
Y615574D01*
X374952D01*
Y615065D01*
X375461D01*
Y614046D01*
X375970D01*
Y613536D01*
X376480D01*
Y613027D01*
X376989D01*
Y612008D01*
X378008D01*
Y610989D01*
X379027D01*
Y610480D01*
X379537D01*
Y609970D01*
X380555D01*
Y609461D01*
X385140D01*
Y609970D01*
X388197D01*
Y610480D01*
X389725D01*
Y610989D01*
X391763D01*
Y611498D01*
X393292D01*
Y612008D01*
X394310D01*
Y612517D01*
X395329D01*
Y613027D01*
X395839D01*
Y613536D01*
X396348D01*
Y614046D01*
X396858D01*
Y614555D01*
X397367D01*
Y615065D01*
X398386D01*
Y615574D01*
X399405D01*
Y616083D01*
X399914D01*
Y616593D01*
X400424D01*
Y617102D01*
X401443D01*
Y617612D01*
X401952D01*
Y618121D01*
X402971D01*
Y618631D01*
X403480D01*
Y619650D01*
X396858D01*
Y620159D01*
X394820D01*
Y620668D01*
X393292D01*
Y621178D01*
X391254D01*
Y621687D01*
X390235D01*
Y622197D01*
X389216D01*
Y622706D01*
X387688D01*
Y623215D01*
X386159D01*
Y623725D01*
X385140D01*
Y624234D01*
X384631D01*
Y624744D01*
X383612D01*
Y625253D01*
D02*
G37*
G36*
X396858Y607932D02*
X395839D01*
Y607423D01*
X396858D01*
Y607932D01*
D02*
G37*
G36*
X451877Y607423D02*
X451368D01*
Y606913D01*
X451877D01*
Y607423D01*
D02*
G37*
G36*
X422330Y570234D02*
X420801D01*
Y569724D01*
X422330D01*
Y570234D01*
D02*
G37*
G36*
X424367Y569724D02*
X423349D01*
Y569215D01*
X424367D01*
Y569724D01*
D02*
G37*
G36*
X426405Y568196D02*
X425896D01*
Y567686D01*
X426405D01*
Y568196D01*
D02*
G37*
G36*
X280705Y555460D02*
X280195D01*
Y554950D01*
X280705D01*
Y555460D01*
D02*
G37*
G36*
X302611Y560554D02*
X301592D01*
Y560045D01*
X301082D01*
Y559535D01*
X300573D01*
Y558516D01*
X300064D01*
Y558007D01*
X299554D01*
Y556988D01*
X299045D01*
Y556479D01*
X298535D01*
Y555460D01*
X298026D01*
Y554441D01*
X298535D01*
Y553932D01*
X303120D01*
Y554441D01*
X303630D01*
Y555460D01*
X304139D01*
Y555969D01*
X303630D01*
Y559535D01*
X303120D01*
Y560045D01*
X302611D01*
Y560554D01*
D02*
G37*
G36*
X287837Y554441D02*
X287328D01*
Y553422D01*
X287837D01*
Y553932D01*
Y554441D01*
D02*
G37*
G36*
X394820Y555969D02*
X393801D01*
Y554950D01*
Y554441D01*
Y551894D01*
X394310D01*
Y551384D01*
X396348D01*
Y551894D01*
X396858D01*
Y552403D01*
X397877D01*
Y552913D01*
X397367D01*
Y553932D01*
X396858D01*
Y554441D01*
X395839D01*
Y554950D01*
X395329D01*
Y555460D01*
X394820D01*
Y555969D01*
D02*
G37*
G36*
X293950Y563611D02*
X293441D01*
Y563101D01*
X292931D01*
Y562082D01*
X292422D01*
Y560554D01*
X291913D01*
Y559535D01*
X291403D01*
Y558007D01*
X290894D01*
Y556479D01*
X290384D01*
Y554950D01*
X289875D01*
Y553422D01*
X289365D01*
Y550875D01*
X288856D01*
Y549347D01*
X288347D01*
Y548328D01*
X288856D01*
Y548837D01*
X289365D01*
Y549347D01*
X290384D01*
Y549856D01*
X290894D01*
Y550365D01*
X291403D01*
Y550875D01*
X291913D01*
Y551384D01*
X292422D01*
Y551894D01*
X293441D01*
Y552403D01*
X293950D01*
Y553932D01*
X294460D01*
Y554950D01*
X294969D01*
Y559535D01*
X294460D01*
Y561573D01*
X293950D01*
Y563101D01*
Y563611D01*
D02*
G37*
G36*
X417745Y568705D02*
X412141D01*
Y568196D01*
X410612D01*
Y567686D01*
X409594D01*
Y567177D01*
X408575D01*
Y566668D01*
X407556D01*
Y566158D01*
X406537D01*
Y565649D01*
X405518D01*
Y565139D01*
X405009D01*
Y564630D01*
X403990D01*
Y564120D01*
X403480D01*
Y563611D01*
X402971D01*
Y562592D01*
X402462D01*
Y562082D01*
X401443D01*
Y561064D01*
X400933D01*
Y560045D01*
X400424D01*
Y559535D01*
X399914D01*
Y554950D01*
Y554441D01*
Y553422D01*
X400424D01*
Y552403D01*
X400933D01*
Y550365D01*
X400424D01*
Y549856D01*
X399914D01*
Y547818D01*
X400424D01*
Y546290D01*
X400933D01*
Y545780D01*
X401443D01*
Y544762D01*
X401952D01*
Y543743D01*
X402462D01*
Y542214D01*
X402971D01*
Y541195D01*
X403480D01*
Y540177D01*
X403990D01*
Y538648D01*
X404499D01*
Y537120D01*
X405009D01*
Y535592D01*
X405518D01*
Y533554D01*
X406027D01*
Y532025D01*
X406537D01*
Y531007D01*
X407046D01*
Y529478D01*
X407556D01*
Y527950D01*
X408065D01*
Y526422D01*
X408575D01*
Y525403D01*
X409084D01*
Y523365D01*
X409594D01*
Y522346D01*
X410103D01*
Y521327D01*
X410612D01*
Y519799D01*
X411122D01*
Y517761D01*
X411631D01*
Y516742D01*
X412141D01*
Y515214D01*
X412650D01*
Y514195D01*
X413160D01*
Y512157D01*
X413669D01*
Y510629D01*
X414179D01*
Y508591D01*
X414688D01*
Y509101D01*
X415197D01*
Y510629D01*
X415707D01*
Y511648D01*
X416216D01*
Y512667D01*
X416726D01*
Y513686D01*
X417235D01*
Y514704D01*
X417745D01*
Y515723D01*
X418254D01*
Y516233D01*
X418764D01*
Y517761D01*
X419273D01*
Y518780D01*
X419782D01*
Y519799D01*
X420292D01*
Y520818D01*
X420801D01*
Y522346D01*
X421311D01*
Y523365D01*
X421820D01*
Y524384D01*
X422330D01*
Y525912D01*
X422839D01*
Y526422D01*
X423349D01*
Y527950D01*
X423858D01*
Y528969D01*
X424367D01*
Y530497D01*
X424877D01*
Y531516D01*
X425386D01*
Y533044D01*
X425896D01*
Y534063D01*
X426405D01*
Y535082D01*
X426915D01*
Y536610D01*
X427424D01*
Y537629D01*
X427934D01*
Y539158D01*
X428443D01*
Y540686D01*
X428952D01*
Y541705D01*
X429462D01*
Y542724D01*
X429971D01*
Y544252D01*
X430481D01*
Y545271D01*
X430990D01*
Y546290D01*
X431500D01*
Y547818D01*
X432009D01*
Y549856D01*
X432519D01*
Y551384D01*
X433028D01*
Y552403D01*
X433537D01*
Y553932D01*
X434047D01*
Y555460D01*
X434556D01*
Y556988D01*
X435066D01*
Y558007D01*
X434556D01*
Y558516D01*
X434047D01*
Y559535D01*
X433537D01*
Y560045D01*
X433028D01*
Y560554D01*
X432519D01*
Y561064D01*
X431500D01*
Y561573D01*
X430990D01*
Y562082D01*
X429971D01*
Y562592D01*
X429462D01*
Y563101D01*
X428952D01*
Y563611D01*
X428443D01*
Y564120D01*
X427424D01*
Y564630D01*
X425896D01*
Y565139D01*
X425386D01*
Y565649D01*
X424367D01*
Y566158D01*
X423349D01*
Y566668D01*
X422330D01*
Y567177D01*
X420801D01*
Y567686D01*
X419273D01*
Y568196D01*
X417745D01*
Y568705D01*
D02*
G37*
G36*
X403990Y522855D02*
X403480D01*
Y516233D01*
X402971D01*
Y511138D01*
X403480D01*
Y509101D01*
X402971D01*
Y502987D01*
X402462D01*
Y498912D01*
X401952D01*
Y496365D01*
Y495855D01*
Y494836D01*
X401443D01*
Y491780D01*
X400933D01*
Y488214D01*
X400424D01*
Y486176D01*
X399914D01*
Y483629D01*
X399405D01*
Y481591D01*
X398895D01*
Y477006D01*
X398386D01*
Y474968D01*
X397877D01*
Y472930D01*
X400424D01*
Y473440D01*
X409594D01*
Y473949D01*
X413160D01*
Y474459D01*
X416216D01*
Y474968D01*
X418764D01*
Y475477D01*
X420292D01*
Y475987D01*
X421311D01*
Y476496D01*
X422839D01*
Y477006D01*
X423858D01*
Y480062D01*
X423349D01*
Y481591D01*
X422839D01*
Y482610D01*
X422330D01*
Y484138D01*
X421820D01*
Y485157D01*
X421311D01*
Y485666D01*
X420801D01*
Y486685D01*
X420292D01*
Y487195D01*
X419782D01*
Y488214D01*
X419273D01*
Y488723D01*
X418764D01*
Y490251D01*
X418254D01*
Y491270D01*
X417745D01*
Y492289D01*
X417235D01*
Y493308D01*
X416726D01*
Y494327D01*
X416216D01*
Y495855D01*
X415707D01*
Y496874D01*
X415197D01*
Y497893D01*
X414688D01*
Y498912D01*
X414179D01*
Y499931D01*
X413669D01*
Y500950D01*
X413160D01*
Y501968D01*
X412650D01*
Y502987D01*
X412141D01*
Y505025D01*
X411631D01*
Y506044D01*
X411122D01*
Y507063D01*
X410612D01*
Y508082D01*
X410103D01*
Y509101D01*
X409594D01*
Y510120D01*
X409084D01*
Y511138D01*
X408575D01*
Y512157D01*
X408065D01*
Y513686D01*
X407556D01*
Y514704D01*
X407046D01*
Y515723D01*
X406537D01*
Y516742D01*
X406027D01*
Y518270D01*
X405518D01*
Y519289D01*
X405009D01*
Y520818D01*
X404499D01*
Y521837D01*
X403990D01*
Y522855D01*
D02*
G37*
G36*
X253195Y466307D02*
X252686D01*
Y463251D01*
X253195D01*
Y462741D01*
X253704D01*
Y462232D01*
X254723D01*
Y461213D01*
X255233D01*
Y459685D01*
X255742D01*
Y459175D01*
X256252D01*
Y458666D01*
X256761D01*
Y458156D01*
X257271D01*
Y457647D01*
X257780D01*
Y457137D01*
X258799D01*
Y456628D01*
X259308D01*
Y456119D01*
X259818D01*
Y455609D01*
X260327D01*
Y455100D01*
X261346D01*
Y454590D01*
X261856D01*
Y454081D01*
X262874D01*
Y453571D01*
X263384D01*
Y454081D01*
X262874D01*
Y455100D01*
X262365D01*
Y455609D01*
X261856D01*
Y456119D01*
X261346D01*
Y457137D01*
X260837D01*
Y457647D01*
X260327D01*
Y458156D01*
X259818D01*
Y459175D01*
X259308D01*
Y459685D01*
X258799D01*
Y460194D01*
X258289D01*
Y460704D01*
X257780D01*
Y461722D01*
X257271D01*
Y462232D01*
X256761D01*
Y462741D01*
X256252D01*
Y463251D01*
X255742D01*
Y463760D01*
X255233D01*
Y464270D01*
X254723D01*
Y464779D01*
X254214D01*
Y465289D01*
X253704D01*
Y465798D01*
X253195D01*
Y466307D01*
D02*
G37*
G36*
X383612Y465798D02*
X383103D01*
Y464779D01*
X382593D01*
Y463760D01*
X382084D01*
Y462741D01*
X381574D01*
Y461722D01*
Y461213D01*
X381065D01*
Y460194D01*
X380555D01*
Y459175D01*
X380046D01*
Y458156D01*
X379537D01*
Y457647D01*
X379027D01*
Y456119D01*
X378518D01*
Y455609D01*
X378008D01*
Y455100D01*
X377499D01*
Y454081D01*
X376989D01*
Y453571D01*
X376480D01*
Y453062D01*
X375970D01*
Y452043D01*
X374952D01*
Y451024D01*
X374442D01*
Y450515D01*
X373933D01*
Y450005D01*
X373423D01*
Y449496D01*
X372914D01*
Y448987D01*
X372404D01*
Y447968D01*
X371895D01*
Y447458D01*
X371385D01*
Y446949D01*
X372404D01*
Y447458D01*
X372914D01*
Y447968D01*
X373423D01*
Y448477D01*
X374442D01*
Y448987D01*
X374952D01*
Y449496D01*
X375461D01*
Y450005D01*
X376480D01*
Y450515D01*
X376989D01*
Y451024D01*
X377499D01*
Y451534D01*
X378518D01*
Y452043D01*
X379027D01*
Y452552D01*
X379537D01*
Y453062D01*
X380046D01*
Y453571D01*
X381065D01*
Y454081D01*
X381574D01*
Y455100D01*
X382593D01*
Y455609D01*
X383103D01*
Y456119D01*
X383612D01*
Y456628D01*
X384122D01*
Y457137D01*
X384631D01*
Y457647D01*
X385140D01*
Y458666D01*
X385650D01*
Y459175D01*
X386159D01*
Y459685D01*
X386669D01*
Y460194D01*
X387178D01*
Y461213D01*
X386669D01*
Y462232D01*
X386159D01*
Y462741D01*
X385650D01*
Y463251D01*
X385140D01*
Y464270D01*
X384631D01*
Y464779D01*
X384122D01*
Y465289D01*
X383612D01*
Y465798D01*
D02*
G37*
G36*
X371385Y446949D02*
X370876D01*
Y446439D01*
X371385D01*
Y446949D01*
D02*
G37*
G36*
X384631Y447458D02*
X383103D01*
Y446949D01*
X382084D01*
Y445420D01*
X383103D01*
Y445930D01*
X383612D01*
Y446439D01*
X384631D01*
Y447458D01*
D02*
G37*
G36*
X387178Y443892D02*
X385140D01*
Y443383D01*
X384122D01*
Y442873D01*
X383103D01*
Y442364D01*
X382084D01*
Y441854D01*
X381065D01*
Y441345D01*
X379027D01*
Y440835D01*
X378008D01*
Y440326D01*
X376480D01*
Y439817D01*
X374952D01*
Y439307D01*
X373933D01*
Y438798D01*
X372404D01*
Y438288D01*
X370876D01*
Y437779D01*
X370367D01*
Y437269D01*
X369348D01*
Y436760D01*
X368838D01*
Y436250D01*
X369348D01*
Y435741D01*
X372914D01*
Y435232D01*
X381574D01*
Y435741D01*
X383103D01*
Y436250D01*
X384122D01*
Y436760D01*
X385140D01*
Y437269D01*
X386669D01*
Y437779D01*
X387688D01*
Y438288D01*
X388197D01*
Y439817D01*
X387688D01*
Y442873D01*
X387178D01*
Y443892D01*
D02*
G37*
G36*
X254214Y454081D02*
X253704D01*
Y453571D01*
X253195D01*
Y453062D01*
X253704D01*
Y451534D01*
X254214D01*
Y450515D01*
X254723D01*
Y449496D01*
X255233D01*
Y448987D01*
X255742D01*
Y448477D01*
X256252D01*
Y447968D01*
X256761D01*
Y447458D01*
X257271D01*
Y446949D01*
X258289D01*
Y445930D01*
X258799D01*
Y445420D01*
X259308D01*
Y444402D01*
X259818D01*
Y443892D01*
X260837D01*
Y442873D01*
X261346D01*
Y442364D01*
X262365D01*
Y441854D01*
X262874D01*
Y441345D01*
X263384D01*
Y440835D01*
X264403D01*
Y440326D01*
X264912D01*
Y439817D01*
X265931D01*
Y439307D01*
X266441D01*
Y438798D01*
X266950D01*
Y438288D01*
X267459D01*
Y437779D01*
X268478D01*
Y437269D01*
X269497D01*
Y436760D01*
X270516D01*
Y436250D01*
X271025D01*
Y435741D01*
X272044D01*
Y435232D01*
X272554D01*
Y434722D01*
X273063D01*
Y434213D01*
X273573D01*
Y433703D01*
X274082D01*
Y433194D01*
X274592D01*
Y432684D01*
X275101D01*
Y432175D01*
X276120D01*
Y431665D01*
X276629D01*
Y431156D01*
X277648D01*
Y430647D01*
X278158D01*
Y430137D01*
X278667D01*
Y429628D01*
X279686D01*
Y429118D01*
X280195D01*
Y428609D01*
X281214D01*
Y428099D01*
X281724D01*
Y427590D01*
X282233D01*
Y427080D01*
X283252D01*
Y426571D01*
X283762D01*
Y426062D01*
X284271D01*
Y425552D01*
X285290D01*
Y425043D01*
X286309D01*
Y424533D01*
X286818D01*
Y424024D01*
X287837D01*
Y423514D01*
X288856D01*
Y423005D01*
X289365D01*
Y422495D01*
X290384D01*
Y421986D01*
X291403D01*
Y421477D01*
X291913D01*
Y420967D01*
X292931D01*
Y420458D01*
X293441D01*
Y419948D01*
X294460D01*
Y419439D01*
X295479D01*
Y418929D01*
X295988D01*
Y418420D01*
X297007D01*
Y417910D01*
X298026D01*
Y417401D01*
X299045D01*
Y416892D01*
X299554D01*
Y416382D01*
X300573D01*
Y415873D01*
X301592D01*
Y415363D01*
X302611D01*
Y414854D01*
X303630D01*
Y414344D01*
X304649D01*
Y413835D01*
X305667D01*
Y413326D01*
X306686D01*
Y412816D01*
X308215D01*
Y412307D01*
X308724D01*
Y411797D01*
X309743D01*
Y411288D01*
X310762D01*
Y410778D01*
X312290D01*
Y410269D01*
X313309D01*
Y410778D01*
X312800D01*
Y411288D01*
X311781D01*
Y411797D01*
X310762D01*
Y412307D01*
X309743D01*
Y412816D01*
X308724D01*
Y413326D01*
X308215D01*
Y413835D01*
X307196D01*
Y414344D01*
X306177D01*
Y414854D01*
X305667D01*
Y415363D01*
X304649D01*
Y415873D01*
X303630D01*
Y416382D01*
X303120D01*
Y416892D01*
X302101D01*
Y417401D01*
X301592D01*
Y417910D01*
X301082D01*
Y418420D01*
X300064D01*
Y418929D01*
X299045D01*
Y419439D01*
X298535D01*
Y419948D01*
X297516D01*
Y420458D01*
X296498D01*
Y420967D01*
X295988D01*
Y421477D01*
X294969D01*
Y421986D01*
X293950D01*
Y422495D01*
X292931D01*
Y423005D01*
X291913D01*
Y424024D01*
X290894D01*
Y424533D01*
X290384D01*
Y425043D01*
X289875D01*
Y425552D01*
X288856D01*
Y426062D01*
X287837D01*
Y426571D01*
X287328D01*
Y427080D01*
X286309D01*
Y427590D01*
X285799D01*
Y428099D01*
X284780D01*
Y428609D01*
X284271D01*
Y429118D01*
X283252D01*
Y429628D01*
X282743D01*
Y430137D01*
X281724D01*
Y430647D01*
X281214D01*
Y431156D01*
X280705D01*
Y431665D01*
X279686D01*
Y432175D01*
X279177D01*
Y432684D01*
X278667D01*
Y433194D01*
X277648D01*
Y433703D01*
X277139D01*
Y434213D01*
X276120D01*
Y434722D01*
X275610D01*
Y435232D01*
X275101D01*
Y435741D01*
X274082D01*
Y436250D01*
X273573D01*
Y436760D01*
X273063D01*
Y437269D01*
X272044D01*
Y437779D01*
X271535D01*
Y438288D01*
X270516D01*
Y438798D01*
X270007D01*
Y439307D01*
X268988D01*
Y439817D01*
X268478D01*
Y440326D01*
X267969D01*
Y440835D01*
X266950D01*
Y441345D01*
X266441D01*
Y441854D01*
X265931D01*
Y442364D01*
X265422D01*
Y442873D01*
X264403D01*
Y443383D01*
X263893D01*
Y443892D01*
X263384D01*
Y444402D01*
X262874D01*
Y444911D01*
X262365D01*
Y445420D01*
X261346D01*
Y446439D01*
X260837D01*
Y446949D01*
X260327D01*
Y447458D01*
X259818D01*
Y447968D01*
X259308D01*
Y448477D01*
X258799D01*
Y448987D01*
X258289D01*
Y449496D01*
X257780D01*
Y450005D01*
X257271D01*
Y450515D01*
X256761D01*
Y451024D01*
X256252D01*
Y451534D01*
X255742D01*
Y452043D01*
X255233D01*
Y453062D01*
X254723D01*
Y453571D01*
X254214D01*
Y454081D01*
D02*
G37*
%LPD*%
G36*
X339291Y844823D02*
X341838D01*
Y844313D01*
X344385D01*
Y843804D01*
X346423D01*
Y843294D01*
X348461D01*
Y842785D01*
X350498D01*
Y842275D01*
X351517D01*
Y841766D01*
X353046D01*
Y841257D01*
X354574D01*
Y840747D01*
X354064D01*
Y840238D01*
X353555D01*
Y840747D01*
X352536D01*
Y841257D01*
X351008D01*
Y841766D01*
X348461D01*
Y842275D01*
X345913D01*
Y842785D01*
X338781D01*
Y842275D01*
X334196D01*
Y841766D01*
X331140D01*
Y841257D01*
X328083D01*
Y840747D01*
X325536D01*
Y840238D01*
X324007D01*
Y839728D01*
X321970D01*
Y839219D01*
X320951D01*
Y838709D01*
X319422D01*
Y838200D01*
X318404D01*
Y837691D01*
X316366D01*
Y838200D01*
X315856D01*
Y838709D01*
X315347D01*
Y839728D01*
X314837D01*
Y840238D01*
X314328D01*
Y842275D01*
X314837D01*
Y842785D01*
X316366D01*
Y843294D01*
X317894D01*
Y843804D01*
X319932D01*
Y844313D01*
X322989D01*
Y844823D01*
X326045D01*
Y845332D01*
X339291D01*
Y844823D01*
D02*
G37*
G36*
X290894Y836162D02*
X290384D01*
Y836672D01*
X289875D01*
Y837181D01*
X290894D01*
Y836162D01*
D02*
G37*
G36*
X328592Y838200D02*
X334196D01*
Y837691D01*
X336234D01*
Y837181D01*
X338272D01*
Y836672D01*
X339800D01*
Y836162D01*
X340309D01*
Y835653D01*
X339291D01*
Y836162D01*
X337253D01*
Y836672D01*
X334706D01*
Y837181D01*
X328592D01*
Y836672D01*
X327064D01*
Y836162D01*
X325536D01*
Y835653D01*
X322989D01*
Y835143D01*
X322479D01*
Y834634D01*
X321460D01*
Y835653D01*
X320951D01*
Y835143D01*
X320441D01*
Y834634D01*
X319932D01*
Y835653D01*
X320441D01*
Y836162D01*
X320951D01*
Y836672D01*
X321970D01*
Y837181D01*
X322479D01*
Y836672D01*
X323498D01*
Y837691D01*
X325026D01*
Y838200D01*
X326555D01*
Y838709D01*
X328592D01*
Y838200D01*
D02*
G37*
G36*
X291403Y835143D02*
X290894D01*
Y835653D01*
X291403D01*
Y835143D01*
D02*
G37*
G36*
X345404Y825464D02*
X344385D01*
Y825973D01*
X345404D01*
Y825464D01*
D02*
G37*
G36*
X334706Y835653D02*
X337762D01*
Y835143D01*
X340309D01*
Y834634D01*
X341838D01*
Y834124D01*
X342857D01*
Y833615D01*
X343876D01*
Y833106D01*
X345404D01*
Y832596D01*
X345913D01*
Y832087D01*
X346932D01*
Y831577D01*
X347442D01*
Y831068D01*
X348461D01*
Y830558D01*
X351008D01*
Y831068D01*
X353046D01*
Y831577D01*
X353555D01*
Y830558D01*
X352536D01*
Y830049D01*
X351517D01*
Y829539D01*
X350498D01*
Y829030D01*
X349479D01*
Y828521D01*
X347951D01*
Y828011D01*
X345404D01*
Y826992D01*
X344385D01*
Y826483D01*
X343876D01*
Y824445D01*
X342857D01*
Y823936D01*
X341838D01*
Y823426D01*
X337762D01*
Y823936D01*
X336234D01*
Y824445D01*
X334196D01*
Y824955D01*
X332159D01*
Y825464D01*
X330630D01*
Y825973D01*
X329611D01*
Y826483D01*
X331649D01*
Y825973D01*
X333687D01*
Y825464D01*
X335725D01*
Y824955D01*
X337762D01*
Y824445D01*
X341328D01*
Y824955D01*
X342347D01*
Y825464D01*
X336743D01*
Y825973D01*
X335725D01*
Y826483D01*
X335215D01*
Y826992D01*
X334196D01*
Y828011D01*
X333687D01*
Y828521D01*
X333177D01*
Y829030D01*
X332668D01*
Y830049D01*
X332159D01*
Y831577D01*
X335215D01*
Y832087D01*
X336234D01*
Y833106D01*
X336743D01*
Y833615D01*
X336234D01*
Y834124D01*
X333687D01*
Y833615D01*
X332159D01*
Y834124D01*
X331140D01*
Y833615D01*
X326555D01*
Y833106D01*
X325026D01*
Y834634D01*
X326555D01*
Y835143D01*
X329102D01*
Y835653D01*
X333687D01*
Y836162D01*
X334706D01*
Y835653D01*
D02*
G37*
G36*
X301082Y824445D02*
Y823936D01*
Y823426D01*
X300573D01*
Y822917D01*
X300064D01*
Y823936D01*
X300573D01*
Y824955D01*
X301082D01*
Y824445D01*
D02*
G37*
G36*
X300064Y820879D02*
X299554D01*
Y819860D01*
X299045D01*
Y818841D01*
X298535D01*
Y818332D01*
X298026D01*
Y817313D01*
X297516D01*
Y816803D01*
X297007D01*
Y816294D01*
X296498D01*
Y815785D01*
X295988D01*
Y815275D01*
X296498D01*
Y814766D01*
X297007D01*
Y814256D01*
X297516D01*
Y812218D01*
X298026D01*
Y811200D01*
X298535D01*
Y810690D01*
Y810181D01*
X298026D01*
Y810690D01*
X297516D01*
Y811709D01*
X297007D01*
Y812728D01*
X296498D01*
Y813747D01*
X295988D01*
Y814256D01*
X294969D01*
Y814766D01*
X294460D01*
Y816803D01*
X295479D01*
Y817822D01*
X295988D01*
Y817313D01*
X296498D01*
Y817822D01*
X295988D01*
Y818841D01*
X297007D01*
Y818332D01*
X297516D01*
Y818841D01*
X297007D01*
Y819860D01*
X297516D01*
Y820369D01*
X298026D01*
Y820879D01*
X298535D01*
Y821388D01*
X299045D01*
Y821898D01*
X299554D01*
Y822917D01*
X300064D01*
Y820879D01*
D02*
G37*
G36*
X290894Y816294D02*
Y815785D01*
X291403D01*
Y815275D01*
X291913D01*
Y814766D01*
Y814256D01*
X291403D01*
Y815275D01*
X290894D01*
Y815785D01*
X290384D01*
Y816803D01*
X290894D01*
Y816294D01*
D02*
G37*
%LPC*%
G36*
X322479Y836162D02*
X321460D01*
Y835653D01*
X322479D01*
Y836162D01*
D02*
G37*
G36*
X340309Y826992D02*
X339291D01*
Y826483D01*
X340309D01*
Y826992D01*
D02*
G37*
%LPD*%
G36*
X301082Y741916D02*
X300573D01*
Y742425D01*
X301082D01*
Y741916D01*
D02*
G37*
G36*
Y740387D02*
X300573D01*
Y740897D01*
Y741406D01*
X301082D01*
Y740387D01*
D02*
G37*
G36*
X296498Y739878D02*
X295988D01*
Y740387D01*
X296498D01*
Y739878D01*
D02*
G37*
G36*
X172194Y734783D02*
X173722D01*
Y734274D01*
X175760D01*
Y733764D01*
X173213D01*
Y734274D01*
X168628D01*
Y734783D01*
X167099D01*
Y735293D01*
X172194D01*
Y734783D01*
D02*
G37*
G36*
X301592Y736312D02*
X302101D01*
Y734274D01*
X302611D01*
Y733255D01*
X303120D01*
Y731727D01*
X302611D01*
Y732236D01*
X302101D01*
Y734274D01*
X301592D01*
Y736312D01*
X301082D01*
Y737330D01*
X301592D01*
Y736312D01*
D02*
G37*
G36*
X285290Y732746D02*
X284780D01*
Y731727D01*
X284271D01*
Y731217D01*
X283762D01*
Y732236D01*
X284271D01*
Y733764D01*
X285290D01*
Y732746D01*
D02*
G37*
G36*
X300064Y730708D02*
X301082D01*
Y730198D01*
X301592D01*
Y729179D01*
X301082D01*
Y729689D01*
X300573D01*
Y730198D01*
X300064D01*
Y730708D01*
X299554D01*
Y731217D01*
X300064D01*
Y730708D01*
D02*
G37*
G36*
X238931Y749048D02*
X239949D01*
Y748538D01*
X240459D01*
Y748029D01*
X240968D01*
Y747519D01*
X241987D01*
Y747010D01*
X242497D01*
Y746500D01*
X243516D01*
Y745991D01*
X244534D01*
Y745482D01*
X245553D01*
Y744972D01*
X247082D01*
Y744463D01*
X247591D01*
Y743953D01*
X248610D01*
Y743444D01*
X249629D01*
Y742934D01*
X250648D01*
Y742425D01*
X251667D01*
Y741916D01*
X252686D01*
Y741406D01*
X253195D01*
Y740897D01*
X254214D01*
Y740387D01*
X255742D01*
Y739878D01*
X256761D01*
Y739368D01*
X257780D01*
Y738859D01*
X258799D01*
Y738349D01*
X259818D01*
Y737330D01*
X260327D01*
Y736821D01*
X260837D01*
Y735802D01*
X261346D01*
Y735293D01*
X261856D01*
Y734783D01*
X262365D01*
Y733764D01*
X262874D01*
Y733255D01*
X263384D01*
Y732746D01*
X264403D01*
Y731727D01*
X264912D01*
Y731217D01*
X265422D01*
Y730708D01*
X265931D01*
Y730198D01*
X266441D01*
Y729689D01*
X266950D01*
Y729179D01*
X267459D01*
Y728670D01*
X267969D01*
Y728160D01*
X268478D01*
Y727651D01*
X268988D01*
Y726632D01*
X269497D01*
Y726123D01*
X270007D01*
Y725613D01*
X270516D01*
Y725104D01*
X271025D01*
Y724594D01*
X271535D01*
Y723066D01*
X270516D01*
Y723576D01*
X270007D01*
Y724085D01*
X269497D01*
Y724594D01*
X268988D01*
Y725104D01*
X268478D01*
Y725613D01*
X267969D01*
Y726123D01*
X267459D01*
Y726632D01*
X266441D01*
Y727142D01*
X265931D01*
Y727651D01*
X264912D01*
Y728160D01*
X263893D01*
Y728670D01*
X263384D01*
Y729179D01*
X262874D01*
Y729689D01*
X261856D01*
Y730198D01*
X261346D01*
Y730708D01*
X260837D01*
Y731217D01*
X260327D01*
Y731727D01*
X259818D01*
Y732236D01*
X259308D01*
Y732746D01*
X258799D01*
Y733255D01*
X258289D01*
Y734274D01*
X258799D01*
Y733764D01*
X259308D01*
Y733255D01*
X259818D01*
Y732746D01*
X260837D01*
Y732236D01*
X261346D01*
Y731727D01*
X261856D01*
Y731217D01*
X262874D01*
Y730198D01*
X263384D01*
Y729689D01*
X264403D01*
Y729179D01*
X264912D01*
Y730198D01*
X264403D01*
Y730708D01*
X263893D01*
Y731217D01*
X263384D01*
Y731727D01*
X262874D01*
Y732236D01*
X262365D01*
Y732746D01*
X261856D01*
Y733764D01*
X261346D01*
Y734274D01*
X260837D01*
Y734783D01*
X260327D01*
Y735293D01*
X259818D01*
Y736312D01*
X259308D01*
Y736821D01*
X258799D01*
Y737330D01*
X258289D01*
Y737840D01*
X257271D01*
Y738349D01*
X256252D01*
Y738859D01*
X254723D01*
Y739368D01*
X253704D01*
Y739878D01*
X252686D01*
Y740387D01*
X252176D01*
Y740897D01*
X250648D01*
Y741406D01*
X250138D01*
Y740897D01*
X250648D01*
Y740387D01*
X251157D01*
Y739878D01*
X252176D01*
Y739368D01*
X252686D01*
Y738859D01*
X253704D01*
Y738349D01*
X254214D01*
Y737840D01*
X254723D01*
Y737330D01*
X255233D01*
Y736821D01*
X256252D01*
Y736312D01*
X256761D01*
Y735293D01*
Y734783D01*
X256252D01*
Y735293D01*
X255742D01*
Y735802D01*
X254723D01*
Y736312D01*
X254214D01*
Y736821D01*
X253704D01*
Y737330D01*
X253195D01*
Y737840D01*
X252176D01*
Y738349D01*
X251667D01*
Y738859D01*
X251157D01*
Y739368D01*
X250648D01*
Y739878D01*
X249629D01*
Y740387D01*
X248610D01*
Y740897D01*
X248101D01*
Y741406D01*
X247591D01*
Y741916D01*
X246572D01*
Y742425D01*
X246063D01*
Y742934D01*
X245553D01*
Y743444D01*
X245044D01*
Y743953D01*
X244025D01*
Y744463D01*
X243516D01*
Y744972D01*
X243006D01*
Y745482D01*
X242497D01*
Y745991D01*
X241987D01*
Y746500D01*
X240968D01*
Y747010D01*
X240459D01*
Y747519D01*
X239440D01*
Y748029D01*
X238931D01*
Y749048D01*
X238421D01*
Y749557D01*
Y750067D01*
X238931D01*
Y749048D01*
D02*
G37*
G36*
X386669Y743444D02*
X386159D01*
Y743953D01*
X386669D01*
Y743444D01*
D02*
G37*
G36*
X387688Y740897D02*
X387178D01*
Y741406D01*
X387688D01*
Y740897D01*
D02*
G37*
G36*
X405009Y737840D02*
X404499D01*
Y738349D01*
X405009D01*
Y737840D01*
D02*
G37*
G36*
X400424Y738349D02*
X400933D01*
Y737840D01*
Y737330D01*
X399914D01*
Y738859D01*
X400424D01*
Y738349D01*
D02*
G37*
G36*
X407046Y731727D02*
X407556D01*
Y730708D01*
X407046D01*
Y731217D01*
X406537D01*
Y732746D01*
X407046D01*
Y731727D01*
D02*
G37*
G36*
X403480Y730198D02*
X402971D01*
Y730708D01*
X403480D01*
Y730198D01*
D02*
G37*
G36*
X403990Y729179D02*
X403480D01*
Y729689D01*
X403990D01*
Y729179D01*
D02*
G37*
G36*
X407556D02*
X408065D01*
Y727651D01*
X407556D01*
Y728160D01*
Y729179D01*
X407046D01*
Y729689D01*
X407556D01*
Y729179D01*
D02*
G37*
G36*
X409084Y724085D02*
X409594D01*
Y722557D01*
X409084D01*
Y723576D01*
X408575D01*
Y725104D01*
X409084D01*
Y724085D01*
D02*
G37*
G36*
Y710330D02*
Y709821D01*
X408575D01*
Y710839D01*
X409084D01*
Y710330D01*
D02*
G37*
G36*
X388197Y715424D02*
Y714915D01*
Y713896D01*
X387688D01*
Y712368D01*
X387178D01*
Y709821D01*
X386669D01*
Y708802D01*
X386159D01*
Y707273D01*
X385650D01*
Y706764D01*
X385140D01*
Y705745D01*
X384631D01*
Y704217D01*
X384122D01*
Y703707D01*
X383612D01*
Y702689D01*
X383103D01*
Y701670D01*
X382593D01*
Y700651D01*
X382084D01*
Y700141D01*
X381574D01*
Y699122D01*
X381065D01*
Y698103D01*
X380555D01*
Y697594D01*
X380046D01*
Y696575D01*
X379537D01*
Y695556D01*
X379027D01*
Y695047D01*
X378518D01*
Y694028D01*
X378008D01*
Y693519D01*
X377499D01*
Y693009D01*
X376989D01*
Y691990D01*
X376480D01*
Y691481D01*
X375970D01*
Y690971D01*
X375461D01*
Y691990D01*
X375970D01*
Y692500D01*
X376480D01*
Y693519D01*
X376989D01*
Y694028D01*
X377499D01*
Y695047D01*
X378008D01*
Y695556D01*
X378518D01*
Y696575D01*
X379027D01*
Y697085D01*
X379537D01*
Y698103D01*
X380046D01*
Y698613D01*
X380555D01*
Y699632D01*
X381065D01*
Y700651D01*
X381574D01*
Y701670D01*
X382084D01*
Y702689D01*
X382593D01*
Y703707D01*
X383103D01*
Y704726D01*
X383612D01*
Y706255D01*
X384122D01*
Y707273D01*
X384631D01*
Y708292D01*
X385140D01*
Y709311D01*
X385650D01*
Y710839D01*
X386159D01*
Y712877D01*
X386669D01*
Y714915D01*
X387178D01*
Y716953D01*
X388197D01*
Y715424D01*
D02*
G37*
G36*
X378518Y685367D02*
X378008D01*
Y685877D01*
X378518D01*
Y685367D01*
D02*
G37*
G36*
X269497Y713387D02*
X268988D01*
Y713896D01*
X269497D01*
Y713387D01*
D02*
G37*
G36*
X268988Y710839D02*
Y710330D01*
Y708802D01*
X268478D01*
Y712877D01*
X268988D01*
Y710839D01*
D02*
G37*
G36*
X255233Y708802D02*
X254723D01*
Y709311D01*
X255233D01*
Y708802D01*
D02*
G37*
G36*
X255742Y706764D02*
X256252D01*
Y706255D01*
X255742D01*
Y706764D01*
X255233D01*
Y707273D01*
X255742D01*
Y706764D01*
D02*
G37*
G36*
X319422Y714915D02*
X319932D01*
Y714406D01*
X319422D01*
Y714915D01*
X318913D01*
Y715424D01*
X319422D01*
Y714915D01*
D02*
G37*
G36*
X320441Y712877D02*
X319932D01*
Y713387D01*
X320441D01*
Y712877D01*
D02*
G37*
M02*
