G04*
G04 #@! TF.GenerationSoftware,Altium Limited,Altium Designer,23.4.1 (23)*
G04*
G04 Layer_Physical_Order=2*
G04 Layer_Color=16711680*
%FSLAX44Y44*%
%MOMM*%
G71*
G04*
G04 #@! TF.SameCoordinates,85A289D2-1239-4559-B1A6-7CFCC22C1876*
G04*
G04*
G04 #@! TF.FilePolarity,Positive*
G04*
G01*
G75*
%ADD10C,0.2540*%
%ADD13C,1.5240*%
%ADD14R,1.5240X1.5240*%
G36*
X546025Y367105D02*
X3885D01*
X3885Y960045D01*
X546025Y960045D01*
X546025Y367105D01*
D02*
G37*
%LPC*%
G36*
X148658Y946150D02*
X148590D01*
Y937260D01*
X157480D01*
Y937328D01*
X156788Y939912D01*
X155450Y942228D01*
X153558Y944120D01*
X151242Y945458D01*
X148658Y946150D01*
D02*
G37*
G36*
X146050D02*
X145982D01*
X143398Y945458D01*
X141082Y944120D01*
X139190Y942228D01*
X137852Y939912D01*
X137160Y937328D01*
Y937260D01*
X146050D01*
Y946150D01*
D02*
G37*
G36*
X174058D02*
X171382D01*
X168798Y945458D01*
X166482Y944120D01*
X164590Y942228D01*
X163252Y939912D01*
X162560Y937328D01*
Y934652D01*
X163252Y932068D01*
X163272Y932035D01*
X111308Y880072D01*
X110466Y878812D01*
X110170Y877325D01*
Y487104D01*
X56136Y433070D01*
X41310D01*
Y412750D01*
X61630D01*
Y427576D01*
X116802Y482748D01*
X117644Y484008D01*
X117940Y485495D01*
Y875716D01*
X168765Y926542D01*
X168798Y926522D01*
X171382Y925830D01*
X174058D01*
X176642Y926522D01*
X178958Y927860D01*
X180850Y929752D01*
X182188Y932068D01*
X182880Y934652D01*
Y937328D01*
X182188Y939912D01*
X180850Y942228D01*
X178958Y944120D01*
X176642Y945458D01*
X174058Y946150D01*
D02*
G37*
G36*
X157480Y934720D02*
X148590D01*
Y925830D01*
X148658D01*
X151242Y926522D01*
X153558Y927860D01*
X155450Y929752D01*
X156788Y932068D01*
X157480Y934652D01*
Y934720D01*
D02*
G37*
G36*
X146050D02*
X137160D01*
Y934652D01*
X137852Y932068D01*
X139190Y929752D01*
X141082Y927860D01*
X143398Y926522D01*
X145982Y925830D01*
X146050D01*
Y934720D01*
D02*
G37*
G36*
X123258Y946150D02*
X120582D01*
X117998Y945458D01*
X115682Y944120D01*
X113790Y942228D01*
X112452Y939912D01*
X111760Y937328D01*
Y934652D01*
X112452Y932068D01*
X113790Y929752D01*
X115682Y927860D01*
X117998Y926522D01*
X120582Y925830D01*
X123258D01*
X125842Y926522D01*
X128158Y927860D01*
X130050Y929752D01*
X131388Y932068D01*
X132080Y934652D01*
Y937328D01*
X131388Y939912D01*
X130050Y942228D01*
X128158Y944120D01*
X125842Y945458D01*
X123258Y946150D01*
D02*
G37*
G36*
X97858D02*
X95182D01*
X92598Y945458D01*
X90282Y944120D01*
X88390Y942228D01*
X87052Y939912D01*
X86360Y937328D01*
Y934652D01*
X87052Y932068D01*
X88390Y929752D01*
X90282Y927860D01*
X92598Y926522D01*
X95182Y925830D01*
X97858D01*
X100442Y926522D01*
X102758Y927860D01*
X104650Y929752D01*
X105988Y932068D01*
X106680Y934652D01*
Y937328D01*
X105988Y939912D01*
X104650Y942228D01*
X102758Y944120D01*
X100442Y945458D01*
X97858Y946150D01*
D02*
G37*
G36*
X52807Y915670D02*
X52740D01*
Y906780D01*
X61630D01*
Y906848D01*
X60938Y909432D01*
X59600Y911748D01*
X57708Y913640D01*
X55392Y914978D01*
X52807Y915670D01*
D02*
G37*
G36*
X50200D02*
X50132D01*
X47548Y914978D01*
X45232Y913640D01*
X43340Y911748D01*
X42002Y909432D01*
X41310Y906848D01*
Y906780D01*
X50200D01*
Y915670D01*
D02*
G37*
G36*
X61630Y904240D02*
X52740D01*
Y895350D01*
X52807D01*
X55392Y896042D01*
X57708Y897380D01*
X59600Y899272D01*
X60938Y901588D01*
X61630Y904172D01*
Y904240D01*
D02*
G37*
G36*
X50200D02*
X41310D01*
Y904172D01*
X42002Y901588D01*
X43340Y899272D01*
X45232Y897380D01*
X47548Y896042D01*
X50132Y895350D01*
X50200D01*
Y904240D01*
D02*
G37*
G36*
X27408Y915670D02*
X24732D01*
X22148Y914978D01*
X19832Y913640D01*
X17940Y911748D01*
X16602Y909432D01*
X15910Y906848D01*
Y904172D01*
X16602Y901588D01*
X17940Y899272D01*
X19832Y897380D01*
X22148Y896042D01*
X24732Y895350D01*
X27408D01*
X29992Y896042D01*
X32308Y897380D01*
X34200Y899272D01*
X35538Y901588D01*
X36230Y904172D01*
Y906848D01*
X35538Y909432D01*
X34200Y911748D01*
X32308Y913640D01*
X29992Y914978D01*
X27408Y915670D01*
D02*
G37*
G36*
X52807Y890270D02*
X50132D01*
X47548Y889578D01*
X45232Y888240D01*
X43340Y886348D01*
X42002Y884032D01*
X41310Y881448D01*
Y878772D01*
X42002Y876188D01*
X43340Y873872D01*
X45232Y871980D01*
X47548Y870642D01*
X50132Y869950D01*
X52807D01*
X55392Y870642D01*
X57708Y871980D01*
X59600Y873872D01*
X60938Y876188D01*
X61630Y878772D01*
Y881448D01*
X60938Y884032D01*
X59600Y886348D01*
X57708Y888240D01*
X55392Y889578D01*
X52807Y890270D01*
D02*
G37*
G36*
X27408D02*
X24732D01*
X22148Y889578D01*
X19832Y888240D01*
X17940Y886348D01*
X16602Y884032D01*
X15910Y881448D01*
Y878772D01*
X16602Y876188D01*
X17940Y873872D01*
X19832Y871980D01*
X22148Y870642D01*
X24732Y869950D01*
X27408D01*
X29992Y870642D01*
X32308Y871980D01*
X34200Y873872D01*
X35538Y876188D01*
X36230Y878772D01*
Y881448D01*
X35538Y884032D01*
X34200Y886348D01*
X32308Y888240D01*
X29992Y889578D01*
X27408Y890270D01*
D02*
G37*
G36*
X52807Y864870D02*
X50132D01*
X47548Y864178D01*
X45232Y862840D01*
X43340Y860948D01*
X42002Y858632D01*
X41310Y856048D01*
Y853372D01*
X42002Y850788D01*
X43340Y848472D01*
X45232Y846580D01*
X47548Y845242D01*
X50132Y844550D01*
X52807D01*
X55392Y845242D01*
X57708Y846580D01*
X59600Y848472D01*
X60938Y850788D01*
X61630Y853372D01*
Y856048D01*
X60938Y858632D01*
X59600Y860948D01*
X57708Y862840D01*
X55392Y864178D01*
X52807Y864870D01*
D02*
G37*
G36*
X27408D02*
X24732D01*
X22148Y864178D01*
X19832Y862840D01*
X17940Y860948D01*
X16602Y858632D01*
X15910Y856048D01*
Y853372D01*
X16602Y850788D01*
X17940Y848472D01*
X19832Y846580D01*
X22148Y845242D01*
X24732Y844550D01*
X27408D01*
X29992Y845242D01*
X32308Y846580D01*
X34200Y848472D01*
X35538Y850788D01*
X36230Y853372D01*
Y856048D01*
X35538Y858632D01*
X34200Y860948D01*
X32308Y862840D01*
X29992Y864178D01*
X27408Y864870D01*
D02*
G37*
G36*
X522038Y853440D02*
X519362D01*
X516778Y852748D01*
X514462Y851410D01*
X512570Y849518D01*
X511232Y847202D01*
X510540Y844618D01*
Y841942D01*
X511232Y839358D01*
X512570Y837042D01*
X514462Y835150D01*
X516778Y833812D01*
X519362Y833120D01*
X522038D01*
X524622Y833812D01*
X526938Y835150D01*
X528830Y837042D01*
X530168Y839358D01*
X530860Y841942D01*
Y844618D01*
X530168Y847202D01*
X528830Y849518D01*
X526938Y851410D01*
X524622Y852748D01*
X522038Y853440D01*
D02*
G37*
G36*
X27408Y839470D02*
X27340D01*
Y830580D01*
X36230D01*
Y830648D01*
X35538Y833232D01*
X34200Y835548D01*
X32308Y837440D01*
X29992Y838778D01*
X27408Y839470D01*
D02*
G37*
G36*
X24800D02*
X24732D01*
X22148Y838778D01*
X19832Y837440D01*
X17940Y835548D01*
X16602Y833232D01*
X15910Y830648D01*
Y830580D01*
X24800D01*
Y839470D01*
D02*
G37*
G36*
X52807D02*
X50132D01*
X47548Y838778D01*
X45232Y837440D01*
X43340Y835548D01*
X42002Y833232D01*
X41310Y830648D01*
Y827972D01*
X42002Y825388D01*
X43340Y823072D01*
X45232Y821180D01*
X47548Y819842D01*
X50132Y819150D01*
X52807D01*
X55392Y819842D01*
X57708Y821180D01*
X59600Y823072D01*
X60938Y825388D01*
X61630Y827972D01*
Y830648D01*
X60938Y833232D01*
X59600Y835548D01*
X57708Y837440D01*
X55392Y838778D01*
X52807Y839470D01*
D02*
G37*
G36*
X36230Y828040D02*
X27340D01*
Y819150D01*
X27408D01*
X29992Y819842D01*
X32308Y821180D01*
X34200Y823072D01*
X35538Y825388D01*
X36230Y827972D01*
Y828040D01*
D02*
G37*
G36*
X24800D02*
X15910D01*
Y827972D01*
X16602Y825388D01*
X17940Y823072D01*
X19832Y821180D01*
X22148Y819842D01*
X24732Y819150D01*
X24800D01*
Y828040D01*
D02*
G37*
G36*
X522038D02*
X519362D01*
X516778Y827348D01*
X514462Y826010D01*
X512570Y824118D01*
X511232Y821802D01*
X510540Y819218D01*
Y816542D01*
X511232Y813958D01*
X512570Y811642D01*
X514462Y809750D01*
X516778Y808412D01*
X519362Y807720D01*
X522038D01*
X524622Y808412D01*
X526938Y809750D01*
X528830Y811642D01*
X530168Y813958D01*
X530860Y816542D01*
Y819218D01*
X530168Y821802D01*
X528830Y824118D01*
X526938Y826010D01*
X524622Y827348D01*
X522038Y828040D01*
D02*
G37*
G36*
X165168D02*
X162492D01*
X159908Y827348D01*
X157592Y826010D01*
X155700Y824118D01*
X154362Y821802D01*
X153670Y819218D01*
Y816542D01*
X154362Y813958D01*
X155700Y811642D01*
X157592Y809750D01*
X159908Y808412D01*
X162492Y807720D01*
X165168D01*
X167752Y808412D01*
X170068Y809750D01*
X171960Y811642D01*
X173298Y813958D01*
X173990Y816542D01*
Y819218D01*
X173298Y821802D01*
X171960Y824118D01*
X170068Y826010D01*
X167752Y827348D01*
X165168Y828040D01*
D02*
G37*
G36*
X52807Y814070D02*
X50132D01*
X47548Y813378D01*
X45232Y812040D01*
X43340Y810148D01*
X42002Y807832D01*
X41310Y805248D01*
Y802572D01*
X42002Y799988D01*
X43340Y797672D01*
X45232Y795780D01*
X47548Y794442D01*
X50132Y793750D01*
X52807D01*
X55392Y794442D01*
X57708Y795780D01*
X59600Y797672D01*
X60938Y799988D01*
X61630Y802572D01*
Y805248D01*
X60938Y807832D01*
X59600Y810148D01*
X57708Y812040D01*
X55392Y813378D01*
X52807Y814070D01*
D02*
G37*
G36*
X27408D02*
X24732D01*
X22148Y813378D01*
X19832Y812040D01*
X17940Y810148D01*
X16602Y807832D01*
X15910Y805248D01*
Y802572D01*
X16602Y799988D01*
X16622Y799955D01*
X11893Y795227D01*
X11051Y793967D01*
X10755Y792480D01*
Y418176D01*
X11051Y416689D01*
X11893Y415429D01*
X49069Y378253D01*
X50329Y377411D01*
X51816Y377115D01*
X195580D01*
X197067Y377411D01*
X198327Y378253D01*
X203055Y382981D01*
X203088Y382962D01*
X205672Y382270D01*
X208348D01*
X210932Y382962D01*
X213248Y384300D01*
X215140Y386192D01*
X216478Y388508D01*
X217170Y391092D01*
Y393768D01*
X216478Y396352D01*
X215140Y398668D01*
X213248Y400560D01*
X210932Y401898D01*
X208348Y402590D01*
X205672D01*
X203088Y401898D01*
X200772Y400560D01*
X198880Y398668D01*
X197542Y396352D01*
X196850Y393768D01*
Y391092D01*
X197542Y388508D01*
X197561Y388475D01*
X193971Y384885D01*
X190092D01*
X189606Y386058D01*
X189740Y386192D01*
X191078Y388508D01*
X191770Y391092D01*
Y393768D01*
X191078Y396352D01*
X189740Y398668D01*
X187848Y400560D01*
X185532Y401898D01*
X182948Y402590D01*
X180272D01*
X177688Y401898D01*
X175372Y400560D01*
X173480Y398668D01*
X172142Y396352D01*
X171450Y393768D01*
Y391092D01*
X172142Y388508D01*
X173480Y386192D01*
X173614Y386058D01*
X173128Y384885D01*
X164692D01*
X164206Y386058D01*
X164340Y386192D01*
X165678Y388508D01*
X166370Y391092D01*
Y391160D01*
X146050D01*
Y391092D01*
X146742Y388508D01*
X148080Y386192D01*
X148214Y386058D01*
X147728Y384885D01*
X53425D01*
X26732Y411577D01*
X27219Y412750D01*
X27408D01*
X29992Y413442D01*
X32308Y414780D01*
X34200Y416672D01*
X35538Y418988D01*
X36230Y421572D01*
Y424248D01*
X35538Y426832D01*
X34200Y429148D01*
X32308Y431040D01*
X29992Y432378D01*
X27408Y433070D01*
X24732D01*
X22148Y432378D01*
X19832Y431040D01*
X19698Y430906D01*
X18525Y431392D01*
Y439828D01*
X19698Y440314D01*
X19832Y440180D01*
X22148Y438842D01*
X24732Y438150D01*
X27408D01*
X29992Y438842D01*
X32308Y440180D01*
X34200Y442072D01*
X35538Y444388D01*
X36230Y446972D01*
Y449648D01*
X35538Y452232D01*
X34200Y454548D01*
X32308Y456440D01*
X29992Y457778D01*
X27408Y458470D01*
X24732D01*
X22148Y457778D01*
X19832Y456440D01*
X19698Y456306D01*
X18525Y456792D01*
Y465228D01*
X19698Y465714D01*
X19832Y465580D01*
X22148Y464242D01*
X24732Y463550D01*
X24800D01*
Y473710D01*
Y483870D01*
X24732D01*
X22148Y483178D01*
X19832Y481840D01*
X19698Y481706D01*
X18525Y482192D01*
Y490628D01*
X19698Y491114D01*
X19832Y490980D01*
X22148Y489642D01*
X24732Y488950D01*
X27408D01*
X29992Y489642D01*
X32308Y490980D01*
X34200Y492872D01*
X35538Y495188D01*
X36230Y497772D01*
Y500448D01*
X35538Y503032D01*
X34200Y505348D01*
X32308Y507240D01*
X29992Y508578D01*
X27408Y509270D01*
X24732D01*
X22148Y508578D01*
X19832Y507240D01*
X19698Y507106D01*
X18525Y507592D01*
Y516028D01*
X19698Y516514D01*
X19832Y516380D01*
X22148Y515042D01*
X24732Y514350D01*
X27408D01*
X29992Y515042D01*
X32308Y516380D01*
X34200Y518272D01*
X35538Y520588D01*
X36230Y523172D01*
Y525848D01*
X35538Y528432D01*
X34200Y530748D01*
X32308Y532640D01*
X29992Y533978D01*
X27408Y534670D01*
X24732D01*
X22148Y533978D01*
X19832Y532640D01*
X19698Y532506D01*
X18525Y532992D01*
Y541428D01*
X19698Y541914D01*
X19832Y541780D01*
X22148Y540442D01*
X24732Y539750D01*
X27408D01*
X29992Y540442D01*
X32308Y541780D01*
X34200Y543672D01*
X35538Y545988D01*
X36230Y548572D01*
Y551248D01*
X35538Y553832D01*
X34200Y556148D01*
X32308Y558040D01*
X29992Y559378D01*
X27408Y560070D01*
X24732D01*
X22148Y559378D01*
X19832Y558040D01*
X19698Y557906D01*
X18525Y558392D01*
Y566828D01*
X19698Y567314D01*
X19832Y567180D01*
X22148Y565842D01*
X24732Y565150D01*
X24800D01*
Y575310D01*
Y585470D01*
X24732D01*
X22148Y584778D01*
X19832Y583440D01*
X19698Y583306D01*
X18525Y583792D01*
Y592228D01*
X19698Y592714D01*
X19832Y592580D01*
X22148Y591242D01*
X24732Y590550D01*
X27408D01*
X29992Y591242D01*
X32308Y592580D01*
X34200Y594472D01*
X35538Y596788D01*
X36230Y599372D01*
Y602048D01*
X35538Y604632D01*
X34200Y606948D01*
X32308Y608840D01*
X29992Y610178D01*
X27408Y610870D01*
X24732D01*
X22148Y610178D01*
X19832Y608840D01*
X19698Y608706D01*
X18525Y609192D01*
Y617628D01*
X19698Y618114D01*
X19832Y617980D01*
X22148Y616642D01*
X24732Y615950D01*
X27408D01*
X29992Y616642D01*
X32308Y617980D01*
X34200Y619872D01*
X35538Y622188D01*
X36230Y624772D01*
Y627448D01*
X35538Y630032D01*
X34200Y632348D01*
X32308Y634240D01*
X29992Y635578D01*
X27408Y636270D01*
X24732D01*
X22148Y635578D01*
X19832Y634240D01*
X19698Y634106D01*
X18525Y634592D01*
Y643028D01*
X19698Y643514D01*
X19832Y643380D01*
X22148Y642042D01*
X24732Y641350D01*
X24800D01*
Y651510D01*
Y661670D01*
X24732D01*
X22148Y660978D01*
X19832Y659640D01*
X19698Y659506D01*
X18525Y659992D01*
Y668428D01*
X19698Y668914D01*
X19832Y668780D01*
X22148Y667442D01*
X24732Y666750D01*
X27408D01*
X29992Y667442D01*
X32308Y668780D01*
X34200Y670672D01*
X35538Y672988D01*
X36230Y675572D01*
Y678248D01*
X35538Y680832D01*
X34200Y683148D01*
X32308Y685040D01*
X29992Y686378D01*
X27408Y687070D01*
X24732D01*
X22148Y686378D01*
X19832Y685040D01*
X19698Y684906D01*
X18525Y685392D01*
Y693828D01*
X19698Y694314D01*
X19832Y694180D01*
X22148Y692842D01*
X24732Y692150D01*
X27408D01*
X29992Y692842D01*
X32308Y694180D01*
X34200Y696072D01*
X35538Y698388D01*
X36230Y700972D01*
Y703648D01*
X35538Y706232D01*
X34200Y708548D01*
X32308Y710440D01*
X29992Y711778D01*
X27408Y712470D01*
X24732D01*
X22148Y711778D01*
X19832Y710440D01*
X19698Y710306D01*
X18525Y710792D01*
Y719228D01*
X19698Y719714D01*
X19832Y719580D01*
X22148Y718242D01*
X24732Y717550D01*
X27408D01*
X29992Y718242D01*
X32308Y719580D01*
X34200Y721472D01*
X35538Y723788D01*
X36230Y726372D01*
Y729048D01*
X35538Y731632D01*
X34200Y733948D01*
X32308Y735840D01*
X29992Y737178D01*
X27408Y737870D01*
X24732D01*
X22148Y737178D01*
X19832Y735840D01*
X19698Y735706D01*
X18525Y736192D01*
Y744628D01*
X19698Y745114D01*
X19832Y744980D01*
X22148Y743642D01*
X24732Y742950D01*
X27408D01*
X29992Y743642D01*
X32308Y744980D01*
X34200Y746872D01*
X35538Y749188D01*
X36230Y751772D01*
Y754448D01*
X35538Y757032D01*
X34200Y759348D01*
X32308Y761240D01*
X29992Y762578D01*
X27408Y763270D01*
X24732D01*
X22148Y762578D01*
X19832Y761240D01*
X19698Y761106D01*
X18525Y761592D01*
Y770028D01*
X19698Y770514D01*
X19832Y770380D01*
X22148Y769042D01*
X24732Y768350D01*
X24800D01*
Y778510D01*
Y788670D01*
X24732D01*
X22148Y787978D01*
X19832Y786640D01*
X19698Y786506D01*
X18525Y786992D01*
Y790871D01*
X22115Y794462D01*
X22148Y794442D01*
X24732Y793750D01*
X27408D01*
X29992Y794442D01*
X32308Y795780D01*
X34200Y797672D01*
X35538Y799988D01*
X36230Y802572D01*
Y805248D01*
X35538Y807832D01*
X34200Y810148D01*
X32308Y812040D01*
X29992Y813378D01*
X27408Y814070D01*
D02*
G37*
G36*
X522038Y802640D02*
X519362D01*
X516778Y801948D01*
X514462Y800610D01*
X512570Y798718D01*
X511232Y796402D01*
X510540Y793818D01*
Y791142D01*
X511232Y788558D01*
X512570Y786242D01*
X514462Y784350D01*
X516778Y783012D01*
X519362Y782320D01*
X522038D01*
X524622Y783012D01*
X526938Y784350D01*
X528830Y786242D01*
X530168Y788558D01*
X530860Y791142D01*
Y793818D01*
X530168Y796402D01*
X528830Y798718D01*
X526938Y800610D01*
X524622Y801948D01*
X522038Y802640D01*
D02*
G37*
G36*
X165168D02*
X162492D01*
X159908Y801948D01*
X157592Y800610D01*
X155700Y798718D01*
X154362Y796402D01*
X153670Y793818D01*
Y791142D01*
X154362Y788558D01*
X155700Y786242D01*
X157592Y784350D01*
X159908Y783012D01*
X162492Y782320D01*
X165168D01*
X167752Y783012D01*
X170068Y784350D01*
X171960Y786242D01*
X173298Y788558D01*
X173990Y791142D01*
Y793818D01*
X173298Y796402D01*
X171960Y798718D01*
X170068Y800610D01*
X167752Y801948D01*
X165168Y802640D01*
D02*
G37*
G36*
X27408Y788670D02*
X27340D01*
Y779780D01*
X36230D01*
Y779848D01*
X35538Y782432D01*
X34200Y784748D01*
X32308Y786640D01*
X29992Y787978D01*
X27408Y788670D01*
D02*
G37*
G36*
X165168Y777240D02*
X165100D01*
Y768350D01*
X173990D01*
Y768418D01*
X173298Y771002D01*
X171960Y773318D01*
X170068Y775210D01*
X167752Y776548D01*
X165168Y777240D01*
D02*
G37*
G36*
X52807Y788670D02*
X50132D01*
X47548Y787978D01*
X45232Y786640D01*
X43340Y784748D01*
X42002Y782432D01*
X41310Y779848D01*
Y777172D01*
X42002Y774588D01*
X43340Y772272D01*
X45232Y770380D01*
X47548Y769042D01*
X50132Y768350D01*
X52807D01*
X55392Y769042D01*
X57708Y770380D01*
X59600Y772272D01*
X60938Y774588D01*
X61630Y777172D01*
Y779848D01*
X60938Y782432D01*
X59600Y784748D01*
X57708Y786640D01*
X55392Y787978D01*
X52807Y788670D01*
D02*
G37*
G36*
X36230Y777240D02*
X27340D01*
Y768350D01*
X27408D01*
X29992Y769042D01*
X32308Y770380D01*
X34200Y772272D01*
X35538Y774588D01*
X36230Y777172D01*
Y777240D01*
D02*
G37*
G36*
X162560D02*
X162492D01*
X159908Y776548D01*
X157592Y775210D01*
X155700Y773318D01*
X154362Y771002D01*
X153670Y768418D01*
Y768350D01*
X162560D01*
Y777240D01*
D02*
G37*
G36*
X173990Y765810D02*
X165100D01*
Y756920D01*
X165168D01*
X167752Y757612D01*
X170068Y758950D01*
X171960Y760842D01*
X173298Y763158D01*
X173990Y765742D01*
Y765810D01*
D02*
G37*
G36*
X162560D02*
X153670D01*
Y765742D01*
X154362Y763158D01*
X155700Y760842D01*
X157592Y758950D01*
X159908Y757612D01*
X162492Y756920D01*
X162560D01*
Y765810D01*
D02*
G37*
G36*
X522038Y777240D02*
X519362D01*
X516778Y776548D01*
X514462Y775210D01*
X512570Y773318D01*
X511232Y771002D01*
X510540Y768418D01*
Y765742D01*
X511232Y763158D01*
X512570Y760842D01*
X514462Y758950D01*
X516778Y757612D01*
X519362Y756920D01*
X522038D01*
X524622Y757612D01*
X524655Y757632D01*
X532055Y750231D01*
Y743463D01*
X530785Y743296D01*
X530168Y745602D01*
X528830Y747918D01*
X526938Y749810D01*
X524622Y751148D01*
X522038Y751840D01*
X519362D01*
X516778Y751148D01*
X514462Y749810D01*
X512570Y747918D01*
X511232Y745602D01*
X511222Y745565D01*
X173307D01*
X173298Y745602D01*
X171960Y747918D01*
X170068Y749810D01*
X167752Y751148D01*
X165168Y751840D01*
X162492D01*
X159908Y751148D01*
X157592Y749810D01*
X155700Y747918D01*
X154362Y745602D01*
X153670Y743018D01*
Y740342D01*
X154362Y737758D01*
X155700Y735442D01*
X157592Y733550D01*
X159908Y732212D01*
X162492Y731520D01*
X165168D01*
X167752Y732212D01*
X170068Y733550D01*
X171960Y735442D01*
X173298Y737758D01*
X173307Y737795D01*
X511222D01*
X511232Y737758D01*
X512570Y735442D01*
X514462Y733550D01*
X516778Y732212D01*
X519362Y731520D01*
X522038D01*
X524622Y732212D01*
X526938Y733550D01*
X528830Y735442D01*
X530168Y737758D01*
X530785Y740064D01*
X532055Y739897D01*
Y718063D01*
X530785Y717896D01*
X530168Y720202D01*
X528830Y722518D01*
X526938Y724410D01*
X524622Y725748D01*
X522038Y726440D01*
X521970D01*
Y716280D01*
Y706120D01*
X522038D01*
X524622Y706812D01*
X526938Y708150D01*
X528830Y710042D01*
X530168Y712358D01*
X530785Y714664D01*
X532055Y714497D01*
Y692663D01*
X530785Y692496D01*
X530168Y694802D01*
X528830Y697118D01*
X526938Y699010D01*
X524622Y700348D01*
X522038Y701040D01*
X519362D01*
X516778Y700348D01*
X514462Y699010D01*
X512570Y697118D01*
X511232Y694802D01*
X510540Y692218D01*
Y689542D01*
X511232Y686958D01*
X512570Y684642D01*
X514462Y682750D01*
X516778Y681412D01*
X519362Y680720D01*
X522038D01*
X524622Y681412D01*
X526938Y682750D01*
X528830Y684642D01*
X530168Y686958D01*
X530785Y689264D01*
X532055Y689097D01*
Y578712D01*
X530882Y578226D01*
X530748Y578360D01*
X528432Y579698D01*
X525848Y580390D01*
X523172D01*
X520588Y579698D01*
X518272Y578360D01*
X516380Y576468D01*
X515042Y574152D01*
X514350Y571568D01*
Y568892D01*
X515042Y566308D01*
X516380Y563992D01*
X518272Y562100D01*
X520588Y560762D01*
X523172Y560070D01*
X523437D01*
X523819Y558800D01*
X523116Y557747D01*
X522820Y556260D01*
Y554896D01*
X520588Y554298D01*
X518272Y552960D01*
X516380Y551068D01*
X515042Y548752D01*
X514350Y546168D01*
Y543492D01*
X515042Y540908D01*
X516380Y538592D01*
X518272Y536700D01*
X520588Y535362D01*
X523172Y534670D01*
X525848D01*
X528432Y535362D01*
X530748Y536700D01*
X532640Y538592D01*
X533978Y540908D01*
X534670Y543492D01*
Y546168D01*
X533978Y548752D01*
X532640Y551068D01*
X530748Y552960D01*
X530589Y553052D01*
Y554651D01*
X538687Y562749D01*
X539529Y564009D01*
X539825Y565495D01*
Y751840D01*
X539529Y753327D01*
X538687Y754587D01*
X530149Y763125D01*
X530168Y763158D01*
X530860Y765742D01*
Y768418D01*
X530168Y771002D01*
X528830Y773318D01*
X526938Y775210D01*
X524622Y776548D01*
X522038Y777240D01*
D02*
G37*
G36*
X52807Y763270D02*
X50132D01*
X47548Y762578D01*
X45232Y761240D01*
X43340Y759348D01*
X42002Y757032D01*
X41310Y754448D01*
Y751772D01*
X42002Y749188D01*
X43340Y746872D01*
X45232Y744980D01*
X47548Y743642D01*
X50132Y742950D01*
X52807D01*
X55392Y743642D01*
X57708Y744980D01*
X59600Y746872D01*
X60938Y749188D01*
X61630Y751772D01*
Y754448D01*
X60938Y757032D01*
X59600Y759348D01*
X57708Y761240D01*
X55392Y762578D01*
X52807Y763270D01*
D02*
G37*
G36*
Y737870D02*
X52740D01*
Y728980D01*
X61630D01*
Y729048D01*
X60938Y731632D01*
X59600Y733948D01*
X57708Y735840D01*
X55392Y737178D01*
X52807Y737870D01*
D02*
G37*
G36*
X50200D02*
X50132D01*
X47548Y737178D01*
X45232Y735840D01*
X43340Y733948D01*
X42002Y731632D01*
X41310Y729048D01*
Y728980D01*
X50200D01*
Y737870D01*
D02*
G37*
G36*
X61630Y726440D02*
X52740D01*
Y717550D01*
X52807D01*
X55392Y718242D01*
X57708Y719580D01*
X59600Y721472D01*
X60938Y723788D01*
X61630Y726372D01*
Y726440D01*
D02*
G37*
G36*
X50200D02*
X41310D01*
Y726372D01*
X42002Y723788D01*
X43340Y721472D01*
X45232Y719580D01*
X47548Y718242D01*
X50132Y717550D01*
X50200D01*
Y726440D01*
D02*
G37*
G36*
X519430D02*
X519362D01*
X516778Y725748D01*
X514462Y724410D01*
X512570Y722518D01*
X511232Y720202D01*
X510540Y717618D01*
Y717550D01*
X519430D01*
Y726440D01*
D02*
G37*
G36*
Y715010D02*
X510540D01*
Y714942D01*
X511232Y712358D01*
X512570Y710042D01*
X514462Y708150D01*
X516778Y706812D01*
X519362Y706120D01*
X519430D01*
Y715010D01*
D02*
G37*
G36*
X165168Y726440D02*
X162492D01*
X159908Y725748D01*
X157592Y724410D01*
X155700Y722518D01*
X154362Y720202D01*
X153670Y717618D01*
Y714942D01*
X154362Y712358D01*
X155700Y710042D01*
X157592Y708150D01*
X159908Y706812D01*
X162492Y706120D01*
X165168D01*
X167752Y706812D01*
X170068Y708150D01*
X171960Y710042D01*
X173298Y712358D01*
X173990Y714942D01*
Y717618D01*
X173298Y720202D01*
X171960Y722518D01*
X170068Y724410D01*
X167752Y725748D01*
X165168Y726440D01*
D02*
G37*
G36*
X52807Y712470D02*
X50132D01*
X47548Y711778D01*
X45232Y710440D01*
X43340Y708548D01*
X42002Y706232D01*
X41310Y703648D01*
Y700972D01*
X42002Y698388D01*
X43340Y696072D01*
X45232Y694180D01*
X47548Y692842D01*
X50132Y692150D01*
X52807D01*
X55392Y692842D01*
X57708Y694180D01*
X59600Y696072D01*
X60938Y698388D01*
X61630Y700972D01*
Y703648D01*
X60938Y706232D01*
X59600Y708548D01*
X57708Y710440D01*
X55392Y711778D01*
X52807Y712470D01*
D02*
G37*
G36*
Y687070D02*
X50132D01*
X47548Y686378D01*
X45232Y685040D01*
X43340Y683148D01*
X42002Y680832D01*
X41310Y678248D01*
Y675572D01*
X42002Y672988D01*
X43340Y670672D01*
X45232Y668780D01*
X47548Y667442D01*
X50132Y666750D01*
X52807D01*
X55392Y667442D01*
X57708Y668780D01*
X59600Y670672D01*
X60938Y672988D01*
X61630Y675572D01*
Y678248D01*
X60938Y680832D01*
X59600Y683148D01*
X57708Y685040D01*
X55392Y686378D01*
X52807Y687070D01*
D02*
G37*
G36*
X27408Y661670D02*
X27340D01*
Y652780D01*
X36230D01*
Y652848D01*
X35538Y655432D01*
X34200Y657748D01*
X32308Y659640D01*
X29992Y660978D01*
X27408Y661670D01*
D02*
G37*
G36*
X52807D02*
X50132D01*
X47548Y660978D01*
X45232Y659640D01*
X43340Y657748D01*
X42002Y655432D01*
X41310Y652848D01*
Y650172D01*
X42002Y647588D01*
X43340Y645272D01*
X45232Y643380D01*
X47548Y642042D01*
X50132Y641350D01*
X52807D01*
X55392Y642042D01*
X57708Y643380D01*
X59600Y645272D01*
X60938Y647588D01*
X61630Y650172D01*
Y652848D01*
X60938Y655432D01*
X59600Y657748D01*
X57708Y659640D01*
X55392Y660978D01*
X52807Y661670D01*
D02*
G37*
G36*
X36230Y650240D02*
X27340D01*
Y641350D01*
X27408D01*
X29992Y642042D01*
X32308Y643380D01*
X34200Y645272D01*
X35538Y647588D01*
X36230Y650172D01*
Y650240D01*
D02*
G37*
G36*
X52807Y636270D02*
X50132D01*
X47548Y635578D01*
X45232Y634240D01*
X43340Y632348D01*
X42002Y630032D01*
X41310Y627448D01*
Y624772D01*
X42002Y622188D01*
X43340Y619872D01*
X45232Y617980D01*
X47548Y616642D01*
X50132Y615950D01*
X52807D01*
X55392Y616642D01*
X57708Y617980D01*
X59600Y619872D01*
X60938Y622188D01*
X61630Y624772D01*
Y627448D01*
X60938Y630032D01*
X59600Y632348D01*
X57708Y634240D01*
X55392Y635578D01*
X52807Y636270D01*
D02*
G37*
G36*
Y610870D02*
X50132D01*
X47548Y610178D01*
X45232Y608840D01*
X43340Y606948D01*
X42002Y604632D01*
X41310Y602048D01*
Y599372D01*
X42002Y596788D01*
X43340Y594472D01*
X45232Y592580D01*
X47548Y591242D01*
X50132Y590550D01*
X52807D01*
X55392Y591242D01*
X57708Y592580D01*
X59600Y594472D01*
X60938Y596788D01*
X61630Y599372D01*
Y602048D01*
X60938Y604632D01*
X59600Y606948D01*
X57708Y608840D01*
X55392Y610178D01*
X52807Y610870D01*
D02*
G37*
G36*
X27408Y585470D02*
X27340D01*
Y576580D01*
X36230D01*
Y576648D01*
X35538Y579232D01*
X34200Y581548D01*
X32308Y583440D01*
X29992Y584778D01*
X27408Y585470D01*
D02*
G37*
G36*
X52807D02*
X50132D01*
X47548Y584778D01*
X45232Y583440D01*
X43340Y581548D01*
X42002Y579232D01*
X41310Y576648D01*
Y573972D01*
X42002Y571388D01*
X43340Y569072D01*
X45232Y567180D01*
X47548Y565842D01*
X50132Y565150D01*
X52807D01*
X55392Y565842D01*
X57708Y567180D01*
X59600Y569072D01*
X60938Y571388D01*
X61630Y573972D01*
Y576648D01*
X60938Y579232D01*
X59600Y581548D01*
X57708Y583440D01*
X55392Y584778D01*
X52807Y585470D01*
D02*
G37*
G36*
X36230Y574040D02*
X27340D01*
Y565150D01*
X27408D01*
X29992Y565842D01*
X32308Y567180D01*
X34200Y569072D01*
X35538Y571388D01*
X36230Y573972D01*
Y574040D01*
D02*
G37*
G36*
X52807Y560070D02*
X50132D01*
X47548Y559378D01*
X45232Y558040D01*
X43340Y556148D01*
X42002Y553832D01*
X41310Y551248D01*
Y548572D01*
X42002Y545988D01*
X43340Y543672D01*
X45232Y541780D01*
X47548Y540442D01*
X50132Y539750D01*
X52807D01*
X55392Y540442D01*
X57708Y541780D01*
X59600Y543672D01*
X60938Y545988D01*
X61630Y548572D01*
Y551248D01*
X60938Y553832D01*
X59600Y556148D01*
X57708Y558040D01*
X55392Y559378D01*
X52807Y560070D01*
D02*
G37*
G36*
Y534670D02*
X52740D01*
Y525780D01*
X61630D01*
Y525848D01*
X60938Y528432D01*
X59600Y530748D01*
X57708Y532640D01*
X55392Y533978D01*
X52807Y534670D01*
D02*
G37*
G36*
X50200D02*
X50132D01*
X47548Y533978D01*
X45232Y532640D01*
X43340Y530748D01*
X42002Y528432D01*
X41310Y525848D01*
Y525780D01*
X50200D01*
Y534670D01*
D02*
G37*
G36*
X61630Y523240D02*
X52740D01*
Y514350D01*
X52807D01*
X55392Y515042D01*
X57708Y516380D01*
X59600Y518272D01*
X60938Y520588D01*
X61630Y523172D01*
Y523240D01*
D02*
G37*
G36*
X50200D02*
X41310D01*
Y523172D01*
X42002Y520588D01*
X43340Y518272D01*
X45232Y516380D01*
X47548Y515042D01*
X50132Y514350D01*
X50200D01*
Y523240D01*
D02*
G37*
G36*
X525848Y529590D02*
X523172D01*
X520588Y528898D01*
X518272Y527560D01*
X516380Y525668D01*
X515042Y523352D01*
X514350Y520768D01*
Y518092D01*
X515042Y515508D01*
X516380Y513192D01*
X518272Y511300D01*
X520588Y509962D01*
X523172Y509270D01*
X525848D01*
X528432Y509962D01*
X530748Y511300D01*
X532640Y513192D01*
X533978Y515508D01*
X534670Y518092D01*
Y520768D01*
X533978Y523352D01*
X532640Y525668D01*
X530748Y527560D01*
X528432Y528898D01*
X525848Y529590D01*
D02*
G37*
G36*
X52807Y509270D02*
X50132D01*
X47548Y508578D01*
X45232Y507240D01*
X43340Y505348D01*
X42002Y503032D01*
X41310Y500448D01*
Y497772D01*
X42002Y495188D01*
X43340Y492872D01*
X45232Y490980D01*
X47548Y489642D01*
X50132Y488950D01*
X52807D01*
X55392Y489642D01*
X57708Y490980D01*
X59600Y492872D01*
X60938Y495188D01*
X61630Y497772D01*
Y500448D01*
X60938Y503032D01*
X59600Y505348D01*
X57708Y507240D01*
X55392Y508578D01*
X52807Y509270D01*
D02*
G37*
G36*
X525848Y504190D02*
X523172D01*
X520588Y503498D01*
X518272Y502160D01*
X516380Y500268D01*
X515042Y497952D01*
X514350Y495368D01*
Y492692D01*
X515042Y490108D01*
X516380Y487792D01*
X518272Y485900D01*
X520588Y484562D01*
X523172Y483870D01*
X525848D01*
X528432Y484562D01*
X530748Y485900D01*
X532640Y487792D01*
X533978Y490108D01*
X534670Y492692D01*
Y495368D01*
X533978Y497952D01*
X532640Y500268D01*
X530748Y502160D01*
X528432Y503498D01*
X525848Y504190D01*
D02*
G37*
G36*
X27408Y483870D02*
X27340D01*
Y474980D01*
X36230D01*
Y475048D01*
X35538Y477632D01*
X34200Y479948D01*
X32308Y481840D01*
X29992Y483178D01*
X27408Y483870D01*
D02*
G37*
G36*
X525848Y478790D02*
X525780D01*
Y469900D01*
X534670D01*
Y469968D01*
X533978Y472552D01*
X532640Y474868D01*
X530748Y476760D01*
X528432Y478098D01*
X525848Y478790D01*
D02*
G37*
G36*
X523240D02*
X523172D01*
X520588Y478098D01*
X518272Y476760D01*
X516380Y474868D01*
X515042Y472552D01*
X514350Y469968D01*
Y469900D01*
X523240D01*
Y478790D01*
D02*
G37*
G36*
X52807Y483870D02*
X50132D01*
X47548Y483178D01*
X45232Y481840D01*
X43340Y479948D01*
X42002Y477632D01*
X41310Y475048D01*
Y472372D01*
X42002Y469788D01*
X43340Y467472D01*
X45232Y465580D01*
X47548Y464242D01*
X50132Y463550D01*
X52807D01*
X55392Y464242D01*
X57708Y465580D01*
X59600Y467472D01*
X60938Y469788D01*
X61630Y472372D01*
Y475048D01*
X60938Y477632D01*
X59600Y479948D01*
X57708Y481840D01*
X55392Y483178D01*
X52807Y483870D01*
D02*
G37*
G36*
X36230Y472440D02*
X27340D01*
Y463550D01*
X27408D01*
X29992Y464242D01*
X32308Y465580D01*
X34200Y467472D01*
X35538Y469788D01*
X36230Y472372D01*
Y472440D01*
D02*
G37*
G36*
X534670Y467360D02*
X525780D01*
Y458470D01*
X525848D01*
X528432Y459162D01*
X530748Y460500D01*
X532640Y462392D01*
X533978Y464708D01*
X534670Y467292D01*
Y467360D01*
D02*
G37*
G36*
X523240D02*
X514350D01*
Y467292D01*
X515042Y464708D01*
X516380Y462392D01*
X518272Y460500D01*
X520588Y459162D01*
X523172Y458470D01*
X523240D01*
Y467360D01*
D02*
G37*
G36*
X52807Y458470D02*
X50132D01*
X47548Y457778D01*
X45232Y456440D01*
X43340Y454548D01*
X42002Y452232D01*
X41310Y449648D01*
Y446972D01*
X42002Y444388D01*
X43340Y442072D01*
X45232Y440180D01*
X47548Y438842D01*
X50132Y438150D01*
X52807D01*
X55392Y438842D01*
X57708Y440180D01*
X59600Y442072D01*
X60938Y444388D01*
X61630Y446972D01*
Y449648D01*
X60938Y452232D01*
X59600Y454548D01*
X57708Y456440D01*
X55392Y457778D01*
X52807Y458470D01*
D02*
G37*
G36*
X525848Y453390D02*
X523172D01*
X520588Y452698D01*
X518272Y451360D01*
X516380Y449468D01*
X515042Y447152D01*
X514350Y444568D01*
Y441892D01*
X515042Y439308D01*
X516380Y436992D01*
X518272Y435100D01*
X520588Y433762D01*
X523172Y433070D01*
X525848D01*
X528432Y433762D01*
X530748Y435100D01*
X532640Y436992D01*
X533978Y439308D01*
X534670Y441892D01*
Y444568D01*
X533978Y447152D01*
X532640Y449468D01*
X530748Y451360D01*
X528432Y452698D01*
X525848Y453390D01*
D02*
G37*
G36*
Y427990D02*
X523172D01*
X520588Y427298D01*
X518272Y425960D01*
X516380Y424068D01*
X515042Y421752D01*
X514350Y419168D01*
Y416492D01*
X515042Y413908D01*
X516380Y411592D01*
X518272Y409700D01*
X520588Y408362D01*
X523172Y407670D01*
X525848D01*
X528432Y408362D01*
X530748Y409700D01*
X532640Y411592D01*
X533978Y413908D01*
X534670Y416492D01*
Y419168D01*
X533978Y421752D01*
X532640Y424068D01*
X530748Y425960D01*
X528432Y427298D01*
X525848Y427990D01*
D02*
G37*
G36*
X157548Y402590D02*
X157480D01*
Y393700D01*
X166370D01*
Y393768D01*
X165678Y396352D01*
X164340Y398668D01*
X162448Y400560D01*
X160132Y401898D01*
X157548Y402590D01*
D02*
G37*
G36*
X154940D02*
X154872D01*
X152288Y401898D01*
X149972Y400560D01*
X148080Y398668D01*
X146742Y396352D01*
X146050Y393768D01*
Y393700D01*
X154940D01*
Y402590D01*
D02*
G37*
%LPD*%
D10*
X526704Y556260D02*
X535940Y565495D01*
X526704Y547024D02*
Y556260D01*
X524510Y544830D02*
X526704Y547024D01*
X535940Y565495D02*
Y751840D01*
X520700Y767080D02*
X535940Y751840D01*
X163830Y741680D02*
X520700D01*
X51470Y422910D02*
X114055Y485495D01*
Y877325D01*
X172720Y935990D01*
X195580Y381000D02*
X207010Y392430D01*
X51816Y381000D02*
X195580D01*
X14640Y418176D02*
X51816Y381000D01*
X14640Y418176D02*
Y792480D01*
X26070Y803910D01*
D13*
X520700Y843280D02*
D03*
Y817880D02*
D03*
Y792480D02*
D03*
Y767080D02*
D03*
Y741680D02*
D03*
Y716280D02*
D03*
Y690880D02*
D03*
X51470Y448310D02*
D03*
Y473710D02*
D03*
Y499110D02*
D03*
Y524510D02*
D03*
Y549910D02*
D03*
X26070Y422910D02*
D03*
Y448310D02*
D03*
Y473710D02*
D03*
Y499110D02*
D03*
Y524510D02*
D03*
Y549910D02*
D03*
X51470Y575310D02*
D03*
X26070D02*
D03*
X51470Y600710D02*
D03*
Y626110D02*
D03*
Y651510D02*
D03*
Y676910D02*
D03*
Y702310D02*
D03*
Y727710D02*
D03*
X26070Y600710D02*
D03*
Y626110D02*
D03*
Y651510D02*
D03*
Y676910D02*
D03*
Y702310D02*
D03*
Y727710D02*
D03*
X51470Y753110D02*
D03*
X26070D02*
D03*
X51470Y778510D02*
D03*
Y803910D02*
D03*
Y829310D02*
D03*
Y854710D02*
D03*
Y880110D02*
D03*
Y905510D02*
D03*
X26070Y778510D02*
D03*
Y803910D02*
D03*
Y829310D02*
D03*
Y854710D02*
D03*
Y880110D02*
D03*
Y905510D02*
D03*
X156210Y392430D02*
D03*
X181610D02*
D03*
X207010D02*
D03*
X96520Y935990D02*
D03*
X121920D02*
D03*
X147320D02*
D03*
X172720D02*
D03*
X524510Y570230D02*
D03*
Y544830D02*
D03*
Y519430D02*
D03*
Y494030D02*
D03*
Y468630D02*
D03*
Y443230D02*
D03*
Y417830D02*
D03*
X163830Y817880D02*
D03*
Y792480D02*
D03*
Y767080D02*
D03*
Y741680D02*
D03*
Y716280D02*
D03*
D14*
X51470Y422910D02*
D03*
M02*
