G04*
G04 #@! TF.GenerationSoftware,Altium Limited,Altium Designer,23.4.1 (23)*
G04*
G04 Layer_Color=65535*
%FSLAX44Y44*%
%MOMM*%
G71*
G04*
G04 #@! TF.SameCoordinates,85A289D2-1239-4559-B1A6-7CFCC22C1876*
G04*
G04*
G04 #@! TF.FilePolarity,Positive*
G04*
G01*
G75*
%ADD10C,0.2540*%
G36*
X365637Y762264D02*
X365971D01*
Y761597D01*
X366304D01*
Y761264D01*
X366638D01*
Y760597D01*
X366971D01*
Y759930D01*
X367305D01*
Y759263D01*
X367638D01*
Y758262D01*
X367972D01*
Y757595D01*
X368305D01*
Y756928D01*
X368639D01*
Y755928D01*
X368972D01*
Y754927D01*
X369306D01*
Y753926D01*
X369639D01*
Y752926D01*
X370306D01*
Y753259D01*
X371640D01*
Y753593D01*
X372641D01*
Y753926D01*
X373642D01*
Y754260D01*
X375309D01*
Y754593D01*
X377310D01*
Y754927D01*
X381646D01*
Y754593D01*
X382313D01*
Y754260D01*
X382646D01*
Y753259D01*
X381979D01*
Y752926D01*
X380979D01*
Y752592D01*
X380312D01*
Y752259D01*
X379645D01*
Y751925D01*
X379311D01*
Y751592D01*
X378644D01*
Y751258D01*
X379645D01*
Y751592D01*
X380312D01*
Y751925D01*
X381312D01*
Y752259D01*
X382313D01*
Y752592D01*
X383647D01*
Y752926D01*
X385314D01*
Y753259D01*
X391651D01*
Y752926D01*
X393318D01*
Y752592D01*
X394319D01*
Y752259D01*
X395320D01*
Y751925D01*
X395987D01*
Y751592D01*
X396654D01*
Y750591D01*
X396320D01*
Y750258D01*
X395653D01*
Y749924D01*
X394986D01*
Y749591D01*
X393985D01*
Y749257D01*
X393652D01*
Y748924D01*
X392985D01*
Y748590D01*
X392318D01*
Y748257D01*
X392651D01*
Y747923D01*
X393985D01*
Y747590D01*
X395320D01*
Y747256D01*
X396654D01*
Y746923D01*
X397654D01*
Y746589D01*
X398988D01*
Y746256D01*
X400322D01*
Y745922D01*
X402657D01*
Y746256D01*
X403657D01*
Y746589D01*
X404324D01*
Y746923D01*
X404658D01*
Y747256D01*
X405325D01*
Y747590D01*
X405658D01*
Y747923D01*
X405992D01*
Y748590D01*
X406325D01*
Y748924D01*
X406659D01*
Y749924D01*
X406992D01*
Y752259D01*
X406659D01*
Y753259D01*
X406325D01*
Y753926D01*
X405992D01*
Y754260D01*
X405658D01*
Y755260D01*
X405992D01*
Y755594D01*
X406659D01*
Y755260D01*
X407659D01*
Y754927D01*
X407993D01*
Y754593D01*
X408660D01*
Y754260D01*
X408993D01*
Y753926D01*
X409327D01*
Y753593D01*
X409660D01*
Y753259D01*
X409994D01*
Y752926D01*
X410327D01*
Y752259D01*
X410661D01*
Y751592D01*
X410994D01*
Y750925D01*
X411328D01*
Y750258D01*
X411661D01*
Y749257D01*
X411995D01*
Y748257D01*
X412328D01*
Y746589D01*
X414996D01*
Y746256D01*
X417331D01*
Y745922D01*
X418665D01*
Y745589D01*
X419666D01*
Y745255D01*
X420666D01*
Y744922D01*
X421667D01*
Y744588D01*
X422334D01*
Y744255D01*
X423001D01*
Y743921D01*
X423668D01*
Y743588D01*
X424335D01*
Y743254D01*
X424668D01*
Y742921D01*
X425002D01*
Y741920D01*
X423334D01*
Y741587D01*
X421667D01*
Y741253D01*
X420666D01*
Y740920D01*
X419999D01*
Y740586D01*
X419332D01*
Y740253D01*
X418665D01*
Y739919D01*
X418332D01*
Y739586D01*
X417665D01*
Y739252D01*
X417331D01*
Y738919D01*
X416998D01*
Y738585D01*
X416664D01*
Y738251D01*
X416330D01*
Y737918D01*
X415997D01*
Y737251D01*
X415663D01*
Y736917D01*
X419332D01*
Y736584D01*
X419999D01*
Y736251D01*
X420666D01*
Y735917D01*
X421000D01*
Y735583D01*
X420666D01*
Y735250D01*
X420333D01*
Y734916D01*
X419332D01*
Y734583D01*
X418665D01*
Y734249D01*
X417998D01*
Y733916D01*
X417665D01*
Y733582D01*
X416998D01*
Y733249D01*
X416664D01*
Y732915D01*
X416330D01*
Y732582D01*
X415997D01*
Y732248D01*
X415663D01*
Y731915D01*
X415330D01*
Y731581D01*
X414996D01*
Y731248D01*
X414663D01*
Y730914D01*
X414329D01*
Y730247D01*
X413996D01*
Y729580D01*
X413662D01*
Y728580D01*
X413329D01*
Y725578D01*
X413662D01*
Y724244D01*
X413996D01*
Y723577D01*
X414329D01*
Y722910D01*
X414663D01*
Y722577D01*
X414996D01*
Y722243D01*
X415663D01*
Y721910D01*
X417998D01*
Y722243D01*
X418665D01*
Y722577D01*
X419332D01*
Y722910D01*
X419666D01*
Y723244D01*
X419999D01*
Y723577D01*
X420333D01*
Y723911D01*
X420666D01*
Y724244D01*
X421000D01*
Y724578D01*
X421333D01*
Y724911D01*
X421667D01*
Y725578D01*
X422000D01*
Y725912D01*
X422334D01*
Y726245D01*
X422667D01*
Y726912D01*
X423001D01*
Y727579D01*
X423334D01*
Y727913D01*
X424001D01*
Y723244D01*
X423668D01*
Y721576D01*
X423334D01*
Y720576D01*
X423001D01*
Y719909D01*
X422667D01*
Y719241D01*
X422334D01*
Y718575D01*
X422000D01*
Y717907D01*
X421667D01*
Y717574D01*
X421333D01*
Y717241D01*
X421000D01*
Y716240D01*
X421333D01*
Y712571D01*
X421000D01*
Y710904D01*
X420666D01*
Y709570D01*
X420333D01*
Y708569D01*
X419999D01*
Y707902D01*
X419666D01*
Y707235D01*
X419332D01*
Y706568D01*
X418999D01*
Y705901D01*
X418665D01*
Y705568D01*
X418332D01*
Y705234D01*
X417998D01*
Y704567D01*
X417665D01*
Y704234D01*
X417331D01*
Y703900D01*
X416998D01*
Y696563D01*
X416664D01*
Y695229D01*
X416330D01*
Y694228D01*
X415997D01*
Y693228D01*
X415663D01*
Y692561D01*
X415330D01*
Y691894D01*
X414996D01*
Y691227D01*
X414663D01*
Y690560D01*
X414329D01*
Y690226D01*
X413996D01*
Y689559D01*
X413662D01*
Y689226D01*
X413329D01*
Y688892D01*
X412995D01*
Y688559D01*
X412662D01*
Y688225D01*
X412328D01*
Y687892D01*
X411995D01*
Y687558D01*
X411661D01*
Y687225D01*
X411328D01*
Y686891D01*
X410994D01*
Y686558D01*
X410661D01*
Y686224D01*
X409994D01*
Y685891D01*
X409660D01*
Y685557D01*
X408993D01*
Y685224D01*
X408326D01*
Y684890D01*
X407659D01*
Y684557D01*
X407326D01*
Y684223D01*
X406325D01*
Y683890D01*
X405658D01*
Y683556D01*
X404658D01*
Y683223D01*
X403657D01*
Y682889D01*
X402657D01*
Y682556D01*
X403991D01*
Y682889D01*
X405325D01*
Y683223D01*
X405992D01*
Y683556D01*
X406992D01*
Y683890D01*
X407659D01*
Y684223D01*
X408326D01*
Y684557D01*
X408993D01*
Y684890D01*
X409327D01*
Y685224D01*
X409994D01*
Y685557D01*
X410661D01*
Y685891D01*
X410994D01*
Y686224D01*
X411661D01*
Y686558D01*
X411995D01*
Y686891D01*
X412328D01*
Y687225D01*
X412995D01*
Y687558D01*
X413329D01*
Y687892D01*
X413662D01*
Y688225D01*
X414329D01*
Y688559D01*
X414663D01*
Y688892D01*
X414996D01*
Y689226D01*
X415330D01*
Y689559D01*
X415663D01*
Y689893D01*
X415997D01*
Y690226D01*
X416664D01*
Y690560D01*
X416998D01*
Y690893D01*
X417998D01*
Y690560D01*
X418332D01*
Y689559D01*
X417998D01*
Y688892D01*
X417665D01*
Y688225D01*
X417331D01*
Y687558D01*
X416998D01*
Y686891D01*
X416664D01*
Y686558D01*
X416330D01*
Y685891D01*
X415997D01*
Y685557D01*
X415663D01*
Y685224D01*
X415330D01*
Y684557D01*
X414996D01*
Y684223D01*
X414663D01*
Y683890D01*
X414329D01*
Y683556D01*
X413996D01*
Y683223D01*
X413662D01*
Y682889D01*
X413329D01*
Y682556D01*
X412995D01*
Y682222D01*
X412662D01*
Y681889D01*
X412328D01*
Y681555D01*
X411995D01*
Y681222D01*
X411661D01*
Y680888D01*
X410994D01*
Y680555D01*
X410661D01*
Y680221D01*
X410327D01*
Y679888D01*
X409660D01*
Y679554D01*
X409327D01*
Y679221D01*
X408660D01*
Y678887D01*
X408326D01*
Y678553D01*
X407993D01*
Y678220D01*
X407659D01*
Y677887D01*
X407326D01*
Y677219D01*
X406992D01*
Y676886D01*
X406659D01*
Y676553D01*
X406325D01*
Y676219D01*
X405992D01*
Y675885D01*
X405658D01*
Y675552D01*
X405325D01*
Y675218D01*
X404991D01*
Y674885D01*
X404658D01*
Y674551D01*
X403991D01*
Y674218D01*
X403657D01*
Y673884D01*
X402990D01*
Y673551D01*
X402657D01*
Y673217D01*
X401990D01*
Y672884D01*
X401323D01*
Y672550D01*
X400656D01*
Y672217D01*
X399655D01*
Y671883D01*
X398988D01*
Y671550D01*
X397988D01*
Y671216D01*
X396987D01*
Y670883D01*
X395653D01*
Y670549D01*
X393985D01*
Y670216D01*
X391984D01*
Y669882D01*
X388983D01*
Y669549D01*
X389316D01*
Y669215D01*
X389983D01*
Y668882D01*
X390317D01*
Y668548D01*
X390984D01*
Y668215D01*
X391317D01*
Y667881D01*
X391984D01*
Y667548D01*
X392318D01*
Y667214D01*
X392985D01*
Y666881D01*
X393318D01*
Y666547D01*
X393985D01*
Y666214D01*
X394652D01*
Y665880D01*
X394986D01*
Y665547D01*
X395653D01*
Y665213D01*
X395987D01*
Y664880D01*
X396654D01*
Y664546D01*
X397321D01*
Y664213D01*
X397654D01*
Y663879D01*
X398321D01*
Y663546D01*
X398988D01*
Y663212D01*
X399655D01*
Y662879D01*
X400656D01*
Y662545D01*
X401323D01*
Y662212D01*
X402323D01*
Y661878D01*
X403324D01*
Y661545D01*
X404658D01*
Y661211D01*
X404991D01*
Y659210D01*
X404658D01*
Y658210D01*
X404324D01*
Y657209D01*
X403991D01*
Y656542D01*
X403657D01*
Y655541D01*
X403324D01*
Y654874D01*
X402990D01*
Y654207D01*
X402657D01*
Y653540D01*
X402323D01*
Y652540D01*
X401990D01*
Y651873D01*
X401656D01*
Y651206D01*
X401323D01*
Y650539D01*
X400989D01*
Y649205D01*
X401323D01*
Y646870D01*
X401656D01*
Y645536D01*
X401990D01*
Y644202D01*
X402323D01*
Y643202D01*
X402657D01*
Y642535D01*
X402990D01*
Y642201D01*
X403991D01*
Y641868D01*
X404658D01*
Y640867D01*
X404324D01*
Y641534D01*
X403657D01*
Y641868D01*
X402657D01*
Y642201D01*
X402323D01*
Y642868D01*
X401990D01*
Y643535D01*
X401656D01*
Y644869D01*
X401323D01*
Y646203D01*
X400989D01*
Y648204D01*
X400656D01*
Y650872D01*
X400989D01*
Y651873D01*
X401323D01*
Y652540D01*
X401656D01*
Y653540D01*
X401990D01*
Y654207D01*
X402323D01*
Y655208D01*
X402657D01*
Y655875D01*
X402990D01*
Y656876D01*
X403324D01*
Y657876D01*
X403657D01*
Y658876D01*
X403991D01*
Y660211D01*
X404324D01*
Y660544D01*
X403324D01*
Y660878D01*
X402323D01*
Y661211D01*
X401323D01*
Y661545D01*
X400322D01*
Y661878D01*
X399322D01*
Y662212D01*
X398655D01*
Y662545D01*
X397988D01*
Y662879D01*
X397321D01*
Y663212D01*
X396654D01*
Y663546D01*
X396320D01*
Y663879D01*
X395653D01*
Y664213D01*
X394986D01*
Y664546D01*
X394652D01*
Y664880D01*
X393985D01*
Y665213D01*
X393652D01*
Y665547D01*
X393318D01*
Y665880D01*
X392651D01*
Y666214D01*
X392318D01*
Y666547D01*
X391651D01*
Y666881D01*
X391317D01*
Y667214D01*
X390650D01*
Y667548D01*
X390317D01*
Y667881D01*
X389650D01*
Y668215D01*
X389316D01*
Y668548D01*
X388649D01*
Y668882D01*
X388316D01*
Y669215D01*
X387649D01*
Y669549D01*
X387315D01*
Y669882D01*
X386648D01*
Y670216D01*
X386315D01*
Y670549D01*
X385648D01*
Y670883D01*
X385314D01*
Y671216D01*
X384647D01*
Y671550D01*
X384314D01*
Y671883D01*
X383980D01*
Y672217D01*
X383313D01*
Y672550D01*
X382980D01*
Y672884D01*
X382313D01*
Y673217D01*
X381979D01*
Y673551D01*
X381312D01*
Y674551D01*
X380979D01*
Y683556D01*
X380312D01*
Y682889D01*
X379978D01*
Y682556D01*
X378978D01*
Y684890D01*
X378644D01*
Y685557D01*
X378311D01*
Y685891D01*
X377977D01*
Y686224D01*
X377644D01*
Y686558D01*
X376977D01*
Y686891D01*
X376310D01*
Y687225D01*
X375643D01*
Y687558D01*
X374976D01*
Y687892D01*
X374642D01*
Y688225D01*
X373975D01*
Y688559D01*
X373642D01*
Y688892D01*
X373308D01*
Y689226D01*
X372975D01*
Y689559D01*
X372641D01*
Y690226D01*
X372307D01*
Y690893D01*
X371974D01*
Y691227D01*
X369973D01*
Y691560D01*
X368639D01*
Y691894D01*
X367305D01*
Y692227D01*
X366638D01*
Y692561D01*
X365971D01*
Y692894D01*
X365304D01*
Y693228D01*
X364637D01*
Y693561D01*
X364303D01*
Y693895D01*
X363970D01*
Y692894D01*
X364303D01*
Y691560D01*
X364637D01*
Y690560D01*
X364970D01*
Y689226D01*
X365304D01*
Y687892D01*
X365637D01*
Y686558D01*
X365971D01*
Y685891D01*
X366304D01*
Y685224D01*
X367972D01*
Y685557D01*
X372975D01*
Y685224D01*
X374309D01*
Y684890D01*
X374976D01*
Y684557D01*
X375309D01*
Y684223D01*
X375976D01*
Y683890D01*
X375643D01*
Y683556D01*
X374976D01*
Y683223D01*
X373975D01*
Y682889D01*
X372975D01*
Y682556D01*
X371974D01*
Y682222D01*
X370640D01*
Y681889D01*
X369639D01*
Y681555D01*
X368972D01*
Y681222D01*
X368639D01*
Y680888D01*
X367972D01*
Y680555D01*
X367638D01*
Y680221D01*
X367305D01*
Y679888D01*
X366971D01*
Y679554D01*
X366638D01*
Y679221D01*
X366304D01*
Y678887D01*
X365971D01*
Y678553D01*
X365637D01*
Y678220D01*
X365304D01*
Y677887D01*
X364970D01*
Y677553D01*
X364637D01*
Y676886D01*
X364303D01*
Y676553D01*
X363970D01*
Y676219D01*
X363636D01*
Y675885D01*
X363303D01*
Y675552D01*
X362969D01*
Y675218D01*
X362636D01*
Y674885D01*
X362302D01*
Y674551D01*
X361969D01*
Y674218D01*
X361302D01*
Y673884D01*
X360968D01*
Y673551D01*
X360635D01*
Y673217D01*
X359968D01*
Y672884D01*
X359634D01*
Y672550D01*
X359301D01*
Y672217D01*
X358967D01*
Y671883D01*
X358300D01*
Y671550D01*
X357967D01*
Y671216D01*
X357633D01*
Y670883D01*
X357300D01*
Y670549D01*
X356966D01*
Y670216D01*
X356632D01*
Y669882D01*
X356299D01*
Y669215D01*
X355965D01*
Y668882D01*
X355632D01*
Y668548D01*
X355299D01*
Y668215D01*
X354965D01*
Y667548D01*
X354632D01*
Y666881D01*
X354298D01*
Y666547D01*
X353965D01*
Y665547D01*
X353631D01*
Y664880D01*
X353298D01*
Y663879D01*
X352964D01*
Y662879D01*
X352630D01*
Y660878D01*
X352297D01*
Y658876D01*
X351963D01*
Y657209D01*
X351630D01*
Y657876D01*
X351296D01*
Y658876D01*
X350963D01*
Y660211D01*
X350629D01*
Y660878D01*
X348295D01*
Y661211D01*
X346627D01*
Y661545D01*
X345627D01*
Y661878D01*
X344626D01*
Y662212D01*
X343959D01*
Y662545D01*
X343292D01*
Y662212D01*
X343626D01*
Y661545D01*
X343959D01*
Y660878D01*
X344293D01*
Y660211D01*
X344626D01*
Y659544D01*
X344960D01*
Y658543D01*
X345293D01*
Y657542D01*
X345627D01*
Y656542D01*
X345960D01*
Y654874D01*
X346294D01*
Y650205D01*
X345960D01*
Y649872D01*
X345627D01*
Y650205D01*
X345293D01*
Y650539D01*
X344960D01*
Y651539D01*
X344626D01*
Y652540D01*
X344293D01*
Y653540D01*
X343959D01*
Y654207D01*
X343626D01*
Y655208D01*
X343292D01*
Y655875D01*
X342959D01*
Y656542D01*
X342625D01*
Y656876D01*
X342292D01*
Y656208D01*
X342625D01*
Y655208D01*
X342959D01*
Y650539D01*
X342625D01*
Y649538D01*
X342292D01*
Y648204D01*
X341958D01*
Y646870D01*
X342292D01*
Y645536D01*
X342625D01*
Y644536D01*
X342959D01*
Y644202D01*
X343292D01*
Y643535D01*
X343626D01*
Y643202D01*
X343959D01*
Y642868D01*
X344293D01*
Y642535D01*
X344960D01*
Y642201D01*
X345293D01*
Y641868D01*
X345960D01*
Y641534D01*
X347294D01*
Y641201D01*
X350629D01*
Y640534D01*
X350296D01*
Y640200D01*
X349629D01*
Y639866D01*
X349295D01*
Y639533D01*
X348295D01*
Y639199D01*
X345293D01*
Y638866D01*
X345627D01*
Y638532D01*
X345960D01*
Y638199D01*
X346294D01*
Y637865D01*
X346961D01*
Y637532D01*
X347294D01*
Y637198D01*
X347961D01*
Y636865D01*
X348962D01*
Y636531D01*
X349962D01*
Y636198D01*
X351630D01*
Y635864D01*
X355965D01*
Y634864D01*
X355632D01*
Y634530D01*
X355299D01*
Y634197D01*
X354632D01*
Y633863D01*
X353965D01*
Y633530D01*
X353298D01*
Y633196D01*
X352630D01*
Y632863D01*
X351963D01*
Y632529D01*
X350963D01*
Y632196D01*
X349629D01*
Y631862D01*
X346961D01*
Y631529D01*
X346627D01*
Y631195D01*
X345960D01*
Y630862D01*
X345627D01*
Y630528D01*
X344960D01*
Y630195D01*
X344293D01*
Y629861D01*
X342959D01*
Y629528D01*
X341625D01*
Y629194D01*
X341958D01*
Y628861D01*
X342292D01*
Y628194D01*
X342625D01*
Y627527D01*
X342959D01*
Y626526D01*
X343292D01*
Y625192D01*
X342959D01*
Y624525D01*
X342292D01*
Y624192D01*
X341625D01*
Y623858D01*
X336955D01*
Y624192D01*
X335621D01*
Y624859D01*
X337623D01*
Y625192D01*
X339290D01*
Y625526D01*
X340958D01*
Y625859D01*
X341291D01*
Y626860D01*
X340958D01*
Y627527D01*
X340624D01*
Y628527D01*
X340291D01*
Y629194D01*
X339957D01*
Y629861D01*
X339624D01*
Y630195D01*
X338957D01*
Y630528D01*
X338623D01*
Y630195D01*
X335621D01*
Y629861D01*
X334287D01*
Y629528D01*
X331619D01*
Y629861D01*
X330952D01*
Y630195D01*
X330619D01*
Y630862D01*
X330285D01*
Y634864D01*
X329618D01*
Y635197D01*
X328951D01*
Y635531D01*
X328618D01*
Y635864D01*
X327951D01*
Y636198D01*
X327617D01*
Y636531D01*
X326950D01*
Y636865D01*
X326617D01*
Y637198D01*
X325950D01*
Y637532D01*
X325616D01*
Y637865D01*
X325283D01*
Y638199D01*
X324616D01*
Y638532D01*
X324282D01*
Y638866D01*
X323949D01*
Y639199D01*
X323615D01*
Y639533D01*
X322948D01*
Y639866D01*
X322615D01*
Y640200D01*
X322281D01*
Y640534D01*
X321948D01*
Y640867D01*
X321614D01*
Y641201D01*
X320947D01*
Y640867D01*
X320280D01*
Y640534D01*
X319613D01*
Y639866D01*
X319280D01*
Y634864D01*
X319613D01*
Y631862D01*
X319947D01*
Y630528D01*
X320280D01*
Y629528D01*
X320614D01*
Y628861D01*
X320947D01*
Y628194D01*
X321281D01*
Y627860D01*
X321614D01*
Y627193D01*
X321948D01*
Y626860D01*
X322281D01*
Y626526D01*
X322615D01*
Y626193D01*
X323282D01*
Y625859D01*
X323615D01*
Y625526D01*
X322948D01*
Y625859D01*
X321948D01*
Y626193D01*
X321614D01*
Y626526D01*
X320947D01*
Y626860D01*
X320614D01*
Y627193D01*
X320280D01*
Y627527D01*
X319947D01*
Y627860D01*
X319613D01*
Y628527D01*
X319280D01*
Y628861D01*
X318946D01*
Y629528D01*
X318613D01*
Y630528D01*
X318279D01*
Y631529D01*
X317946D01*
Y633530D01*
X317612D01*
Y638532D01*
X317946D01*
Y639866D01*
X318279D01*
Y640534D01*
X318613D01*
Y640867D01*
X318946D01*
Y641201D01*
X319280D01*
Y641534D01*
X320947D01*
Y642201D01*
X320614D01*
Y642535D01*
X320280D01*
Y642868D01*
X319947D01*
Y643535D01*
X319613D01*
Y644202D01*
X318946D01*
Y643869D01*
X317946D01*
Y643535D01*
X317612D01*
Y643202D01*
X316945D01*
Y642535D01*
X316611D01*
Y642201D01*
X316278D01*
Y641534D01*
X315944D01*
Y639533D01*
X315611D01*
Y636531D01*
X315944D01*
Y634197D01*
X316278D01*
Y632529D01*
X316611D01*
Y631529D01*
X316945D01*
Y630528D01*
X317279D01*
Y629861D01*
X317612D01*
Y628861D01*
X317946D01*
Y628527D01*
X318279D01*
Y627860D01*
X318613D01*
Y627193D01*
X318946D01*
Y626860D01*
X319280D01*
Y626193D01*
X319613D01*
Y625859D01*
X319947D01*
Y625526D01*
X320280D01*
Y625192D01*
X320614D01*
Y624859D01*
X320947D01*
Y624525D01*
X321281D01*
Y624192D01*
X321614D01*
Y623858D01*
X322281D01*
Y623525D01*
X322615D01*
Y623191D01*
X323282D01*
Y622858D01*
X323615D01*
Y622524D01*
X324282D01*
Y622191D01*
X324949D01*
Y621857D01*
X325950D01*
Y621524D01*
X326617D01*
Y621190D01*
X327617D01*
Y620857D01*
X329285D01*
Y620523D01*
X331619D01*
Y620190D01*
X337623D01*
Y619856D01*
X339290D01*
Y619523D01*
X340958D01*
Y619856D01*
X341625D01*
Y620190D01*
X342292D01*
Y620523D01*
X342625D01*
Y620857D01*
X342959D01*
Y621190D01*
X343292D01*
Y621524D01*
X343626D01*
Y621857D01*
X343959D01*
Y622191D01*
X344293D01*
Y622524D01*
X345627D01*
Y622191D01*
X346627D01*
Y621857D01*
X347628D01*
Y621524D01*
X348295D01*
Y620857D01*
X348628D01*
Y620523D01*
X348962D01*
Y620190D01*
X349295D01*
Y619856D01*
X349629D01*
Y619523D01*
X349962D01*
Y618856D01*
X350296D01*
Y618522D01*
X350629D01*
Y618189D01*
X350963D01*
Y617855D01*
X351296D01*
Y617522D01*
X351630D01*
Y617188D01*
X351963D01*
Y616855D01*
X352630D01*
Y616521D01*
X352964D01*
Y616188D01*
X353298D01*
Y615854D01*
X353631D01*
Y615520D01*
X353965D01*
Y615187D01*
X354632D01*
Y614853D01*
X354965D01*
Y614520D01*
X355632D01*
Y614186D01*
X355965D01*
Y613853D01*
X356632D01*
Y613519D01*
X357300D01*
Y613186D01*
X357633D01*
Y612852D01*
X357300D01*
Y613186D01*
X356632D01*
Y613519D01*
X355965D01*
Y613853D01*
X355299D01*
Y614186D01*
X354632D01*
Y614520D01*
X354298D01*
Y614853D01*
X353631D01*
Y615187D01*
X353298D01*
Y615520D01*
X352964D01*
Y615854D01*
X352630D01*
Y616188D01*
X351963D01*
Y616521D01*
X351630D01*
Y616855D01*
X351296D01*
Y617188D01*
X350963D01*
Y617522D01*
X350629D01*
Y617855D01*
X350296D01*
Y618189D01*
X349962D01*
Y618522D01*
X349629D01*
Y618856D01*
X348962D01*
Y619523D01*
X348628D01*
Y619856D01*
X348295D01*
Y620190D01*
X347961D01*
Y620523D01*
X347628D01*
Y620857D01*
X346627D01*
Y621190D01*
X345627D01*
Y621524D01*
X344626D01*
Y621190D01*
X344293D01*
Y620857D01*
X343959D01*
Y620190D01*
X343626D01*
Y619856D01*
X342959D01*
Y619523D01*
X342625D01*
Y619189D01*
X342292D01*
Y618856D01*
X341291D01*
Y618522D01*
X337956D01*
Y618856D01*
X335288D01*
Y618189D01*
X335621D01*
Y617188D01*
X335955D01*
Y616521D01*
X336288D01*
Y615854D01*
X336622D01*
Y615187D01*
X336955D01*
Y614853D01*
X337289D01*
Y614520D01*
X337623D01*
Y614186D01*
X337956D01*
Y613853D01*
X338290D01*
Y613519D01*
X338623D01*
Y613186D01*
X339290D01*
Y612852D01*
X339957D01*
Y612519D01*
X340958D01*
Y612185D01*
X341291D01*
Y611185D01*
X340958D01*
Y610851D01*
X334621D01*
Y611185D01*
X334287D01*
Y603848D01*
X333954D01*
Y602514D01*
X333620D01*
Y601847D01*
X333287D01*
Y602514D01*
X332953D01*
Y603514D01*
X332620D01*
Y604848D01*
X332286D01*
Y605515D01*
X331953D01*
Y606182D01*
X331619D01*
Y606849D01*
X331286D01*
Y607516D01*
X330952D01*
Y608183D01*
X330619D01*
Y608517D01*
X330285D01*
Y609184D01*
X329952D01*
Y609517D01*
X329618D01*
Y609851D01*
X329285D01*
Y610184D01*
X328951D01*
Y610518D01*
X328618D01*
Y607850D01*
X328284D01*
Y606182D01*
X327951D01*
Y605182D01*
X327617D01*
Y604515D01*
X327284D01*
Y603848D01*
X326950D01*
Y603514D01*
X326617D01*
Y603181D01*
X326283D01*
Y602847D01*
X325950D01*
Y602514D01*
X325616D01*
Y602180D01*
X325283D01*
Y601847D01*
X324616D01*
Y602180D01*
X324282D01*
Y602514D01*
X323949D01*
Y603848D01*
X323615D01*
Y603514D01*
X323282D01*
Y603181D01*
X322948D01*
Y602847D01*
X322615D01*
Y602514D01*
X322281D01*
Y602180D01*
X321948D01*
Y601847D01*
X321614D01*
Y601513D01*
X321281D01*
Y600846D01*
X320947D01*
Y600513D01*
X320614D01*
Y600179D01*
X320280D01*
Y599846D01*
X319947D01*
Y599512D01*
X319613D01*
Y599179D01*
X319280D01*
Y598845D01*
X318946D01*
Y598512D01*
X318613D01*
Y598178D01*
X318279D01*
Y597845D01*
X317946D01*
Y597178D01*
X317612D01*
Y596844D01*
X317279D01*
Y596511D01*
X316945D01*
Y596177D01*
X316611D01*
Y595843D01*
X316278D01*
Y595176D01*
X317279D01*
Y594843D01*
X332286D01*
Y594509D01*
X339290D01*
Y594176D01*
X344626D01*
Y593842D01*
X348962D01*
Y593509D01*
X352964D01*
Y593175D01*
X356632D01*
Y592842D01*
X360301D01*
Y592508D01*
X362969D01*
Y592175D01*
X365971D01*
Y591841D01*
X368639D01*
Y591508D01*
X370973D01*
Y591174D01*
X373308D01*
Y590841D01*
X374976D01*
Y590507D01*
X376643D01*
Y590174D01*
X377977D01*
Y589840D01*
X378978D01*
Y589507D01*
X380312D01*
Y589173D01*
X380979D01*
Y588840D01*
X381646D01*
Y588506D01*
X382313D01*
Y588173D01*
X382646D01*
Y587506D01*
X382980D01*
Y586839D01*
X382646D01*
Y586172D01*
X382313D01*
Y585838D01*
X381979D01*
Y585505D01*
X381646D01*
Y585171D01*
X381312D01*
Y584838D01*
X380979D01*
Y584504D01*
X380645D01*
Y584171D01*
X380312D01*
Y583837D01*
X379978D01*
Y583504D01*
X379645D01*
Y583170D01*
X379311D01*
Y582837D01*
X378978D01*
Y582503D01*
X378644D01*
Y582170D01*
X378311D01*
Y581836D01*
X377977D01*
Y581503D01*
X377644D01*
Y581169D01*
X377310D01*
Y580836D01*
X377977D01*
Y580502D01*
X378978D01*
Y580168D01*
X379978D01*
Y579835D01*
X381312D01*
Y579501D01*
X382313D01*
Y579168D01*
X383313D01*
Y578834D01*
X384314D01*
Y578501D01*
X385314D01*
Y578167D01*
X386315D01*
Y577834D01*
X387315D01*
Y577500D01*
X388316D01*
Y577167D01*
X389316D01*
Y576833D01*
X390317D01*
Y576500D01*
X391317D01*
Y576166D01*
X392318D01*
Y575833D01*
X392985D01*
Y575499D01*
X393985D01*
Y575166D01*
X394319D01*
Y574832D01*
X393652D01*
Y574499D01*
X393318D01*
Y574165D01*
X392651D01*
Y573832D01*
X392318D01*
Y573498D01*
X391651D01*
Y573165D01*
X391317D01*
Y572831D01*
X390984D01*
Y572498D01*
X390317D01*
Y572164D01*
X389983D01*
Y571831D01*
X389650D01*
Y571497D01*
X388983D01*
Y571164D01*
X388649D01*
Y570830D01*
X388316D01*
Y570497D01*
X387982D01*
Y570163D01*
X387315D01*
Y569830D01*
X386982D01*
Y569496D01*
X386648D01*
Y569163D01*
X386315D01*
Y568829D01*
X385981D01*
Y568496D01*
X385648D01*
Y568162D01*
X384981D01*
Y567829D01*
X384647D01*
Y567495D01*
X384314D01*
Y567162D01*
X383980D01*
Y566828D01*
X383647D01*
Y566495D01*
X383313D01*
Y566161D01*
X382980D01*
Y565828D01*
X382646D01*
Y565494D01*
X382313D01*
Y565161D01*
X381646D01*
Y564827D01*
X381312D01*
Y564494D01*
X380979D01*
Y564160D01*
X380645D01*
Y563827D01*
X380312D01*
Y563493D01*
X379978D01*
Y563160D01*
X379645D01*
Y562826D01*
X379311D01*
Y562493D01*
X378978D01*
Y562159D01*
X378644D01*
Y561826D01*
X378311D01*
Y561492D01*
X377977D01*
Y561159D01*
X377644D01*
Y560825D01*
X377310D01*
Y560491D01*
X376977D01*
Y560158D01*
X376643D01*
Y559824D01*
X376310D01*
Y559491D01*
X375976D01*
Y559157D01*
X375643D01*
Y558824D01*
X375309D01*
Y558490D01*
X374976D01*
Y558157D01*
X374642D01*
Y557823D01*
X374309D01*
Y557490D01*
X373975D01*
Y557156D01*
X373642D01*
Y556823D01*
X373308D01*
Y556489D01*
X372975D01*
Y556156D01*
X372641D01*
Y555822D01*
X372307D01*
Y555489D01*
X372641D01*
Y555155D01*
X373308D01*
Y554822D01*
X374309D01*
Y554488D01*
X374976D01*
Y554155D01*
X375643D01*
Y553821D01*
X376310D01*
Y553488D01*
X377310D01*
Y553154D01*
X377977D01*
Y552821D01*
X378644D01*
Y552487D01*
X379311D01*
Y552154D01*
X379978D01*
Y551820D01*
X380645D01*
Y551487D01*
X380979D01*
Y551153D01*
X381312D01*
Y550820D01*
X381646D01*
Y550153D01*
X381312D01*
Y549819D01*
X380979D01*
Y549486D01*
X380645D01*
Y548819D01*
X380312D01*
Y548485D01*
X379978D01*
Y547818D01*
X379645D01*
Y547151D01*
X379311D01*
Y546484D01*
X378978D01*
Y545817D01*
X378644D01*
Y545150D01*
X378311D01*
Y544483D01*
X377977D01*
Y543816D01*
X377644D01*
Y543149D01*
X377310D01*
Y542816D01*
X376977D01*
Y542149D01*
X376643D01*
Y541482D01*
X376310D01*
Y540815D01*
X375976D01*
Y540148D01*
X375643D01*
Y539481D01*
X375309D01*
Y538814D01*
X374976D01*
Y538147D01*
X374642D01*
Y537480D01*
X374309D01*
Y537146D01*
X373975D01*
Y536479D01*
X373642D01*
Y535812D01*
X373308D01*
Y535145D01*
X372975D01*
Y534478D01*
X372641D01*
Y533811D01*
X372307D01*
Y533144D01*
X371974D01*
Y532810D01*
X371640D01*
Y532143D01*
X371307D01*
Y531476D01*
X370973D01*
Y530809D01*
X370640D01*
Y530476D01*
X370306D01*
Y529809D01*
X369973D01*
Y528141D01*
X370306D01*
Y527141D01*
X370640D01*
Y526474D01*
X370973D01*
Y525473D01*
X371307D01*
Y524473D01*
X371640D01*
Y523139D01*
X371974D01*
Y522138D01*
X372307D01*
Y521138D01*
X372641D01*
Y520137D01*
X372975D01*
Y518803D01*
X373308D01*
Y517469D01*
X373642D01*
Y516135D01*
X373975D01*
Y514801D01*
X374309D01*
Y513133D01*
X374642D01*
Y508798D01*
X374309D01*
Y504796D01*
X373975D01*
Y500126D01*
X374309D01*
Y496791D01*
X374642D01*
Y496458D01*
X229232D01*
Y515134D01*
X229566D01*
Y515801D01*
X229899D01*
Y516468D01*
X230233D01*
Y516802D01*
X230566D01*
Y517469D01*
X230900D01*
Y518136D01*
X231233D01*
Y518470D01*
X231567D01*
Y519137D01*
X231900D01*
Y519804D01*
X232234D01*
Y520137D01*
X232567D01*
Y520804D01*
X232901D01*
Y521138D01*
X233234D01*
Y521805D01*
X233568D01*
Y522138D01*
X233902D01*
Y522805D01*
X234235D01*
Y523472D01*
X234569D01*
Y523806D01*
X234902D01*
Y524473D01*
X235236D01*
Y524806D01*
X235569D01*
Y525473D01*
X235903D01*
Y526140D01*
X236236D01*
Y526474D01*
X236569D01*
Y527141D01*
X236903D01*
Y527474D01*
X237236D01*
Y528141D01*
X237570D01*
Y528475D01*
X237904D01*
Y529142D01*
X238237D01*
Y529475D01*
X238571D01*
Y530142D01*
X238904D01*
Y530809D01*
X239238D01*
Y531143D01*
X239571D01*
Y531810D01*
X239905D01*
Y532143D01*
X240238D01*
Y532810D01*
X240572D01*
Y533144D01*
X240905D01*
Y533811D01*
X241239D01*
Y534478D01*
X241572D01*
Y534811D01*
X241906D01*
Y535478D01*
X242239D01*
Y535812D01*
X242573D01*
Y536479D01*
X242906D01*
Y537146D01*
X243240D01*
Y537480D01*
X243573D01*
Y538147D01*
X243907D01*
Y538480D01*
X244240D01*
Y539147D01*
X244574D01*
Y539481D01*
X244907D01*
Y540148D01*
X245241D01*
Y540481D01*
X245574D01*
Y540815D01*
Y541148D01*
X245908D01*
Y541482D01*
X246241D01*
Y542149D01*
X246575D01*
Y542482D01*
X246908D01*
Y543149D01*
X247242D01*
Y543483D01*
X247575D01*
Y544150D01*
X247909D01*
Y544483D01*
X248242D01*
Y545150D01*
X248576D01*
Y545484D01*
X248909D01*
Y545817D01*
X249243D01*
Y546484D01*
X249576D01*
Y546818D01*
X249910D01*
Y547151D01*
X250243D01*
Y547818D01*
X250577D01*
Y548152D01*
X250910D01*
Y548485D01*
X251244D01*
Y549152D01*
X251577D01*
Y549486D01*
X251911D01*
Y549819D01*
X252244D01*
Y550486D01*
X252578D01*
Y550820D01*
X252911D01*
Y551153D01*
X253245D01*
Y551487D01*
X253578D01*
Y551820D01*
X253912D01*
Y552487D01*
X254245D01*
Y552821D01*
X254579D01*
Y553154D01*
X254912D01*
Y553488D01*
X255246D01*
Y554155D01*
X255579D01*
Y554488D01*
X255913D01*
Y554822D01*
X256246D01*
Y555155D01*
X256580D01*
Y555489D01*
X256914D01*
Y555822D01*
X257247D01*
Y556156D01*
X257581D01*
Y556489D01*
X257914D01*
Y557156D01*
X258248D01*
Y557490D01*
X258581D01*
Y557823D01*
X258915D01*
Y558157D01*
X259248D01*
Y558490D01*
X259582D01*
Y558824D01*
X259915D01*
Y559157D01*
X260249D01*
Y559491D01*
X260582D01*
Y559824D01*
X260916D01*
Y560158D01*
X261249D01*
Y560491D01*
X261583D01*
Y560825D01*
X261916D01*
Y561159D01*
X262250D01*
Y561492D01*
X262583D01*
Y561826D01*
X262917D01*
Y562159D01*
X263250D01*
Y562493D01*
X263584D01*
Y562826D01*
X263917D01*
Y563160D01*
X264251D01*
Y563493D01*
X264584D01*
Y563827D01*
X264918D01*
Y564160D01*
X265251D01*
Y564494D01*
X265585D01*
Y564827D01*
X265918D01*
Y565161D01*
X266252D01*
Y565494D01*
X266585D01*
Y565828D01*
X266919D01*
Y566161D01*
X267252D01*
Y566495D01*
X267586D01*
Y566828D01*
X267919D01*
Y567162D01*
X268253D01*
Y567495D01*
X268586D01*
Y567829D01*
X268920D01*
Y568496D01*
X269253D01*
Y569163D01*
X269587D01*
Y569830D01*
X269920D01*
Y570497D01*
X270254D01*
Y570830D01*
X270587D01*
Y571497D01*
X270921D01*
Y571831D01*
X271254D01*
Y572498D01*
X271588D01*
Y572831D01*
X271921D01*
Y573498D01*
X272255D01*
Y573832D01*
X272588D01*
Y574165D01*
X272922D01*
Y574499D01*
X273255D01*
Y575166D01*
X273589D01*
Y575499D01*
X273923D01*
Y575833D01*
X274256D01*
Y576166D01*
X274590D01*
Y576833D01*
X274923D01*
Y577167D01*
X275257D01*
Y577500D01*
X275590D01*
Y577834D01*
X275924D01*
Y578167D01*
X276257D01*
Y578501D01*
X276590D01*
Y578834D01*
X276924D01*
Y579168D01*
X277257D01*
Y579501D01*
X277591D01*
Y580168D01*
X277925D01*
Y580502D01*
X278258D01*
Y580836D01*
X278592D01*
Y581836D01*
X278258D01*
Y582837D01*
X277925D01*
Y583504D01*
X277591D01*
Y584504D01*
X277257D01*
Y585171D01*
X276924D01*
Y586172D01*
X276590D01*
Y587172D01*
X276257D01*
Y588173D01*
X275924D01*
Y589173D01*
X275590D01*
Y590174D01*
X275257D01*
Y591174D01*
X274923D01*
Y592175D01*
X274590D01*
Y593842D01*
X274256D01*
Y594176D01*
X274590D01*
Y594843D01*
X273255D01*
Y594509D01*
X272255D01*
Y594176D01*
X271588D01*
Y593842D01*
X271254D01*
Y593509D01*
X270921D01*
Y594176D01*
X271254D01*
Y594509D01*
X271588D01*
Y595176D01*
X271921D01*
Y595510D01*
X272255D01*
Y595843D01*
X272588D01*
Y596177D01*
X272922D01*
Y596511D01*
X273255D01*
Y596844D01*
X273589D01*
Y597178D01*
X273923D01*
Y597511D01*
X274256D01*
Y597845D01*
X274590D01*
Y598178D01*
X274923D01*
Y598512D01*
X275257D01*
Y598845D01*
X275924D01*
Y599179D01*
X276257D01*
Y599512D01*
X276590D01*
Y599846D01*
X277257D01*
Y600179D01*
X277591D01*
Y600513D01*
X276590D01*
Y600179D01*
X270921D01*
Y600513D01*
X269920D01*
Y600846D01*
X269253D01*
Y601180D01*
X268586D01*
Y601513D01*
X267919D01*
Y601847D01*
X267586D01*
Y602180D01*
X266919D01*
Y602514D01*
X266252D01*
Y602847D01*
X265585D01*
Y603181D01*
X264918D01*
Y603514D01*
X264251D01*
Y603848D01*
X263584D01*
Y604181D01*
X262583D01*
Y604515D01*
X261916D01*
Y604848D01*
X261249D01*
Y605182D01*
X260249D01*
Y605515D01*
X259582D01*
Y605849D01*
X258581D01*
Y606182D01*
X257581D01*
Y606516D01*
X256580D01*
Y606849D01*
X255913D01*
Y607183D01*
X254579D01*
Y607516D01*
X253578D01*
Y607850D01*
X252578D01*
Y608183D01*
X251577D01*
Y608850D01*
X251911D01*
Y609184D01*
X254912D01*
Y609517D01*
X258248D01*
Y609851D01*
X257914D01*
Y610184D01*
X257247D01*
Y610518D01*
X256580D01*
Y610851D01*
X255913D01*
Y611185D01*
X255579D01*
Y611518D01*
X255246D01*
Y611852D01*
X254912D01*
Y612185D01*
X255246D01*
Y612519D01*
X255913D01*
Y612185D01*
X256914D01*
Y611852D01*
X261916D01*
Y612185D01*
X262917D01*
Y612519D01*
X263584D01*
Y612852D01*
X264251D01*
Y613186D01*
X264584D01*
Y613519D01*
X264918D01*
Y613853D01*
X265251D01*
Y614186D01*
X265585D01*
Y615520D01*
X265251D01*
Y616521D01*
X264918D01*
Y617522D01*
X264584D01*
Y618189D01*
X264251D01*
Y618856D01*
X263917D01*
Y619189D01*
X263584D01*
Y619856D01*
X263250D01*
Y620190D01*
X262917D01*
Y620523D01*
X262583D01*
Y620857D01*
X262250D01*
Y621190D01*
X261583D01*
Y621524D01*
X260582D01*
Y621857D01*
X258915D01*
Y621524D01*
X257914D01*
Y621190D01*
X257247D01*
Y620857D01*
X256580D01*
Y620523D01*
X256246D01*
Y620190D01*
X254912D01*
Y620857D01*
X254579D01*
Y621857D01*
X254245D01*
Y624192D01*
X254579D01*
Y625526D01*
X254912D01*
Y626526D01*
X255246D01*
Y627527D01*
X255579D01*
Y628194D01*
X255913D01*
Y628527D01*
X256246D01*
Y629194D01*
X256580D01*
Y629861D01*
X256914D01*
Y630195D01*
X257247D01*
Y630862D01*
X256580D01*
Y630528D01*
X256246D01*
Y630195D01*
X255913D01*
Y629861D01*
X255579D01*
Y629528D01*
X255246D01*
Y629194D01*
X254912D01*
Y628861D01*
X254579D01*
Y628194D01*
X254245D01*
Y627860D01*
X253912D01*
Y627193D01*
X253578D01*
Y626860D01*
X253245D01*
Y626193D01*
X252911D01*
Y625526D01*
X252578D01*
Y625192D01*
X252244D01*
Y624859D01*
X251244D01*
Y625192D01*
X250910D01*
Y625859D01*
X250577D01*
Y627527D01*
X250243D01*
Y628194D01*
X250577D01*
Y630195D01*
X250910D01*
Y631195D01*
X251244D01*
Y632196D01*
X251577D01*
Y632863D01*
X251911D01*
Y633530D01*
X252244D01*
Y634197D01*
X252578D01*
Y634530D01*
X252911D01*
Y635197D01*
X253245D01*
Y635531D01*
X253578D01*
Y636198D01*
X253912D01*
Y636531D01*
X254245D01*
Y636865D01*
X254579D01*
Y637198D01*
X254912D01*
Y637865D01*
X255246D01*
Y638199D01*
X255579D01*
Y638532D01*
X255913D01*
Y638866D01*
X256246D01*
Y639199D01*
X256580D01*
Y639533D01*
X256914D01*
Y639866D01*
X254579D01*
Y640200D01*
X253245D01*
Y640534D01*
X252244D01*
Y640867D01*
X251577D01*
Y641201D01*
X251244D01*
Y641534D01*
X250577D01*
Y641868D01*
X250243D01*
Y642201D01*
X249910D01*
Y642535D01*
X249576D01*
Y642868D01*
X249243D01*
Y643202D01*
X248909D01*
Y643869D01*
X249243D01*
Y644202D01*
X249576D01*
Y644536D01*
X250243D01*
Y644202D01*
X251244D01*
Y643869D01*
X252578D01*
Y643535D01*
X254912D01*
Y643869D01*
X256246D01*
Y644202D01*
X256914D01*
Y644536D01*
X257247D01*
Y644869D01*
X257914D01*
Y645203D01*
X258248D01*
Y645536D01*
X258581D01*
Y645870D01*
X258915D01*
Y646537D01*
X259248D01*
Y647204D01*
X259582D01*
Y647871D01*
X259915D01*
Y648538D01*
X260249D01*
Y649205D01*
X260582D01*
Y650205D01*
X260916D01*
Y651206D01*
X261249D01*
Y652540D01*
X261583D01*
Y653874D01*
X261916D01*
Y655875D01*
X262250D01*
Y658543D01*
X262583D01*
Y661211D01*
X262917D01*
Y663212D01*
X263250D01*
Y664546D01*
X263584D01*
Y665547D01*
X263917D01*
Y666547D01*
X264251D01*
Y667214D01*
X263917D01*
Y666881D01*
X263584D01*
Y666214D01*
X263250D01*
Y665880D01*
X262917D01*
Y665213D01*
X262583D01*
Y664546D01*
X262250D01*
Y663879D01*
X261916D01*
Y662879D01*
X261583D01*
Y661545D01*
X261249D01*
Y660211D01*
X260916D01*
Y659210D01*
X260582D01*
Y658876D01*
X259248D01*
Y659544D01*
X258915D01*
Y661211D01*
X258581D01*
Y666214D01*
X258248D01*
Y665880D01*
X257914D01*
Y665547D01*
X257581D01*
Y665213D01*
X256580D01*
Y665547D01*
X256246D01*
Y667214D01*
X256580D01*
Y668548D01*
X256914D01*
Y669882D01*
X257247D01*
Y671216D01*
X257581D01*
Y672217D01*
X257914D01*
Y673217D01*
X258248D01*
Y674218D01*
X258581D01*
Y675218D01*
X258915D01*
Y676219D01*
X259248D01*
Y676886D01*
X259582D01*
Y677887D01*
X259915D01*
Y678553D01*
X260249D01*
Y679221D01*
X260582D01*
Y679888D01*
X260916D01*
Y680555D01*
X261249D01*
Y680888D01*
X261583D01*
Y681555D01*
X261916D01*
Y681889D01*
X262250D01*
Y682556D01*
X262583D01*
Y682889D01*
X262917D01*
Y683223D01*
X263250D01*
Y683556D01*
X263584D01*
Y683890D01*
X263917D01*
Y684223D01*
X264251D01*
Y684557D01*
X264584D01*
Y684890D01*
X264918D01*
Y685224D01*
X265251D01*
Y685557D01*
X265585D01*
Y685891D01*
X265918D01*
Y686224D01*
X266252D01*
Y686558D01*
X266919D01*
Y686891D01*
X267252D01*
Y687225D01*
X266585D01*
Y686891D01*
X265585D01*
Y686558D01*
X264918D01*
Y686224D01*
X264251D01*
Y685891D01*
X263584D01*
Y685557D01*
X262917D01*
Y685224D01*
X262583D01*
Y684890D01*
X261916D01*
Y684557D01*
X261583D01*
Y684223D01*
X260916D01*
Y683890D01*
X260582D01*
Y683556D01*
X260249D01*
Y683223D01*
X259915D01*
Y682889D01*
X259582D01*
Y682556D01*
X259248D01*
Y682222D01*
X258581D01*
Y681889D01*
X258248D01*
Y681555D01*
X257581D01*
Y681889D01*
X257247D01*
Y683223D01*
X257581D01*
Y683890D01*
X257914D01*
Y684223D01*
X258248D01*
Y684557D01*
X258581D01*
Y685224D01*
X258915D01*
Y685557D01*
X259248D01*
Y685891D01*
X259582D01*
Y686224D01*
X259915D01*
Y686891D01*
X260249D01*
Y687225D01*
X260582D01*
Y687558D01*
X260916D01*
Y687892D01*
X261249D01*
Y688225D01*
X261583D01*
Y688559D01*
X261916D01*
Y688892D01*
X262250D01*
Y689226D01*
X262583D01*
Y689559D01*
X262917D01*
Y689893D01*
X263250D01*
Y690226D01*
X263584D01*
Y690560D01*
X263917D01*
Y690893D01*
X264251D01*
Y691227D01*
X264584D01*
Y691560D01*
X264918D01*
Y691894D01*
X265585D01*
Y692227D01*
X265918D01*
Y692561D01*
X266252D01*
Y692894D01*
X266919D01*
Y693228D01*
X267252D01*
Y693561D01*
X267586D01*
Y693895D01*
X268253D01*
Y694228D01*
X268586D01*
Y694562D01*
X269253D01*
Y694895D01*
X269920D01*
Y695229D01*
X270254D01*
Y695563D01*
X270921D01*
Y695896D01*
X271921D01*
Y696229D01*
X272588D01*
Y696563D01*
X273255D01*
Y696897D01*
X274256D01*
Y697230D01*
X275590D01*
Y697897D01*
X274923D01*
Y698564D01*
X274590D01*
Y698897D01*
X274256D01*
Y699231D01*
X273923D01*
Y699898D01*
X273589D01*
Y700232D01*
X273255D01*
Y700899D01*
X272922D01*
Y701232D01*
X272588D01*
Y701566D01*
X272255D01*
Y702233D01*
X271921D01*
Y702900D01*
X271588D01*
Y703233D01*
X271254D01*
Y703900D01*
X270921D01*
Y704567D01*
X270587D01*
Y704901D01*
X270254D01*
Y705901D01*
X269920D01*
Y706568D01*
X269587D01*
Y707235D01*
X269253D01*
Y707902D01*
X268920D01*
Y708903D01*
X268586D01*
Y710237D01*
X268253D01*
Y712238D01*
X267919D01*
Y714239D01*
X268253D01*
Y715907D01*
X268586D01*
Y716907D01*
X268920D01*
Y717241D01*
X269587D01*
Y716907D01*
X269920D01*
Y716240D01*
X270254D01*
Y715573D01*
X270587D01*
Y714906D01*
X270921D01*
Y714239D01*
X271254D01*
Y713905D01*
X271588D01*
Y713238D01*
X271921D01*
Y712571D01*
X272255D01*
Y712238D01*
X272588D01*
Y711904D01*
X272922D01*
Y711237D01*
X273255D01*
Y710904D01*
X273589D01*
Y710570D01*
X273923D01*
Y710237D01*
X274256D01*
Y709903D01*
X274590D01*
Y709570D01*
X274923D01*
Y709236D01*
X275257D01*
Y708903D01*
X275590D01*
Y708236D01*
X275924D01*
Y707902D01*
X276590D01*
Y708236D01*
X276257D01*
Y709236D01*
X275924D01*
Y711571D01*
X275590D01*
Y715573D01*
X275924D01*
Y717574D01*
X276257D01*
Y718908D01*
X276590D01*
Y719909D01*
X276924D01*
Y720909D01*
X277257D01*
Y721576D01*
X277591D01*
Y722243D01*
X277925D01*
Y722910D01*
X278258D01*
Y723577D01*
X278592D01*
Y723911D01*
X278925D01*
Y724578D01*
X279259D01*
Y724911D01*
X279592D01*
Y725245D01*
X279926D01*
Y725578D01*
X280259D01*
Y726245D01*
X281260D01*
Y725912D01*
X281593D01*
Y723244D01*
X281927D01*
Y721243D01*
X282260D01*
Y719909D01*
X282594D01*
Y718575D01*
X282927D01*
Y717574D01*
X283261D01*
Y716240D01*
X283594D01*
Y716573D01*
X283928D01*
Y716907D01*
X284261D01*
Y717574D01*
X284595D01*
Y718241D01*
X284928D01*
Y718575D01*
X285262D01*
Y719241D01*
X285595D01*
Y719575D01*
X285929D01*
Y720242D01*
X286262D01*
Y720576D01*
X286596D01*
Y721243D01*
X286929D01*
Y721576D01*
X287263D01*
Y722243D01*
X287596D01*
Y722577D01*
X287930D01*
Y722910D01*
X288263D01*
Y723244D01*
X288597D01*
Y723911D01*
X288930D01*
Y724244D01*
X289264D01*
Y724578D01*
X289597D01*
Y724911D01*
X289931D01*
Y725578D01*
X290264D01*
Y725912D01*
X290598D01*
Y726245D01*
X290931D01*
Y726579D01*
X291265D01*
Y726912D01*
X291598D01*
Y727246D01*
X291932D01*
Y727579D01*
X292265D01*
Y727913D01*
X292599D01*
Y728246D01*
X292932D01*
Y728580D01*
X293266D01*
Y728913D01*
X293599D01*
Y729247D01*
X293933D01*
Y729580D01*
X294266D01*
Y729914D01*
X294600D01*
Y730247D01*
X294933D01*
Y730581D01*
X295267D01*
Y731248D01*
X295600D01*
Y731581D01*
X295934D01*
Y732248D01*
X296268D01*
Y732915D01*
X296601D01*
Y733916D01*
X296935D01*
Y734249D01*
X297268D01*
Y733916D01*
X297602D01*
Y733582D01*
X297935D01*
Y732915D01*
X298269D01*
Y732248D01*
X298602D01*
Y731915D01*
X298936D01*
Y732915D01*
X299269D01*
Y733916D01*
X299603D01*
Y734583D01*
X299936D01*
Y735250D01*
X300270D01*
Y735917D01*
X300603D01*
Y736584D01*
X300937D01*
Y737251D01*
X301270D01*
Y737585D01*
X301604D01*
Y738251D01*
X301937D01*
Y738585D01*
X302271D01*
Y738919D01*
X302604D01*
Y739586D01*
X302938D01*
Y739919D01*
X303271D01*
Y740253D01*
X303605D01*
Y740586D01*
X303938D01*
Y740920D01*
X304272D01*
Y741253D01*
X304605D01*
Y741587D01*
X304939D01*
Y741920D01*
X305272D01*
Y742254D01*
X305606D01*
Y742587D01*
X305939D01*
Y742921D01*
X306606D01*
Y743254D01*
X306940D01*
Y743588D01*
X307607D01*
Y743921D01*
X307940D01*
Y744255D01*
X308607D01*
Y744588D01*
X309274D01*
Y744922D01*
X309941D01*
Y745255D01*
X310608D01*
Y745589D01*
X311275D01*
Y745922D01*
X312276D01*
Y746256D01*
X312943D01*
Y746589D01*
X313944D01*
Y746923D01*
X314944D01*
Y747256D01*
X315944D01*
Y747590D01*
X316611D01*
Y747923D01*
X317279D01*
Y748257D01*
X318279D01*
Y747923D01*
X317946D01*
Y747256D01*
X317612D01*
Y746923D01*
X317279D01*
Y746589D01*
X316945D01*
Y746256D01*
X316611D01*
Y745589D01*
X316278D01*
Y745255D01*
X315944D01*
Y744922D01*
X315611D01*
Y744255D01*
X315278D01*
Y743921D01*
X314944D01*
Y743254D01*
X314611D01*
Y742921D01*
X314277D01*
Y742254D01*
X313944D01*
Y741920D01*
X313610D01*
Y741587D01*
X314277D01*
Y741920D01*
X314611D01*
Y742254D01*
X315278D01*
Y742587D01*
X315611D01*
Y742921D01*
X316278D01*
Y743254D01*
X316611D01*
Y743588D01*
X317279D01*
Y743921D01*
X317946D01*
Y744255D01*
X318613D01*
Y744588D01*
X319280D01*
Y744922D01*
X319613D01*
Y745255D01*
X320614D01*
Y745589D01*
X321281D01*
Y745922D01*
X321948D01*
Y746256D01*
X322615D01*
Y746589D01*
X323615D01*
Y746923D01*
X324616D01*
Y747256D01*
X325616D01*
Y747590D01*
X326617D01*
Y747923D01*
X327951D01*
Y748257D01*
X329952D01*
Y748590D01*
X332620D01*
Y748924D01*
X335955D01*
Y748590D01*
X338623D01*
Y747923D01*
X337623D01*
Y747590D01*
X336288D01*
Y747256D01*
X335288D01*
Y746923D01*
X334287D01*
Y746589D01*
X333287D01*
Y746256D01*
X332286D01*
Y745922D01*
X331619D01*
Y745589D01*
X330952D01*
Y745255D01*
X330285D01*
Y744922D01*
X329952D01*
Y744588D01*
X329285D01*
Y744255D01*
X328618D01*
Y743921D01*
X328284D01*
Y743588D01*
X327951D01*
Y743254D01*
X327284D01*
Y742921D01*
X326950D01*
Y742587D01*
X326617D01*
Y742254D01*
X326283D01*
Y741920D01*
X325950D01*
Y741587D01*
X325616D01*
Y741253D01*
X325283D01*
Y740586D01*
X325616D01*
Y740920D01*
X325950D01*
Y741253D01*
X326617D01*
Y741587D01*
X327284D01*
Y741920D01*
X327951D01*
Y742254D01*
X328951D01*
Y742587D01*
X329618D01*
Y742921D01*
X330285D01*
Y743254D01*
X331286D01*
Y743588D01*
X332286D01*
Y743921D01*
X333287D01*
Y744255D01*
X334621D01*
Y744588D01*
X335955D01*
Y744922D01*
X337289D01*
Y745255D01*
X338957D01*
Y745589D01*
X340624D01*
Y745922D01*
X342625D01*
Y746256D01*
X344960D01*
Y746589D01*
X347961D01*
Y746923D01*
X351296D01*
Y747256D01*
X354298D01*
Y747590D01*
X356299D01*
Y747923D01*
X357633D01*
Y748257D01*
X358634D01*
Y748590D01*
X359301D01*
Y748924D01*
X359634D01*
Y749257D01*
X360301D01*
Y749591D01*
X360635D01*
Y749924D01*
X360968D01*
Y750258D01*
X361302D01*
Y750591D01*
X361635D01*
Y750925D01*
X361969D01*
Y751592D01*
X362302D01*
Y751925D01*
X362636D01*
Y752592D01*
X362969D01*
Y752926D01*
X363303D01*
Y753593D01*
X363636D01*
Y754593D01*
X363970D01*
Y755260D01*
X364303D01*
Y756594D01*
X364637D01*
Y758262D01*
X364970D01*
Y761264D01*
X364637D01*
Y762264D01*
X364303D01*
Y762598D01*
X364637D01*
Y762931D01*
X365637D01*
Y762264D01*
D02*
G37*
G36*
X379311Y662545D02*
X379645D01*
Y661545D01*
Y661211D01*
Y660544D01*
X379311D01*
Y661545D01*
X378978D01*
Y663546D01*
X379311D01*
Y662545D01*
D02*
G37*
G36*
X374309Y671883D02*
X374642D01*
Y671550D01*
X374976D01*
Y671216D01*
X375309D01*
Y670883D01*
X375643D01*
Y670549D01*
X375976D01*
Y670216D01*
X376310D01*
Y669549D01*
X376977D01*
Y669882D01*
X377310D01*
Y670216D01*
X377977D01*
Y669215D01*
X377644D01*
Y667881D01*
X377310D01*
Y665213D01*
X376977D01*
Y664213D01*
X376643D01*
Y663546D01*
X376310D01*
Y662879D01*
X375976D01*
Y662545D01*
X375643D01*
Y662212D01*
X375309D01*
Y661878D01*
X374976D01*
Y661545D01*
X374642D01*
Y661211D01*
X373975D01*
Y660878D01*
X373308D01*
Y660544D01*
X372975D01*
Y660211D01*
X372307D01*
Y659877D01*
X371640D01*
Y659544D01*
X370973D01*
Y659210D01*
X370640D01*
Y658876D01*
X369973D01*
Y658543D01*
X369306D01*
Y658210D01*
X368972D01*
Y657876D01*
X368305D01*
Y657542D01*
X367972D01*
Y658210D01*
X368305D01*
Y658876D01*
X368639D01*
Y659210D01*
X368972D01*
Y659877D01*
X369306D01*
Y660544D01*
X369639D01*
Y660878D01*
X369973D01*
Y661211D01*
X370306D01*
Y661545D01*
X370640D01*
Y662212D01*
X370973D01*
Y662545D01*
X371640D01*
Y662879D01*
X371974D01*
Y663212D01*
X372307D01*
Y663546D01*
X372641D01*
Y663879D01*
X372975D01*
Y664213D01*
X373308D01*
Y664546D01*
X373642D01*
Y664880D01*
X373975D01*
Y665547D01*
X374309D01*
Y665880D01*
X374642D01*
Y666214D01*
X374976D01*
Y666881D01*
X375309D01*
Y667548D01*
X375643D01*
Y668215D01*
X375976D01*
Y668548D01*
X376310D01*
Y669215D01*
X375976D01*
Y669882D01*
X375643D01*
Y670216D01*
X375309D01*
Y670549D01*
X374976D01*
Y670883D01*
X374642D01*
Y671216D01*
X374309D01*
Y671550D01*
X373975D01*
Y671883D01*
X373642D01*
Y672217D01*
X374309D01*
Y671883D01*
D02*
G37*
G36*
X399655Y651873D02*
X399322D01*
Y651539D01*
Y651206D01*
X398988D01*
Y650539D01*
X398655D01*
Y650205D01*
X398321D01*
Y651206D01*
X398655D01*
Y651873D01*
X398988D01*
Y652206D01*
X399322D01*
Y652540D01*
X399655D01*
Y651873D01*
D02*
G37*
G36*
X426002Y648538D02*
X426336D01*
Y648204D01*
X426669D01*
Y647871D01*
Y647537D01*
X427003D01*
Y646537D01*
X427336D01*
Y645203D01*
X426669D01*
Y644869D01*
X425669D01*
Y644536D01*
X425002D01*
Y644202D01*
X424335D01*
Y643869D01*
X423334D01*
Y643535D01*
X422334D01*
Y643202D01*
X421667D01*
Y642868D01*
X421000D01*
Y642535D01*
X420333D01*
Y642868D01*
X420666D01*
Y643202D01*
X421333D01*
Y643535D01*
X421667D01*
Y643869D01*
X422667D01*
Y644202D01*
X423334D01*
Y644536D01*
X424335D01*
Y644869D01*
X425002D01*
Y645203D01*
X426002D01*
Y645536D01*
X426669D01*
Y645870D01*
X427003D01*
Y646203D01*
X426669D01*
Y647537D01*
X426336D01*
Y648204D01*
X426002D01*
Y648538D01*
X424668D01*
Y648204D01*
X423668D01*
Y647871D01*
X423334D01*
Y647537D01*
X423001D01*
Y647204D01*
X422667D01*
Y646870D01*
X422334D01*
Y646537D01*
X421333D01*
Y646203D01*
X420333D01*
Y646537D01*
X420666D01*
Y646870D01*
X421667D01*
Y647204D01*
X422334D01*
Y647537D01*
X422667D01*
Y647871D01*
X423001D01*
Y648204D01*
X423334D01*
Y648538D01*
X424335D01*
Y648871D01*
X426002D01*
Y648538D01*
D02*
G37*
G36*
X404324Y639866D02*
X403991D01*
Y639533D01*
X403657D01*
Y640200D01*
X403991D01*
Y640867D01*
X404324D01*
Y639866D01*
D02*
G37*
G36*
X419332Y646203D02*
X420333D01*
Y645870D01*
X419666D01*
Y644536D01*
X419332D01*
Y643535D01*
X419666D01*
Y642535D01*
X419999D01*
Y642201D01*
X419666D01*
Y641868D01*
X419332D01*
Y641534D01*
X418665D01*
Y641201D01*
X417998D01*
Y640867D01*
X417331D01*
Y640534D01*
X416664D01*
Y640200D01*
X415663D01*
Y639866D01*
X414996D01*
Y639533D01*
X414329D01*
Y639199D01*
X413662D01*
Y638866D01*
X412662D01*
Y638532D01*
X411995D01*
Y638199D01*
X411328D01*
Y637865D01*
X410327D01*
Y637532D01*
X409660D01*
Y637198D01*
X408993D01*
Y636865D01*
X407993D01*
Y636531D01*
X407326D01*
Y636198D01*
X406659D01*
Y635864D01*
X405992D01*
Y635531D01*
X405325D01*
Y635197D01*
X404324D01*
Y634864D01*
X403657D01*
Y634530D01*
X402990D01*
Y634197D01*
X403657D01*
Y632863D01*
X403324D01*
Y631529D01*
X402990D01*
Y630195D01*
X402657D01*
Y629194D01*
X402323D01*
Y628194D01*
X401990D01*
Y627527D01*
X401656D01*
Y626193D01*
X401990D01*
Y624192D01*
X402323D01*
Y622524D01*
X402657D01*
Y620857D01*
X402990D01*
Y618856D01*
X403324D01*
Y617855D01*
X403657D01*
Y616855D01*
X403991D01*
Y615854D01*
X404324D01*
Y614520D01*
X404658D01*
Y611185D01*
X404324D01*
Y610518D01*
X403991D01*
Y609851D01*
X403657D01*
Y609517D01*
X403324D01*
Y608850D01*
X402990D01*
Y608517D01*
X402657D01*
Y608183D01*
X402323D01*
Y607850D01*
X401990D01*
Y607183D01*
X401656D01*
Y606849D01*
X401323D01*
Y606516D01*
X400989D01*
Y606182D01*
X400322D01*
Y605849D01*
X399655D01*
Y605515D01*
X384647D01*
Y605182D01*
X379311D01*
Y604848D01*
X377644D01*
Y604515D01*
X376643D01*
Y604181D01*
X375309D01*
Y603848D01*
X374309D01*
Y603514D01*
X373308D01*
Y603181D01*
X372641D01*
Y602847D01*
X371640D01*
Y602514D01*
X370640D01*
Y602180D01*
X369639D01*
Y601847D01*
X368639D01*
Y601513D01*
X367638D01*
Y601180D01*
X366971D01*
Y600846D01*
X366304D01*
Y600179D01*
X365971D01*
Y598512D01*
X365637D01*
Y597511D01*
X365304D01*
Y596177D01*
X364970D01*
Y595510D01*
X364637D01*
Y594843D01*
X364303D01*
Y595843D01*
X364637D01*
Y596844D01*
X364970D01*
Y598178D01*
X365304D01*
Y599846D01*
X365637D01*
Y601180D01*
X366304D01*
Y601513D01*
X366971D01*
Y601847D01*
X367638D01*
Y602180D01*
X368305D01*
Y602514D01*
X369306D01*
Y602847D01*
X369973D01*
Y603181D01*
X370973D01*
Y603514D01*
X371640D01*
Y603848D01*
X372641D01*
Y604181D01*
X373642D01*
Y604515D01*
X374642D01*
Y604848D01*
X375309D01*
Y605182D01*
X376310D01*
Y605515D01*
X377310D01*
Y605849D01*
X378644D01*
Y606182D01*
X381979D01*
Y606516D01*
X390984D01*
Y606849D01*
X399655D01*
Y607183D01*
X400322D01*
Y607516D01*
X400656D01*
Y608183D01*
X400989D01*
Y608517D01*
X401323D01*
Y608850D01*
X401656D01*
Y609184D01*
X401990D01*
Y609517D01*
X402323D01*
Y610184D01*
X402657D01*
Y610518D01*
X402990D01*
Y611185D01*
X403324D01*
Y611518D01*
X403657D01*
Y613853D01*
X403324D01*
Y615187D01*
X402990D01*
Y616188D01*
X402657D01*
Y617522D01*
X402323D01*
Y618856D01*
X401990D01*
Y620523D01*
X401656D01*
Y622524D01*
X401323D01*
Y624859D01*
X400989D01*
Y627193D01*
X400656D01*
Y627527D01*
X400989D01*
Y627860D01*
X401323D01*
Y628527D01*
X401656D01*
Y629528D01*
X401990D01*
Y630195D01*
X402323D01*
Y631195D01*
X402657D01*
Y632529D01*
X402990D01*
Y633530D01*
X402323D01*
Y633863D01*
X401656D01*
Y634197D01*
X401323D01*
Y635197D01*
X401656D01*
Y636198D01*
X401990D01*
Y636865D01*
X402323D01*
Y637532D01*
X402657D01*
Y638199D01*
X402990D01*
Y638866D01*
X403324D01*
Y639533D01*
X403657D01*
Y639199D01*
X404324D01*
Y639533D01*
X404991D01*
Y639866D01*
X405992D01*
Y640200D01*
X406659D01*
Y640534D01*
X407326D01*
Y640867D01*
X407993D01*
Y641201D01*
X408660D01*
Y641534D01*
X409327D01*
Y641868D01*
X409994D01*
Y642201D01*
X410661D01*
Y642535D01*
X411328D01*
Y642868D01*
X412328D01*
Y643202D01*
X412995D01*
Y643535D01*
X413662D01*
Y643869D01*
X414329D01*
Y644202D01*
X414996D01*
Y644536D01*
X415663D01*
Y644869D01*
X416330D01*
Y645203D01*
X416998D01*
Y645536D01*
X417998D01*
Y645870D01*
X418332D01*
Y646203D01*
X418999D01*
Y646537D01*
X419332D01*
Y646203D01*
D02*
G37*
G36*
X364303Y594509D02*
Y594176D01*
X363970D01*
Y594843D01*
X364303D01*
Y594509D01*
D02*
G37*
G36*
X363970Y593509D02*
X363636D01*
Y593842D01*
Y594176D01*
X363970D01*
Y593509D01*
D02*
G37*
G36*
X363636Y593175D02*
X363303D01*
Y593509D01*
X363636D01*
Y593175D01*
D02*
G37*
G36*
X363303Y592842D02*
X362969D01*
Y593175D01*
X363303D01*
Y592842D01*
D02*
G37*
%LPC*%
G36*
X378644Y751258D02*
X377977D01*
Y750925D01*
X378644D01*
Y751258D01*
D02*
G37*
G36*
X267586Y687558D02*
X267252D01*
Y687225D01*
X267586D01*
Y687558D01*
D02*
G37*
G36*
X358967Y684223D02*
X358300D01*
Y682889D01*
X358634D01*
Y679221D01*
X358300D01*
Y677887D01*
X357967D01*
Y676886D01*
X357633D01*
Y676219D01*
X357300D01*
Y675552D01*
X356966D01*
Y675218D01*
X356632D01*
Y674551D01*
X356299D01*
Y674218D01*
X355965D01*
Y673884D01*
X355632D01*
Y673217D01*
X355299D01*
Y673551D01*
X354965D01*
Y675885D01*
X354632D01*
Y676886D01*
X354298D01*
Y678220D01*
X353965D01*
Y679221D01*
X353631D01*
Y680221D01*
X353298D01*
Y680888D01*
X352964D01*
Y681555D01*
X352630D01*
Y681889D01*
X352297D01*
Y681222D01*
X352630D01*
Y678220D01*
X352297D01*
Y676886D01*
X351963D01*
Y675885D01*
X351630D01*
Y675552D01*
X351296D01*
Y674885D01*
X350963D01*
Y673884D01*
X350629D01*
Y672217D01*
X350296D01*
Y667548D01*
X350629D01*
Y666547D01*
X350963D01*
Y665880D01*
X351296D01*
Y665547D01*
X351630D01*
Y665880D01*
Y666214D01*
Y666547D01*
X351963D01*
Y667214D01*
X352297D01*
Y667881D01*
X352630D01*
Y668548D01*
X352964D01*
Y669215D01*
X353298D01*
Y669549D01*
X353631D01*
Y670216D01*
X353965D01*
Y670549D01*
X354298D01*
Y670883D01*
X354632D01*
Y671550D01*
X354965D01*
Y671883D01*
X355299D01*
Y672217D01*
X355632D01*
Y672884D01*
X355965D01*
Y673217D01*
X356299D01*
Y673551D01*
X356632D01*
Y673884D01*
X356966D01*
Y674218D01*
X357300D01*
Y674885D01*
X357633D01*
Y675218D01*
X357967D01*
Y675552D01*
X358300D01*
Y675885D01*
X358634D01*
Y676219D01*
X358967D01*
Y676553D01*
X359301D01*
Y677219D01*
X359634D01*
Y677553D01*
X359968D01*
Y677887D01*
X360301D01*
Y678220D01*
X360635D01*
Y678553D01*
X360968D01*
Y678887D01*
X361302D01*
Y679221D01*
X361635D01*
Y679554D01*
X361969D01*
Y680221D01*
X362302D01*
Y680555D01*
X362636D01*
Y680888D01*
X362969D01*
Y681222D01*
X363303D01*
Y681555D01*
X363636D01*
Y681889D01*
X363970D01*
Y682222D01*
X364303D01*
Y682556D01*
X364637D01*
Y682889D01*
X364970D01*
Y683223D01*
X364303D01*
Y682889D01*
X362969D01*
Y683223D01*
X360635D01*
Y683556D01*
X359634D01*
Y683890D01*
X358967D01*
Y684223D01*
D02*
G37*
G36*
X350963Y664546D02*
X350629D01*
Y664213D01*
X347628D01*
Y664546D01*
X346961D01*
Y664213D01*
X347294D01*
Y663879D01*
X347961D01*
Y663546D01*
X348295D01*
Y663212D01*
X348962D01*
Y662879D01*
X349629D01*
Y662545D01*
X350296D01*
Y662212D01*
X350629D01*
Y663546D01*
X350963D01*
Y664546D01*
D02*
G37*
G36*
X257581Y631195D02*
X257247D01*
Y630862D01*
X257581D01*
Y631195D01*
D02*
G37*
G36*
X331619Y634197D02*
X330952D01*
Y633863D01*
X331286D01*
Y632529D01*
X331619D01*
Y631529D01*
X331953D01*
Y631195D01*
X332953D01*
Y630862D01*
X335621D01*
Y630528D01*
X336288D01*
Y630862D01*
X337623D01*
Y631195D01*
X336622D01*
Y631529D01*
X335955D01*
Y631862D01*
X335288D01*
Y632196D01*
X334621D01*
Y632529D01*
X333954D01*
Y632863D01*
X333287D01*
Y633196D01*
X332620D01*
Y633530D01*
X331953D01*
Y633863D01*
X331619D01*
Y634197D01*
D02*
G37*
G36*
X377644Y580502D02*
X376977D01*
Y580168D01*
X376643D01*
Y579835D01*
X376310D01*
Y579501D01*
X375976D01*
Y579168D01*
X375643D01*
Y578501D01*
X375309D01*
Y578167D01*
X374976D01*
Y577834D01*
X374642D01*
Y577167D01*
X374309D01*
Y576833D01*
X373975D01*
Y576500D01*
X373642D01*
Y575833D01*
X373308D01*
Y575499D01*
X372975D01*
Y575166D01*
X372641D01*
Y574499D01*
X372307D01*
Y574165D01*
X371974D01*
Y573498D01*
X371640D01*
Y573165D01*
X371307D01*
Y572498D01*
X370973D01*
Y572164D01*
X370640D01*
Y571497D01*
X370306D01*
Y571164D01*
X369973D01*
Y570497D01*
X369639D01*
Y569830D01*
X369306D01*
Y569496D01*
X368972D01*
Y568829D01*
X368639D01*
Y568162D01*
X368305D01*
Y567495D01*
X367972D01*
Y567162D01*
X367638D01*
Y566495D01*
X367305D01*
Y565828D01*
X366971D01*
Y565161D01*
X366638D01*
Y564494D01*
X366304D01*
Y563827D01*
X365971D01*
Y563160D01*
X365637D01*
Y562159D01*
X365304D01*
Y561492D01*
X364970D01*
Y560825D01*
X364637D01*
Y559824D01*
X364303D01*
Y559157D01*
X363970D01*
Y558157D01*
X363636D01*
Y557156D01*
X363303D01*
Y556156D01*
X362969D01*
Y554822D01*
X362636D01*
Y553821D01*
X362302D01*
Y552487D01*
X361969D01*
Y551487D01*
X362636D01*
Y551153D01*
X363636D01*
Y550820D01*
X364970D01*
Y550486D01*
X365971D01*
Y550153D01*
X366971D01*
Y549819D01*
X367972D01*
Y549486D01*
X368972D01*
Y549152D01*
X369639D01*
Y548819D01*
X369973D01*
Y548485D01*
X370306D01*
Y546818D01*
X369973D01*
Y541482D01*
X369639D01*
Y532810D01*
X369306D01*
Y529809D01*
X369639D01*
Y530476D01*
X369973D01*
Y531476D01*
X370306D01*
Y532143D01*
X370640D01*
Y533144D01*
X370973D01*
Y533811D01*
X371307D01*
Y534478D01*
X371640D01*
Y535145D01*
X371974D01*
Y536145D01*
X372307D01*
Y536813D01*
X372641D01*
Y537480D01*
X372975D01*
Y538147D01*
X373308D01*
Y538814D01*
X373642D01*
Y539481D01*
X373975D01*
Y540148D01*
X374309D01*
Y540815D01*
X374642D01*
Y541482D01*
X374976D01*
Y542149D01*
X375309D01*
Y542816D01*
X375643D01*
Y543483D01*
X375976D01*
Y544150D01*
X376310D01*
Y544817D01*
X376643D01*
Y545150D01*
X376977D01*
Y545817D01*
X377310D01*
Y546484D01*
X377644D01*
Y546818D01*
X377977D01*
Y547485D01*
X378311D01*
Y547818D01*
X378644D01*
Y548485D01*
X378978D01*
Y548819D01*
X379311D01*
Y549486D01*
X379645D01*
Y549819D01*
X379978D01*
Y550153D01*
X380312D01*
Y550820D01*
X379978D01*
Y551153D01*
X379645D01*
Y551487D01*
X378978D01*
Y551820D01*
X378644D01*
Y552154D01*
X377977D01*
Y552487D01*
X377310D01*
Y552821D01*
X376643D01*
Y553154D01*
X375976D01*
Y553488D01*
X374976D01*
Y553821D01*
X374309D01*
Y554155D01*
X373642D01*
Y554488D01*
X372641D01*
Y554822D01*
X371640D01*
Y555155D01*
X371307D01*
Y555489D01*
X371640D01*
Y556156D01*
X371974D01*
Y556489D01*
X372307D01*
Y556823D01*
X372641D01*
Y557156D01*
X372975D01*
Y557823D01*
X373308D01*
Y558157D01*
X373642D01*
Y558490D01*
X373975D01*
Y558824D01*
X374309D01*
Y559157D01*
X374642D01*
Y559824D01*
X374976D01*
Y560158D01*
X375309D01*
Y560491D01*
X375643D01*
Y560825D01*
X375976D01*
Y561159D01*
X376310D01*
Y561826D01*
X376643D01*
Y562159D01*
X376977D01*
Y562493D01*
X377310D01*
Y562826D01*
X377644D01*
Y563160D01*
X377977D01*
Y563493D01*
X378311D01*
Y563827D01*
X378644D01*
Y564160D01*
X378978D01*
Y564494D01*
X379311D01*
Y564827D01*
X379645D01*
Y565161D01*
X379978D01*
Y565494D01*
X380312D01*
Y566161D01*
X380645D01*
Y566495D01*
X380979D01*
Y566828D01*
X381312D01*
Y567162D01*
X381646D01*
Y567495D01*
X381979D01*
Y567829D01*
X382646D01*
Y568162D01*
X382980D01*
Y568496D01*
X383313D01*
Y568829D01*
X383647D01*
Y569163D01*
X383980D01*
Y569496D01*
X384314D01*
Y569830D01*
X384647D01*
Y570163D01*
X384981D01*
Y570497D01*
X385314D01*
Y570830D01*
X385648D01*
Y571164D01*
X385981D01*
Y571497D01*
X386648D01*
Y571831D01*
X386982D01*
Y572164D01*
X387315D01*
Y572498D01*
X387649D01*
Y572831D01*
X387982D01*
Y573165D01*
X388649D01*
Y573498D01*
X388983D01*
Y573832D01*
X389650D01*
Y574165D01*
X389983D01*
Y574499D01*
X390317D01*
Y574832D01*
X389983D01*
Y575166D01*
X389316D01*
Y575499D01*
X388316D01*
Y575833D01*
X387649D01*
Y576166D01*
X386982D01*
Y576500D01*
X385981D01*
Y576833D01*
X385314D01*
Y577167D01*
X384647D01*
Y577500D01*
X383647D01*
Y577834D01*
X382980D01*
Y578167D01*
X382313D01*
Y578501D01*
X381312D01*
Y578834D01*
X380645D01*
Y579168D01*
X379978D01*
Y579501D01*
X379311D01*
Y579835D01*
X378644D01*
Y580168D01*
X377644D01*
Y580502D01*
D02*
G37*
G36*
X304605Y596177D02*
X299603D01*
Y595843D01*
X295934D01*
Y595510D01*
X293266D01*
Y595176D01*
X290264D01*
Y594843D01*
X286929D01*
Y594509D01*
X283594D01*
Y594176D01*
X280259D01*
Y593842D01*
X277591D01*
Y593509D01*
X276257D01*
Y593175D01*
X276590D01*
Y591841D01*
X276924D01*
Y590841D01*
X277257D01*
Y589840D01*
X277591D01*
Y588840D01*
X277925D01*
Y587839D01*
X278258D01*
Y586839D01*
X278592D01*
Y586172D01*
X278925D01*
Y585171D01*
X279259D01*
Y584171D01*
X279592D01*
Y583504D01*
X279926D01*
Y582503D01*
X280259D01*
Y582170D01*
X280593D01*
Y581836D01*
X281260D01*
Y581503D01*
X281593D01*
Y581169D01*
X282260D01*
Y580836D01*
X282927D01*
Y580502D01*
X283261D01*
Y580168D01*
X283928D01*
Y579835D01*
X284595D01*
Y579501D01*
X285262D01*
Y579168D01*
X285595D01*
Y578834D01*
X286262D01*
Y578501D01*
X286929D01*
Y578167D01*
X287263D01*
Y577834D01*
X287930D01*
Y577500D01*
X288597D01*
Y577167D01*
X289264D01*
Y576833D01*
X289597D01*
Y576500D01*
X290264D01*
Y576166D01*
X290598D01*
Y575833D01*
X291265D01*
Y575499D01*
X291932D01*
Y575166D01*
X292265D01*
Y574832D01*
X292932D01*
Y574499D01*
X293266D01*
Y574165D01*
X293933D01*
Y573832D01*
X294600D01*
Y573498D01*
X294933D01*
Y573165D01*
X295600D01*
Y572831D01*
X296268D01*
Y572498D01*
X296601D01*
Y572164D01*
X297268D01*
Y571831D01*
X297602D01*
Y571497D01*
X298269D01*
Y571164D01*
X298936D01*
Y570830D01*
X299269D01*
Y570497D01*
X299936D01*
Y570163D01*
X300270D01*
Y569830D01*
X300937D01*
Y569496D01*
X301604D01*
Y569163D01*
X301937D01*
Y568829D01*
X302604D01*
Y568496D01*
X302938D01*
Y568162D01*
X303605D01*
Y567829D01*
X303938D01*
Y567495D01*
X304605D01*
Y567162D01*
X305272D01*
Y566828D01*
X305606D01*
Y566495D01*
X306273D01*
Y566161D01*
X306606D01*
Y565828D01*
X307273D01*
Y565494D01*
X307607D01*
Y565161D01*
X308274D01*
Y564827D01*
X308941D01*
Y564494D01*
X309274D01*
Y564160D01*
X309941D01*
Y563827D01*
X310275D01*
Y563493D01*
X310942D01*
Y563160D01*
X311275D01*
Y562826D01*
X311942D01*
Y562493D01*
X312609D01*
Y562159D01*
X312943D01*
Y561826D01*
X313610D01*
Y561492D01*
X314277D01*
Y561159D01*
X314611D01*
Y560825D01*
X315278D01*
Y560491D01*
X315944D01*
Y560158D01*
X316278D01*
Y559824D01*
X316945D01*
Y559491D01*
X317612D01*
Y559157D01*
X317946D01*
Y558824D01*
X318613D01*
Y558490D01*
X319280D01*
Y558157D01*
X319613D01*
Y557823D01*
X320280D01*
Y557490D01*
X320947D01*
Y557156D01*
X321281D01*
Y556823D01*
X321948D01*
Y556489D01*
X322615D01*
Y556156D01*
X323282D01*
Y555822D01*
X323615D01*
Y555489D01*
X324282D01*
Y555155D01*
X324949D01*
Y554822D01*
X325616D01*
Y554488D01*
X325950D01*
Y554155D01*
X326617D01*
Y553821D01*
X327284D01*
Y553488D01*
X327951D01*
Y553154D01*
X328618D01*
Y552821D01*
X329285D01*
Y552487D01*
X329618D01*
Y552154D01*
X330285D01*
Y551820D01*
X330952D01*
Y551487D01*
X331619D01*
Y551153D01*
X332286D01*
Y550820D01*
X332953D01*
Y550486D01*
X333620D01*
Y550153D01*
X334287D01*
Y549819D01*
X334954D01*
Y549486D01*
X335288D01*
Y549152D01*
X335955D01*
Y548819D01*
X336622D01*
Y548485D01*
X336955D01*
Y548152D01*
X337623D01*
Y547818D01*
X337956D01*
Y547485D01*
X338623D01*
Y547151D01*
X338957D01*
Y546818D01*
X339624D01*
Y546484D01*
X339957D01*
Y546151D01*
X340291D01*
Y545817D01*
X340958D01*
Y545484D01*
X341291D01*
Y545150D01*
X341625D01*
Y544817D01*
X342292D01*
Y544483D01*
X342625D01*
Y544150D01*
X342959D01*
Y543816D01*
X343626D01*
Y543483D01*
X343959D01*
Y543149D01*
X344293D01*
Y542816D01*
X344626D01*
Y542482D01*
X345293D01*
Y542149D01*
X345627D01*
Y541815D01*
X345960D01*
Y541482D01*
X346294D01*
Y541148D01*
X346627D01*
Y540815D01*
X346961D01*
Y540481D01*
X347628D01*
Y540148D01*
X347961D01*
Y539814D01*
X348295D01*
Y539481D01*
X348628D01*
Y539147D01*
X348962D01*
Y538814D01*
X349295D01*
Y539147D01*
X348962D01*
Y539814D01*
X348628D01*
Y540148D01*
X348295D01*
Y540481D01*
X347961D01*
Y540815D01*
X347628D01*
Y541148D01*
X347294D01*
Y541482D01*
X346961D01*
Y541815D01*
X346627D01*
Y542482D01*
X346294D01*
Y542816D01*
X345960D01*
Y543149D01*
X345627D01*
Y543483D01*
X345293D01*
Y543816D01*
X344960D01*
Y544150D01*
X344626D01*
Y544483D01*
X344293D01*
Y544817D01*
X343959D01*
Y545150D01*
X343626D01*
Y545484D01*
X343292D01*
Y545817D01*
X342959D01*
Y546151D01*
X342625D01*
Y546818D01*
X342292D01*
Y547151D01*
X341958D01*
Y547485D01*
X341625D01*
Y547818D01*
X341291D01*
Y548152D01*
X340958D01*
Y548485D01*
X340624D01*
Y548819D01*
X340291D01*
Y549152D01*
X339957D01*
Y549486D01*
X339624D01*
Y549819D01*
X339290D01*
Y550153D01*
X338957D01*
Y550486D01*
X338623D01*
Y550820D01*
X338290D01*
Y551153D01*
X337956D01*
Y551487D01*
X337623D01*
Y551820D01*
X337289D01*
Y552154D01*
X336955D01*
Y552487D01*
X336622D01*
Y552821D01*
X336288D01*
Y553154D01*
X335955D01*
Y553488D01*
X335621D01*
Y553821D01*
X335288D01*
Y554155D01*
X334954D01*
Y554488D01*
X334621D01*
Y554822D01*
X334287D01*
Y555155D01*
X333954D01*
Y555489D01*
X333620D01*
Y555822D01*
X333287D01*
Y556156D01*
X332953D01*
Y556489D01*
X332620D01*
Y556823D01*
X332286D01*
Y557156D01*
X331953D01*
Y557490D01*
X331619D01*
Y557823D01*
X331286D01*
Y558157D01*
X330952D01*
Y558490D01*
X330619D01*
Y558824D01*
X330285D01*
Y559157D01*
X329618D01*
Y559491D01*
X329285D01*
Y559824D01*
X328951D01*
Y560158D01*
X328618D01*
Y560491D01*
X328284D01*
Y560825D01*
X327951D01*
Y561159D01*
X327617D01*
Y561492D01*
X327284D01*
Y561826D01*
X326950D01*
Y562159D01*
X326283D01*
Y562493D01*
X326950D01*
Y562159D01*
X327284D01*
Y561826D01*
X327617D01*
Y561492D01*
X327951D01*
Y561159D01*
X328284D01*
Y560825D01*
X328951D01*
Y560491D01*
X329285D01*
Y560158D01*
X329618D01*
Y559824D01*
X329952D01*
Y559491D01*
X330285D01*
Y559157D01*
X330619D01*
Y558824D01*
X331286D01*
Y558490D01*
X331619D01*
Y558157D01*
X331953D01*
Y557823D01*
X332286D01*
Y557490D01*
X332620D01*
Y557156D01*
X332953D01*
Y556823D01*
X333620D01*
Y556489D01*
X333954D01*
Y556156D01*
X334287D01*
Y555822D01*
X334621D01*
Y555489D01*
X334954D01*
Y555155D01*
X335288D01*
Y554822D01*
X335621D01*
Y554488D01*
X335955D01*
Y554155D01*
X336288D01*
Y553821D01*
X336622D01*
Y553488D01*
X336955D01*
Y553154D01*
X337289D01*
Y552821D01*
X337623D01*
Y552487D01*
X337956D01*
Y552154D01*
X338290D01*
Y551820D01*
X338623D01*
Y551487D01*
X339290D01*
Y551153D01*
X339624D01*
Y550820D01*
X339957D01*
Y550486D01*
X340291D01*
Y550153D01*
X340624D01*
Y549819D01*
X340958D01*
Y549486D01*
X341291D01*
Y549152D01*
X341625D01*
Y548819D01*
X341958D01*
Y548485D01*
X342292D01*
Y548152D01*
X342625D01*
Y547818D01*
X342959D01*
Y547485D01*
X343292D01*
Y547151D01*
X343626D01*
Y546484D01*
X343959D01*
Y546151D01*
X344293D01*
Y545817D01*
X344626D01*
Y545484D01*
X344960D01*
Y545150D01*
X345293D01*
Y544817D01*
X345627D01*
Y544483D01*
X345960D01*
Y544150D01*
X346294D01*
Y543816D01*
X346627D01*
Y543483D01*
X346961D01*
Y543149D01*
X347294D01*
Y542816D01*
X347628D01*
Y542482D01*
X347961D01*
Y542149D01*
X348295D01*
Y541815D01*
X348628D01*
Y541482D01*
X348962D01*
Y540815D01*
X349295D01*
Y540481D01*
X349629D01*
Y540148D01*
X349962D01*
Y539814D01*
X350296D01*
Y539147D01*
X350629D01*
Y538814D01*
X350963D01*
Y538480D01*
X351296D01*
Y537813D01*
X351630D01*
Y537480D01*
X351963D01*
Y536813D01*
X352297D01*
Y536479D01*
X352630D01*
Y535812D01*
X352964D01*
Y535145D01*
X353298D01*
Y534811D01*
X353631D01*
Y534144D01*
X353965D01*
Y533811D01*
X354298D01*
Y533144D01*
X354632D01*
Y532477D01*
X354965D01*
Y532143D01*
X355299D01*
Y531476D01*
X355632D01*
Y530809D01*
X355965D01*
Y530476D01*
X356299D01*
Y529809D01*
X356632D01*
Y529142D01*
X356966D01*
Y528808D01*
X357300D01*
Y528141D01*
X357633D01*
Y527474D01*
X357967D01*
Y527141D01*
X358300D01*
Y526474D01*
X358634D01*
Y526140D01*
X358967D01*
Y525473D01*
X359301D01*
Y525140D01*
X359634D01*
Y524473D01*
X359968D01*
Y523806D01*
X360301D01*
Y523472D01*
X360635D01*
Y523139D01*
X360968D01*
Y522805D01*
X361302D01*
Y522138D01*
X361635D01*
Y521805D01*
X361969D01*
Y521471D01*
X362302D01*
Y521138D01*
X362636D01*
Y520804D01*
X362969D01*
Y520471D01*
X363303D01*
Y520137D01*
X363636D01*
Y519804D01*
X363970D01*
Y519470D01*
X364303D01*
Y519137D01*
X364637D01*
Y518803D01*
X364970D01*
Y518470D01*
X365304D01*
Y518136D01*
X365637D01*
Y517803D01*
X365971D01*
Y517469D01*
X366304D01*
Y517136D01*
X366638D01*
Y516802D01*
X366971D01*
Y516468D01*
X367305D01*
Y516135D01*
X367638D01*
Y515801D01*
X367972D01*
Y515468D01*
X368305D01*
Y515134D01*
X368639D01*
Y514801D01*
X368972D01*
Y516135D01*
X368639D01*
Y518470D01*
X368305D01*
Y522138D01*
X367972D01*
Y536479D01*
X368305D01*
Y541815D01*
X368639D01*
Y545484D01*
X368972D01*
Y548152D01*
X368305D01*
Y548485D01*
X367305D01*
Y548819D01*
X366304D01*
Y549152D01*
X365304D01*
Y549486D01*
X364303D01*
Y549819D01*
X363303D01*
Y550153D01*
X362302D01*
Y550486D01*
X361302D01*
Y550820D01*
X360635D01*
Y551153D01*
X360968D01*
Y552487D01*
X361302D01*
Y553488D01*
X361635D01*
Y554822D01*
X361969D01*
Y555822D01*
X362302D01*
Y556823D01*
X362636D01*
Y557823D01*
X362969D01*
Y558824D01*
X363303D01*
Y559491D01*
X363636D01*
Y560491D01*
X363970D01*
Y561159D01*
X364303D01*
Y561826D01*
X364637D01*
Y562493D01*
X364970D01*
Y563160D01*
X365304D01*
Y563827D01*
X365637D01*
Y564494D01*
X365971D01*
Y565161D01*
X366304D01*
Y565828D01*
X366638D01*
Y566495D01*
X366971D01*
Y567162D01*
X367305D01*
Y567829D01*
X367638D01*
Y568496D01*
X367972D01*
Y568829D01*
X368305D01*
Y569496D01*
X368639D01*
Y570163D01*
X368972D01*
Y570497D01*
X369306D01*
Y571164D01*
X369639D01*
Y571831D01*
X369973D01*
Y572164D01*
X370306D01*
Y572831D01*
X370640D01*
Y573165D01*
X370973D01*
Y573832D01*
X371307D01*
Y574165D01*
X371640D01*
Y574499D01*
X371974D01*
Y575166D01*
X372307D01*
Y575499D01*
X372641D01*
Y576166D01*
X372975D01*
Y576500D01*
X373308D01*
Y576833D01*
X373642D01*
Y577500D01*
X373975D01*
Y577834D01*
X374309D01*
Y578167D01*
X374642D01*
Y578501D01*
X374976D01*
Y579168D01*
X375309D01*
Y579501D01*
X375643D01*
Y579835D01*
X375976D01*
Y580168D01*
X376310D01*
Y580502D01*
X376643D01*
Y581169D01*
X376977D01*
Y581503D01*
X377310D01*
Y581836D01*
X377644D01*
Y582170D01*
X377977D01*
Y582503D01*
X378311D01*
Y582837D01*
X378644D01*
Y583504D01*
X378978D01*
Y583837D01*
X379311D01*
Y584171D01*
X379645D01*
Y584504D01*
X379978D01*
Y584838D01*
X380312D01*
Y585171D01*
X380645D01*
Y585505D01*
X380979D01*
Y585838D01*
X381312D01*
Y586172D01*
X381646D01*
Y586505D01*
X381979D01*
Y586839D01*
X382313D01*
Y587506D01*
X381979D01*
Y587839D01*
X381646D01*
Y588173D01*
X380979D01*
Y588506D01*
X380312D01*
Y588840D01*
X379311D01*
Y589173D01*
X377977D01*
Y589507D01*
X376643D01*
Y589840D01*
X374976D01*
Y590174D01*
X372975D01*
Y590507D01*
X370640D01*
Y590841D01*
X367972D01*
Y591174D01*
X364637D01*
Y591508D01*
X360968D01*
Y591841D01*
X356966D01*
Y592175D01*
X352630D01*
Y592508D01*
X347294D01*
Y592842D01*
X340291D01*
Y593175D01*
X317946D01*
Y593509D01*
X315278D01*
Y593842D01*
X313610D01*
Y594176D01*
X311942D01*
Y594509D01*
X310608D01*
Y594843D01*
X309274D01*
Y595176D01*
X308274D01*
Y595510D01*
X306940D01*
Y595843D01*
X304605D01*
Y596177D01*
D02*
G37*
G36*
X418999Y645536D02*
X418332D01*
Y645203D01*
X417665D01*
Y644869D01*
X416998D01*
Y644536D01*
X416330D01*
Y644202D01*
X415663D01*
Y643869D01*
X414996D01*
Y643535D01*
X414329D01*
Y643202D01*
X413662D01*
Y642868D01*
X412995D01*
Y642535D01*
X412328D01*
Y642201D01*
X411328D01*
Y641868D01*
X410661D01*
Y641534D01*
X409994D01*
Y641201D01*
X409327D01*
Y640867D01*
X408660D01*
Y640534D01*
X407993D01*
Y640200D01*
X407326D01*
Y639866D01*
X406659D01*
Y638532D01*
X406992D01*
Y636865D01*
X407659D01*
Y637198D01*
X408326D01*
Y637532D01*
X408993D01*
Y637865D01*
X409660D01*
Y638199D01*
X410327D01*
Y638532D01*
X411328D01*
Y638866D01*
X411995D01*
Y639199D01*
X412662D01*
Y639533D01*
X413662D01*
Y639866D01*
X414329D01*
Y640200D01*
X414996D01*
Y640534D01*
X415997D01*
Y640867D01*
X416664D01*
Y641201D01*
X417331D01*
Y641534D01*
X417998D01*
Y641868D01*
X418999D01*
Y643869D01*
X418665D01*
Y644536D01*
X418999D01*
Y645536D01*
D02*
G37*
G36*
X405992Y639199D02*
X404991D01*
Y638866D01*
X404324D01*
Y638532D01*
X403657D01*
Y638199D01*
X403324D01*
Y637865D01*
X402990D01*
Y637198D01*
X402657D01*
Y636531D01*
X402323D01*
Y635531D01*
X401990D01*
Y634864D01*
X401656D01*
Y634530D01*
X402323D01*
Y634864D01*
X402990D01*
Y635197D01*
X403657D01*
Y635531D01*
X404324D01*
Y635864D01*
X405325D01*
Y636198D01*
X405992D01*
Y636531D01*
X406325D01*
Y638532D01*
X405992D01*
Y639199D01*
D02*
G37*
%LPD*%
D10*
X365760Y639080D02*
X545760D01*
X365760Y894080D02*
X545760D01*
Y639080D02*
Y894080D01*
X365760Y639080D02*
Y894080D01*
X5760Y372300D02*
X365760D01*
X5760Y622300D02*
X365760D01*
Y372300D02*
Y622300D01*
X5760Y372300D02*
Y622300D01*
X137500Y639080D02*
X317500D01*
X137500Y894080D02*
X317500D01*
Y639080D02*
Y894080D01*
X137500Y639080D02*
Y894080D01*
X367030Y371110D02*
X547030D01*
X367030Y626110D02*
X547030D01*
Y371110D02*
Y626110D01*
X367030Y371110D02*
Y626110D01*
X122062Y406964D02*
X121885Y422198D01*
X129502Y422287D01*
X132070Y419778D01*
X132129Y414700D01*
X129620Y412131D01*
X122003Y412042D01*
X137237Y412220D02*
X142315Y412279D01*
X139776Y412249D01*
X139658Y422405D01*
X137119Y422376D01*
X149814Y422524D02*
X149932Y412368D01*
X149873Y417446D01*
X152382Y420014D01*
X154892Y422583D01*
X157431Y422612D01*
X165196Y410006D02*
X175352Y410124D01*
X180459Y407644D02*
X180282Y422878D01*
X187899Y422967D01*
X190467Y420458D01*
X190527Y415380D01*
X188017Y412811D01*
X180400Y412722D01*
X195634Y412900D02*
X200712Y412959D01*
X198173Y412929D01*
X198055Y423085D01*
X195516Y423056D01*
X208329Y413048D02*
X208211Y423204D01*
X215828Y423292D01*
X218397Y420783D01*
X218485Y413166D01*
X223563Y413225D02*
X231180Y413314D01*
X233690Y415882D01*
X231121Y418392D01*
X226043Y418333D01*
X223475Y420842D01*
X225984Y423411D01*
X233601Y423499D01*
X238797Y413402D02*
X243875Y413462D01*
X241336Y413432D01*
X241159Y428666D01*
X238650Y426097D01*
X73689Y918208D02*
X78767Y908052D01*
X83846Y918208D01*
X91463Y908052D02*
X96542D01*
X99081Y910591D01*
Y915669D01*
X96542Y918208D01*
X91463D01*
X88924Y915669D01*
Y910591D01*
X91463Y908052D01*
X104159D02*
X109238D01*
X106699D01*
Y923287D01*
X104159D01*
X119394Y920748D02*
Y918208D01*
X116855D01*
X121934D01*
X119394D01*
Y910591D01*
X121934Y908052D01*
X129551D02*
Y923287D01*
Y913130D02*
X137169Y918208D01*
X129551Y913130D02*
X137169Y908052D01*
X152404D02*
X147325D01*
X144786Y910591D01*
Y915669D01*
X147325Y918208D01*
X152404D01*
X154943Y915669D01*
Y913130D01*
X144786D01*
X160021Y918208D02*
Y910591D01*
X162560Y908052D01*
X170178D01*
Y905512D01*
X167639Y902973D01*
X165100D01*
X170178Y908052D02*
Y918208D01*
X175256Y905512D02*
X185413D01*
X190491Y902973D02*
Y918208D01*
X198109D01*
X200648Y915669D01*
Y910591D01*
X198109Y908052D01*
X190491D01*
X205727D02*
X210805D01*
X208266D01*
Y918208D01*
X205727D01*
X218422Y908052D02*
Y918208D01*
X226040D01*
X228579Y915669D01*
Y908052D01*
X233657D02*
X241275D01*
X243814Y910591D01*
X241275Y913130D01*
X236197D01*
X233657Y915669D01*
X236197Y918208D01*
X243814D01*
X248892Y908052D02*
X253971D01*
X251432D01*
Y923287D01*
X248892Y920748D01*
X194309Y798820D02*
X184153Y793741D01*
X194309Y788663D01*
X184153Y775967D02*
Y781045D01*
X186692Y783585D01*
X191770D01*
X194309Y781045D01*
Y775967D01*
X191770Y773428D01*
X189231D01*
Y783585D01*
X184153Y768350D02*
X194309D01*
Y765810D01*
X191770Y763271D01*
X184153D01*
X191770D01*
X194309Y760732D01*
X191770Y758193D01*
X184153D01*
Y753114D02*
Y748036D01*
Y750575D01*
X199388D01*
Y753114D01*
X184153Y740419D02*
Y735340D01*
Y737879D01*
X199388D01*
X196848Y740419D01*
X27943Y938528D02*
Y925832D01*
X30482Y923292D01*
X35561D01*
X38100Y925832D01*
Y938528D01*
X43178Y923292D02*
X48257D01*
X45718D01*
Y938528D01*
X43178Y935988D01*
X497837Y762008D02*
Y769625D01*
X495298Y772165D01*
X492759Y769625D01*
Y764547D01*
X490220Y762008D01*
X487681Y764547D01*
Y772165D01*
X482603Y777243D02*
X497837D01*
X490220D01*
X487681Y779782D01*
Y784860D01*
X490220Y787400D01*
X497837D01*
X485142Y795017D02*
X487681D01*
Y792478D01*
Y797556D01*
Y795017D01*
X495298D01*
X497837Y797556D01*
Y805174D02*
Y810252D01*
Y807713D01*
X482603D01*
X485142Y805174D01*
X482603Y478798D02*
X497838D01*
Y486416D01*
X495299Y488955D01*
X492760D01*
X490221D01*
X487682Y486416D01*
Y478798D01*
X497838Y494033D02*
X487682D01*
Y496572D01*
X490221Y499112D01*
X497838D01*
X490221D01*
X487682Y501651D01*
X490221Y504190D01*
X497838D01*
X502917Y509268D02*
X487682D01*
Y516886D01*
X490221Y519425D01*
X495299D01*
X497838Y516886D01*
Y509268D01*
Y524503D02*
Y529582D01*
Y527043D01*
X482603D01*
X485143Y524503D01*
M02*
