M48
;Layer_Color=9474304
;FILE_FORMAT=4:4
METRIC,LZ
;TYPE=PLATED
T1F00S00C1.0160
%
T01
X0015621Y0039243
X0018161
X0020701
X0052451Y0041783
Y0044323
Y0046863
Y0049403
Y0051943
Y0054483
Y0057023
X005207Y0069088
Y0071628
Y0074168
Y0076708
Y0079248
X0016383
Y0076708
Y0074168
Y0071628
X0005147Y0072771
Y0070231
Y0067691
Y0065151
Y0062611
Y0060071
Y0057531
Y0054991
Y0052451
Y0049911
Y0047371
Y0044831
Y0042291
X0002607
Y0044831
Y0047371
Y0049911
Y0052451
Y0054991
Y0057531
Y0060071
Y0062611
Y0065151
Y0067691
Y0070231
Y0072771
Y0075311
X0005147
Y0077851
X0002607
Y0080391
X0005147
Y0082931
Y0085471
Y0088011
Y0090551
X0002607
Y0088011
Y0085471
Y0082931
X0016383Y0081788
X0017272Y0093599
X0014732
X0012192
X0009652
X005207Y0084328
Y0081788
M30
