G04*
G04 #@! TF.GenerationSoftware,Altium Limited,Altium Designer,23.4.1 (23)*
G04*
G04 Layer_Color=32896*
%FSLAX44Y44*%
%MOMM*%
G71*
G04*
G04 #@! TF.SameCoordinates,3D8DB9D9-8021-40C2-9F22-367B33DB821F*
G04*
G04*
G04 #@! TF.FilePolarity,Positive*
G04*
G01*
G75*
G36*
X347176Y607814D02*
X348704D01*
Y607305D01*
X350233D01*
Y606796D01*
X351252D01*
Y606286D01*
X352780D01*
Y605777D01*
X353799D01*
Y605267D01*
X354818D01*
Y604758D01*
X356856D01*
Y604248D01*
X357874D01*
Y603739D01*
X358384D01*
Y603230D01*
X358893D01*
Y602720D01*
X359912D01*
Y602211D01*
X360422D01*
Y601701D01*
X361441D01*
Y601192D01*
X361950D01*
Y600682D01*
X362459D01*
Y600173D01*
X362969D01*
Y599664D01*
X363478D01*
Y599154D01*
X364497D01*
Y598645D01*
X365007D01*
Y598135D01*
X367044D01*
Y597626D01*
X368573D01*
Y597116D01*
X375705D01*
Y596607D01*
X386403D01*
Y596097D01*
X388441D01*
Y595588D01*
X390479D01*
Y595079D01*
X392007D01*
Y594569D01*
X392517D01*
Y594060D01*
X393026D01*
Y593550D01*
X394045D01*
Y593041D01*
X395064D01*
Y592531D01*
X395573D01*
Y592022D01*
X396083D01*
Y591512D01*
X397102D01*
Y591003D01*
X397611D01*
Y590494D01*
X398120D01*
Y589984D01*
X398630D01*
Y589475D01*
X399139D01*
Y588965D01*
X399649D01*
Y588456D01*
X400158D01*
Y587437D01*
X400668D01*
Y586927D01*
X401177D01*
Y586418D01*
X401686D01*
Y585909D01*
X402196D01*
Y585399D01*
X402705D01*
Y584890D01*
X403215D01*
Y584380D01*
X403724D01*
Y583871D01*
X404234D01*
Y583361D01*
X404743D01*
Y582852D01*
X405253D01*
Y582342D01*
X405762D01*
Y581833D01*
X406271D01*
Y580814D01*
X406781D01*
Y580305D01*
X407290D01*
Y579286D01*
X407800D01*
Y578776D01*
X408309D01*
Y577757D01*
X408819D01*
Y577248D01*
X409328D01*
Y576739D01*
X409837D01*
Y575720D01*
X410347D01*
Y574701D01*
X410856D01*
Y573682D01*
X411366D01*
Y572663D01*
X411875D01*
Y571644D01*
X412385D01*
Y570116D01*
X412894D01*
Y569097D01*
X413404D01*
Y567569D01*
X413913D01*
Y566550D01*
X414422D01*
Y565021D01*
X414932D01*
Y562984D01*
X415441D01*
Y559927D01*
X415951D01*
Y557380D01*
X416460D01*
Y552285D01*
X415951D01*
Y550757D01*
X416460D01*
Y536493D01*
X415951D01*
Y532417D01*
X415441D01*
Y529870D01*
X414932D01*
Y528851D01*
X414422D01*
Y526813D01*
X413913D01*
Y524776D01*
X413404D01*
Y522738D01*
X412894D01*
Y521719D01*
X412385D01*
Y519681D01*
X411875D01*
Y518153D01*
X411366D01*
Y517643D01*
X410856D01*
Y516115D01*
X410347D01*
Y515096D01*
X409837D01*
Y513568D01*
X409328D01*
Y512549D01*
X408819D01*
Y511530D01*
X408309D01*
Y510511D01*
X407800D01*
Y510002D01*
X407290D01*
Y509492D01*
X406781D01*
Y508473D01*
X406271D01*
Y507454D01*
X405762D01*
Y506945D01*
X405253D01*
Y506436D01*
X404743D01*
Y505417D01*
X404234D01*
Y504907D01*
X403724D01*
Y503888D01*
X403215D01*
Y503379D01*
X402705D01*
Y502869D01*
X402196D01*
Y501341D01*
X401686D01*
Y500322D01*
X401177D01*
Y499303D01*
X400668D01*
Y497775D01*
X400158D01*
Y496756D01*
X399649D01*
Y495228D01*
X399139D01*
Y493700D01*
X398630D01*
Y492681D01*
X398120D01*
Y491662D01*
X397611D01*
Y490643D01*
X397102D01*
Y490134D01*
X396592D01*
Y489115D01*
X396083D01*
Y488096D01*
X395573D01*
Y487077D01*
X395064D01*
Y486058D01*
X394554D01*
Y485039D01*
X394045D01*
Y483511D01*
X393535D01*
Y482492D01*
X393026D01*
Y481473D01*
X392517D01*
Y480454D01*
X392007D01*
Y479435D01*
X391498D01*
Y478416D01*
X390988D01*
Y476888D01*
X390479D01*
Y475869D01*
X389969D01*
Y474850D01*
X389460D01*
Y473831D01*
X388950D01*
Y472303D01*
X388441D01*
Y471284D01*
X387932D01*
Y469756D01*
X387422D01*
Y468228D01*
X386913D01*
Y467718D01*
X385894D01*
Y467209D01*
X384875D01*
Y466699D01*
X383856D01*
Y466190D01*
X383347D01*
Y465680D01*
X382328D01*
Y465171D01*
X381818D01*
Y464661D01*
X380799D01*
Y464152D01*
X379780D01*
Y463643D01*
X379271D01*
Y463133D01*
X378252D01*
Y462624D01*
X377743D01*
Y462114D01*
X376724D01*
Y461605D01*
X376214D01*
Y461095D01*
X375705D01*
Y460076D01*
X376724D01*
Y459567D01*
X378252D01*
Y459058D01*
X380290D01*
Y458548D01*
X381818D01*
Y458039D01*
X383856D01*
Y457529D01*
X384365D01*
Y457020D01*
X385384D01*
Y456510D01*
X386403D01*
Y456001D01*
X387422D01*
Y455491D01*
X388950D01*
Y454982D01*
X389460D01*
Y454473D01*
X391498D01*
Y453963D01*
X393535D01*
Y453454D01*
X394045D01*
Y452944D01*
X395573D01*
Y452435D01*
X397611D01*
Y451925D01*
X398630D01*
Y451416D01*
X400158D01*
Y450906D01*
X401686D01*
Y450397D01*
X403215D01*
Y449888D01*
X404234D01*
Y449378D01*
X405253D01*
Y448869D01*
X405762D01*
Y448359D01*
X406781D01*
Y447850D01*
X407290D01*
Y447340D01*
X407800D01*
Y446831D01*
X408819D01*
Y446321D01*
X409837D01*
Y445812D01*
X410856D01*
Y445303D01*
X411875D01*
Y444793D01*
X412894D01*
Y444284D01*
X413404D01*
Y443774D01*
X414932D01*
Y443265D01*
X415441D01*
Y442755D01*
X416460D01*
Y442246D01*
X417479D01*
Y441736D01*
X417989D01*
Y441227D01*
X419007D01*
Y440718D01*
X419517D01*
Y439699D01*
X420026D01*
Y439189D01*
X420536D01*
Y438680D01*
X421555D01*
Y437661D01*
X422064D01*
Y435114D01*
X421555D01*
Y431548D01*
X421045D01*
Y431038D01*
X420536D01*
Y430529D01*
X420026D01*
Y430019D01*
X419517D01*
Y429001D01*
X417989D01*
Y428491D01*
X417479D01*
Y427982D01*
X416460D01*
Y427472D01*
X415441D01*
Y426963D01*
X414932D01*
Y426453D01*
X413913D01*
Y425944D01*
X412894D01*
Y424925D01*
X411875D01*
Y424416D01*
X411366D01*
Y423397D01*
X410347D01*
Y422378D01*
X409328D01*
Y421359D01*
X408309D01*
Y420849D01*
X407800D01*
Y420340D01*
X408819D01*
Y419831D01*
X410347D01*
Y419321D01*
X412385D01*
Y418812D01*
X413913D01*
Y418302D01*
X414422D01*
Y417793D01*
X415441D01*
Y417283D01*
X416970D01*
Y416774D01*
X417989D01*
Y416264D01*
X419007D01*
Y415755D01*
X420536D01*
Y415246D01*
X421555D01*
Y414736D01*
X423083D01*
Y414227D01*
X424611D01*
Y413717D01*
X425630D01*
Y413208D01*
X426140D01*
Y412698D01*
X427159D01*
Y412189D01*
X428177D01*
Y411170D01*
X428687D01*
Y410661D01*
X429706D01*
Y410151D01*
X430215D01*
Y409642D01*
X430725D01*
Y409132D01*
X431744D01*
Y408623D01*
X432253D01*
Y408113D01*
X433272D01*
Y407604D01*
X434291D01*
Y407094D01*
X434800D01*
Y406585D01*
X435310D01*
Y405057D01*
X435819D01*
Y404547D01*
X436329D01*
Y404038D01*
X436838D01*
Y403019D01*
X437347D01*
Y402509D01*
X437857D01*
Y400981D01*
X438366D01*
Y400472D01*
X438876D01*
Y398434D01*
X439385D01*
Y397415D01*
X439895D01*
Y396396D01*
X440404D01*
Y394868D01*
X440914D01*
Y393849D01*
X441423D01*
Y393340D01*
X441932D01*
Y391811D01*
X442442D01*
Y389773D01*
X442951D01*
Y387226D01*
X443461D01*
Y383151D01*
X443970D01*
Y371943D01*
X443461D01*
Y370924D01*
X443970D01*
Y370415D01*
X444989D01*
Y370924D01*
X446008D01*
Y370415D01*
X447536D01*
Y369905D01*
X448555D01*
Y369396D01*
X449064D01*
Y368886D01*
X449574D01*
Y364811D01*
X449064D01*
Y361245D01*
X448555D01*
Y359716D01*
X448046D01*
Y357679D01*
X447536D01*
Y355131D01*
X447027D01*
Y352584D01*
X446517D01*
Y348509D01*
X446008D01*
Y344943D01*
X445498D01*
Y342905D01*
X448046D01*
Y342395D01*
X448555D01*
Y341886D01*
X449064D01*
Y340867D01*
X449574D01*
Y339848D01*
X450083D01*
Y337301D01*
X450593D01*
Y328640D01*
X450083D01*
Y327621D01*
X449574D01*
Y321508D01*
X450083D01*
Y314886D01*
X450593D01*
Y309791D01*
X451102D01*
Y309282D01*
X451612D01*
Y308772D01*
X452121D01*
Y307244D01*
X452631D01*
Y305716D01*
X453140D01*
Y304697D01*
X453649D01*
Y303678D01*
X454159D01*
Y302659D01*
X454668D01*
Y300621D01*
X455178D01*
Y293489D01*
X455687D01*
Y288395D01*
X456197D01*
Y287376D01*
X456706D01*
Y285847D01*
X457216D01*
Y284828D01*
X457725D01*
Y284319D01*
X458234D01*
Y283810D01*
X458744D01*
Y283300D01*
X459253D01*
Y282791D01*
X459763D01*
Y281772D01*
X460272D01*
Y280753D01*
X460782D01*
Y279225D01*
X461291D01*
Y276677D01*
X461801D01*
Y274640D01*
X462310D01*
Y271583D01*
X462820D01*
Y269036D01*
X462310D01*
Y268526D01*
X462820D01*
Y258847D01*
X462310D01*
Y256300D01*
X461801D01*
Y254771D01*
X461291D01*
Y250696D01*
X460782D01*
Y248658D01*
X460272D01*
Y247639D01*
X459763D01*
Y245092D01*
X459253D01*
Y243564D01*
X458744D01*
Y242545D01*
X458234D01*
Y242035D01*
X457725D01*
Y240507D01*
X457216D01*
Y238979D01*
X456706D01*
Y237450D01*
X456197D01*
Y236432D01*
X455687D01*
Y230828D01*
X456197D01*
Y224205D01*
X456706D01*
Y221658D01*
X457216D01*
Y217582D01*
X457725D01*
Y215035D01*
X458234D01*
Y213507D01*
X457725D01*
Y212997D01*
X457216D01*
Y212488D01*
X456706D01*
Y211978D01*
X455687D01*
Y211469D01*
X455178D01*
Y210959D01*
X454159D01*
Y210450D01*
X453649D01*
Y209940D01*
X453140D01*
Y209431D01*
X452631D01*
Y208922D01*
X452121D01*
Y208412D01*
X451612D01*
Y207903D01*
X451102D01*
Y207393D01*
X450593D01*
Y206884D01*
X450083D01*
Y206374D01*
X449574D01*
Y205865D01*
X449064D01*
Y205355D01*
X448555D01*
Y204846D01*
X448046D01*
Y204337D01*
X447536D01*
Y203827D01*
X447027D01*
Y203318D01*
X446517D01*
Y202808D01*
X446008D01*
Y202299D01*
X445498D01*
Y201789D01*
X444989D01*
Y201280D01*
X444480D01*
Y200770D01*
X443970D01*
Y200261D01*
X443461D01*
Y199242D01*
X442951D01*
Y197714D01*
X442442D01*
Y197204D01*
X441932D01*
Y196695D01*
X441423D01*
Y196186D01*
X440914D01*
Y195676D01*
X440404D01*
Y195167D01*
X439895D01*
Y194657D01*
X439385D01*
Y194148D01*
X438876D01*
Y193638D01*
X438366D01*
Y193129D01*
X437857D01*
Y192619D01*
X437347D01*
Y192110D01*
X436838D01*
Y191601D01*
X436329D01*
Y191091D01*
X435819D01*
Y190582D01*
X435310D01*
Y190072D01*
X434800D01*
Y189563D01*
X434291D01*
Y189053D01*
X433781D01*
Y188544D01*
X432762D01*
Y188034D01*
X432253D01*
Y187525D01*
X431234D01*
Y187016D01*
X430725D01*
Y186506D01*
X427668D01*
Y185997D01*
X425630D01*
Y185487D01*
X421555D01*
Y184978D01*
X420536D01*
Y184468D01*
X419517D01*
Y183959D01*
X419007D01*
Y183449D01*
X418498D01*
Y178355D01*
X419007D01*
Y177336D01*
X419517D01*
Y175808D01*
X420026D01*
Y174280D01*
X420536D01*
Y172751D01*
X421045D01*
Y171223D01*
X421555D01*
Y170204D01*
X422064D01*
Y169185D01*
X422574D01*
Y168166D01*
X423083D01*
Y166638D01*
X423592D01*
Y166129D01*
X424102D01*
Y165619D01*
X424611D01*
Y165110D01*
X425121D01*
Y164600D01*
X425630D01*
Y163581D01*
X426140D01*
Y163072D01*
X426649D01*
Y161544D01*
X427159D01*
Y159506D01*
X427668D01*
Y158487D01*
X428177D01*
Y157977D01*
X428687D01*
Y156959D01*
X429196D01*
Y156449D01*
X429706D01*
Y155430D01*
X430215D01*
Y153902D01*
X430725D01*
Y152883D01*
X431234D01*
Y151864D01*
X431744D01*
Y150845D01*
X432253D01*
Y150336D01*
X432762D01*
Y149317D01*
X433272D01*
Y148807D01*
X433781D01*
Y147789D01*
X434291D01*
Y146770D01*
X434800D01*
Y146260D01*
X435310D01*
Y145751D01*
X435819D01*
Y144732D01*
X436329D01*
Y144222D01*
X436838D01*
Y143204D01*
X437347D01*
Y142694D01*
X437857D01*
Y142185D01*
X438366D01*
Y141675D01*
X438876D01*
Y141166D01*
X439385D01*
Y140147D01*
X439895D01*
Y139637D01*
X440404D01*
Y139128D01*
X440914D01*
Y138619D01*
X441423D01*
Y137600D01*
X441932D01*
Y137090D01*
X442442D01*
Y136071D01*
X442951D01*
Y135562D01*
X443461D01*
Y134543D01*
X443970D01*
Y133524D01*
X444480D01*
Y133015D01*
X444989D01*
Y131996D01*
X445498D01*
Y131487D01*
X446008D01*
Y130977D01*
X446517D01*
Y130468D01*
X447027D01*
Y129449D01*
X447536D01*
Y127920D01*
X448046D01*
Y124354D01*
X447536D01*
Y122317D01*
X447027D01*
Y116713D01*
X446517D01*
Y107543D01*
X447027D01*
Y105505D01*
X447536D01*
Y104486D01*
X448046D01*
Y102958D01*
X448555D01*
Y101939D01*
X449064D01*
Y100920D01*
X449574D01*
Y99901D01*
X450083D01*
Y98882D01*
X450593D01*
Y97863D01*
X451102D01*
Y96335D01*
X451612D01*
Y95316D01*
X452121D01*
Y94297D01*
X452631D01*
Y93278D01*
X453140D01*
Y91750D01*
X453649D01*
Y90731D01*
X453140D01*
Y89712D01*
X452631D01*
Y89203D01*
X452121D01*
Y88693D01*
X451612D01*
Y88184D01*
X450593D01*
Y87675D01*
X449574D01*
Y87165D01*
X448555D01*
Y86656D01*
X448046D01*
Y86146D01*
X447027D01*
Y85637D01*
X446517D01*
Y84618D01*
X446008D01*
Y84108D01*
X445498D01*
Y84618D01*
X444989D01*
Y85637D01*
X444480D01*
Y86146D01*
X442951D01*
Y85637D01*
X441932D01*
Y85127D01*
X440914D01*
Y84618D01*
X439385D01*
Y84108D01*
X435819D01*
Y84618D01*
X436838D01*
Y85127D01*
X438366D01*
Y85637D01*
X439895D01*
Y86146D01*
X440914D01*
Y86656D01*
X441932D01*
Y87165D01*
X443461D01*
Y87675D01*
X444989D01*
Y88184D01*
X446008D01*
Y88693D01*
X446517D01*
Y89203D01*
X447536D01*
Y89712D01*
X448555D01*
Y90222D01*
X449064D01*
Y90731D01*
X450083D01*
Y91241D01*
X450593D01*
Y94297D01*
X450083D01*
Y95316D01*
X449574D01*
Y96844D01*
X449064D01*
Y97863D01*
X448555D01*
Y98882D01*
X448046D01*
Y99901D01*
X447536D01*
Y101939D01*
X447027D01*
Y103467D01*
X446517D01*
Y104486D01*
X446008D01*
Y105505D01*
X445498D01*
Y106014D01*
X444989D01*
Y105505D01*
X443970D01*
Y104995D01*
X442951D01*
Y104486D01*
X442442D01*
Y103977D01*
X441423D01*
Y103467D01*
X440914D01*
Y102958D01*
X439895D01*
Y102448D01*
X438876D01*
Y101939D01*
X437857D01*
Y101429D01*
X436838D01*
Y100920D01*
X435819D01*
Y100410D01*
X434800D01*
Y99901D01*
X432762D01*
Y100410D01*
X433272D01*
Y100920D01*
X434800D01*
Y101429D01*
X435310D01*
Y101939D01*
X436838D01*
Y102448D01*
X437347D01*
Y102958D01*
X438366D01*
Y103467D01*
X439385D01*
Y103977D01*
X439895D01*
Y104486D01*
X440914D01*
Y104995D01*
X441932D01*
Y105505D01*
X442442D01*
Y106014D01*
X443461D01*
Y106524D01*
X444480D01*
Y107033D01*
X444989D01*
Y118750D01*
X445498D01*
Y122317D01*
X446008D01*
Y127920D01*
X445498D01*
Y128939D01*
X444989D01*
Y129958D01*
X444480D01*
Y130468D01*
X443970D01*
Y131487D01*
X443461D01*
Y131996D01*
X442951D01*
Y133015D01*
X442442D01*
Y133524D01*
X441932D01*
Y134543D01*
X441423D01*
Y135052D01*
X440914D01*
Y136071D01*
X440404D01*
Y136581D01*
X439895D01*
Y137090D01*
X439385D01*
Y137600D01*
X438876D01*
Y138619D01*
X438366D01*
Y139128D01*
X437857D01*
Y139637D01*
X437347D01*
Y140656D01*
X436838D01*
Y141166D01*
X436329D01*
Y141675D01*
X435819D01*
Y142694D01*
X435310D01*
Y143204D01*
X434800D01*
Y143713D01*
X434291D01*
Y144732D01*
X433781D01*
Y145241D01*
X433272D01*
Y146260D01*
X432762D01*
Y147279D01*
X432253D01*
Y147789D01*
X431744D01*
Y148807D01*
X431234D01*
Y149826D01*
X430725D01*
Y150336D01*
X430215D01*
Y150845D01*
X429706D01*
Y152883D01*
X429196D01*
Y153902D01*
X428687D01*
Y154921D01*
X426649D01*
Y154411D01*
X425121D01*
Y153902D01*
X424102D01*
Y153392D01*
X423083D01*
Y152883D01*
X421555D01*
Y152374D01*
X419007D01*
Y151864D01*
X415951D01*
Y151355D01*
X412385D01*
Y150845D01*
X408309D01*
Y150336D01*
X403215D01*
Y149826D01*
X398120D01*
Y150336D01*
X397611D01*
Y158996D01*
X398120D01*
Y167147D01*
X398630D01*
Y179374D01*
X398120D01*
Y183449D01*
X398630D01*
Y185997D01*
X399139D01*
Y195676D01*
X398630D01*
Y203318D01*
X398120D01*
Y210450D01*
X397611D01*
Y209431D01*
X397102D01*
Y207903D01*
X396592D01*
Y205865D01*
X396083D01*
Y203827D01*
X395573D01*
Y202808D01*
X395064D01*
Y201789D01*
X394554D01*
Y200261D01*
X394045D01*
Y198733D01*
X393535D01*
Y197714D01*
X393026D01*
Y196695D01*
X392517D01*
Y195167D01*
X392007D01*
Y193638D01*
X391498D01*
Y192110D01*
X390988D01*
Y190582D01*
X390479D01*
Y189563D01*
X389969D01*
Y188544D01*
X389460D01*
Y187525D01*
X388950D01*
Y185997D01*
X388441D01*
Y184468D01*
X387932D01*
Y182431D01*
X387422D01*
Y180902D01*
X386913D01*
Y179374D01*
X386403D01*
Y177846D01*
X385894D01*
Y176317D01*
X385384D01*
Y174789D01*
X384875D01*
Y173261D01*
X384365D01*
Y172242D01*
X383856D01*
Y173770D01*
X384365D01*
Y175298D01*
X384875D01*
Y176827D01*
X385384D01*
Y178355D01*
X385894D01*
Y180393D01*
X386403D01*
Y181921D01*
X386913D01*
Y183449D01*
X387422D01*
Y185487D01*
X387932D01*
Y186506D01*
X388441D01*
Y188034D01*
X388950D01*
Y189053D01*
X389460D01*
Y190582D01*
X389969D01*
Y192110D01*
X390479D01*
Y194148D01*
X390988D01*
Y195167D01*
X391498D01*
Y196695D01*
X392007D01*
Y197714D01*
X392517D01*
Y199242D01*
X393026D01*
Y200770D01*
X393535D01*
Y202299D01*
X394045D01*
Y203827D01*
X394554D01*
Y205865D01*
X395064D01*
Y207903D01*
X395573D01*
Y209431D01*
X396083D01*
Y211469D01*
X396592D01*
Y213507D01*
X397102D01*
Y215035D01*
X397611D01*
Y219110D01*
X397102D01*
Y223695D01*
X396592D01*
Y226752D01*
X396083D01*
Y227262D01*
X395573D01*
Y227771D01*
X395064D01*
Y228790D01*
X394554D01*
Y230828D01*
X394045D01*
Y234394D01*
X393535D01*
Y236432D01*
X393026D01*
Y237960D01*
X392517D01*
Y238469D01*
X392007D01*
Y238979D01*
X390988D01*
Y239488D01*
X390479D01*
Y239998D01*
X389460D01*
Y240507D01*
X388950D01*
Y241016D01*
X387932D01*
Y241526D01*
X387422D01*
Y242035D01*
X386403D01*
Y242545D01*
X385384D01*
Y243054D01*
X384875D01*
Y243564D01*
X383856D01*
Y244073D01*
X383347D01*
Y244583D01*
X382837D01*
Y245092D01*
X382328D01*
Y245601D01*
X381818D01*
Y246111D01*
X380799D01*
Y246620D01*
X380290D01*
Y247130D01*
X379271D01*
Y247639D01*
X378762D01*
Y248149D01*
X377743D01*
Y248658D01*
X377233D01*
Y249167D01*
X376214D01*
Y249677D01*
X375705D01*
Y250186D01*
X374686D01*
Y250696D01*
X374177D01*
Y251205D01*
X373667D01*
Y251715D01*
X372648D01*
Y252224D01*
X372139D01*
Y252734D01*
X371120D01*
Y253243D01*
X370611D01*
Y253752D01*
X370101D01*
Y254262D01*
X369082D01*
Y254771D01*
X368063D01*
Y255281D01*
X367554D01*
Y255790D01*
X366535D01*
Y256300D01*
X365516D01*
Y256809D01*
X364497D01*
Y257319D01*
X363988D01*
Y257828D01*
X362969D01*
Y258337D01*
X362459D01*
Y258847D01*
X361441D01*
Y259356D01*
X360422D01*
Y259866D01*
X359403D01*
Y260375D01*
X358384D01*
Y260885D01*
X357874D01*
Y261394D01*
X357365D01*
Y261903D01*
X356856D01*
Y262413D01*
X355837D01*
Y262922D01*
X355327D01*
Y263432D01*
X354308D01*
Y263941D01*
X353799D01*
Y264451D01*
X353289D01*
Y264960D01*
X352271D01*
Y265470D01*
X351761D01*
Y265979D01*
X351252D01*
Y266488D01*
X350742D01*
Y266998D01*
X350233D01*
Y267507D01*
X349214D01*
Y268017D01*
X348704D01*
Y268526D01*
X348195D01*
Y269036D01*
X347176D01*
Y269545D01*
X346157D01*
Y270055D01*
X345648D01*
Y270564D01*
X344629D01*
Y271073D01*
X344119D01*
Y271583D01*
X343101D01*
Y272092D01*
X342082D01*
Y272602D01*
X341572D01*
Y273111D01*
X340553D01*
Y273621D01*
X339535D01*
Y274130D01*
X339025D01*
Y274640D01*
X338006D01*
Y275149D01*
X336478D01*
Y275658D01*
X335459D01*
Y276168D01*
X334440D01*
Y276677D01*
X333931D01*
Y277187D01*
X332912D01*
Y277696D01*
X325780D01*
Y277187D01*
X319666D01*
Y276677D01*
X315081D01*
Y277187D01*
X314062D01*
Y276168D01*
X313553D01*
Y274640D01*
X313044D01*
Y273111D01*
X312534D01*
Y272092D01*
X312025D01*
Y270564D01*
X311515D01*
Y269545D01*
X311006D01*
Y268526D01*
X310496D01*
Y266488D01*
X311006D01*
Y264451D01*
X310496D01*
Y261903D01*
X309987D01*
Y258337D01*
X309478D01*
Y255790D01*
X308968D01*
Y253752D01*
X308459D01*
Y251715D01*
X307949D01*
Y251205D01*
X307440D01*
Y250696D01*
X306421D01*
Y250186D01*
X305911D01*
Y249677D01*
X305402D01*
Y249167D01*
X304893D01*
Y246111D01*
X305402D01*
Y244073D01*
X305911D01*
Y243564D01*
X306421D01*
Y243054D01*
X306930D01*
Y242035D01*
X307440D01*
Y239488D01*
X307949D01*
Y236941D01*
X308459D01*
Y233884D01*
X308968D01*
Y231337D01*
X309478D01*
Y230318D01*
X308968D01*
Y229299D01*
X308459D01*
Y226752D01*
X308968D01*
Y224714D01*
X309478D01*
Y222677D01*
X309987D01*
Y220129D01*
X310496D01*
Y218092D01*
X311006D01*
Y214526D01*
X311515D01*
Y212997D01*
X312025D01*
Y210959D01*
X312534D01*
Y207903D01*
X313044D01*
Y205865D01*
X313553D01*
Y203827D01*
X314062D01*
Y201789D01*
X314572D01*
Y199752D01*
X315081D01*
Y197714D01*
X315591D01*
Y196186D01*
X316100D01*
Y193638D01*
X316610D01*
Y192110D01*
X317119D01*
Y190072D01*
X317628D01*
Y189053D01*
X318138D01*
Y187525D01*
X318647D01*
Y185487D01*
X319157D01*
Y183449D01*
X319666D01*
Y181921D01*
X320176D01*
Y179883D01*
X320685D01*
Y178355D01*
X321195D01*
Y176827D01*
X321704D01*
Y175298D01*
X322214D01*
Y173261D01*
X322723D01*
Y171223D01*
X323232D01*
Y169695D01*
X323742D01*
Y167657D01*
X324251D01*
Y165619D01*
X324761D01*
Y164600D01*
X325270D01*
Y163072D01*
X325780D01*
Y161544D01*
X326289D01*
Y160015D01*
X326799D01*
Y158996D01*
X327308D01*
Y157977D01*
X327817D01*
Y155940D01*
X328327D01*
Y154411D01*
X328836D01*
Y152883D01*
X329346D01*
Y151864D01*
X329855D01*
Y150336D01*
X330365D01*
Y148298D01*
X330874D01*
Y146770D01*
X331384D01*
Y146260D01*
X331893D01*
Y145241D01*
X332402D01*
Y144732D01*
X332912D01*
Y144222D01*
X333421D01*
Y143713D01*
X333931D01*
Y143204D01*
X334950D01*
Y143713D01*
X356346D01*
Y143204D01*
X361441D01*
Y142185D01*
X361950D01*
Y141166D01*
X362459D01*
Y139128D01*
X362969D01*
Y136071D01*
X363478D01*
Y134543D01*
X363988D01*
Y133015D01*
X364497D01*
Y131996D01*
X365007D01*
Y130468D01*
X365516D01*
Y129449D01*
X366026D01*
Y127920D01*
X366535D01*
Y126392D01*
X367044D01*
Y125373D01*
X367554D01*
Y123845D01*
X369082D01*
Y124354D01*
X369592D01*
Y124864D01*
X370101D01*
Y125373D01*
X370611D01*
Y125883D01*
X371629D01*
Y126902D01*
X372139D01*
Y127411D01*
X373158D01*
Y127920D01*
X373667D01*
Y128430D01*
X374177D01*
Y128939D01*
X374686D01*
Y129958D01*
X375705D01*
Y130977D01*
X376214D01*
Y131996D01*
X376724D01*
Y132505D01*
X377233D01*
Y133015D01*
X377743D01*
Y134034D01*
X378252D01*
Y134543D01*
X378762D01*
Y135562D01*
X379271D01*
Y136071D01*
X379780D01*
Y137090D01*
X380290D01*
Y138109D01*
X380799D01*
Y139128D01*
X381309D01*
Y139637D01*
X381818D01*
Y140656D01*
X382328D01*
Y141675D01*
X382837D01*
Y142185D01*
X383347D01*
Y142694D01*
X383856D01*
Y143713D01*
X384365D01*
Y144732D01*
X384875D01*
Y145751D01*
X385384D01*
Y146260D01*
X385894D01*
Y149317D01*
X385384D01*
Y152374D01*
X384875D01*
Y154921D01*
X384365D01*
Y157468D01*
X383856D01*
Y160525D01*
X383347D01*
Y162562D01*
X382837D01*
Y166638D01*
X382328D01*
Y167657D01*
X381818D01*
Y168676D01*
X382328D01*
Y170204D01*
X382837D01*
Y171223D01*
X383347D01*
Y172242D01*
X383856D01*
Y170204D01*
X383347D01*
Y169185D01*
X382837D01*
Y167147D01*
X383347D01*
Y164091D01*
X383856D01*
Y161544D01*
X384365D01*
Y158996D01*
X384875D01*
Y156449D01*
X385384D01*
Y153902D01*
X385894D01*
Y150845D01*
X386403D01*
Y149317D01*
X386913D01*
Y145751D01*
X387422D01*
Y144222D01*
X387932D01*
Y143204D01*
X388441D01*
Y142694D01*
X388950D01*
Y142185D01*
X389460D01*
Y141675D01*
X389969D01*
Y141166D01*
X390479D01*
Y139637D01*
X390988D01*
Y138109D01*
X390479D01*
Y137090D01*
X389969D01*
Y136581D01*
X389460D01*
Y136071D01*
X388950D01*
Y135562D01*
X389460D01*
Y134543D01*
X389969D01*
Y131996D01*
X390479D01*
Y128939D01*
X390988D01*
Y125883D01*
X391498D01*
Y123335D01*
X392517D01*
Y122317D01*
X392007D01*
Y121298D01*
X392517D01*
Y118750D01*
X393026D01*
Y117222D01*
X393535D01*
Y116713D01*
X394045D01*
Y116203D01*
X395573D01*
Y116713D01*
X396083D01*
Y117222D01*
X396592D01*
Y118241D01*
X397102D01*
Y119769D01*
X397611D01*
Y122826D01*
X398120D01*
Y123845D01*
X398630D01*
Y128939D01*
X398120D01*
Y131487D01*
X397611D01*
Y134543D01*
X397102D01*
Y137090D01*
X396592D01*
Y138619D01*
X397102D01*
Y147279D01*
X402196D01*
Y146770D01*
X403215D01*
Y147279D01*
X404234D01*
Y147789D01*
X406271D01*
Y148298D01*
X406781D01*
Y147279D01*
X406271D01*
Y146770D01*
X405762D01*
Y146260D01*
X405253D01*
Y145751D01*
X404743D01*
Y145241D01*
X404234D01*
Y144732D01*
X403724D01*
Y143713D01*
X403215D01*
Y143204D01*
X402705D01*
Y142694D01*
X402196D01*
Y142185D01*
X401686D01*
Y141675D01*
X401177D01*
Y140656D01*
X400668D01*
Y140147D01*
X400158D01*
Y139637D01*
X399649D01*
Y138619D01*
X399139D01*
Y137600D01*
X398630D01*
Y137090D01*
X398120D01*
Y135562D01*
X397611D01*
Y134543D01*
X398120D01*
Y133524D01*
X398630D01*
Y130468D01*
X399139D01*
Y127920D01*
X399649D01*
Y125883D01*
X399139D01*
Y120788D01*
X398630D01*
Y119769D01*
X398120D01*
Y117732D01*
X397611D01*
Y116713D01*
X397102D01*
Y116203D01*
X396592D01*
Y115184D01*
X392007D01*
Y114675D01*
X390988D01*
Y114165D01*
X389460D01*
Y113656D01*
X388441D01*
Y113146D01*
X386913D01*
Y112637D01*
X385384D01*
Y112128D01*
X383856D01*
Y111618D01*
X382328D01*
Y111109D01*
X380799D01*
Y110599D01*
X377743D01*
Y110090D01*
X376214D01*
Y109580D01*
X373158D01*
Y109071D01*
X370611D01*
Y108562D01*
X369082D01*
Y108052D01*
X368063D01*
Y108562D01*
X360931D01*
Y109071D01*
X358384D01*
Y109580D01*
X357365D01*
Y110090D01*
X355837D01*
Y110599D01*
X353289D01*
Y111109D01*
X351252D01*
Y111618D01*
X349723D01*
Y112128D01*
X347686D01*
Y112637D01*
X346157D01*
Y113146D01*
X344119D01*
Y113656D01*
X342591D01*
Y114165D01*
X341063D01*
Y114675D01*
X339025D01*
Y115184D01*
X337497D01*
Y115694D01*
X335969D01*
Y116203D01*
X333931D01*
Y116713D01*
X332402D01*
Y117222D01*
X330874D01*
Y117732D01*
X328327D01*
Y118241D01*
X325780D01*
Y118750D01*
X324251D01*
Y119260D01*
X321195D01*
Y119769D01*
X319157D01*
Y120279D01*
X316100D01*
Y120788D01*
X313553D01*
Y121298D01*
X311006D01*
Y121807D01*
X310496D01*
Y122317D01*
X309987D01*
Y122826D01*
X309478D01*
Y124354D01*
X309987D01*
Y124864D01*
X313553D01*
Y124354D01*
X315591D01*
Y123845D01*
X317119D01*
Y123335D01*
X318647D01*
Y122826D01*
X320176D01*
Y122317D01*
X321195D01*
Y121807D01*
X322723D01*
Y121298D01*
X323742D01*
Y120788D01*
X324761D01*
Y120279D01*
X326289D01*
Y119769D01*
X328327D01*
Y119260D01*
X329855D01*
Y118750D01*
X331893D01*
Y118241D01*
X332912D01*
Y117732D01*
X334950D01*
Y117222D01*
X336987D01*
Y116713D01*
X338516D01*
Y116203D01*
X341063D01*
Y115694D01*
X343101D01*
Y115184D01*
X345138D01*
Y114675D01*
X347176D01*
Y114165D01*
X349723D01*
Y113656D01*
X353799D01*
Y113146D01*
X355837D01*
Y112637D01*
X358384D01*
Y112128D01*
X360422D01*
Y113146D01*
X357874D01*
Y113656D01*
X356346D01*
Y114165D01*
X354308D01*
Y114675D01*
X352780D01*
Y115184D01*
X350233D01*
Y115694D01*
X348195D01*
Y116203D01*
X346157D01*
Y116713D01*
X344119D01*
Y117222D01*
X343101D01*
Y117732D01*
X341572D01*
Y118241D01*
X340553D01*
Y118750D01*
X339535D01*
Y119260D01*
X338006D01*
Y119769D01*
X336478D01*
Y120279D01*
X334950D01*
Y120788D01*
X333421D01*
Y121298D01*
X330874D01*
Y121807D01*
X329855D01*
Y122317D01*
X327817D01*
Y122826D01*
X325780D01*
Y123335D01*
X324251D01*
Y123845D01*
X322723D01*
Y124354D01*
X321195D01*
Y124864D01*
X319666D01*
Y125373D01*
X318138D01*
Y125883D01*
X316610D01*
Y126392D01*
X315591D01*
Y126902D01*
X315081D01*
Y127411D01*
X314572D01*
Y127920D01*
X314062D01*
Y128430D01*
X313553D01*
Y129449D01*
X313044D01*
Y130468D01*
X312534D01*
Y131487D01*
X312025D01*
Y131996D01*
X312534D01*
Y133015D01*
X318647D01*
Y132505D01*
X320176D01*
Y131996D01*
X322723D01*
Y131487D01*
X324761D01*
Y132505D01*
X324251D01*
Y133015D01*
X323742D01*
Y133524D01*
X323232D01*
Y134543D01*
X322723D01*
Y135562D01*
X322214D01*
Y136581D01*
X321704D01*
Y137600D01*
X321195D01*
Y140656D01*
X321704D01*
Y141166D01*
X322214D01*
Y141675D01*
X327817D01*
Y141166D01*
X329855D01*
Y140656D01*
X330874D01*
Y140147D01*
X331893D01*
Y139637D01*
X332402D01*
Y139128D01*
X332912D01*
Y138619D01*
X333421D01*
Y136581D01*
X333931D01*
Y132505D01*
X334440D01*
Y131996D01*
Y131487D01*
Y127411D01*
X334950D01*
Y126902D01*
X335969D01*
Y126392D01*
X337497D01*
Y125883D01*
X339025D01*
Y125373D01*
X340044D01*
Y124864D01*
X341063D01*
Y124354D01*
X342591D01*
Y123845D01*
X343610D01*
Y123335D01*
X344629D01*
Y122826D01*
X346157D01*
Y122317D01*
X347176D01*
Y121807D01*
X348704D01*
Y121298D01*
X349723D01*
Y120788D01*
X351252D01*
Y120279D01*
X352271D01*
Y119769D01*
X353289D01*
Y119260D01*
X354308D01*
Y118750D01*
X355327D01*
Y118241D01*
X356856D01*
Y117732D01*
X357874D01*
Y117222D01*
X359403D01*
Y116713D01*
X360931D01*
Y116203D01*
X362459D01*
Y115694D01*
X363478D01*
Y115184D01*
X365516D01*
Y114675D01*
X368573D01*
Y116203D01*
X369592D01*
Y116713D01*
X371120D01*
Y117222D01*
X372139D01*
Y117732D01*
X373158D01*
Y118241D01*
X374686D01*
Y118750D01*
X375705D01*
Y119260D01*
X376724D01*
Y119769D01*
X377743D01*
Y120279D01*
X379271D01*
Y120788D01*
X380290D01*
Y121298D01*
X381309D01*
Y121807D01*
X382328D01*
Y122317D01*
X383347D01*
Y122826D01*
X384365D01*
Y123335D01*
X384875D01*
Y123845D01*
X383856D01*
Y123335D01*
X382837D01*
Y122826D01*
X381309D01*
Y122317D01*
X380290D01*
Y121807D01*
X379271D01*
Y121298D01*
X378252D01*
Y120788D01*
X377233D01*
Y120279D01*
X376214D01*
Y119769D01*
X375196D01*
Y119260D01*
X373667D01*
Y118750D01*
X370611D01*
Y118241D01*
X370101D01*
Y118750D01*
X369592D01*
Y119260D01*
X368573D01*
Y119769D01*
X368063D01*
Y120279D01*
X367554D01*
Y121298D01*
X367044D01*
Y120788D01*
X365516D01*
Y121298D01*
X364497D01*
Y121807D01*
X363988D01*
Y122317D01*
X363478D01*
Y122826D01*
X362459D01*
Y123335D01*
X361950D01*
Y123845D01*
X360931D01*
Y124354D01*
X360422D01*
Y124864D01*
X359912D01*
Y125373D01*
X359403D01*
Y125883D01*
X358384D01*
Y126392D01*
X357874D01*
Y126902D01*
X357365D01*
Y127411D01*
X356856D01*
Y127920D01*
X356346D01*
Y128430D01*
X355327D01*
Y128939D01*
X354818D01*
Y129449D01*
X353799D01*
Y129958D01*
X353289D01*
Y130468D01*
X352271D01*
Y130977D01*
X351761D01*
Y131487D01*
X351252D01*
Y131996D01*
X350233D01*
Y132505D01*
X349723D01*
Y133015D01*
X349214D01*
Y133524D01*
X348195D01*
Y134034D01*
X347686D01*
Y134543D01*
X347176D01*
Y135052D01*
X346157D01*
Y135562D01*
X345648D01*
Y136071D01*
X346157D01*
Y136581D01*
X346667D01*
Y136071D01*
X348704D01*
Y135562D01*
X349723D01*
Y135052D01*
X350233D01*
Y134543D01*
X351252D01*
Y134034D01*
X352271D01*
Y133524D01*
X352780D01*
Y133015D01*
X353289D01*
Y132505D01*
X353799D01*
Y131996D01*
X354308D01*
Y131487D01*
X354818D01*
Y130977D01*
X355327D01*
Y130468D01*
X355837D01*
Y129958D01*
X356346D01*
Y129449D01*
X356856D01*
Y128939D01*
X357365D01*
Y128430D01*
X357874D01*
Y127920D01*
X358893D01*
Y127411D01*
X359403D01*
Y126902D01*
X359912D01*
Y126392D01*
X360422D01*
Y125883D01*
X360931D01*
Y125373D01*
X361441D01*
Y124864D01*
X362459D01*
Y124354D01*
X362969D01*
Y123845D01*
X363478D01*
Y123335D01*
X364497D01*
Y122826D01*
X365007D01*
Y122317D01*
X366026D01*
Y121807D01*
X367044D01*
Y122317D01*
X366535D01*
Y123845D01*
X366026D01*
Y125883D01*
X365516D01*
Y126902D01*
X365007D01*
Y128430D01*
X364497D01*
Y130468D01*
X363988D01*
Y131487D01*
X363478D01*
Y133015D01*
X362969D01*
Y134034D01*
X362459D01*
Y135562D01*
X361950D01*
Y137090D01*
X361441D01*
Y139128D01*
X360931D01*
Y140656D01*
X360422D01*
Y141675D01*
X356346D01*
Y142185D01*
X336478D01*
Y141675D01*
X336987D01*
Y141166D01*
X338006D01*
Y140656D01*
X339025D01*
Y140147D01*
X339535D01*
Y139637D01*
X340044D01*
Y138619D01*
X341063D01*
Y138109D01*
X342082D01*
Y137600D01*
X342591D01*
Y137090D01*
X343101D01*
Y136581D01*
X343610D01*
Y136071D01*
X344629D01*
Y135562D01*
X345138D01*
Y135052D01*
X345648D01*
Y134543D01*
X346157D01*
Y134034D01*
X347176D01*
Y133015D01*
X348195D01*
Y132505D01*
X348704D01*
Y131996D01*
X349723D01*
Y131487D01*
X350233D01*
Y130977D01*
X350742D01*
Y130468D01*
X351761D01*
Y129958D01*
X352271D01*
Y129449D01*
X352780D01*
Y128939D01*
X353799D01*
Y128430D01*
X354308D01*
Y127920D01*
X354818D01*
Y127411D01*
X354308D01*
Y127920D01*
X353289D01*
Y128430D01*
X352271D01*
Y128939D01*
X351252D01*
Y129449D01*
X350742D01*
Y129958D01*
X349723D01*
Y130468D01*
X348704D01*
Y130977D01*
X347686D01*
Y131996D01*
X346667D01*
Y132505D01*
X345648D01*
Y133015D01*
X345138D01*
Y133524D01*
X344119D01*
Y134034D01*
X343610D01*
Y134543D01*
X342591D01*
Y135052D01*
X342082D01*
Y135562D01*
X341572D01*
Y136071D01*
X340553D01*
Y136581D01*
X339025D01*
Y136071D01*
X338516D01*
Y137090D01*
X338006D01*
Y137600D01*
X337497D01*
Y138619D01*
X336987D01*
Y139128D01*
X336478D01*
Y139637D01*
X335969D01*
Y140147D01*
X335459D01*
Y140656D01*
X334440D01*
Y141166D01*
X333931D01*
Y141675D01*
X331893D01*
Y142185D01*
X330874D01*
Y142694D01*
X330365D01*
Y143204D01*
X329346D01*
Y143713D01*
X328327D01*
Y144222D01*
X327308D01*
Y144732D01*
X326289D01*
Y145241D01*
X325270D01*
Y145751D01*
X323742D01*
Y146260D01*
X322723D01*
Y146770D01*
X321195D01*
Y147279D01*
X320685D01*
Y147789D01*
X319157D01*
Y148298D01*
X318138D01*
Y148807D01*
X317119D01*
Y149317D01*
X315591D01*
Y149826D01*
X314572D01*
Y150336D01*
X313044D01*
Y150845D01*
X311515D01*
Y151355D01*
X309478D01*
Y151864D01*
X308459D01*
Y152374D01*
X306930D01*
Y152883D01*
X305911D01*
Y153392D01*
X304893D01*
Y153902D01*
X303874D01*
Y154411D01*
X301836D01*
Y154921D01*
X300817D01*
Y155430D01*
X298779D01*
Y155940D01*
X297760D01*
Y156449D01*
X296741D01*
Y156959D01*
X295213D01*
Y157468D01*
X294194D01*
Y157977D01*
X293175D01*
Y158487D01*
X292666D01*
Y158996D01*
X291647D01*
Y159506D01*
X290628D01*
Y160015D01*
X289609D01*
Y160525D01*
X288590D01*
Y161034D01*
X288081D01*
Y161544D01*
X286553D01*
Y162053D01*
X285534D01*
Y162562D01*
X284515D01*
Y163072D01*
X284005D01*
Y163581D01*
X282987D01*
Y164091D01*
X282477D01*
Y164600D01*
X281458D01*
Y165110D01*
X280949D01*
Y165619D01*
X279930D01*
Y166638D01*
X280439D01*
Y166129D01*
X280949D01*
Y165619D01*
X282477D01*
Y165110D01*
X283496D01*
Y164600D01*
X284515D01*
Y164091D01*
X285024D01*
Y163581D01*
X286043D01*
Y163072D01*
X287062D01*
Y162562D01*
X287572D01*
Y162053D01*
X288590D01*
Y161544D01*
X289609D01*
Y161034D01*
X291138D01*
Y160525D01*
X292157D01*
Y160015D01*
X292666D01*
Y159506D01*
X293175D01*
Y158996D01*
X294704D01*
Y158487D01*
X295723D01*
Y157977D01*
X296741D01*
Y157468D01*
X298270D01*
Y156959D01*
X299289D01*
Y156449D01*
X300817D01*
Y155940D01*
X302345D01*
Y155430D01*
X303364D01*
Y154921D01*
X305402D01*
Y154411D01*
X305911D01*
Y153902D01*
X307440D01*
Y153392D01*
X308968D01*
Y152883D01*
X310496D01*
Y152374D01*
X312025D01*
Y151864D01*
X313553D01*
Y151355D01*
X314572D01*
Y150845D01*
X316100D01*
Y150336D01*
X317628D01*
Y149826D01*
X318647D01*
Y149317D01*
X319666D01*
Y150845D01*
X319157D01*
Y152374D01*
X318647D01*
Y153902D01*
X318138D01*
Y155940D01*
X317628D01*
Y157468D01*
X317119D01*
Y158996D01*
X316610D01*
Y160525D01*
X316100D01*
Y161544D01*
X315591D01*
Y163072D01*
X315081D01*
Y165110D01*
X314572D01*
Y167147D01*
X314062D01*
Y168676D01*
X313553D01*
Y169695D01*
X313044D01*
Y171732D01*
X312534D01*
Y173261D01*
X312025D01*
Y175298D01*
X311515D01*
Y176317D01*
X311006D01*
Y178355D01*
X310496D01*
Y179883D01*
X309987D01*
Y181921D01*
X309478D01*
Y183959D01*
X308968D01*
Y185997D01*
X308459D01*
Y187525D01*
X307949D01*
Y189563D01*
X307440D01*
Y191601D01*
X306930D01*
Y194148D01*
X306421D01*
Y195676D01*
X305911D01*
Y198223D01*
X305402D01*
Y200770D01*
X304893D01*
Y203318D01*
X304383D01*
Y205355D01*
X303874D01*
Y208922D01*
X303364D01*
Y210959D01*
X302855D01*
Y214526D01*
X302345D01*
Y216563D01*
X301836D01*
Y218601D01*
X301326D01*
Y222167D01*
X300817D01*
Y223695D01*
X300308D01*
Y224714D01*
X298779D01*
Y224205D01*
X297760D01*
Y223695D01*
X297251D01*
Y223186D01*
X296232D01*
Y222677D01*
X295723D01*
Y222167D01*
X295213D01*
Y221658D01*
X294704D01*
Y221148D01*
X294194D01*
Y220639D01*
X293175D01*
Y220129D01*
X292666D01*
Y219620D01*
X292157D01*
Y219110D01*
X291647D01*
Y218601D01*
X290628D01*
Y218092D01*
X290119D01*
Y217582D01*
X289609D01*
Y217073D01*
X289100D01*
Y216563D01*
X288590D01*
Y216054D01*
X287572D01*
Y215035D01*
X287062D01*
Y214526D01*
X286043D01*
Y214016D01*
X285534D01*
Y213507D01*
X285024D01*
Y212997D01*
X284515D01*
Y212488D01*
X284005D01*
Y211978D01*
X283496D01*
Y211469D01*
X282987D01*
Y210959D01*
X282477D01*
Y210450D01*
X281968D01*
Y209940D01*
X281458D01*
Y209431D01*
X280949D01*
Y208922D01*
X280439D01*
Y208412D01*
X279930D01*
Y207903D01*
X279420D01*
Y207393D01*
X278911D01*
Y206374D01*
X278402D01*
Y205865D01*
X277892D01*
Y205355D01*
X277383D01*
Y204846D01*
X276873D01*
Y204337D01*
X276364D01*
Y203318D01*
X275854D01*
Y202808D01*
X275345D01*
Y201789D01*
X274835D01*
Y201280D01*
X274326D01*
Y200770D01*
X273817D01*
Y200261D01*
X273307D01*
Y199242D01*
X272798D01*
Y198223D01*
X272288D01*
Y197204D01*
X271779D01*
Y196695D01*
X271269D01*
Y195676D01*
X270760D01*
Y194657D01*
X270250D01*
Y194148D01*
X269741D01*
Y193638D01*
X269232D01*
Y192619D01*
X268722D01*
Y192110D01*
X268213D01*
Y191091D01*
X267703D01*
Y190072D01*
X267194D01*
Y189563D01*
X266684D01*
Y188544D01*
X266175D01*
Y188034D01*
X265665D01*
Y187525D01*
X265156D01*
Y186506D01*
X264647D01*
Y185487D01*
X264137D01*
Y184978D01*
X263628D01*
Y183959D01*
X263118D01*
Y182431D01*
X262609D01*
Y181921D01*
X262099D01*
Y180902D01*
X262609D01*
Y178355D01*
X263118D01*
Y177846D01*
X263628D01*
Y177336D01*
X264137D01*
Y176827D01*
X264647D01*
Y176317D01*
X265156D01*
Y175808D01*
X265665D01*
Y175298D01*
X266684D01*
Y174789D01*
X267194D01*
Y174280D01*
X267703D01*
Y173770D01*
X268722D01*
Y173261D01*
X269741D01*
Y172751D01*
X270250D01*
Y172242D01*
X271269D01*
Y171732D01*
X271779D01*
Y171223D01*
X272798D01*
Y170714D01*
X273817D01*
Y170204D01*
X274326D01*
Y169695D01*
X274835D01*
Y169185D01*
X275854D01*
Y168676D01*
X276873D01*
Y168166D01*
X277383D01*
Y167657D01*
X275854D01*
Y168166D01*
X274835D01*
Y168676D01*
X274326D01*
Y169185D01*
X273817D01*
Y169695D01*
X272798D01*
Y170204D01*
X271779D01*
Y170714D01*
X270760D01*
Y171223D01*
X270250D01*
Y171732D01*
X269232D01*
Y172242D01*
X268722D01*
Y172751D01*
X267703D01*
Y173261D01*
X267194D01*
Y173770D01*
X266175D01*
Y174280D01*
X265665D01*
Y174789D01*
X265156D01*
Y175298D01*
X264137D01*
Y175808D01*
X263118D01*
Y174280D01*
X262609D01*
Y173261D01*
X262099D01*
Y172242D01*
X261590D01*
Y171223D01*
X261080D01*
Y168676D01*
X260571D01*
Y167147D01*
X260062D01*
Y166638D01*
X260571D01*
Y164091D01*
X260062D01*
Y163072D01*
X259552D01*
Y162562D01*
X259043D01*
Y162053D01*
X258533D01*
Y160525D01*
X259043D01*
Y153392D01*
X259552D01*
Y152883D01*
X260062D01*
Y151864D01*
X259043D01*
Y148298D01*
X258533D01*
Y144732D01*
X259043D01*
Y144222D01*
X259552D01*
Y143713D01*
X260062D01*
Y142694D01*
X260571D01*
Y142185D01*
X261080D01*
Y141675D01*
X261590D01*
Y141166D01*
X262099D01*
Y140656D01*
X262609D01*
Y140147D01*
X263118D01*
Y139637D01*
X263628D01*
Y139128D01*
X264137D01*
Y138619D01*
X264647D01*
Y138109D01*
X265156D01*
Y137600D01*
X265665D01*
Y137090D01*
X266175D01*
Y136581D01*
X266684D01*
Y136071D01*
X267703D01*
Y135562D01*
X268213D01*
Y134543D01*
X269232D01*
Y134034D01*
X269741D01*
Y133524D01*
X270250D01*
Y133015D01*
X270760D01*
Y132505D01*
X271269D01*
Y131996D01*
X271779D01*
Y131487D01*
X272288D01*
Y130977D01*
X272798D01*
Y130468D01*
X273817D01*
Y129958D01*
X274835D01*
Y129449D01*
X275345D01*
Y128939D01*
X275854D01*
Y128430D01*
X276364D01*
Y127920D01*
X276873D01*
Y127411D01*
X277892D01*
Y126902D01*
X278402D01*
Y126392D01*
X279420D01*
Y125883D01*
X279930D01*
Y125373D01*
X280949D01*
Y124864D01*
X281458D01*
Y124354D01*
X282477D01*
Y123845D01*
X283496D01*
Y123335D01*
X284005D01*
Y122826D01*
X285024D01*
Y122317D01*
X286553D01*
Y121807D01*
X287062D01*
Y121298D01*
X288081D01*
Y120788D01*
X288590D01*
Y120279D01*
X289609D01*
Y119769D01*
X290119D01*
Y119260D01*
X291138D01*
Y118750D01*
X291647D01*
Y118241D01*
X292666D01*
Y117732D01*
X293175D01*
Y117222D01*
X293685D01*
Y116713D01*
X294704D01*
Y116203D01*
X295213D01*
Y115694D01*
X296232D01*
Y115184D01*
X297251D01*
Y114675D01*
X297760D01*
Y114165D01*
X298779D01*
Y113656D01*
X299289D01*
Y113146D01*
X300308D01*
Y112637D01*
X301326D01*
Y112128D01*
X301836D01*
Y111618D01*
X302855D01*
Y111109D01*
X303364D01*
Y110599D01*
X304383D01*
Y110090D01*
X304893D01*
Y109580D01*
X306421D01*
Y109071D01*
X306930D01*
Y108562D01*
X307949D01*
Y108052D01*
X308459D01*
Y107543D01*
X308968D01*
Y107033D01*
X309987D01*
Y106524D01*
X310496D01*
Y106014D01*
X311515D01*
Y105505D01*
X312025D01*
Y104995D01*
X312534D01*
Y104486D01*
X313553D01*
Y103977D01*
X314062D01*
Y103467D01*
X315081D01*
Y102958D01*
X315591D01*
Y102448D01*
X316610D01*
Y101939D01*
X317119D01*
Y101429D01*
X318138D01*
Y100920D01*
X318647D01*
Y100410D01*
X319666D01*
Y99901D01*
X320685D01*
Y99392D01*
X321195D01*
Y98882D01*
X322214D01*
Y98373D01*
X322723D01*
Y97863D01*
X323232D01*
Y98882D01*
X324251D01*
Y98373D01*
X325270D01*
Y97863D01*
X325780D01*
Y97354D01*
X326799D01*
Y96844D01*
X327308D01*
Y96335D01*
X327817D01*
Y95826D01*
X328327D01*
Y95316D01*
X328836D01*
Y94807D01*
X329855D01*
Y94297D01*
X330365D01*
Y93788D01*
X330874D01*
Y93278D01*
X331893D01*
Y92769D01*
X332912D01*
Y92259D01*
X333931D01*
Y91750D01*
X334950D01*
Y91241D01*
X335969D01*
Y90731D01*
X336987D01*
Y90222D01*
X338006D01*
Y89712D01*
X339025D01*
Y89203D01*
X340044D01*
Y88693D01*
X341063D01*
Y88184D01*
X342591D01*
Y87675D01*
X343610D01*
Y87165D01*
X344629D01*
Y86656D01*
X345648D01*
Y86146D01*
X346157D01*
Y85637D01*
X347176D01*
Y85127D01*
X348195D01*
Y84618D01*
X348704D01*
Y84108D01*
X341572D01*
Y84618D01*
X340044D01*
Y85127D01*
X339535D01*
Y85637D01*
X338516D01*
Y86146D01*
X338006D01*
Y86656D01*
X337497D01*
Y87165D01*
X336987D01*
Y87675D01*
X335969D01*
Y88184D01*
X335459D01*
Y88693D01*
X334440D01*
Y89203D01*
X333931D01*
Y89712D01*
X332912D01*
Y90222D01*
X332402D01*
Y90731D01*
X331893D01*
Y91241D01*
X330874D01*
Y91750D01*
X330365D01*
Y92259D01*
X329855D01*
Y92769D01*
X329346D01*
Y93278D01*
X328327D01*
Y93788D01*
X327308D01*
Y94297D01*
X326289D01*
Y94807D01*
X325270D01*
Y95316D01*
X324251D01*
Y95826D01*
X323742D01*
Y96335D01*
X322723D01*
Y96844D01*
X322214D01*
Y97354D01*
X321195D01*
Y97863D01*
X320685D01*
Y98373D01*
X319666D01*
Y98882D01*
X318647D01*
Y99392D01*
X317628D01*
Y99901D01*
X317119D01*
Y100410D01*
X316100D01*
Y100920D01*
X315591D01*
Y101429D01*
X315081D01*
Y101939D01*
X314062D01*
Y102448D01*
X313044D01*
Y102958D01*
X312534D01*
Y103467D01*
X312025D01*
Y103977D01*
X311515D01*
Y104486D01*
X310496D01*
Y104995D01*
X309478D01*
Y105505D01*
X308968D01*
Y106014D01*
X308459D01*
Y106524D01*
X307440D01*
Y107033D01*
X306930D01*
Y107543D01*
X305911D01*
Y108052D01*
X305402D01*
Y108562D01*
X304383D01*
Y109071D01*
X303364D01*
Y109580D01*
X302855D01*
Y110090D01*
X302345D01*
Y110599D01*
X301326D01*
Y111109D01*
X300308D01*
Y111618D01*
X299798D01*
Y112128D01*
X298779D01*
Y112637D01*
X298270D01*
Y113146D01*
X297251D01*
Y113656D01*
X296741D01*
Y114165D01*
X295723D01*
Y114675D01*
X295213D01*
Y115184D01*
X294194D01*
Y115694D01*
X293175D01*
Y116203D01*
X292666D01*
Y116713D01*
X292157D01*
Y117222D01*
X291138D01*
Y117732D01*
X290628D01*
Y118241D01*
X289609D01*
Y118750D01*
X288590D01*
Y119260D01*
X288081D01*
Y119769D01*
X287062D01*
Y120279D01*
X286043D01*
Y120788D01*
X285534D01*
Y120279D01*
X286043D01*
Y119769D01*
X286553D01*
Y119260D01*
X287062D01*
Y118750D01*
X288081D01*
Y118241D01*
X288590D01*
Y117732D01*
X289609D01*
Y117222D01*
X290119D01*
Y116713D01*
X290628D01*
Y116203D01*
X291138D01*
Y115694D01*
X292157D01*
Y115184D01*
X292666D01*
Y114675D01*
X293175D01*
Y114165D01*
X293685D01*
Y113656D01*
X294194D01*
Y113146D01*
X295213D01*
Y112637D01*
X295723D01*
Y112128D01*
X296741D01*
Y111618D01*
X297251D01*
Y111109D01*
X298270D01*
Y110599D01*
X298779D01*
Y110090D01*
X299289D01*
Y109580D01*
X300308D01*
Y109071D01*
X300817D01*
Y108562D01*
X301836D01*
Y108052D01*
X302345D01*
Y107543D01*
X303364D01*
Y107033D01*
X303874D01*
Y106524D01*
X304893D01*
Y106014D01*
X305402D01*
Y105505D01*
X306421D01*
Y104995D01*
X306930D01*
Y104486D01*
X307440D01*
Y103977D01*
X307949D01*
Y103467D01*
X308968D01*
Y102958D01*
X309478D01*
Y102448D01*
X309987D01*
Y101939D01*
X311006D01*
Y101429D01*
X311515D01*
Y100920D01*
X312534D01*
Y99901D01*
X313553D01*
Y99392D01*
X314062D01*
Y98882D01*
X314572D01*
Y98373D01*
X315081D01*
Y97863D01*
X316100D01*
Y97354D01*
X316610D01*
Y96844D01*
X317119D01*
Y96335D01*
X316100D01*
Y96844D01*
X315591D01*
Y97354D01*
X314572D01*
Y97863D01*
X313553D01*
Y98373D01*
X313044D01*
Y98882D01*
X312534D01*
Y99392D01*
X312025D01*
Y99901D01*
X311006D01*
Y100410D01*
X310496D01*
Y100920D01*
X309987D01*
Y101429D01*
X309478D01*
Y101939D01*
X308459D01*
Y102448D01*
X307440D01*
Y102958D01*
X306930D01*
Y103467D01*
X306421D01*
Y103977D01*
X305911D01*
Y104486D01*
X304383D01*
Y104995D01*
X303874D01*
Y105505D01*
X303364D01*
Y106014D01*
X302345D01*
Y106524D01*
X301836D01*
Y107033D01*
X301326D01*
Y107543D01*
X300308D01*
Y108052D01*
X299289D01*
Y108562D01*
X298779D01*
Y109071D01*
X298270D01*
Y109580D01*
X297760D01*
Y110090D01*
X296741D01*
Y110599D01*
X296232D01*
Y111109D01*
X295213D01*
Y111618D01*
X294194D01*
Y112128D01*
X293685D01*
Y112637D01*
X292666D01*
Y113146D01*
X292157D01*
Y114165D01*
X291138D01*
Y114675D01*
X290628D01*
Y115184D01*
X290119D01*
Y115694D01*
X289609D01*
Y116203D01*
X289100D01*
Y116713D01*
X288590D01*
Y117222D01*
X287572D01*
Y117732D01*
X287062D01*
Y118241D01*
X286553D01*
Y118750D01*
X285534D01*
Y119260D01*
X285024D01*
Y119769D01*
X284515D01*
Y120279D01*
X284005D01*
Y120788D01*
X283496D01*
Y121298D01*
X282477D01*
Y121807D01*
X281968D01*
Y122317D01*
X281458D01*
Y122826D01*
X280949D01*
Y123335D01*
X280439D01*
Y123845D01*
X279420D01*
Y124354D01*
X278911D01*
Y124864D01*
X278402D01*
Y125373D01*
X277892D01*
Y125883D01*
X276873D01*
Y126392D01*
X276364D01*
Y126902D01*
X275854D01*
Y127411D01*
X274835D01*
Y127920D01*
X274326D01*
Y128430D01*
X273817D01*
Y128939D01*
X273307D01*
Y129449D01*
X272288D01*
Y129958D01*
X271779D01*
Y130468D01*
X271269D01*
Y130977D01*
X270250D01*
Y131996D01*
X269741D01*
Y132505D01*
X269232D01*
Y133015D01*
X268722D01*
Y133524D01*
X268213D01*
Y134034D01*
X267703D01*
Y134543D01*
X267194D01*
Y135052D01*
X266175D01*
Y135562D01*
X265665D01*
Y136071D01*
X265156D01*
Y136581D01*
X264647D01*
Y137090D01*
X264137D01*
Y137600D01*
X263628D01*
Y137090D01*
X264137D01*
Y136581D01*
X264647D01*
Y136071D01*
X265156D01*
Y135052D01*
X265665D01*
Y134543D01*
X266175D01*
Y134034D01*
X266684D01*
Y133524D01*
X267194D01*
Y132505D01*
X267703D01*
Y131996D01*
X268213D01*
Y131487D01*
X268722D01*
Y130468D01*
X269232D01*
Y129958D01*
X269741D01*
Y128939D01*
X270250D01*
Y128430D01*
X270760D01*
Y127920D01*
X271779D01*
Y126902D01*
X272288D01*
Y126392D01*
X273307D01*
Y125883D01*
X273817D01*
Y125373D01*
X274326D01*
Y124864D01*
X274835D01*
Y124354D01*
X275345D01*
Y123845D01*
X275854D01*
Y123335D01*
X276364D01*
Y122826D01*
X276873D01*
Y122317D01*
X277383D01*
Y121807D01*
X277892D01*
Y121298D01*
X278402D01*
Y120788D01*
X278911D01*
Y120279D01*
X279420D01*
Y119769D01*
X279930D01*
Y119260D01*
X280439D01*
Y118750D01*
X280949D01*
Y118241D01*
X281458D01*
Y117732D01*
X281968D01*
Y117222D01*
X282477D01*
Y116713D01*
X282987D01*
Y116203D01*
X284005D01*
Y115694D01*
X284515D01*
Y115184D01*
X285024D01*
Y114675D01*
X285534D01*
Y114165D01*
X286043D01*
Y113656D01*
X286553D01*
Y113146D01*
X287062D01*
Y112637D01*
X288081D01*
Y112128D01*
X288590D01*
Y111618D01*
X289100D01*
Y111109D01*
X289609D01*
Y110599D01*
X290119D01*
Y110090D01*
X290628D01*
Y109580D01*
X291138D01*
Y109071D01*
X292157D01*
Y108562D01*
X292666D01*
Y108052D01*
X293175D01*
Y107543D01*
X293685D01*
Y107033D01*
X294194D01*
Y106524D01*
X294704D01*
Y106014D01*
X295213D01*
Y105505D01*
X296232D01*
Y104995D01*
X296741D01*
Y104486D01*
X297251D01*
Y103977D01*
X298270D01*
Y103467D01*
X299289D01*
Y102958D01*
X299798D01*
Y102448D01*
X300308D01*
Y101939D01*
X301326D01*
Y101429D01*
X301836D01*
Y100920D01*
X302345D01*
Y100410D01*
X302855D01*
Y99901D01*
X303364D01*
Y99392D01*
X303874D01*
Y98882D01*
X304383D01*
Y98373D01*
X305402D01*
Y97863D01*
X305911D01*
Y97354D01*
X306421D01*
Y96844D01*
X307440D01*
Y96335D01*
X307949D01*
Y95826D01*
X308968D01*
Y95316D01*
X309478D01*
Y94807D01*
X310496D01*
Y93788D01*
X311515D01*
Y93278D01*
X312025D01*
Y92769D01*
X313044D01*
Y92259D01*
X313553D01*
Y91750D01*
X314572D01*
Y91241D01*
X315591D01*
Y90731D01*
X316610D01*
Y90222D01*
X317119D01*
Y89712D01*
X318138D01*
Y89203D01*
X319157D01*
Y88693D01*
X320176D01*
Y88184D01*
X320685D01*
Y87675D01*
X321704D01*
Y87165D01*
X322723D01*
Y86656D01*
X323232D01*
Y86146D01*
X324251D01*
Y85637D01*
X325270D01*
Y85127D01*
X326289D01*
Y84618D01*
X326799D01*
Y84108D01*
X321704D01*
Y84618D01*
X319666D01*
Y85127D01*
X318647D01*
Y85637D01*
X317119D01*
Y86146D01*
X315591D01*
Y86656D01*
X314062D01*
Y87165D01*
X313044D01*
Y87675D01*
X311515D01*
Y88184D01*
X309987D01*
Y88693D01*
X308459D01*
Y89203D01*
X306930D01*
Y89712D01*
X305911D01*
Y90222D01*
X304383D01*
Y90731D01*
X302855D01*
Y91241D01*
X301836D01*
Y91750D01*
X300308D01*
Y92259D01*
X299289D01*
Y92769D01*
X298270D01*
Y93278D01*
X297251D01*
Y93788D01*
X296232D01*
Y94297D01*
X295213D01*
Y94807D01*
X294194D01*
Y95316D01*
X293175D01*
Y95826D01*
X292666D01*
Y96335D01*
X291647D01*
Y96844D01*
X291138D01*
Y97354D01*
X290119D01*
Y97863D01*
X289100D01*
Y98373D01*
X288590D01*
Y98882D01*
X288081D01*
Y99392D01*
X287062D01*
Y99901D01*
X286553D01*
Y100410D01*
X285534D01*
Y100920D01*
X285024D01*
Y101429D01*
X284515D01*
Y101939D01*
X283496D01*
Y102448D01*
X282477D01*
Y102958D01*
X281968D01*
Y103467D01*
X280949D01*
Y103977D01*
X280439D01*
Y104486D01*
X279420D01*
Y104995D01*
X278911D01*
Y105505D01*
X278402D01*
Y106014D01*
X277383D01*
Y106524D01*
X276873D01*
Y107033D01*
X276364D01*
Y107543D01*
X275345D01*
Y108052D01*
X274835D01*
Y108562D01*
X274326D01*
Y109071D01*
X273817D01*
Y109580D01*
X272798D01*
Y110090D01*
X272288D01*
Y110599D01*
X271269D01*
Y111109D01*
X270760D01*
Y111618D01*
X270250D01*
Y112128D01*
X269741D01*
Y112637D01*
X268722D01*
Y113146D01*
X268213D01*
Y113656D01*
X267703D01*
Y114165D01*
X266684D01*
Y114675D01*
X266175D01*
Y115184D01*
X265665D01*
Y115694D01*
X264647D01*
Y116203D01*
X264137D01*
Y116713D01*
X263118D01*
Y117222D01*
X262609D01*
Y117732D01*
X262099D01*
Y118241D01*
X261080D01*
Y118750D01*
X260571D01*
Y119260D01*
X260062D01*
Y119769D01*
X259043D01*
Y120279D01*
X258533D01*
Y120788D01*
X258024D01*
Y121298D01*
X257514D01*
Y121807D01*
X257005D01*
Y122317D01*
X255986D01*
Y122826D01*
X255477D01*
Y123335D01*
X253948D01*
Y122826D01*
X253439D01*
Y122317D01*
X252420D01*
Y121298D01*
X251911D01*
Y119769D01*
X251401D01*
Y118241D01*
X250892D01*
Y116713D01*
X250382D01*
Y115694D01*
X249873D01*
Y113656D01*
X249363D01*
Y111109D01*
X248854D01*
Y109580D01*
X248344D01*
Y107543D01*
X247835D01*
Y106014D01*
X248854D01*
Y105505D01*
X250892D01*
Y104995D01*
X251401D01*
Y104486D01*
X252420D01*
Y103977D01*
X253948D01*
Y103467D01*
X255477D01*
Y102958D01*
X257514D01*
Y102448D01*
X259043D01*
Y101939D01*
X260571D01*
Y101429D01*
X262609D01*
Y100920D01*
X264137D01*
Y100410D01*
X265665D01*
Y99901D01*
X267194D01*
Y99392D01*
X268722D01*
Y98882D01*
X270760D01*
Y98373D01*
X272288D01*
Y97863D01*
X273817D01*
Y97354D01*
X275345D01*
Y96844D01*
X277383D01*
Y96335D01*
X278911D01*
Y95826D01*
X280439D01*
Y95316D01*
X281968D01*
Y94807D01*
X282987D01*
Y94297D01*
X284515D01*
Y93788D01*
X286043D01*
Y93278D01*
X287572D01*
Y92769D01*
X289100D01*
Y92259D01*
X290119D01*
Y91750D01*
X291647D01*
Y91241D01*
X293175D01*
Y90731D01*
X294194D01*
Y90222D01*
X295213D01*
Y89712D01*
X296741D01*
Y89203D01*
X298270D01*
Y88693D01*
X299798D01*
Y88184D01*
X300817D01*
Y87675D01*
X302345D01*
Y87165D01*
X303874D01*
Y86656D01*
X304893D01*
Y86146D01*
X306421D01*
Y85637D01*
X307440D01*
Y85127D01*
X308968D01*
Y84108D01*
X306421D01*
Y84618D01*
X304893D01*
Y85127D01*
X303874D01*
Y85637D01*
X302345D01*
Y86146D01*
X300817D01*
Y86656D01*
X299798D01*
Y87165D01*
X298270D01*
Y87675D01*
X296741D01*
Y88184D01*
X295213D01*
Y88693D01*
X293685D01*
Y89203D01*
X292666D01*
Y89712D01*
X291138D01*
Y90222D01*
X290119D01*
Y90731D01*
X288590D01*
Y91241D01*
X287062D01*
Y91750D01*
X286043D01*
Y92259D01*
X284005D01*
Y92769D01*
X282477D01*
Y93278D01*
X281458D01*
Y93788D01*
X279420D01*
Y94297D01*
X277892D01*
Y94807D01*
X276364D01*
Y95316D01*
X274835D01*
Y95826D01*
X273307D01*
Y96335D01*
X271269D01*
Y96844D01*
X269741D01*
Y97354D01*
X268213D01*
Y97863D01*
X266175D01*
Y98373D01*
X264647D01*
Y98882D01*
X263628D01*
Y99392D01*
X262099D01*
Y99901D01*
X259552D01*
Y100410D01*
X257514D01*
Y100920D01*
X256495D01*
Y101429D01*
X255986D01*
Y99392D01*
X256495D01*
Y96844D01*
X257005D01*
Y94297D01*
X257514D01*
Y90731D01*
X258024D01*
Y88693D01*
X258533D01*
Y86656D01*
X259043D01*
Y84108D01*
X256495D01*
Y84618D01*
X255986D01*
Y86146D01*
X255477D01*
Y87675D01*
X254967D01*
Y89203D01*
X254458D01*
Y91241D01*
X253948D01*
Y93278D01*
X253439D01*
Y95826D01*
X252929D01*
Y97863D01*
X252420D01*
Y99392D01*
X251911D01*
Y101939D01*
X251401D01*
Y102958D01*
X250892D01*
Y103467D01*
X250382D01*
Y103977D01*
X249873D01*
Y104486D01*
X248344D01*
Y104995D01*
X246816D01*
Y105505D01*
X245288D01*
Y106014D01*
X243759D01*
Y106524D01*
X241722D01*
Y107033D01*
X241212D01*
Y107543D01*
X240193D01*
Y110090D01*
X240703D01*
Y111109D01*
X241212D01*
Y112637D01*
X241722D01*
Y113656D01*
X242231D01*
Y114675D01*
X242741D01*
Y115184D01*
X243759D01*
Y116203D01*
X244269D01*
Y118241D01*
X244778D01*
Y119769D01*
X245288D01*
Y120788D01*
X245797D01*
Y122317D01*
X246307D01*
Y123335D01*
X246816D01*
Y126392D01*
X246307D01*
Y127411D01*
X246816D01*
Y129449D01*
X247326D01*
Y130468D01*
X248344D01*
Y130977D01*
X249363D01*
Y131996D01*
X249873D01*
Y132505D01*
X250382D01*
Y137090D01*
X249873D01*
Y140147D01*
X250382D01*
Y141166D01*
X250892D01*
Y141675D01*
X251401D01*
Y143204D01*
X250892D01*
Y144732D01*
X250382D01*
Y150845D01*
X250892D01*
Y152883D01*
X251401D01*
Y154921D01*
X251911D01*
Y157977D01*
X252420D01*
Y158996D01*
X252929D01*
Y161034D01*
X253439D01*
Y163072D01*
X253948D01*
Y164091D01*
X254458D01*
Y166129D01*
X254967D01*
Y167657D01*
X255477D01*
Y169185D01*
X255986D01*
Y171223D01*
X256495D01*
Y172242D01*
X257005D01*
Y173261D01*
X257514D01*
Y174789D01*
X258024D01*
Y175808D01*
X258533D01*
Y176827D01*
X259043D01*
Y177846D01*
X259552D01*
Y179374D01*
X260062D01*
Y180393D01*
X260571D01*
Y181412D01*
X261080D01*
Y181921D01*
X261590D01*
Y182431D01*
X262099D01*
Y183959D01*
X262609D01*
Y184978D01*
X263118D01*
Y185487D01*
X263628D01*
Y186506D01*
X264137D01*
Y188034D01*
X264647D01*
Y189053D01*
X265156D01*
Y189563D01*
X265665D01*
Y191091D01*
X266175D01*
Y191601D01*
X266684D01*
Y192619D01*
X267194D01*
Y193129D01*
X267703D01*
Y193638D01*
X268213D01*
Y194148D01*
X268722D01*
Y195167D01*
X269232D01*
Y195676D01*
X269741D01*
Y196695D01*
X270250D01*
Y197204D01*
X270760D01*
Y198223D01*
X271269D01*
Y198733D01*
X271779D01*
Y199752D01*
X272288D01*
Y200261D01*
X272798D01*
Y200770D01*
X273307D01*
Y201789D01*
X273817D01*
Y202299D01*
X274326D01*
Y203318D01*
X274835D01*
Y203827D01*
X275345D01*
Y204337D01*
X275854D01*
Y205355D01*
X276364D01*
Y205865D01*
X276873D01*
Y206374D01*
X277383D01*
Y207393D01*
X277892D01*
Y207903D01*
X278402D01*
Y208412D01*
X278911D01*
Y208922D01*
X279420D01*
Y210450D01*
X279930D01*
Y212488D01*
X279420D01*
Y214526D01*
X278911D01*
Y217582D01*
X278402D01*
Y224205D01*
X277892D01*
Y229809D01*
X277383D01*
Y230318D01*
X273817D01*
Y230828D01*
X271779D01*
Y231337D01*
X269741D01*
Y231847D01*
X268213D01*
Y232356D01*
X266684D01*
Y232865D01*
X265665D01*
Y233375D01*
X264137D01*
Y233884D01*
X263118D01*
Y234394D01*
X262099D01*
Y234903D01*
X261080D01*
Y235413D01*
X260062D01*
Y235922D01*
X259043D01*
Y236432D01*
X258024D01*
Y236941D01*
X257514D01*
Y237450D01*
X256495D01*
Y237960D01*
X254967D01*
Y238469D01*
X254458D01*
Y238979D01*
X253439D01*
Y239488D01*
X252420D01*
Y239998D01*
X251401D01*
Y240507D01*
X250892D01*
Y241016D01*
X250382D01*
Y241526D01*
X249363D01*
Y242035D01*
X248344D01*
Y242545D01*
X247326D01*
Y243054D01*
X246816D01*
Y243564D01*
X245797D01*
Y244073D01*
X244269D01*
Y244583D01*
X243759D01*
Y245092D01*
X243250D01*
Y245601D01*
X242741D01*
Y246111D01*
X241722D01*
Y246620D01*
X240703D01*
Y247130D01*
X240193D01*
Y247639D01*
X239174D01*
Y248149D01*
X238665D01*
Y248658D01*
X237646D01*
Y249167D01*
X236627D01*
Y249677D01*
X236118D01*
Y250186D01*
X235099D01*
Y250696D01*
X234590D01*
Y251205D01*
X233571D01*
Y251715D01*
X233061D01*
Y252224D01*
X232042D01*
Y252734D01*
X231533D01*
Y253243D01*
X231023D01*
Y253752D01*
X230514D01*
Y254262D01*
X229495D01*
Y254771D01*
X228986D01*
Y255281D01*
X228476D01*
Y255790D01*
X227457D01*
Y256300D01*
X226948D01*
Y256809D01*
X225929D01*
Y257319D01*
X225420D01*
Y257828D01*
X224910D01*
Y258337D01*
X224401D01*
Y258847D01*
X223891D01*
Y259356D01*
X223382D01*
Y259866D01*
X222872D01*
Y260375D01*
X222363D01*
Y260885D01*
X221854D01*
Y261394D01*
X221344D01*
Y261903D01*
X220835D01*
Y262413D01*
X220325D01*
Y262922D01*
X219816D01*
Y263432D01*
X219306D01*
Y263941D01*
X218797D01*
Y264451D01*
X218287D01*
Y264960D01*
X217269D01*
Y265470D01*
X216759D01*
Y266488D01*
X216250D01*
Y266998D01*
X215740D01*
Y267507D01*
X214721D01*
Y268017D01*
X214212D01*
Y268526D01*
X213702D01*
Y269036D01*
X213193D01*
Y269545D01*
X212684D01*
Y270055D01*
X211665D01*
Y270564D01*
X211155D01*
Y271073D01*
X210646D01*
Y271583D01*
X210136D01*
Y272092D01*
X209627D01*
Y272602D01*
X209117D01*
Y273111D01*
X208608D01*
Y273621D01*
X208099D01*
Y274130D01*
X207589D01*
Y274640D01*
X207080D01*
Y275149D01*
X206570D01*
Y275658D01*
X206061D01*
Y276677D01*
X205551D01*
Y277187D01*
X205042D01*
Y277696D01*
X204533D01*
Y278206D01*
X204023D01*
Y278715D01*
X203514D01*
Y279225D01*
X202495D01*
Y280243D01*
X201985D01*
Y280753D01*
X201476D01*
Y281262D01*
X200966D01*
Y282281D01*
X200457D01*
Y282791D01*
X199947D01*
Y283300D01*
X199438D01*
Y283810D01*
X198929D01*
Y284319D01*
X198419D01*
Y284828D01*
X197910D01*
Y285338D01*
X197400D01*
Y285847D01*
X196891D01*
Y286357D01*
X196381D01*
Y286866D01*
X195872D01*
Y287376D01*
X195362D01*
Y287885D01*
X194853D01*
Y288904D01*
X194344D01*
Y289413D01*
X193834D01*
Y289923D01*
X193325D01*
Y290432D01*
X192815D01*
Y290942D01*
X192306D01*
Y291961D01*
X191796D01*
Y292470D01*
X191287D01*
Y293489D01*
X190777D01*
Y293998D01*
X190268D01*
Y294508D01*
X189759D01*
Y295017D01*
X189249D01*
Y295527D01*
X188740D01*
Y296546D01*
X188230D01*
Y297055D01*
X187721D01*
Y298074D01*
X187211D01*
Y298583D01*
X186702D01*
Y299093D01*
X186193D01*
Y299602D01*
X185683D01*
Y300621D01*
X185174D01*
Y301131D01*
X184664D01*
Y302150D01*
X184155D01*
Y303168D01*
X183645D01*
Y303678D01*
X183136D01*
Y304187D01*
X182626D01*
Y305206D01*
X182117D01*
Y305716D01*
X181608D01*
Y306225D01*
X181098D01*
Y306734D01*
X180589D01*
Y307753D01*
X180079D01*
Y308263D01*
X179570D01*
Y309282D01*
X179060D01*
Y309791D01*
X178551D01*
Y310810D01*
X178041D01*
Y311319D01*
X177532D01*
Y311829D01*
X177023D01*
Y312848D01*
X176513D01*
Y313867D01*
X176004D01*
Y314376D01*
X175494D01*
Y315395D01*
X174985D01*
Y316414D01*
X174475D01*
Y316923D01*
X173966D01*
Y317942D01*
X173456D01*
Y318961D01*
X172947D01*
Y319471D01*
X172438D01*
Y319980D01*
X171928D01*
Y320999D01*
X171419D01*
Y322018D01*
X170909D01*
Y322527D01*
X170400D01*
Y323546D01*
X169890D01*
Y324565D01*
X169381D01*
Y325074D01*
X168871D01*
Y326093D01*
X168362D01*
Y326603D01*
X167853D01*
Y327112D01*
X167343D01*
Y328131D01*
X166834D01*
Y328640D01*
X166324D01*
Y329150D01*
X165815D01*
Y330169D01*
X165306D01*
Y330678D01*
X164796D01*
Y331697D01*
X164287D01*
Y332206D01*
X163777D01*
Y333225D01*
X163268D01*
Y334244D01*
X162758D01*
Y334754D01*
X162249D01*
Y335263D01*
X161739D01*
Y336282D01*
X161230D01*
Y337301D01*
X160721D01*
Y338320D01*
X160211D01*
Y339339D01*
X159702D01*
Y340358D01*
X159192D01*
Y341376D01*
X158683D01*
Y341886D01*
X158173D01*
Y342905D01*
X157664D01*
Y343924D01*
X157154D01*
Y344433D01*
X156645D01*
Y345452D01*
X156136D01*
Y346471D01*
X155626D01*
Y347490D01*
X155117D01*
Y348509D01*
X154607D01*
Y349528D01*
X154098D01*
Y350037D01*
X153588D01*
Y351056D01*
X153079D01*
Y352075D01*
X152569D01*
Y352584D01*
X152060D01*
Y353603D01*
X151551D01*
Y354622D01*
X151041D01*
Y355641D01*
X150532D01*
Y356150D01*
X150022D01*
Y357169D01*
X149513D01*
Y358188D01*
X149003D01*
Y359207D01*
X148494D01*
Y359716D01*
X147984D01*
Y360735D01*
X147475D01*
Y361754D01*
X146966D01*
Y362264D01*
X146456D01*
Y363283D01*
X145947D01*
Y363792D01*
X145437D01*
Y364811D01*
X144928D01*
Y365830D01*
X144418D01*
Y366339D01*
X143909D01*
Y367358D01*
X143399D01*
Y368377D01*
X142890D01*
Y369396D01*
X142381D01*
Y369905D01*
X141871D01*
Y370415D01*
X141362D01*
Y371943D01*
X140852D01*
Y372452D01*
X140343D01*
Y372962D01*
X138305D01*
Y373471D01*
X137286D01*
Y373981D01*
X136267D01*
Y374490D01*
X135248D01*
Y375000D01*
X134739D01*
Y375509D01*
X133720D01*
Y376018D01*
X133211D01*
Y376528D01*
X132701D01*
Y377037D01*
X132192D01*
Y377547D01*
X131682D01*
Y378056D01*
X131173D01*
Y378566D01*
X130663D01*
Y379075D01*
X130154D01*
Y380094D01*
X129135D01*
Y380603D01*
X128626D01*
Y381113D01*
X127097D01*
Y380603D01*
X126588D01*
Y380094D01*
X126078D01*
Y379585D01*
X125569D01*
Y379075D01*
X125059D01*
Y378566D01*
X124041D01*
Y378056D01*
X123531D01*
Y377547D01*
X123022D01*
Y377037D01*
X119456D01*
Y377547D01*
X118437D01*
Y378056D01*
X117927D01*
Y378566D01*
X117418D01*
Y379075D01*
X116909D01*
Y379585D01*
X116399D01*
Y380094D01*
X115890D01*
Y381113D01*
X114871D01*
Y382132D01*
X114361D01*
Y382641D01*
X113852D01*
Y383151D01*
X113342D01*
Y383660D01*
X112833D01*
Y384679D01*
X112324D01*
Y385188D01*
X111814D01*
Y385698D01*
X111305D01*
Y386207D01*
X110795D01*
Y386717D01*
X110286D01*
Y387226D01*
X109776D01*
Y388245D01*
X109267D01*
Y388755D01*
X108757D01*
Y389264D01*
X108248D01*
Y390283D01*
X107739D01*
Y391302D01*
X107229D01*
Y393849D01*
X106720D01*
Y394868D01*
X104682D01*
Y395377D01*
X102644D01*
Y395887D01*
X101116D01*
Y396396D01*
X100097D01*
Y396906D01*
X98569D01*
Y397415D01*
X97550D01*
Y397924D01*
X97040D01*
Y398434D01*
X96531D01*
Y398943D01*
X96021D01*
Y399453D01*
X95512D01*
Y399962D01*
X95002D01*
Y400472D01*
X94493D01*
Y400981D01*
X93984D01*
Y401491D01*
X93474D01*
Y402000D01*
X92965D01*
Y402509D01*
X92455D01*
Y403019D01*
X91946D01*
Y403528D01*
X91436D01*
Y404038D01*
X90927D01*
Y404547D01*
X90417D01*
Y405057D01*
X89908D01*
Y405566D01*
X89399D01*
Y406076D01*
X88889D01*
Y407094D01*
X88380D01*
Y407604D01*
X87870D01*
Y408113D01*
X87361D01*
Y408623D01*
X86851D01*
Y409132D01*
X86342D01*
Y409642D01*
X85833D01*
Y410151D01*
X85323D01*
Y411679D01*
X84814D01*
Y412698D01*
X85323D01*
Y415755D01*
X85833D01*
Y419831D01*
X85323D01*
Y420849D01*
X84814D01*
Y421868D01*
X84304D01*
Y432057D01*
X84814D01*
Y433076D01*
X85323D01*
Y433585D01*
X85833D01*
Y434095D01*
X86342D01*
Y435114D01*
X86851D01*
Y435623D01*
X87361D01*
Y436133D01*
X87870D01*
Y436642D01*
X88380D01*
Y437151D01*
X88889D01*
Y437661D01*
X89399D01*
Y438170D01*
X89908D01*
Y438680D01*
X90417D01*
Y439189D01*
X90927D01*
Y439699D01*
X91436D01*
Y440208D01*
X91946D01*
Y440718D01*
X92965D01*
Y441227D01*
X93474D01*
Y441736D01*
X93984D01*
Y442246D01*
X94493D01*
Y442755D01*
X95512D01*
Y443774D01*
X96021D01*
Y444284D01*
X97040D01*
Y444793D01*
X97550D01*
Y445303D01*
X98059D01*
Y445812D01*
X98569D01*
Y446321D01*
X99587D01*
Y446831D01*
X100097D01*
Y447340D01*
X100606D01*
Y447850D01*
X101116D01*
Y448359D01*
X102135D01*
Y448869D01*
X103153D01*
Y449378D01*
X104172D01*
Y449888D01*
X105191D01*
Y450397D01*
X105701D01*
Y450906D01*
X106210D01*
Y451416D01*
X106720D01*
Y452435D01*
X107229D01*
Y452944D01*
X107739D01*
Y453454D01*
X108248D01*
Y453963D01*
X108757D01*
Y454982D01*
X109267D01*
Y455491D01*
X109776D01*
Y456001D01*
X110286D01*
Y456510D01*
X110795D01*
Y457020D01*
X111305D01*
Y457529D01*
X111814D01*
Y458039D01*
X112324D01*
Y458548D01*
X112833D01*
Y459058D01*
X113342D01*
Y459567D01*
X113852D01*
Y460076D01*
X114361D01*
Y460586D01*
X114871D01*
Y461095D01*
X115890D01*
Y461605D01*
X116399D01*
Y462114D01*
X117418D01*
Y462624D01*
X117927D01*
Y463133D01*
X118946D01*
Y463643D01*
X119965D01*
Y464152D01*
X121494D01*
Y464661D01*
X123022D01*
Y465171D01*
X124041D01*
Y465680D01*
X125569D01*
Y466190D01*
X126588D01*
Y466699D01*
X127607D01*
Y467209D01*
X129135D01*
Y467718D01*
X131173D01*
Y467209D01*
X132192D01*
Y466699D01*
X133211D01*
Y466190D01*
X134229D01*
Y465680D01*
X135758D01*
Y465171D01*
X136777D01*
Y464661D01*
X138305D01*
Y464152D01*
X139324D01*
Y463643D01*
X140343D01*
Y463133D01*
X141362D01*
Y462624D01*
X142381D01*
Y462114D01*
X143399D01*
Y461605D01*
X144418D01*
Y461095D01*
X145437D01*
Y460586D01*
X146456D01*
Y460076D01*
X147475D01*
Y459567D01*
X148494D01*
Y459058D01*
X149513D01*
Y458548D01*
X150022D01*
Y458039D01*
X150532D01*
Y457529D01*
X151551D01*
Y457020D01*
X152060D01*
Y456510D01*
X152569D01*
Y456001D01*
X153079D01*
Y455491D01*
X153588D01*
Y454982D01*
X154607D01*
Y454473D01*
X156136D01*
Y454982D01*
X157154D01*
Y455491D01*
X157664D01*
Y456001D01*
X158683D01*
Y456510D01*
X159702D01*
Y457020D01*
X160721D01*
Y457529D01*
X161739D01*
Y458039D01*
X162758D01*
Y458548D01*
X163777D01*
Y459058D01*
X166324D01*
Y459567D01*
X170400D01*
Y459058D01*
X171928D01*
Y458548D01*
X173966D01*
Y458039D01*
X175494D01*
Y457529D01*
X176513D01*
Y457020D01*
X177532D01*
Y456510D01*
X179060D01*
Y456001D01*
X180079D01*
Y455491D01*
X180589D01*
Y454982D01*
X181608D01*
Y454473D01*
X182117D01*
Y453963D01*
X183136D01*
Y453454D01*
X183645D01*
Y452944D01*
X184664D01*
Y452435D01*
X185174D01*
Y451925D01*
X186193D01*
Y451416D01*
X186702D01*
Y450906D01*
X187721D01*
Y450397D01*
X188230D01*
Y449888D01*
X188740D01*
Y450397D01*
X190268D01*
Y450906D01*
X199438D01*
Y451416D01*
X203004D01*
Y451925D01*
X205042D01*
Y452435D01*
X209117D01*
Y452944D01*
X211155D01*
Y453454D01*
X211665D01*
Y453963D01*
X216759D01*
Y454473D01*
X219306D01*
Y454982D01*
X220325D01*
Y455491D01*
X222363D01*
Y456001D01*
X224910D01*
Y456510D01*
X225929D01*
Y457020D01*
X227967D01*
Y457529D01*
X232552D01*
Y458039D01*
X235608D01*
Y458548D01*
X244778D01*
Y460586D01*
X244269D01*
Y461095D01*
X244778D01*
Y461605D01*
X245288D01*
Y461095D01*
X245797D01*
Y460076D01*
X246307D01*
Y459058D01*
X246816D01*
Y458548D01*
X252929D01*
Y458039D01*
X254967D01*
Y457529D01*
X257005D01*
Y457020D01*
X258533D01*
Y456510D01*
X260571D01*
Y456001D01*
X262099D01*
Y455491D01*
X263628D01*
Y454982D01*
X266175D01*
Y454473D01*
X267703D01*
Y453963D01*
X268722D01*
Y453454D01*
X269741D01*
Y452944D01*
X270760D01*
Y452435D01*
X271779D01*
Y451925D01*
X272798D01*
Y450906D01*
X273817D01*
Y451416D01*
X274326D01*
Y451925D01*
X274835D01*
Y452435D01*
X275345D01*
Y452944D01*
X275854D01*
Y453454D01*
X276364D01*
Y453963D01*
X277383D01*
Y454473D01*
X277892D01*
Y455491D01*
X278402D01*
Y458548D01*
X277892D01*
Y474341D01*
X277383D01*
Y475360D01*
X277892D01*
Y487586D01*
X277383D01*
Y498285D01*
X276873D01*
Y506945D01*
X276364D01*
Y512039D01*
X275854D01*
Y515606D01*
X275345D01*
Y518662D01*
X274835D01*
Y521209D01*
X274326D01*
Y523757D01*
X273817D01*
Y525794D01*
X273307D01*
Y527832D01*
X272798D01*
Y529870D01*
X272288D01*
Y532417D01*
X271779D01*
Y534964D01*
X271269D01*
Y537002D01*
X270760D01*
Y539549D01*
X270250D01*
Y541587D01*
X269741D01*
Y543115D01*
X269232D01*
Y545153D01*
X268722D01*
Y547191D01*
X268213D01*
Y549229D01*
X267703D01*
Y550757D01*
X267194D01*
Y552795D01*
X266684D01*
Y555852D01*
X266175D01*
Y558399D01*
X265665D01*
Y564512D01*
X265156D01*
Y573682D01*
X265665D01*
Y575720D01*
X266684D01*
Y577248D01*
X268213D01*
Y577757D01*
X268722D01*
Y578267D01*
X269741D01*
Y578776D01*
X270760D01*
Y579286D01*
X271779D01*
Y579795D01*
X272288D01*
Y580305D01*
X273307D01*
Y580814D01*
X273817D01*
Y581324D01*
X274835D01*
Y581833D01*
X275854D01*
Y582342D01*
X276873D01*
Y582852D01*
X277892D01*
Y583361D01*
X278402D01*
Y583871D01*
X278911D01*
Y584380D01*
X279930D01*
Y584890D01*
X280949D01*
Y585399D01*
X281968D01*
Y585909D01*
X282477D01*
Y586418D01*
X283496D01*
Y586927D01*
X284515D01*
Y587437D01*
X285534D01*
Y587946D01*
X286043D01*
Y588456D01*
X287572D01*
Y588965D01*
X288081D01*
Y589475D01*
X289100D01*
Y589984D01*
X290119D01*
Y590494D01*
X291138D01*
Y591003D01*
X292666D01*
Y591512D01*
X293685D01*
Y592022D01*
X294704D01*
Y592531D01*
X295723D01*
Y593041D01*
X297251D01*
Y593550D01*
X298270D01*
Y594060D01*
X299289D01*
Y594569D01*
X300817D01*
Y595079D01*
X302345D01*
Y595588D01*
X303364D01*
Y596097D01*
X304383D01*
Y596607D01*
X305911D01*
Y597116D01*
X307440D01*
Y597626D01*
X308459D01*
Y598135D01*
X309478D01*
Y598645D01*
X310496D01*
Y599154D01*
X312025D01*
Y599664D01*
X313044D01*
Y600173D01*
X314062D01*
Y600682D01*
X315591D01*
Y601192D01*
X317119D01*
Y601701D01*
X318647D01*
Y602211D01*
X319666D01*
Y602720D01*
X321704D01*
Y603230D01*
X322723D01*
Y603739D01*
X324251D01*
Y604248D01*
X325780D01*
Y604758D01*
X327817D01*
Y605267D01*
X329346D01*
Y605777D01*
X330874D01*
Y606286D01*
X332402D01*
Y606796D01*
X334950D01*
Y607305D01*
X336478D01*
Y607814D01*
X339025D01*
Y608324D01*
X347176D01*
Y607814D01*
D02*
G37*
G36*
X363478Y217073D02*
Y216563D01*
X362969D01*
Y217582D01*
X363478D01*
Y217073D01*
D02*
G37*
G36*
X361950Y212488D02*
Y211978D01*
Y210959D01*
X361441D01*
Y211978D01*
X360931D01*
Y212488D01*
X361441D01*
Y213507D01*
X361950D01*
Y212488D01*
D02*
G37*
G36*
X362969Y215544D02*
X363478D01*
Y212997D01*
X363988D01*
Y209431D01*
X365007D01*
Y210450D01*
X365516D01*
Y210959D01*
X366026D01*
Y209940D01*
X365516D01*
Y209431D01*
Y208922D01*
X365007D01*
Y207393D01*
X364497D01*
Y206884D01*
X363478D01*
Y207903D01*
X362969D01*
Y208922D01*
X363478D01*
Y211469D01*
X362969D01*
Y214016D01*
X361950D01*
Y215544D01*
X362459D01*
Y216054D01*
X362969D01*
Y215544D01*
D02*
G37*
G36*
X282477Y134543D02*
X281968D01*
Y135052D01*
X282477D01*
Y134543D01*
D02*
G37*
G36*
X286553Y130468D02*
X286043D01*
Y130977D01*
X286553D01*
Y130468D01*
D02*
G37*
G36*
X414422Y126392D02*
X413404D01*
Y126902D01*
X414422D01*
Y126392D01*
D02*
G37*
G36*
X412894Y125883D02*
X412385D01*
Y126392D01*
X412894D01*
Y125883D01*
D02*
G37*
G36*
X356346Y126392D02*
X357365D01*
Y125883D01*
X357874D01*
Y125373D01*
X358893D01*
Y124864D01*
X359403D01*
Y124354D01*
X358893D01*
Y124864D01*
X357874D01*
Y125373D01*
X357365D01*
Y125883D01*
X356346D01*
Y126392D01*
X355837D01*
Y126902D01*
X356346D01*
Y126392D01*
D02*
G37*
G36*
X395573Y125883D02*
X396592D01*
Y125373D01*
X397102D01*
Y124354D01*
X397611D01*
Y123335D01*
X397102D01*
Y123845D01*
X396592D01*
Y124354D01*
X396083D01*
Y124864D01*
X395573D01*
Y125373D01*
X393535D01*
Y125883D01*
X394554D01*
Y126392D01*
X395573D01*
Y125883D01*
D02*
G37*
G36*
X340553Y134543D02*
X341572D01*
Y134034D01*
X342591D01*
Y133524D01*
X343101D01*
Y133015D01*
X344629D01*
Y132505D01*
X345138D01*
Y131996D01*
X346157D01*
Y131487D01*
X347176D01*
Y130977D01*
X347686D01*
Y130468D01*
X348704D01*
Y129958D01*
X349214D01*
Y129449D01*
X349723D01*
Y128939D01*
X350742D01*
Y128430D01*
X351252D01*
Y127920D01*
X352271D01*
Y127411D01*
X353289D01*
Y126902D01*
X353799D01*
Y126392D01*
X354818D01*
Y125883D01*
X355837D01*
Y125373D01*
X356856D01*
Y124864D01*
X357365D01*
Y124354D01*
X357874D01*
Y123845D01*
X358893D01*
Y123335D01*
X359912D01*
Y122826D01*
X360422D01*
Y122317D01*
X361441D01*
Y121807D01*
X362459D01*
Y121298D01*
X363478D01*
Y120279D01*
X361950D01*
Y120788D01*
X360931D01*
Y121298D01*
X360422D01*
Y121807D01*
X359403D01*
Y122317D01*
X358384D01*
Y122826D01*
X357365D01*
Y123335D01*
X356856D01*
Y123845D01*
X356346D01*
Y124354D01*
X355327D01*
Y124864D01*
X354308D01*
Y125373D01*
X353289D01*
Y125883D01*
X352780D01*
Y126392D01*
X351761D01*
Y126902D01*
X351252D01*
Y127411D01*
X350233D01*
Y127920D01*
X349214D01*
Y128430D01*
X348704D01*
Y128939D01*
X347686D01*
Y129449D01*
X347176D01*
Y129958D01*
X346157D01*
Y130468D01*
X345648D01*
Y130977D01*
X344119D01*
Y131487D01*
X343610D01*
Y131996D01*
X342082D01*
Y132505D01*
X341572D01*
Y133015D01*
X341063D01*
Y133524D01*
X340553D01*
Y134034D01*
X340044D01*
Y134543D01*
X339535D01*
Y135052D01*
X340553D01*
Y134543D01*
D02*
G37*
G36*
X410856Y124864D02*
X409837D01*
Y124354D01*
X409328D01*
Y123845D01*
X408309D01*
Y123335D01*
X407290D01*
Y122826D01*
X406781D01*
Y122317D01*
X405762D01*
Y121298D01*
X404743D01*
Y120788D01*
X404234D01*
Y120279D01*
X403215D01*
Y119769D01*
X402196D01*
Y119260D01*
X401177D01*
Y118750D01*
X399139D01*
Y120279D01*
X399649D01*
Y121298D01*
X400158D01*
Y121807D01*
X401177D01*
Y122317D01*
X402705D01*
Y122826D01*
X404234D01*
Y123335D01*
X405762D01*
Y123845D01*
X407290D01*
Y124354D01*
X408309D01*
Y124864D01*
X409328D01*
Y125373D01*
X410856D01*
Y124864D01*
D02*
G37*
G36*
X442951D02*
X443461D01*
Y124354D01*
X443970D01*
Y122317D01*
X443461D01*
Y119769D01*
X442951D01*
Y114165D01*
X442442D01*
Y111109D01*
X442951D01*
Y110599D01*
X442442D01*
Y110090D01*
X442951D01*
Y109580D01*
X442442D01*
Y109071D01*
X442951D01*
Y108562D01*
X442442D01*
Y107543D01*
X441932D01*
Y107033D01*
X440914D01*
Y107543D01*
X439895D01*
Y108052D01*
X439385D01*
Y108562D01*
X438876D01*
Y109071D01*
X437857D01*
Y109580D01*
X436838D01*
Y110090D01*
X435819D01*
Y110599D01*
X435310D01*
Y111109D01*
X434800D01*
Y111618D01*
X434291D01*
Y112128D01*
X433781D01*
Y112637D01*
X432762D01*
Y113146D01*
X431234D01*
Y113656D01*
X425630D01*
Y113146D01*
X424611D01*
Y112637D01*
X423083D01*
Y112128D01*
X421555D01*
Y111618D01*
X420536D01*
Y111109D01*
X419007D01*
Y110599D01*
X416970D01*
Y110090D01*
X414422D01*
Y109580D01*
X412385D01*
Y110090D01*
X413404D01*
Y110599D01*
X414932D01*
Y111109D01*
X415441D01*
Y111618D01*
X416460D01*
Y112128D01*
X417479D01*
Y112637D01*
X418498D01*
Y113146D01*
X419517D01*
Y113656D01*
X420536D01*
Y114165D01*
X421555D01*
Y114675D01*
X422574D01*
Y115184D01*
X423592D01*
Y115694D01*
X424611D01*
Y116203D01*
X425630D01*
Y116713D01*
X426649D01*
Y117222D01*
X427668D01*
Y117732D01*
X428687D01*
Y118241D01*
X429706D01*
Y118750D01*
X430725D01*
Y119260D01*
X431744D01*
Y119769D01*
X432762D01*
Y120279D01*
X433781D01*
Y120788D01*
X434800D01*
Y121298D01*
X435310D01*
Y121807D01*
X436838D01*
Y122317D01*
X437857D01*
Y122826D01*
X438366D01*
Y123335D01*
X439385D01*
Y123845D01*
X439895D01*
Y124354D01*
X440914D01*
Y124864D01*
X441932D01*
Y125373D01*
X442951D01*
Y124864D01*
D02*
G37*
G36*
X404743Y106014D02*
X403724D01*
Y106524D01*
X404743D01*
Y106014D01*
D02*
G37*
G36*
X368063D02*
X367554D01*
Y106524D01*
X368063D01*
Y106014D01*
D02*
G37*
G36*
X403724Y105505D02*
X402705D01*
Y106014D01*
X403724D01*
Y105505D01*
D02*
G37*
G36*
X438366Y126392D02*
X437857D01*
Y125883D01*
X437347D01*
Y125373D01*
X436329D01*
Y124864D01*
X435310D01*
Y123845D01*
X434800D01*
Y123335D01*
X433781D01*
Y122826D01*
X432762D01*
Y122317D01*
X431744D01*
Y121807D01*
X431234D01*
Y121298D01*
X430215D01*
Y120788D01*
X428687D01*
Y120279D01*
X427668D01*
Y119769D01*
X426140D01*
Y119260D01*
X425121D01*
Y118750D01*
X424102D01*
Y118241D01*
X423083D01*
Y117732D01*
X422064D01*
Y117222D01*
X420536D01*
Y116713D01*
X419517D01*
Y116203D01*
X417989D01*
Y115694D01*
X417479D01*
Y115184D01*
X415951D01*
Y114675D01*
X414932D01*
Y114165D01*
X413404D01*
Y113656D01*
X412385D01*
Y113146D01*
X411366D01*
Y112637D01*
X410347D01*
Y112128D01*
X408819D01*
Y111618D01*
X407800D01*
Y111109D01*
X406271D01*
Y110599D01*
X404743D01*
Y110090D01*
X403724D01*
Y109580D01*
X402196D01*
Y109071D01*
X400668D01*
Y108562D01*
X399139D01*
Y108052D01*
X398120D01*
Y107543D01*
X396592D01*
Y107033D01*
X395064D01*
Y106524D01*
X393535D01*
Y106014D01*
X392007D01*
Y105505D01*
X389969D01*
Y104995D01*
X388441D01*
Y104486D01*
X386913D01*
Y103977D01*
X383856D01*
Y103467D01*
X382328D01*
Y102958D01*
X379780D01*
Y102448D01*
X377743D01*
Y101939D01*
X374686D01*
Y101429D01*
X373667D01*
Y101939D01*
X373158D01*
Y102448D01*
X374177D01*
Y102958D01*
X376724D01*
Y103467D01*
X379271D01*
Y103977D01*
X381818D01*
Y104486D01*
X383856D01*
Y104995D01*
X385894D01*
Y105505D01*
X387932D01*
Y106014D01*
X389460D01*
Y106524D01*
X390479D01*
Y107033D01*
X392517D01*
Y107543D01*
X394045D01*
Y108052D01*
X395064D01*
Y108562D01*
X396083D01*
Y109071D01*
X397611D01*
Y109580D01*
X398630D01*
Y110090D01*
X399139D01*
Y110599D01*
X400158D01*
Y111109D01*
X401177D01*
Y111618D01*
X402196D01*
Y112128D01*
X403724D01*
Y112637D01*
X404234D01*
Y113146D01*
X405253D01*
Y113656D01*
X406781D01*
Y114165D01*
X408309D01*
Y114675D01*
X409328D01*
Y115184D01*
X410347D01*
Y115694D01*
X411366D01*
Y116203D01*
X412385D01*
Y116713D01*
X413913D01*
Y117222D01*
X414932D01*
Y117732D01*
X416460D01*
Y118241D01*
X417479D01*
Y118750D01*
X419007D01*
Y119260D01*
X420536D01*
Y119769D01*
X422064D01*
Y120279D01*
X423592D01*
Y120788D01*
X424611D01*
Y121298D01*
X425630D01*
Y121807D01*
X426649D01*
Y122317D01*
X427668D01*
Y122826D01*
X428687D01*
Y123335D01*
X430215D01*
Y123845D01*
X431234D01*
Y124354D01*
X432253D01*
Y124864D01*
X432762D01*
Y125373D01*
X434291D01*
Y125883D01*
X435819D01*
Y126392D01*
X436838D01*
Y126902D01*
X438366D01*
Y126392D01*
D02*
G37*
G36*
X420536Y98373D02*
X420026D01*
Y98882D01*
X420536D01*
Y98373D01*
D02*
G37*
G36*
X319157Y114675D02*
X319666D01*
Y114165D01*
X320685D01*
Y113656D01*
X322214D01*
Y113146D01*
X322723D01*
Y112637D01*
X323742D01*
Y112128D01*
X324251D01*
Y111618D01*
X325270D01*
Y111109D01*
X326289D01*
Y110599D01*
X327817D01*
Y110090D01*
X328327D01*
Y109580D01*
X329346D01*
Y109071D01*
X330874D01*
Y108562D01*
X332402D01*
Y108052D01*
X333931D01*
Y107543D01*
X335459D01*
Y107033D01*
X336478D01*
Y106524D01*
X338006D01*
Y106014D01*
X339535D01*
Y105505D01*
X341063D01*
Y104995D01*
X342591D01*
Y104486D01*
X344119D01*
Y103977D01*
X346157D01*
Y103467D01*
X347176D01*
Y102958D01*
X348704D01*
Y102448D01*
X350233D01*
Y101939D01*
X352271D01*
Y101429D01*
X353799D01*
Y100920D01*
X355327D01*
Y100410D01*
X357874D01*
Y99901D01*
X360422D01*
Y99392D01*
X363478D01*
Y97863D01*
X361950D01*
Y98373D01*
X359403D01*
Y98882D01*
X357365D01*
Y99392D01*
X355327D01*
Y99901D01*
X353289D01*
Y100410D01*
X351252D01*
Y100920D01*
X350233D01*
Y101429D01*
X348195D01*
Y101939D01*
X347176D01*
Y102448D01*
X345138D01*
Y102958D01*
X343610D01*
Y103467D01*
X342082D01*
Y103977D01*
X340553D01*
Y104486D01*
X339025D01*
Y104995D01*
X337497D01*
Y105505D01*
X336478D01*
Y106014D01*
X334950D01*
Y106524D01*
X333421D01*
Y107033D01*
X331893D01*
Y107543D01*
X330365D01*
Y108052D01*
X329346D01*
Y108562D01*
X327817D01*
Y109071D01*
X326799D01*
Y109580D01*
X325780D01*
Y110090D01*
X324761D01*
Y110599D01*
X323742D01*
Y111109D01*
X323232D01*
Y111618D01*
X322723D01*
Y112128D01*
X321704D01*
Y112637D01*
X320176D01*
Y113146D01*
X319157D01*
Y113656D01*
X318138D01*
Y114165D01*
X317628D01*
Y115184D01*
X319157D01*
Y114675D01*
D02*
G37*
G36*
X319666Y94807D02*
X319157D01*
Y95316D01*
X319666D01*
Y94807D01*
D02*
G37*
G36*
X287572Y129958D02*
X288081D01*
Y129449D01*
X289100D01*
Y128939D01*
X289609D01*
Y128430D01*
X290119D01*
Y127920D01*
X290628D01*
Y126902D01*
X291647D01*
Y126392D01*
X292157D01*
Y125883D01*
X292666D01*
Y125373D01*
X293175D01*
Y124864D01*
X294194D01*
Y124354D01*
X295213D01*
Y123845D01*
X295723D01*
Y123335D01*
X296741D01*
Y122826D01*
X297251D01*
Y122317D01*
X298270D01*
Y121807D01*
X298779D01*
Y121298D01*
X299798D01*
Y120788D01*
X300308D01*
Y120279D01*
X301326D01*
Y119769D01*
X301836D01*
Y119260D01*
X302855D01*
Y118750D01*
X303364D01*
Y118241D01*
X304383D01*
Y117732D01*
X304893D01*
Y117222D01*
X305402D01*
Y116713D01*
X305911D01*
Y116203D01*
X306421D01*
Y115694D01*
X307440D01*
Y115184D01*
X307949D01*
Y114675D01*
X308968D01*
Y114165D01*
X309987D01*
Y113656D01*
X311006D01*
Y113146D01*
X311515D01*
Y112637D01*
X312534D01*
Y112128D01*
X313553D01*
Y111618D01*
X314572D01*
Y111109D01*
X315081D01*
Y110599D01*
X316100D01*
Y110090D01*
X317119D01*
Y109580D01*
X318138D01*
Y109071D01*
X319157D01*
Y108562D01*
X320176D01*
Y108052D01*
X321704D01*
Y107543D01*
X322723D01*
Y107033D01*
X323232D01*
Y106524D01*
X324251D01*
Y106014D01*
X325270D01*
Y105505D01*
X326289D01*
Y104995D01*
X327817D01*
Y104486D01*
X329346D01*
Y103977D01*
X331384D01*
Y103467D01*
X333421D01*
Y102958D01*
X334440D01*
Y102448D01*
X335459D01*
Y101939D01*
X336478D01*
Y101429D01*
X337497D01*
Y100920D01*
X340044D01*
Y100410D01*
X341572D01*
Y99901D01*
X343101D01*
Y99392D01*
X344629D01*
Y98882D01*
X346157D01*
Y98373D01*
X347686D01*
Y97863D01*
X349214D01*
Y97354D01*
X350742D01*
Y96844D01*
X352780D01*
Y96335D01*
X355327D01*
Y95826D01*
X357874D01*
Y95316D01*
X360422D01*
Y94807D01*
X367554D01*
Y95316D01*
X368063D01*
Y96844D01*
X368573D01*
Y99392D01*
X368063D01*
Y99901D01*
X367554D01*
Y100410D01*
X367044D01*
Y101939D01*
X366535D01*
Y103467D01*
X367044D01*
Y104995D01*
X367554D01*
Y102958D01*
Y102448D01*
X367044D01*
Y101939D01*
X367554D01*
Y100920D01*
X368573D01*
Y100410D01*
X369082D01*
Y99901D01*
X369592D01*
Y99392D01*
X370101D01*
Y98882D01*
X369592D01*
Y96335D01*
X369082D01*
Y95316D01*
X372648D01*
Y95826D01*
X375196D01*
Y96335D01*
X377233D01*
Y96844D01*
X379271D01*
Y97354D01*
X380799D01*
Y97863D01*
X382837D01*
Y98373D01*
X384875D01*
Y98882D01*
X386403D01*
Y99392D01*
X387932D01*
Y99901D01*
X389460D01*
Y100410D01*
X390988D01*
Y100920D01*
X392517D01*
Y101429D01*
X393535D01*
Y101939D01*
X395064D01*
Y102448D01*
X396083D01*
Y102958D01*
X397611D01*
Y103467D01*
X398630D01*
Y103977D01*
X400158D01*
Y104486D01*
X400668D01*
Y104995D01*
X401686D01*
Y105505D01*
X402705D01*
Y104995D01*
X402196D01*
Y104486D01*
X401177D01*
Y103977D01*
X400668D01*
Y103467D01*
X400158D01*
Y102958D01*
X399139D01*
Y102448D01*
X398630D01*
Y101939D01*
X397611D01*
Y101429D01*
X396592D01*
Y100920D01*
X395573D01*
Y100410D01*
X394554D01*
Y99901D01*
X393535D01*
Y99392D01*
X392517D01*
Y98882D01*
X392007D01*
Y98373D01*
X390479D01*
Y97863D01*
X388950D01*
Y97354D01*
X388441D01*
Y96844D01*
X387422D01*
Y96335D01*
X386403D01*
Y95826D01*
X384875D01*
Y95316D01*
X383856D01*
Y94807D01*
X382837D01*
Y94297D01*
X382328D01*
Y93788D01*
X380799D01*
Y93278D01*
X379780D01*
Y92769D01*
X378762D01*
Y92259D01*
X377233D01*
Y91750D01*
X376214D01*
Y91241D01*
X375196D01*
Y90731D01*
X373667D01*
Y90222D01*
X372648D01*
Y89712D01*
X369592D01*
Y89203D01*
X367554D01*
Y87165D01*
X367044D01*
Y85637D01*
X366535D01*
Y84618D01*
X366026D01*
Y87165D01*
X366535D01*
Y88693D01*
X362459D01*
Y89203D01*
X357874D01*
Y89712D01*
X355327D01*
Y90222D01*
X353289D01*
Y90731D01*
X351252D01*
Y91241D01*
X349723D01*
Y91750D01*
X347686D01*
Y92259D01*
X346157D01*
Y92769D01*
X345138D01*
Y93278D01*
X343610D01*
Y93788D01*
X342082D01*
Y94297D01*
X341063D01*
Y94807D01*
X339535D01*
Y95316D01*
X338516D01*
Y95826D01*
X336987D01*
Y96335D01*
X336478D01*
Y96844D01*
X334950D01*
Y97354D01*
X333931D01*
Y97863D01*
X332402D01*
Y98373D01*
X331893D01*
Y98882D01*
X330365D01*
Y99392D01*
X329855D01*
Y99901D01*
X328836D01*
Y100410D01*
X327817D01*
Y100920D01*
X326799D01*
Y101429D01*
X326289D01*
Y101939D01*
X324761D01*
Y102448D01*
X324251D01*
Y102958D01*
X323232D01*
Y103467D01*
X322723D01*
Y103977D01*
X321704D01*
Y104486D01*
X320685D01*
Y104995D01*
X320176D01*
Y105505D01*
X319157D01*
Y106014D01*
X318138D01*
Y106524D01*
X317119D01*
Y107033D01*
X316100D01*
Y107543D01*
X315591D01*
Y108052D01*
X315081D01*
Y108562D01*
X314572D01*
Y109071D01*
X313553D01*
Y109580D01*
X313044D01*
Y110090D01*
X312534D01*
Y110599D01*
X311515D01*
Y111109D01*
X311006D01*
Y111618D01*
X309987D01*
Y112128D01*
X309478D01*
Y112637D01*
X308459D01*
Y113146D01*
X307440D01*
Y113656D01*
X306421D01*
Y114165D01*
X305911D01*
Y114675D01*
X305402D01*
Y115184D01*
X304383D01*
Y116203D01*
X303364D01*
Y116713D01*
X302855D01*
Y117222D01*
X302345D01*
Y117732D01*
X301326D01*
Y118241D01*
X300817D01*
Y118750D01*
X299798D01*
Y119260D01*
X299289D01*
Y119769D01*
X298270D01*
Y120279D01*
X297760D01*
Y120788D01*
X297251D01*
Y121298D01*
X296741D01*
Y121807D01*
X296232D01*
Y122317D01*
X295213D01*
Y122826D01*
X294194D01*
Y123845D01*
X293175D01*
Y124354D01*
X292666D01*
Y124864D01*
X292157D01*
Y125373D01*
X291647D01*
Y125883D01*
X291138D01*
Y126392D01*
X290628D01*
Y126902D01*
X290119D01*
Y127411D01*
X289609D01*
Y127920D01*
X289100D01*
Y128430D01*
X288590D01*
Y128939D01*
X288081D01*
Y129449D01*
X287572D01*
Y129958D01*
X287062D01*
Y130468D01*
X287572D01*
Y129958D01*
D02*
G37*
G36*
X421045Y106524D02*
X420536D01*
Y106014D01*
X419517D01*
Y105505D01*
X418498D01*
Y104486D01*
X417479D01*
Y103977D01*
X416460D01*
Y103467D01*
X415951D01*
Y102958D01*
X415441D01*
Y102448D01*
X414422D01*
Y101939D01*
X413913D01*
Y101429D01*
X412894D01*
Y100920D01*
X412385D01*
Y100410D01*
X411366D01*
Y99901D01*
X410856D01*
Y99392D01*
X409837D01*
Y98882D01*
X409328D01*
Y98373D01*
X408309D01*
Y97863D01*
X407290D01*
Y97354D01*
X406781D01*
Y96844D01*
X405762D01*
Y96335D01*
X404234D01*
Y95826D01*
X403724D01*
Y95316D01*
X402705D01*
Y94807D01*
X402196D01*
Y94297D01*
X401177D01*
Y93788D01*
X400158D01*
Y93278D01*
X399649D01*
Y92769D01*
X399139D01*
Y92259D01*
X398630D01*
Y91750D01*
X398120D01*
Y91241D01*
X397611D01*
Y90731D01*
X396592D01*
Y90222D01*
X396083D01*
Y89712D01*
X395064D01*
Y89203D01*
X394554D01*
Y88693D01*
X394045D01*
Y87675D01*
X393026D01*
Y87165D01*
X392517D01*
Y86656D01*
X392007D01*
Y86146D01*
X391498D01*
Y85637D01*
X390988D01*
Y84618D01*
X388950D01*
Y84108D01*
X377743D01*
Y85127D01*
X379780D01*
Y85637D01*
X380799D01*
Y86146D01*
X382328D01*
Y86656D01*
X383347D01*
Y87165D01*
X384365D01*
Y87675D01*
X385894D01*
Y88184D01*
X386403D01*
Y88693D01*
X387932D01*
Y89203D01*
X388950D01*
Y89712D01*
X390479D01*
Y90222D01*
X390988D01*
Y90731D01*
X392007D01*
Y91241D01*
X393026D01*
Y91750D01*
X394045D01*
Y92259D01*
X395064D01*
Y92769D01*
X396083D01*
Y93278D01*
X397102D01*
Y93788D01*
X398120D01*
Y94297D01*
X399139D01*
Y94807D01*
X400158D01*
Y95316D01*
X401177D01*
Y95826D01*
X401686D01*
Y96335D01*
X402705D01*
Y96844D01*
X403724D01*
Y97354D01*
X404743D01*
Y97863D01*
X405762D01*
Y98373D01*
X406781D01*
Y98882D01*
X407800D01*
Y99392D01*
X408309D01*
Y99901D01*
X409328D01*
Y100410D01*
X410347D01*
Y100920D01*
X410856D01*
Y101429D01*
X411875D01*
Y101939D01*
X412894D01*
Y102448D01*
X413404D01*
Y102958D01*
X414422D01*
Y103467D01*
X414932D01*
Y103977D01*
X415441D01*
Y104486D01*
X416460D01*
Y104995D01*
X416970D01*
Y105505D01*
X417989D01*
Y106014D01*
X419007D01*
Y106524D01*
X419517D01*
Y107033D01*
X420026D01*
Y107543D01*
X421045D01*
Y106524D01*
D02*
G37*
%LPC*%
G36*
X294194Y554323D02*
X293685D01*
Y548210D01*
X293175D01*
Y548719D01*
X292666D01*
Y549229D01*
X292157D01*
Y550248D01*
X291647D01*
Y549738D01*
X291138D01*
Y548719D01*
X290628D01*
Y547191D01*
X290119D01*
Y545153D01*
X289609D01*
Y543115D01*
X289100D01*
Y539549D01*
X289609D01*
Y539040D01*
X290119D01*
Y538021D01*
X290628D01*
Y537512D01*
X291138D01*
Y537002D01*
X291647D01*
Y535983D01*
X292157D01*
Y535474D01*
X292666D01*
Y534964D01*
X293175D01*
Y534455D01*
X293685D01*
Y533946D01*
X294194D01*
Y532927D01*
X294704D01*
Y532417D01*
X295213D01*
Y531908D01*
X295723D01*
Y531398D01*
X296232D01*
Y530889D01*
X296741D01*
Y530379D01*
X297251D01*
Y529870D01*
X297760D01*
Y529361D01*
X298270D01*
Y528851D01*
X298779D01*
Y528342D01*
X299289D01*
Y527832D01*
X299798D01*
Y527323D01*
X300308D01*
Y526813D01*
X301326D01*
Y526304D01*
X301836D01*
Y525285D01*
X302345D01*
Y523757D01*
X302855D01*
Y521719D01*
X303364D01*
Y520700D01*
X303874D01*
Y516115D01*
X304383D01*
Y515096D01*
X304893D01*
Y513568D01*
X305402D01*
Y512549D01*
X304383D01*
Y513058D01*
X303364D01*
Y511530D01*
X302345D01*
Y510511D01*
X303874D01*
Y510002D01*
X303364D01*
Y509492D01*
X302855D01*
Y510002D01*
X300308D01*
Y510511D01*
X297251D01*
Y511021D01*
X296232D01*
Y511530D01*
X295723D01*
Y512039D01*
X295213D01*
Y512549D01*
X294704D01*
Y513058D01*
X294194D01*
Y513568D01*
X295213D01*
Y513058D01*
X296232D01*
Y512549D01*
X297251D01*
Y512039D01*
X298270D01*
Y513058D01*
X297760D01*
Y514587D01*
X297251D01*
Y517643D01*
X296741D01*
Y518153D01*
X298779D01*
Y518662D01*
X299289D01*
Y520700D01*
X298779D01*
Y521209D01*
X296741D01*
Y521719D01*
X296232D01*
Y522738D01*
X294704D01*
Y523247D01*
X293685D01*
Y522738D01*
X292666D01*
Y522228D01*
X292157D01*
Y521719D01*
X291647D01*
Y521209D01*
X291138D01*
Y520700D01*
X290119D01*
Y521719D01*
X289609D01*
Y522738D01*
X289100D01*
Y523247D01*
X288590D01*
Y524266D01*
X288081D01*
Y525285D01*
X287572D01*
Y525794D01*
X287062D01*
Y524266D01*
X287572D01*
Y521719D01*
X288081D01*
Y517643D01*
X288590D01*
Y502360D01*
X289100D01*
Y501341D01*
X289609D01*
Y500322D01*
X290119D01*
Y499813D01*
X290628D01*
Y498794D01*
X291138D01*
Y498285D01*
X291647D01*
Y497266D01*
X292157D01*
Y496756D01*
X292666D01*
Y496247D01*
X293175D01*
Y495228D01*
X292666D01*
Y495737D01*
X292157D01*
Y496247D01*
X291647D01*
Y496756D01*
X291138D01*
Y497266D01*
X290628D01*
Y497775D01*
X290119D01*
Y498794D01*
X289609D01*
Y499303D01*
X289100D01*
Y498794D01*
X288590D01*
Y497775D01*
X289100D01*
Y492171D01*
X289609D01*
Y490134D01*
X290119D01*
Y488605D01*
X290628D01*
Y487586D01*
X291138D01*
Y486058D01*
X291647D01*
Y484530D01*
X292157D01*
Y483511D01*
X292666D01*
Y482492D01*
X293175D01*
Y481473D01*
X293685D01*
Y480454D01*
X294194D01*
Y479945D01*
X294704D01*
Y480454D01*
X299798D01*
Y480964D01*
X301836D01*
Y481473D01*
X301326D01*
Y481982D01*
X300817D01*
Y482492D01*
X302345D01*
Y481982D01*
X302855D01*
Y481473D01*
X303364D01*
Y480964D01*
X304383D01*
Y480454D01*
X305911D01*
Y479945D01*
X310496D01*
Y479435D01*
X311515D01*
Y478926D01*
X313044D01*
Y478416D01*
X314572D01*
Y477907D01*
X315591D01*
Y477397D01*
X316610D01*
Y476888D01*
X318647D01*
Y476379D01*
X320685D01*
Y475869D01*
X326799D01*
Y474850D01*
X325780D01*
Y474341D01*
X324761D01*
Y473831D01*
X323232D01*
Y473322D01*
X321704D01*
Y472303D01*
X322214D01*
Y471794D01*
X322723D01*
Y470775D01*
X323232D01*
Y470265D01*
X323742D01*
Y469756D01*
X324251D01*
Y469246D01*
X324761D01*
Y468737D01*
X325270D01*
Y468228D01*
X325780D01*
Y467718D01*
X326289D01*
Y467209D01*
X326799D01*
Y466699D01*
X327308D01*
Y466190D01*
X327817D01*
Y465680D01*
X328327D01*
Y465171D01*
X328836D01*
Y464661D01*
X329346D01*
Y464152D01*
X329855D01*
Y463643D01*
X330365D01*
Y463133D01*
X330874D01*
Y462114D01*
X331893D01*
Y461605D01*
X332402D01*
Y460586D01*
X333421D01*
Y459567D01*
X334440D01*
Y459058D01*
X334950D01*
Y459567D01*
X336478D01*
Y460076D01*
X338006D01*
Y460586D01*
X339535D01*
Y461095D01*
X340553D01*
Y461605D01*
X342082D01*
Y462114D01*
X343101D01*
Y462624D01*
X343610D01*
Y464152D01*
X344119D01*
Y465171D01*
X344629D01*
Y466190D01*
X345138D01*
Y467718D01*
X345648D01*
Y468737D01*
X346157D01*
Y470265D01*
X346667D01*
Y471284D01*
X347176D01*
Y472303D01*
X347686D01*
Y473831D01*
X348195D01*
Y475360D01*
X348704D01*
Y476888D01*
X349214D01*
Y477907D01*
X349723D01*
Y479435D01*
X350233D01*
Y480454D01*
X350742D01*
Y481473D01*
X351252D01*
Y483001D01*
X351761D01*
Y484020D01*
X352271D01*
Y485549D01*
X352780D01*
Y486567D01*
X353289D01*
Y487586D01*
X353799D01*
Y488605D01*
X353289D01*
Y488096D01*
X352780D01*
Y487586D01*
X352271D01*
Y487077D01*
X351761D01*
Y486567D01*
X351252D01*
Y486058D01*
X350742D01*
Y485549D01*
X350233D01*
Y485039D01*
X349723D01*
Y484530D01*
X349214D01*
Y484020D01*
X348704D01*
Y483511D01*
X348195D01*
Y483001D01*
X347686D01*
Y482492D01*
X347176D01*
Y481982D01*
X346667D01*
Y481473D01*
X345648D01*
Y480964D01*
X345138D01*
Y480454D01*
X344629D01*
Y479945D01*
X344119D01*
Y479435D01*
X343101D01*
Y478926D01*
X342591D01*
Y478416D01*
X341572D01*
Y477907D01*
X340553D01*
Y477397D01*
X339535D01*
Y476888D01*
X339025D01*
Y476379D01*
X338006D01*
Y475869D01*
X336987D01*
Y475360D01*
X335969D01*
Y474850D01*
X334950D01*
Y474341D01*
X333931D01*
Y473831D01*
X332912D01*
Y473322D01*
X330874D01*
Y473831D01*
X331893D01*
Y474341D01*
X333421D01*
Y474850D01*
X334440D01*
Y475360D01*
X335459D01*
Y475869D01*
X335969D01*
Y476379D01*
X336987D01*
Y476888D01*
X338006D01*
Y477397D01*
X339025D01*
Y477907D01*
X339535D01*
Y478416D01*
X340044D01*
Y478926D01*
X341063D01*
Y479435D01*
X341572D01*
Y479945D01*
X342082D01*
Y480454D01*
X342591D01*
Y480964D01*
X343101D01*
Y481473D01*
X343610D01*
Y481982D01*
X344119D01*
Y482492D01*
X344629D01*
Y483001D01*
X345138D01*
Y483511D01*
X345648D01*
Y484020D01*
X346157D01*
Y484530D01*
X346667D01*
Y485039D01*
X347176D01*
Y486058D01*
X347686D01*
Y486567D01*
X348195D01*
Y487077D01*
X348704D01*
Y488096D01*
X349214D01*
Y488605D01*
X349723D01*
Y489624D01*
X350233D01*
Y490134D01*
X350742D01*
Y491152D01*
X351252D01*
Y492171D01*
X351761D01*
Y492681D01*
X352271D01*
Y493190D01*
X352780D01*
Y494209D01*
X353289D01*
Y495737D01*
X353799D01*
Y496247D01*
X354308D01*
Y497266D01*
X354818D01*
Y498285D01*
X355327D01*
Y499813D01*
X355837D01*
Y500832D01*
X356346D01*
Y501851D01*
X356856D01*
Y503379D01*
X357365D01*
Y504398D01*
X357874D01*
Y505926D01*
X358384D01*
Y507454D01*
X358893D01*
Y510002D01*
X359403D01*
Y512039D01*
X359912D01*
Y514077D01*
X360422D01*
Y516624D01*
X360931D01*
Y518662D01*
X361441D01*
Y520700D01*
X361950D01*
Y524266D01*
X362459D01*
Y528851D01*
X361441D01*
Y529361D01*
X356856D01*
Y529870D01*
X359403D01*
Y530379D01*
X361441D01*
Y530889D01*
X361950D01*
Y531398D01*
X352780D01*
Y531908D01*
X350742D01*
Y532417D01*
X351761D01*
Y532927D01*
X353289D01*
Y533436D01*
X353799D01*
Y533946D01*
X354818D01*
Y534455D01*
X355837D01*
Y534964D01*
X356346D01*
Y535474D01*
X355327D01*
Y534964D01*
X353799D01*
Y534455D01*
X352780D01*
Y533946D01*
X350233D01*
Y534455D01*
X351252D01*
Y534964D01*
X353289D01*
Y535474D01*
X354308D01*
Y535983D01*
X355327D01*
Y536493D01*
X353799D01*
Y535983D01*
X352271D01*
Y535474D01*
X349723D01*
Y534964D01*
X345138D01*
Y534455D01*
X342082D01*
Y534964D01*
X343101D01*
Y535474D01*
X344629D01*
Y535983D01*
X345648D01*
Y536493D01*
X346157D01*
Y537002D01*
X347176D01*
Y537512D01*
X348195D01*
Y538021D01*
X349214D01*
Y538530D01*
X347686D01*
Y538021D01*
X346157D01*
Y537512D01*
X344119D01*
Y537002D01*
X341063D01*
Y536493D01*
X339535D01*
Y535983D01*
X338006D01*
Y535474D01*
X335969D01*
Y534964D01*
X333931D01*
Y534455D01*
X332402D01*
Y533946D01*
X330874D01*
Y533436D01*
X328836D01*
Y533946D01*
X329855D01*
Y534455D01*
X330874D01*
Y534964D01*
X331893D01*
Y535474D01*
X332912D01*
Y535983D01*
X333931D01*
Y536493D01*
X334950D01*
Y537002D01*
X336478D01*
Y537512D01*
X337497D01*
Y538021D01*
X338516D01*
Y538530D01*
X339535D01*
Y539549D01*
X339025D01*
Y539040D01*
X337497D01*
Y538530D01*
X335969D01*
Y538021D01*
X333421D01*
Y537512D01*
X330874D01*
Y537002D01*
X329855D01*
Y536493D01*
X328836D01*
Y535983D01*
X327817D01*
Y535474D01*
X326799D01*
Y534964D01*
X326289D01*
Y535474D01*
X326799D01*
Y536493D01*
X326289D01*
Y535983D01*
X325270D01*
Y535474D01*
X324761D01*
Y534964D01*
X323742D01*
Y534455D01*
X322723D01*
Y534964D01*
X323232D01*
Y535474D01*
X323742D01*
Y535983D01*
X324761D01*
Y536493D01*
X325270D01*
Y537002D01*
X323232D01*
Y536493D01*
X322214D01*
Y535983D01*
X321704D01*
Y535474D01*
X320685D01*
Y534964D01*
X319666D01*
Y534455D01*
X319157D01*
Y533946D01*
X318647D01*
Y533436D01*
X317628D01*
Y532927D01*
X317119D01*
Y532417D01*
X316100D01*
Y532927D01*
X316610D01*
Y533436D01*
X317119D01*
Y533946D01*
X317628D01*
Y534455D01*
X318138D01*
Y534964D01*
X318647D01*
Y535474D01*
X319157D01*
Y535983D01*
X319666D01*
Y536493D01*
X320176D01*
Y537512D01*
X320685D01*
Y538021D01*
X321195D01*
Y539040D01*
X320685D01*
Y538530D01*
X320176D01*
Y538021D01*
X319666D01*
Y537512D01*
X319157D01*
Y537002D01*
X318647D01*
Y536493D01*
X318138D01*
Y535983D01*
X317119D01*
Y535474D01*
X316610D01*
Y534964D01*
X316100D01*
Y534455D01*
X315081D01*
Y533946D01*
X314572D01*
Y533436D01*
X314062D01*
Y532417D01*
X313553D01*
Y531908D01*
X312534D01*
Y532417D01*
X313044D01*
Y532927D01*
X313553D01*
Y533946D01*
X314062D01*
Y534455D01*
X314572D01*
Y534964D01*
X315081D01*
Y535983D01*
X315591D01*
Y536493D01*
X316100D01*
Y537002D01*
X316610D01*
Y538021D01*
X317119D01*
Y538530D01*
X317628D01*
Y539549D01*
X318138D01*
Y540059D01*
X318647D01*
Y541078D01*
X319157D01*
Y541587D01*
X319666D01*
Y542097D01*
X320176D01*
Y543115D01*
X320685D01*
Y543625D01*
X321195D01*
Y544644D01*
X321704D01*
Y545153D01*
X322214D01*
Y545663D01*
X322723D01*
Y546172D01*
X323232D01*
Y546682D01*
X323742D01*
Y547700D01*
X324251D01*
Y548210D01*
X324761D01*
Y548719D01*
X323742D01*
Y548210D01*
X323232D01*
Y547700D01*
X322723D01*
Y547191D01*
X322214D01*
Y546682D01*
X321704D01*
Y546172D01*
X321195D01*
Y545663D01*
X320176D01*
Y545153D01*
X319666D01*
Y544644D01*
X319157D01*
Y544134D01*
X318647D01*
Y543625D01*
X318138D01*
Y543115D01*
X317628D01*
Y542606D01*
X317119D01*
Y542097D01*
X316610D01*
Y541587D01*
X316100D01*
Y541078D01*
X315591D01*
Y540568D01*
X315081D01*
Y540059D01*
X314572D01*
Y539040D01*
X314062D01*
Y538530D01*
X313553D01*
Y538021D01*
X313044D01*
Y537002D01*
X312534D01*
Y536493D01*
X312025D01*
Y535474D01*
X311515D01*
Y534964D01*
X311006D01*
Y533946D01*
X310496D01*
Y533436D01*
X309987D01*
Y532927D01*
X309478D01*
Y533946D01*
X309987D01*
Y534964D01*
X310496D01*
Y536493D01*
X311006D01*
Y537512D01*
X311515D01*
Y538530D01*
X311006D01*
Y538021D01*
X310496D01*
Y537002D01*
X309987D01*
Y535983D01*
X309478D01*
Y534964D01*
X308968D01*
Y533946D01*
X308459D01*
Y532927D01*
X307440D01*
Y535474D01*
X306930D01*
Y540059D01*
X307440D01*
Y542097D01*
X306421D01*
Y535983D01*
X305402D01*
Y538021D01*
X304893D01*
Y540059D01*
X304383D01*
Y543115D01*
X303874D01*
Y545153D01*
X303364D01*
Y540568D01*
X302855D01*
Y538021D01*
X303364D01*
Y537512D01*
X302345D01*
Y539040D01*
X301836D01*
Y540059D01*
X301326D01*
Y542097D01*
X300817D01*
Y544134D01*
X300308D01*
Y545153D01*
X299798D01*
Y541078D01*
X299289D01*
Y544644D01*
X298779D01*
Y546172D01*
X298270D01*
Y549229D01*
X297760D01*
Y551776D01*
X297251D01*
Y551267D01*
X296741D01*
Y547700D01*
X296232D01*
Y546682D01*
X295723D01*
Y547700D01*
X295213D01*
Y549229D01*
X294704D01*
Y552285D01*
X294194D01*
Y554323D01*
D02*
G37*
G36*
X320176Y582852D02*
X314062D01*
Y582342D01*
X312025D01*
Y581833D01*
X310496D01*
Y581324D01*
X309478D01*
Y580814D01*
X308968D01*
Y580305D01*
X307949D01*
Y579795D01*
X307440D01*
Y579286D01*
X306930D01*
Y578776D01*
X305911D01*
Y578267D01*
X305402D01*
Y577757D01*
X304893D01*
Y577248D01*
X303874D01*
Y576739D01*
X303364D01*
Y576229D01*
X302345D01*
Y575720D01*
X301836D01*
Y575210D01*
X301326D01*
Y574701D01*
X300817D01*
Y574191D01*
X300308D01*
Y573682D01*
X299798D01*
Y573172D01*
X299289D01*
Y572663D01*
X298779D01*
Y572154D01*
X298270D01*
Y571644D01*
X297760D01*
Y571135D01*
X297251D01*
Y570625D01*
X296741D01*
Y570116D01*
X298270D01*
Y570625D01*
X301836D01*
Y571135D01*
X306930D01*
Y570625D01*
X310496D01*
Y570116D01*
X313553D01*
Y569606D01*
X316100D01*
Y569097D01*
X317628D01*
Y568587D01*
X319157D01*
Y568078D01*
X320685D01*
Y567569D01*
X322214D01*
Y567059D01*
X323232D01*
Y566550D01*
X324761D01*
Y566040D01*
X325780D01*
Y565531D01*
X327308D01*
Y565021D01*
X328327D01*
Y564512D01*
X329855D01*
Y564003D01*
X330874D01*
Y563493D01*
X331893D01*
Y562984D01*
X332912D01*
Y562474D01*
X334440D01*
Y561965D01*
X335459D01*
Y561455D01*
X336478D01*
Y560946D01*
X337497D01*
Y560436D01*
X338516D01*
Y559927D01*
X339535D01*
Y559418D01*
X340553D01*
Y558908D01*
X341063D01*
Y558399D01*
X342082D01*
Y557889D01*
X343101D01*
Y557380D01*
X344629D01*
Y556870D01*
X345138D01*
Y556361D01*
X346157D01*
Y555852D01*
X347176D01*
Y555342D01*
X347686D01*
Y554833D01*
X348704D01*
Y554323D01*
X349723D01*
Y553814D01*
X350233D01*
Y553304D01*
X351252D01*
Y552285D01*
X352271D01*
Y551776D01*
X352780D01*
Y551267D01*
X353799D01*
Y550757D01*
X354308D01*
Y550248D01*
X355327D01*
Y549738D01*
X355837D01*
Y549229D01*
X356346D01*
Y548719D01*
X357365D01*
Y548210D01*
X357874D01*
Y547700D01*
X358384D01*
Y547191D01*
X359403D01*
Y546172D01*
X360422D01*
Y545663D01*
X361441D01*
Y546172D01*
X360931D01*
Y549738D01*
X360422D01*
Y552285D01*
X359912D01*
Y553304D01*
X359403D01*
Y555342D01*
X358893D01*
Y556870D01*
X358384D01*
Y558399D01*
X357874D01*
Y559418D01*
X357365D01*
Y560946D01*
X356856D01*
Y561455D01*
X356346D01*
Y562984D01*
X355837D01*
Y564003D01*
X355327D01*
Y565021D01*
X354818D01*
Y565531D01*
X354308D01*
Y566040D01*
X353799D01*
Y566550D01*
X353289D01*
Y567059D01*
X352780D01*
Y567569D01*
X352271D01*
Y568078D01*
X351761D01*
Y568587D01*
X350742D01*
Y569097D01*
X350233D01*
Y569606D01*
X349723D01*
Y570116D01*
X349214D01*
Y570625D01*
X348195D01*
Y571135D01*
X347686D01*
Y571644D01*
X347176D01*
Y572154D01*
X346157D01*
Y572663D01*
X345138D01*
Y573172D01*
X344629D01*
Y573682D01*
X343610D01*
Y574191D01*
X343101D01*
Y574701D01*
X342082D01*
Y575210D01*
X341063D01*
Y575720D01*
X340553D01*
Y576229D01*
X339535D01*
Y576739D01*
X338516D01*
Y577248D01*
X337497D01*
Y577757D01*
X336478D01*
Y578267D01*
X335459D01*
Y578776D01*
X334440D01*
Y579286D01*
X332912D01*
Y579795D01*
X331384D01*
Y580305D01*
X329855D01*
Y580814D01*
X328327D01*
Y581324D01*
X326289D01*
Y581833D01*
X323742D01*
Y582342D01*
X320176D01*
Y582852D01*
D02*
G37*
G36*
X288590Y538530D02*
X288081D01*
Y536493D01*
X287572D01*
Y533946D01*
X287062D01*
Y529870D01*
X286553D01*
Y528342D01*
X287062D01*
Y527832D01*
X287572D01*
Y527323D01*
X288081D01*
Y526304D01*
X288590D01*
Y525794D01*
X289100D01*
Y525285D01*
X289609D01*
Y524776D01*
X290119D01*
Y524266D01*
X291138D01*
Y524776D01*
X292157D01*
Y525285D01*
X293175D01*
Y525794D01*
X294704D01*
Y526304D01*
X293175D01*
Y527323D01*
X295213D01*
Y526813D01*
X296232D01*
Y527323D01*
X295723D01*
Y527832D01*
X295213D01*
Y528851D01*
X294704D01*
Y529361D01*
X294194D01*
Y529870D01*
X293685D01*
Y530889D01*
X293175D01*
Y531908D01*
X292666D01*
Y532417D01*
X292157D01*
Y533436D01*
X291647D01*
Y533946D01*
X291138D01*
Y534964D01*
X290628D01*
Y535983D01*
X290119D01*
Y536493D01*
X289609D01*
Y537002D01*
X289100D01*
Y538021D01*
X288590D01*
Y538530D01*
D02*
G37*
G36*
X300817Y513568D02*
X300308D01*
Y513058D01*
X300817D01*
Y513568D01*
D02*
G37*
G36*
X309478Y477397D02*
X307949D01*
Y476379D01*
X308459D01*
Y475869D01*
X311006D01*
Y475360D01*
X312534D01*
Y476379D01*
X311515D01*
Y476888D01*
X309478D01*
Y477397D01*
D02*
G37*
G36*
X306930Y475869D02*
X306421D01*
Y475360D01*
X306930D01*
Y475869D01*
D02*
G37*
G36*
X315591Y473322D02*
X315081D01*
Y472812D01*
X315591D01*
Y473322D01*
D02*
G37*
G36*
X315081Y472812D02*
X314572D01*
Y472303D01*
X315081D01*
Y472812D01*
D02*
G37*
G36*
X308968Y474341D02*
X307949D01*
Y473322D01*
X308459D01*
Y472303D01*
X312534D01*
Y471794D01*
X313553D01*
Y472303D01*
X314062D01*
Y473322D01*
X313044D01*
Y472812D01*
X312025D01*
Y473831D01*
X311006D01*
Y473322D01*
X310496D01*
Y473831D01*
X308968D01*
Y474341D01*
D02*
G37*
G36*
X304383Y477397D02*
X302345D01*
Y476888D01*
X298270D01*
Y476379D01*
X296741D01*
Y474850D01*
X297251D01*
Y474341D01*
X297760D01*
Y473831D01*
X298270D01*
Y473322D01*
X298779D01*
Y472303D01*
X299289D01*
Y471794D01*
X299798D01*
Y470775D01*
X300308D01*
Y469756D01*
X299798D01*
Y470265D01*
Y470775D01*
X299289D01*
Y471284D01*
X298779D01*
Y471794D01*
X298270D01*
Y472812D01*
X296232D01*
Y472303D01*
X295723D01*
Y471794D01*
X295213D01*
Y471284D01*
X294194D01*
Y470265D01*
X293685D01*
Y469756D01*
X293175D01*
Y468737D01*
X292666D01*
Y468228D01*
X292157D01*
Y467209D01*
X293685D01*
Y467718D01*
X295213D01*
Y468228D01*
X297251D01*
Y468737D01*
X300308D01*
Y469756D01*
X300817D01*
Y468737D01*
X301326D01*
Y468228D01*
X301836D01*
Y467209D01*
X302345D01*
Y466190D01*
X302855D01*
Y465171D01*
X303364D01*
Y464661D01*
X303874D01*
Y463643D01*
X304383D01*
Y462624D01*
X304893D01*
Y462114D01*
X305402D01*
Y461095D01*
X305911D01*
Y460586D01*
X306421D01*
Y459567D01*
X306930D01*
Y458548D01*
X307440D01*
Y458039D01*
X307949D01*
Y457529D01*
X308459D01*
Y456510D01*
X309478D01*
Y456001D01*
X310496D01*
Y455491D01*
X318647D01*
Y456001D01*
X323232D01*
Y456510D01*
X325270D01*
Y457020D01*
X327308D01*
Y457529D01*
X329346D01*
Y459058D01*
X328836D01*
Y459567D01*
X328327D01*
Y460076D01*
X327817D01*
Y460586D01*
X327308D01*
Y461605D01*
X326799D01*
Y462114D01*
X326289D01*
Y462624D01*
X325780D01*
Y463133D01*
X325270D01*
Y463643D01*
X324761D01*
Y464152D01*
X324251D01*
Y464661D01*
X323742D01*
Y465680D01*
X323232D01*
Y466190D01*
X322723D01*
Y467209D01*
X322214D01*
Y467718D01*
X321704D01*
Y468228D01*
X321195D01*
Y468737D01*
X320685D01*
Y469246D01*
X320176D01*
Y469756D01*
X319666D01*
Y470265D01*
X319157D01*
Y470775D01*
X318647D01*
Y471284D01*
X314572D01*
Y470775D01*
X312534D01*
Y471284D01*
X308459D01*
Y471794D01*
X307440D01*
Y472303D01*
X306930D01*
Y472812D01*
X306421D01*
Y473322D01*
X305911D01*
Y474341D01*
X305402D01*
Y475869D01*
X304893D01*
Y476888D01*
X304383D01*
Y477397D01*
D02*
G37*
G36*
X123022Y462624D02*
X122512D01*
Y462114D01*
X123022D01*
Y462624D01*
D02*
G37*
G36*
X341572Y460586D02*
X341063D01*
Y460076D01*
X340553D01*
Y459567D01*
X339025D01*
Y459058D01*
X337497D01*
Y458548D01*
X335459D01*
Y458039D01*
X335969D01*
Y457529D01*
X336478D01*
Y457020D01*
X336987D01*
Y456510D01*
X337497D01*
Y456001D01*
X338006D01*
Y455491D01*
X338516D01*
Y454473D01*
X339025D01*
Y454982D01*
X339535D01*
Y455491D01*
X340044D01*
Y456510D01*
X340553D01*
Y457529D01*
X341063D01*
Y458548D01*
X341572D01*
Y460586D01*
D02*
G37*
G36*
X329855Y457020D02*
X329346D01*
Y456510D01*
X328327D01*
Y456001D01*
X325780D01*
Y455491D01*
X324251D01*
Y454982D01*
X321195D01*
Y454473D01*
X309987D01*
Y454982D01*
X309478D01*
Y454473D01*
X308968D01*
Y453454D01*
X308459D01*
Y452944D01*
X307949D01*
Y452435D01*
X307440D01*
Y451416D01*
X306421D01*
Y450397D01*
X305911D01*
Y449888D01*
X304893D01*
Y449378D01*
X303874D01*
Y448869D01*
X302855D01*
Y448359D01*
X302345D01*
Y447850D01*
X301836D01*
Y446831D01*
X301326D01*
Y445303D01*
X300817D01*
Y439699D01*
X301326D01*
Y438170D01*
X301836D01*
Y437661D01*
X302345D01*
Y437151D01*
X303364D01*
Y436642D01*
X304383D01*
Y436133D01*
X304893D01*
Y435623D01*
X305911D01*
Y435114D01*
X306930D01*
Y434604D01*
X307440D01*
Y434095D01*
X308459D01*
Y433585D01*
X309478D01*
Y433076D01*
X309987D01*
Y432566D01*
X311006D01*
Y432057D01*
X312025D01*
Y431548D01*
X313044D01*
Y431038D01*
X314062D01*
Y430529D01*
X315591D01*
Y430019D01*
X316610D01*
Y429510D01*
X318138D01*
Y429001D01*
X320176D01*
Y428491D01*
X321704D01*
Y427982D01*
X322723D01*
Y427472D01*
X324761D01*
Y426963D01*
X326289D01*
Y426453D01*
X327308D01*
Y425944D01*
X328327D01*
Y425434D01*
X329855D01*
Y424925D01*
X330874D01*
Y424416D01*
X331893D01*
Y423906D01*
X332402D01*
Y423397D01*
X330874D01*
Y423906D01*
X329855D01*
Y424416D01*
X328836D01*
Y424925D01*
X327817D01*
Y425434D01*
X326289D01*
Y425944D01*
X324761D01*
Y426453D01*
X322723D01*
Y426963D01*
X321195D01*
Y427472D01*
X319157D01*
Y427982D01*
X317628D01*
Y428491D01*
X316100D01*
Y429001D01*
X315081D01*
Y429510D01*
X313553D01*
Y430019D01*
X312534D01*
Y430529D01*
X311515D01*
Y431038D01*
X310496D01*
Y431548D01*
X309987D01*
Y432057D01*
X308968D01*
Y432566D01*
X307949D01*
Y433076D01*
X307440D01*
Y433585D01*
X306421D01*
Y434095D01*
X305402D01*
Y434604D01*
X304383D01*
Y435114D01*
X303874D01*
Y435623D01*
X302855D01*
Y436133D01*
X301836D01*
Y436642D01*
X300817D01*
Y437151D01*
X299798D01*
Y436642D01*
X300308D01*
Y433585D01*
X300817D01*
Y432057D01*
X301326D01*
Y430019D01*
X301836D01*
Y429001D01*
X302345D01*
Y426963D01*
X302855D01*
Y423906D01*
X303364D01*
Y422378D01*
X302855D01*
Y422887D01*
X302345D01*
Y425434D01*
X301836D01*
Y426453D01*
X301326D01*
Y427982D01*
X300817D01*
Y429510D01*
X300308D01*
Y431038D01*
X299798D01*
Y432566D01*
X299289D01*
Y434095D01*
X298779D01*
Y432057D01*
X299289D01*
Y430019D01*
X299798D01*
Y426963D01*
X300308D01*
Y426453D01*
X299289D01*
Y427472D01*
X298779D01*
Y429001D01*
X298270D01*
Y431548D01*
X297760D01*
Y437661D01*
X298270D01*
Y438170D01*
Y440718D01*
X298779D01*
Y443265D01*
X298270D01*
Y442246D01*
X297760D01*
Y440718D01*
X297251D01*
Y436642D01*
X296741D01*
Y433076D01*
X297251D01*
Y427472D01*
X297760D01*
Y422887D01*
X298270D01*
Y421359D01*
X298779D01*
Y419321D01*
X298270D01*
Y420340D01*
X297760D01*
Y421868D01*
X297251D01*
Y423397D01*
X296741D01*
Y425434D01*
X296232D01*
Y427472D01*
X295723D01*
Y430019D01*
X295213D01*
Y441736D01*
X295723D01*
Y443265D01*
X296232D01*
Y443774D01*
X296741D01*
Y444793D01*
X297251D01*
Y445812D01*
X297760D01*
Y446831D01*
X298270D01*
Y447850D01*
X298779D01*
Y448359D01*
X299289D01*
Y449378D01*
X299798D01*
Y452435D01*
X298270D01*
Y451925D01*
X297251D01*
Y451416D01*
X296741D01*
Y450906D01*
X296232D01*
Y450397D01*
X295723D01*
Y449888D01*
X295213D01*
Y448359D01*
X294704D01*
Y447340D01*
X294194D01*
Y445812D01*
X293685D01*
Y443265D01*
X293175D01*
Y446321D01*
X292666D01*
Y448359D01*
X292157D01*
Y448869D01*
X291647D01*
Y449378D01*
X291138D01*
Y449888D01*
X290628D01*
Y450397D01*
X290119D01*
Y451416D01*
X289609D01*
Y451925D01*
X289100D01*
Y452435D01*
X288590D01*
Y453454D01*
X288081D01*
Y454473D01*
X287572D01*
Y454982D01*
X287062D01*
Y456510D01*
X286553D01*
Y457020D01*
X286043D01*
Y456510D01*
X285534D01*
Y455491D01*
X285024D01*
Y453963D01*
X284515D01*
Y452944D01*
X284005D01*
Y452435D01*
X283496D01*
Y450397D01*
X282987D01*
Y449378D01*
X282477D01*
Y448359D01*
X281968D01*
Y446831D01*
X281458D01*
Y445303D01*
X280949D01*
Y443774D01*
X280439D01*
Y441227D01*
X279930D01*
Y440718D01*
X278911D01*
Y439189D01*
X278402D01*
Y438680D01*
X277892D01*
Y440208D01*
X277383D01*
Y441227D01*
X276873D01*
Y442755D01*
X276364D01*
Y444284D01*
X275854D01*
Y445812D01*
X275345D01*
Y447850D01*
X274835D01*
Y449378D01*
X274326D01*
Y449888D01*
X273307D01*
Y449378D01*
X272798D01*
Y448869D01*
X272288D01*
Y448359D01*
X271779D01*
Y447850D01*
X271269D01*
Y447340D01*
X270760D01*
Y446831D01*
X269741D01*
Y446321D01*
X269232D01*
Y445812D01*
X268722D01*
Y445303D01*
X268213D01*
Y444793D01*
X267703D01*
Y444284D01*
X266684D01*
Y443774D01*
X266175D01*
Y443265D01*
X265665D01*
Y442755D01*
X265156D01*
Y442246D01*
X264137D01*
Y441736D01*
X263118D01*
Y441227D01*
X262609D01*
Y440718D01*
X263118D01*
Y440208D01*
X263628D01*
Y439699D01*
X264137D01*
Y439189D01*
X264647D01*
Y438680D01*
X265156D01*
Y438170D01*
X265665D01*
Y437661D01*
X266175D01*
Y437151D01*
X266684D01*
Y436642D01*
X267194D01*
Y436133D01*
X267703D01*
Y435623D01*
X268213D01*
Y435114D01*
X268722D01*
Y434604D01*
X269741D01*
Y434095D01*
X270250D01*
Y433585D01*
X270760D01*
Y433076D01*
X271269D01*
Y432566D01*
X271779D01*
Y432057D01*
X272288D01*
Y431548D01*
X272798D01*
Y431038D01*
X273817D01*
Y430529D01*
X274326D01*
Y430019D01*
X274835D01*
Y429510D01*
X275345D01*
Y429001D01*
X275854D01*
Y428491D01*
X276364D01*
Y427982D01*
X277383D01*
Y427472D01*
X277892D01*
Y426963D01*
X278402D01*
Y426453D01*
X278911D01*
Y425944D01*
X279420D01*
Y425434D01*
X279930D01*
Y424925D01*
X280439D01*
Y424416D01*
X280949D01*
Y423906D01*
X281968D01*
Y423397D01*
X282477D01*
Y422887D01*
X282987D01*
Y422378D01*
X284005D01*
Y421868D01*
X284515D01*
Y421359D01*
X285534D01*
Y420849D01*
X286043D01*
Y420340D01*
X287062D01*
Y419831D01*
X287572D01*
Y419321D01*
X288081D01*
Y418812D01*
X289100D01*
Y418302D01*
X289609D01*
Y417793D01*
X290628D01*
Y417283D01*
X291138D01*
Y416774D01*
X292157D01*
Y416264D01*
X292666D01*
Y415755D01*
X293685D01*
Y415246D01*
X294704D01*
Y414736D01*
X295723D01*
Y414227D01*
X296741D01*
Y413717D01*
X297251D01*
Y413208D01*
X298779D01*
Y412698D01*
X299798D01*
Y412189D01*
X300817D01*
Y411679D01*
X302345D01*
Y411170D01*
X302855D01*
Y410151D01*
X302345D01*
Y409642D01*
X300817D01*
Y410151D01*
X299798D01*
Y410661D01*
X298779D01*
Y411170D01*
X297251D01*
Y411679D01*
X296232D01*
Y412189D01*
X294704D01*
Y412698D01*
X293685D01*
Y413208D01*
X292157D01*
Y413717D01*
X290628D01*
Y414227D01*
X289100D01*
Y414736D01*
X288081D01*
Y415246D01*
X286043D01*
Y415755D01*
X284005D01*
Y416264D01*
X282477D01*
Y416774D01*
X280439D01*
Y417283D01*
X278911D01*
Y417793D01*
X278402D01*
Y417283D01*
X277892D01*
Y414736D01*
X277383D01*
Y415246D01*
X276873D01*
Y418302D01*
X275854D01*
Y418812D01*
X275345D01*
Y417793D01*
X274835D01*
Y413717D01*
X275345D01*
Y412698D01*
X274326D01*
Y414227D01*
X273817D01*
Y415246D01*
X273307D01*
Y415755D01*
X272798D01*
Y416264D01*
X273307D01*
Y415755D01*
X274326D01*
Y417283D01*
X273817D01*
Y425434D01*
X273307D01*
Y429510D01*
X272798D01*
Y430019D01*
X272288D01*
Y430529D01*
X271779D01*
Y431038D01*
X271269D01*
Y431548D01*
X270760D01*
Y432057D01*
X270250D01*
Y432566D01*
X269232D01*
Y433076D01*
X268722D01*
Y433585D01*
X268213D01*
Y434095D01*
X267703D01*
Y434604D01*
X267194D01*
Y435623D01*
X266684D01*
Y436133D01*
X266175D01*
Y436642D01*
X265665D01*
Y437151D01*
X265156D01*
Y437661D01*
X264647D01*
Y438170D01*
X264137D01*
Y438680D01*
X263628D01*
Y439189D01*
X263118D01*
Y439699D01*
X262609D01*
Y440208D01*
X262099D01*
Y440718D01*
X261590D01*
Y441227D01*
X262099D01*
Y441736D01*
X262609D01*
Y442246D01*
X263118D01*
Y442755D01*
X264137D01*
Y443265D01*
X264647D01*
Y443774D01*
X265156D01*
Y444284D01*
X266175D01*
Y444793D01*
X266684D01*
Y445303D01*
X267194D01*
Y445812D01*
X267703D01*
Y446321D01*
X268213D01*
Y446831D01*
X269232D01*
Y447340D01*
X269741D01*
Y447850D01*
X270250D01*
Y448869D01*
X269741D01*
Y450906D01*
X268213D01*
Y450397D01*
X266684D01*
Y450906D01*
X265156D01*
Y451416D01*
X263628D01*
Y451925D01*
X261590D01*
Y452435D01*
X260571D01*
Y452944D01*
X257514D01*
Y453454D01*
X254458D01*
Y453963D01*
X252420D01*
Y454473D01*
X250382D01*
Y454982D01*
X247835D01*
Y452435D01*
X248344D01*
Y449888D01*
X248854D01*
Y447340D01*
X249363D01*
Y446321D01*
X249873D01*
Y445303D01*
X250382D01*
Y443774D01*
X250892D01*
Y443265D01*
X251401D01*
Y442246D01*
X251911D01*
Y441227D01*
X252420D01*
Y440208D01*
X252929D01*
Y439189D01*
X253439D01*
Y438170D01*
X253948D01*
Y437661D01*
X254458D01*
Y436642D01*
X254967D01*
Y436133D01*
X255477D01*
Y435114D01*
X256495D01*
Y434604D01*
X257514D01*
Y434095D01*
X259043D01*
Y433585D01*
X260062D01*
Y433076D01*
X261590D01*
Y432566D01*
X263118D01*
Y432057D01*
X264137D01*
Y431548D01*
X264647D01*
Y431038D01*
X265156D01*
Y430529D01*
X265665D01*
Y429510D01*
X266175D01*
Y429001D01*
X266684D01*
Y427982D01*
X267194D01*
Y426963D01*
X267703D01*
Y425944D01*
X268213D01*
Y424925D01*
X268722D01*
Y424416D01*
X269232D01*
Y423397D01*
X269741D01*
Y422887D01*
X270250D01*
Y420849D01*
X270760D01*
Y419831D01*
X271269D01*
Y418812D01*
X271779D01*
Y418302D01*
X272288D01*
Y417283D01*
X272798D01*
Y416264D01*
X272288D01*
Y416774D01*
X271779D01*
Y417283D01*
X271269D01*
Y418302D01*
X270760D01*
Y418812D01*
X270250D01*
Y419831D01*
X269741D01*
Y420849D01*
X269232D01*
Y421868D01*
X268213D01*
Y422378D01*
X267703D01*
Y422887D01*
X267194D01*
Y423397D01*
X266175D01*
Y423906D01*
X265665D01*
Y424416D01*
X265156D01*
Y424925D01*
X264137D01*
Y425434D01*
X263628D01*
Y425944D01*
X263118D01*
Y426453D01*
X262609D01*
Y426963D01*
X262099D01*
Y427472D01*
X261080D01*
Y427982D01*
X260571D01*
Y428491D01*
X260062D01*
Y429001D01*
X259043D01*
Y429510D01*
X258533D01*
Y430019D01*
X258024D01*
Y430529D01*
X257514D01*
Y431038D01*
X256495D01*
Y431548D01*
X255986D01*
Y432057D01*
X255477D01*
Y432566D01*
X254458D01*
Y433076D01*
X253948D01*
Y433585D01*
X253439D01*
Y434095D01*
X252929D01*
Y434604D01*
X252420D01*
Y435114D01*
X251911D01*
Y435623D01*
X251401D01*
Y436133D01*
X250382D01*
Y436642D01*
X249363D01*
Y437151D01*
X248344D01*
Y437661D01*
X247326D01*
Y438170D01*
X246816D01*
Y438680D01*
X245288D01*
Y439189D01*
X243759D01*
Y439699D01*
X242231D01*
Y440208D01*
X241212D01*
Y440718D01*
X239684D01*
Y441227D01*
X237646D01*
Y441736D01*
X228476D01*
Y441227D01*
X225929D01*
Y440718D01*
X223382D01*
Y440208D01*
X219816D01*
Y439699D01*
X217778D01*
Y439189D01*
X215231D01*
Y438680D01*
X212174D01*
Y438170D01*
X207589D01*
Y437661D01*
X205042D01*
Y437151D01*
X199947D01*
Y436642D01*
X190268D01*
Y437151D01*
X185683D01*
Y437661D01*
X181608D01*
Y438170D01*
X176004D01*
Y438680D01*
X172947D01*
Y439189D01*
X167853D01*
Y439699D01*
X164796D01*
Y440208D01*
X161230D01*
Y440718D01*
X157664D01*
Y441227D01*
X153079D01*
Y441736D01*
X149513D01*
Y442246D01*
X145437D01*
Y442755D01*
X141362D01*
Y443265D01*
X137796D01*
Y443774D01*
X133211D01*
Y444284D01*
X128116D01*
Y443774D01*
X127607D01*
Y443265D01*
X127097D01*
Y442755D01*
X126078D01*
Y442246D01*
X125569D01*
Y441736D01*
X125059D01*
Y441227D01*
X124550D01*
Y440718D01*
X124041D01*
Y440208D01*
X123531D01*
Y439699D01*
X123022D01*
Y439189D01*
X122512D01*
Y438680D01*
X122003D01*
Y438170D01*
X121494D01*
Y437661D01*
X120984D01*
Y437151D01*
X120475D01*
Y436133D01*
X119965D01*
Y435623D01*
X119456D01*
Y434604D01*
X118946D01*
Y433585D01*
X118437D01*
Y432566D01*
X117927D01*
Y431548D01*
X117418D01*
Y430529D01*
X116909D01*
Y429510D01*
X116399D01*
Y428491D01*
X115890D01*
Y426963D01*
X115380D01*
Y425944D01*
X114871D01*
Y425434D01*
X114361D01*
Y424925D01*
X113852D01*
Y423397D01*
X113342D01*
Y422887D01*
X112833D01*
Y421359D01*
X112324D01*
Y419831D01*
X111814D01*
Y418812D01*
X111305D01*
Y418302D01*
X110795D01*
Y417283D01*
X110286D01*
Y415755D01*
X109776D01*
Y414736D01*
X109267D01*
Y414227D01*
X108757D01*
Y413208D01*
X108248D01*
Y412189D01*
X107739D01*
Y410151D01*
X108248D01*
Y409642D01*
X108757D01*
Y409132D01*
X109776D01*
Y408623D01*
X110795D01*
Y407604D01*
X111814D01*
Y407094D01*
X112833D01*
Y406585D01*
X113342D01*
Y406076D01*
X114361D01*
Y405566D01*
X114871D01*
Y405057D01*
X116399D01*
Y404547D01*
X116909D01*
Y404038D01*
X117927D01*
Y403528D01*
X119456D01*
Y403019D01*
X122003D01*
Y402509D01*
X135248D01*
Y403019D01*
X137286D01*
Y403528D01*
X139324D01*
Y404038D01*
X141362D01*
Y404547D01*
X144418D01*
Y405057D01*
X146456D01*
Y405566D01*
X148494D01*
Y406076D01*
X150022D01*
Y406585D01*
X151551D01*
Y407094D01*
X153588D01*
Y407604D01*
X155626D01*
Y408113D01*
X158683D01*
Y408623D01*
X161230D01*
Y409132D01*
X163777D01*
Y409642D01*
X167853D01*
Y410151D01*
X171928D01*
Y410661D01*
X174985D01*
Y411170D01*
X179060D01*
Y411679D01*
X178551D01*
Y412189D01*
X180079D01*
Y411679D01*
X180589D01*
Y411170D01*
X184155D01*
Y410661D01*
X185683D01*
Y411170D01*
X187721D01*
Y411679D01*
X189249D01*
Y412189D01*
X190268D01*
Y411679D01*
X192306D01*
Y411170D01*
X191287D01*
Y410661D01*
X192306D01*
Y410151D01*
X193834D01*
Y409642D01*
X195362D01*
Y409132D01*
X196381D01*
Y408623D01*
X196891D01*
Y408113D01*
X197400D01*
Y407604D01*
X198419D01*
Y407094D01*
X199438D01*
Y406585D01*
X199947D01*
Y406076D01*
X200457D01*
Y405566D01*
X201476D01*
Y405057D01*
X202495D01*
Y404547D01*
X203004D01*
Y404038D01*
X203514D01*
Y403019D01*
X204023D01*
Y402509D01*
X206570D01*
Y402000D01*
X209117D01*
Y401491D01*
X210646D01*
Y400981D01*
X211665D01*
Y400472D01*
X213193D01*
Y399962D01*
X213702D01*
Y399453D01*
X215231D01*
Y398943D01*
X217269D01*
Y398434D01*
X219306D01*
Y397924D01*
X220835D01*
Y397415D01*
X221344D01*
Y396906D01*
X222363D01*
Y396396D01*
X223891D01*
Y395887D01*
X225420D01*
Y395377D01*
X227967D01*
Y394868D01*
X228986D01*
Y394358D01*
X229495D01*
Y393849D01*
X230514D01*
Y393340D01*
X234590D01*
Y392830D01*
X237137D01*
Y392321D01*
X242231D01*
Y391811D01*
X246816D01*
Y391302D01*
X249363D01*
Y391811D01*
X249873D01*
Y392830D01*
X250382D01*
Y393849D01*
X250892D01*
Y394868D01*
X251401D01*
Y396906D01*
X249363D01*
Y397415D01*
X248344D01*
Y397924D01*
X246307D01*
Y398434D01*
X244778D01*
Y398943D01*
X243759D01*
Y399453D01*
X241722D01*
Y399962D01*
X239684D01*
Y400472D01*
X238156D01*
Y400981D01*
X237137D01*
Y401491D01*
X235608D01*
Y402000D01*
X235099D01*
Y402509D01*
X237137D01*
Y402000D01*
X238665D01*
Y401491D01*
X240703D01*
Y400981D01*
X243250D01*
Y400472D01*
X245288D01*
Y399962D01*
X245797D01*
Y399453D01*
X246816D01*
Y398943D01*
X247835D01*
Y398434D01*
X250382D01*
Y397924D01*
X252929D01*
Y397415D01*
X253439D01*
Y396906D01*
X254967D01*
Y396396D01*
X255986D01*
Y395887D01*
X257005D01*
Y395377D01*
X258533D01*
Y394868D01*
X259552D01*
Y394358D01*
X262609D01*
Y394868D01*
X263628D01*
Y395377D01*
X264137D01*
Y395887D01*
X264647D01*
Y396396D01*
X265156D01*
Y396906D01*
X265665D01*
Y397415D01*
X265156D01*
Y397924D01*
X264647D01*
Y398434D01*
X263628D01*
Y398943D01*
X263118D01*
Y399453D01*
X262099D01*
Y399962D01*
X261590D01*
Y400472D01*
X260571D01*
Y400981D01*
X259552D01*
Y401491D01*
X259043D01*
Y402000D01*
X258024D01*
Y402509D01*
X257514D01*
Y403019D01*
X256495D01*
Y403528D01*
X255986D01*
Y404038D01*
X254458D01*
Y404547D01*
X253439D01*
Y405057D01*
X252420D01*
Y405566D01*
X251401D01*
Y406076D01*
X250382D01*
Y406585D01*
X249363D01*
Y407094D01*
X248854D01*
Y407604D01*
X248344D01*
Y408113D01*
X247326D01*
Y408623D01*
X246307D01*
Y409132D01*
X245288D01*
Y409642D01*
X244269D01*
Y410151D01*
X243250D01*
Y410661D01*
X242231D01*
Y411170D01*
X241722D01*
Y411679D01*
X240703D01*
Y412189D01*
X239684D01*
Y412698D01*
X239174D01*
Y413208D01*
X238156D01*
Y413717D01*
X237137D01*
Y414227D01*
X236627D01*
Y414736D01*
X238156D01*
Y414227D01*
X239174D01*
Y413717D01*
X240193D01*
Y413208D01*
X241212D01*
Y412698D01*
X242231D01*
Y412189D01*
X242741D01*
Y411679D01*
X243759D01*
Y411170D01*
X244778D01*
Y410661D01*
X245288D01*
Y410151D01*
X246307D01*
Y409642D01*
X247326D01*
Y409132D01*
X248344D01*
Y408623D01*
X249363D01*
Y408113D01*
X250382D01*
Y407604D01*
X251401D01*
Y407094D01*
X252420D01*
Y406585D01*
X253439D01*
Y406076D01*
X254458D01*
Y405566D01*
X254967D01*
Y405057D01*
X256495D01*
Y404547D01*
X257514D01*
Y404038D01*
X258533D01*
Y403528D01*
X259043D01*
Y403019D01*
X260062D01*
Y402509D01*
X260571D01*
Y402000D01*
X261590D01*
Y401491D01*
X262609D01*
Y400981D01*
X263118D01*
Y400472D01*
X264137D01*
Y399962D01*
X265156D01*
Y399453D01*
X265665D01*
Y398943D01*
X266684D01*
Y398434D01*
X267194D01*
Y397924D01*
X268213D01*
Y397415D01*
X268722D01*
Y396906D01*
X269232D01*
Y396396D01*
X270250D01*
Y395887D01*
X270760D01*
Y395377D01*
X271269D01*
Y394868D01*
X272288D01*
Y395887D01*
X273307D01*
Y395377D01*
X273817D01*
Y394358D01*
X274326D01*
Y393849D01*
X274835D01*
Y393340D01*
X275854D01*
Y392830D01*
X276364D01*
Y392321D01*
X277383D01*
Y391811D01*
X278911D01*
Y391302D01*
X280949D01*
Y391811D01*
X281968D01*
Y393849D01*
X281458D01*
Y394358D01*
X280949D01*
Y394868D01*
X280439D01*
Y395377D01*
X279930D01*
Y395887D01*
X279420D01*
Y396396D01*
X278402D01*
Y396906D01*
X276873D01*
Y397415D01*
X274326D01*
Y398434D01*
X276873D01*
Y399453D01*
X276364D01*
Y400472D01*
X275854D01*
Y402000D01*
X275345D01*
Y403528D01*
X276364D01*
Y400981D01*
X276873D01*
Y399962D01*
X277383D01*
Y399453D01*
X277892D01*
Y398943D01*
X278402D01*
Y398434D01*
X278911D01*
Y397924D01*
X279930D01*
Y397415D01*
X280439D01*
Y396906D01*
X282987D01*
Y397415D01*
X283496D01*
Y399962D01*
X282987D01*
Y400981D01*
X282477D01*
Y401491D01*
X281968D01*
Y402000D01*
X281458D01*
Y402509D01*
X280949D01*
Y403019D01*
X280439D01*
Y403528D01*
X279930D01*
Y404038D01*
X278911D01*
Y404547D01*
X277892D01*
Y405057D01*
X279420D01*
Y406585D01*
X278911D01*
Y407094D01*
X278402D01*
Y407604D01*
X277892D01*
Y408623D01*
X277383D01*
Y409642D01*
X276873D01*
Y410151D01*
X276364D01*
Y411170D01*
X275854D01*
Y411679D01*
X275345D01*
Y412189D01*
Y412698D01*
X275854D01*
Y411679D01*
X276364D01*
Y411170D01*
X276873D01*
Y412189D01*
Y412698D01*
Y413208D01*
X277892D01*
Y408623D01*
X278402D01*
Y408113D01*
X278911D01*
Y407604D01*
X279420D01*
Y407094D01*
Y406585D01*
X279930D01*
Y406076D01*
X280439D01*
Y405566D01*
X280949D01*
Y405057D01*
X281458D01*
Y404038D01*
X281968D01*
Y403528D01*
X282477D01*
Y403019D01*
X282987D01*
Y402000D01*
X283496D01*
Y400981D01*
X284005D01*
Y399453D01*
X284515D01*
Y398434D01*
X286043D01*
Y398943D01*
X288081D01*
Y399453D01*
X289609D01*
Y399962D01*
X291138D01*
Y400472D01*
X292666D01*
Y400981D01*
X294194D01*
Y401491D01*
X296232D01*
Y402000D01*
X297251D01*
Y402509D01*
X298779D01*
Y403019D01*
X299798D01*
Y403528D01*
X301326D01*
Y404038D01*
X302345D01*
Y404547D01*
X303874D01*
Y405057D01*
X304893D01*
Y405566D01*
X305402D01*
Y406076D01*
X304893D01*
Y406585D01*
X304383D01*
Y407604D01*
X305402D01*
Y407094D01*
X305911D01*
Y406585D01*
X306421D01*
Y406076D01*
X306930D01*
Y406585D01*
X307949D01*
Y407094D01*
X307440D01*
Y407604D01*
X306930D01*
Y408113D01*
X306421D01*
Y408623D01*
X305911D01*
Y409642D01*
X306421D01*
Y409132D01*
X306930D01*
Y408623D01*
X307440D01*
Y408113D01*
X307949D01*
Y407094D01*
X309478D01*
Y407604D01*
X309987D01*
Y408113D01*
X311006D01*
Y408623D01*
X312025D01*
Y409132D01*
X313044D01*
Y409642D01*
X313553D01*
Y410151D01*
X314572D01*
Y410661D01*
X315591D01*
Y411170D01*
X317628D01*
Y410661D01*
X320176D01*
Y411170D01*
X324251D01*
Y411679D01*
X325270D01*
Y414227D01*
X325780D01*
Y415246D01*
X326289D01*
Y415755D01*
X326799D01*
Y416264D01*
X327308D01*
Y416774D01*
X328327D01*
Y417283D01*
X328836D01*
Y417793D01*
X329855D01*
Y418302D01*
X330874D01*
Y418812D01*
X331893D01*
Y419321D01*
X332402D01*
Y419831D01*
X333421D01*
Y420340D01*
X333931D01*
Y420849D01*
X334950D01*
Y421359D01*
X335969D01*
Y421868D01*
X336478D01*
Y422378D01*
X336987D01*
Y422887D01*
X337497D01*
Y423397D01*
X338006D01*
Y423906D01*
X339025D01*
Y424416D01*
X339535D01*
Y424925D01*
X340044D01*
Y425434D01*
X340553D01*
Y425944D01*
X341063D01*
Y426453D01*
X341572D01*
Y426963D01*
X342082D01*
Y427472D01*
X342591D01*
Y427982D01*
X343101D01*
Y428491D01*
X343610D01*
Y429001D01*
X344119D01*
Y429510D01*
X344629D01*
Y430019D01*
X345138D01*
Y430529D01*
X345648D01*
Y431038D01*
X346157D01*
Y431548D01*
X346667D01*
Y432057D01*
X347686D01*
Y432566D01*
X348195D01*
Y433076D01*
X349214D01*
Y434604D01*
X348704D01*
Y435114D01*
X348195D01*
Y435623D01*
X347686D01*
Y436133D01*
X347176D01*
Y437151D01*
X346667D01*
Y437661D01*
X346157D01*
Y438170D01*
X345138D01*
Y438680D01*
X344629D01*
Y439189D01*
X344119D01*
Y439699D01*
X343610D01*
Y440208D01*
X343101D01*
Y439699D01*
X342082D01*
Y439189D01*
X341063D01*
Y438680D01*
X340044D01*
Y438170D01*
X339535D01*
Y437661D01*
X338006D01*
Y437151D01*
X337497D01*
Y436642D01*
X336478D01*
Y436133D01*
X335459D01*
Y435623D01*
X334440D01*
Y435114D01*
X333421D01*
Y434604D01*
X332402D01*
Y434095D01*
X331384D01*
Y433585D01*
X330365D01*
Y433076D01*
X329855D01*
Y432566D01*
X328836D01*
Y432057D01*
X327817D01*
Y431548D01*
X327308D01*
Y431038D01*
X326799D01*
Y430529D01*
X325780D01*
Y431548D01*
X326289D01*
Y432057D01*
X326799D01*
Y432566D01*
X327308D01*
Y433585D01*
X326799D01*
Y433076D01*
X326289D01*
Y432566D01*
X325780D01*
Y432057D01*
X325270D01*
Y431038D01*
X324251D01*
Y430529D01*
X323742D01*
Y430019D01*
X322723D01*
Y431038D01*
X323232D01*
Y431548D01*
X324251D01*
Y432566D01*
X325270D01*
Y433585D01*
X325780D01*
Y434095D01*
X326289D01*
Y434604D01*
X326799D01*
Y435114D01*
X327308D01*
Y436133D01*
X327817D01*
Y436642D01*
X328327D01*
Y437151D01*
X328836D01*
Y438170D01*
X329346D01*
Y438680D01*
X329855D01*
Y439189D01*
X330365D01*
Y440208D01*
X330874D01*
Y440718D01*
X331384D01*
Y441227D01*
X331893D01*
Y442246D01*
X332402D01*
Y443265D01*
X332912D01*
Y443774D01*
X333421D01*
Y444793D01*
X333931D01*
Y445812D01*
X334440D01*
Y446321D01*
X334950D01*
Y447340D01*
X335459D01*
Y448359D01*
X335969D01*
Y449378D01*
X336478D01*
Y449888D01*
X335969D01*
Y450397D01*
X335459D01*
Y450906D01*
X334950D01*
Y451416D01*
X334440D01*
Y452435D01*
X333931D01*
Y452944D01*
X333421D01*
Y453454D01*
X332912D01*
Y453963D01*
X332402D01*
Y454982D01*
X331893D01*
Y455491D01*
X331384D01*
Y456001D01*
X330874D01*
Y456510D01*
X329855D01*
Y457020D01*
D02*
G37*
G36*
X176513Y453454D02*
X176004D01*
Y452944D01*
X176513D01*
Y453454D01*
D02*
G37*
G36*
X152060D02*
X151551D01*
Y452944D01*
X152060D01*
Y453454D01*
D02*
G37*
G36*
X359912Y451925D02*
X359403D01*
Y451416D01*
Y450906D01*
X358893D01*
Y450397D01*
X359403D01*
X359912Y450906D01*
Y451925D01*
D02*
G37*
G36*
X271779Y450397D02*
X270250D01*
Y449378D01*
X271779D01*
Y450397D01*
D02*
G37*
G36*
X245288Y455491D02*
X238156D01*
Y454982D01*
X236118D01*
Y454473D01*
X233571D01*
Y453963D01*
X231533D01*
Y453454D01*
X228476D01*
Y452944D01*
X225420D01*
Y452435D01*
X223382D01*
Y451925D01*
X220835D01*
Y451416D01*
X219306D01*
Y450906D01*
X216250D01*
Y450397D01*
X214212D01*
Y449888D01*
X212174D01*
Y449378D01*
X209117D01*
Y448869D01*
X203514D01*
Y448359D01*
X191796D01*
Y447850D01*
X192306D01*
Y447340D01*
X192815D01*
Y446831D01*
X193325D01*
Y446321D01*
X193834D01*
Y445812D01*
X194853D01*
Y444793D01*
X195362D01*
Y444284D01*
X195872D01*
Y443774D01*
X196381D01*
Y443265D01*
X197400D01*
Y442755D01*
X197910D01*
Y442246D01*
X198419D01*
Y441736D01*
X198929D01*
Y440718D01*
X199438D01*
Y440208D01*
X199947D01*
Y439699D01*
X200457D01*
Y438680D01*
X201476D01*
Y438170D01*
X201985D01*
Y438680D01*
X202495D01*
Y439189D01*
X204533D01*
Y439699D01*
X206570D01*
Y440208D01*
X208099D01*
Y440718D01*
X210136D01*
Y441227D01*
X213702D01*
Y441736D01*
X216250D01*
Y442246D01*
X218797D01*
Y442755D01*
X220835D01*
Y443265D01*
X222363D01*
Y443774D01*
X237646D01*
Y443265D01*
X242741D01*
Y442755D01*
X244778D01*
Y442246D01*
X245797D01*
Y441736D01*
X246816D01*
Y441227D01*
X247326D01*
Y440718D01*
X248344D01*
Y439699D01*
X249363D01*
Y439189D01*
X249873D01*
Y438680D01*
X250382D01*
Y438170D01*
X250892D01*
Y438680D01*
X250382D01*
Y439699D01*
X249873D01*
Y441227D01*
X249363D01*
Y442755D01*
X248854D01*
Y443774D01*
X248344D01*
Y444793D01*
X247835D01*
Y446321D01*
X247326D01*
Y447850D01*
X246816D01*
Y449378D01*
X246307D01*
Y451416D01*
X245797D01*
Y453963D01*
X245288D01*
Y455491D01*
D02*
G37*
G36*
X88889Y434095D02*
X88380D01*
Y433585D01*
X88889D01*
Y434095D01*
D02*
G37*
G36*
X87870Y433076D02*
X87361D01*
Y432566D01*
X87870D01*
Y433076D01*
D02*
G37*
G36*
X349723Y429510D02*
X349214D01*
Y429001D01*
X349723D01*
Y429510D01*
D02*
G37*
G36*
X349214Y429001D02*
X348704D01*
Y428491D01*
X348195D01*
Y427472D01*
X348704D01*
Y427982D01*
X349214D01*
Y429001D01*
D02*
G37*
G36*
X348195Y427472D02*
X347686D01*
Y426963D01*
X348195D01*
Y427472D01*
D02*
G37*
G36*
X344629Y424416D02*
X344119D01*
Y423906D01*
X344629D01*
Y424416D01*
D02*
G37*
G36*
X257514Y433585D02*
X257005D01*
Y432566D01*
X257514D01*
Y431548D01*
X258024D01*
Y431038D01*
X258533D01*
Y430529D01*
X259043D01*
Y430019D01*
X259552D01*
Y429510D01*
X260571D01*
Y429001D01*
X261080D01*
Y428491D01*
X261590D01*
Y427982D01*
X262609D01*
Y427472D01*
X263118D01*
Y426963D01*
X263628D01*
Y426453D01*
X264647D01*
Y425944D01*
X265156D01*
Y425434D01*
X265665D01*
Y424925D01*
X266175D01*
Y424416D01*
X266684D01*
Y423906D01*
X267703D01*
Y424416D01*
X267194D01*
Y425434D01*
X266684D01*
Y426453D01*
X266175D01*
Y427472D01*
X265665D01*
Y428491D01*
X265156D01*
Y429001D01*
X264647D01*
Y429510D01*
X264137D01*
Y430529D01*
X263118D01*
Y431038D01*
X262609D01*
Y431548D01*
X261590D01*
Y432057D01*
X260062D01*
Y432566D01*
X258533D01*
Y433076D01*
X257514D01*
Y433585D01*
D02*
G37*
G36*
X343101Y422887D02*
X342591D01*
Y422378D01*
X343101D01*
Y422887D01*
D02*
G37*
G36*
X342082Y422378D02*
X341572D01*
Y421868D01*
X341063D01*
Y421359D01*
X341572D01*
X342082Y421868D01*
Y422378D01*
D02*
G37*
G36*
X188740Y409642D02*
X188230D01*
Y409132D01*
X188740D01*
Y409642D01*
D02*
G37*
G36*
X184664Y408623D02*
X184155D01*
Y408113D01*
X184664D01*
Y408623D01*
D02*
G37*
G36*
X192815Y408113D02*
X192306D01*
Y407604D01*
X192815D01*
Y408113D01*
D02*
G37*
G36*
X374686Y459567D02*
X374177D01*
Y459058D01*
X373667D01*
Y458548D01*
X373158D01*
Y458039D01*
X372648D01*
Y457529D01*
X371629D01*
Y457020D01*
X371120D01*
Y456510D01*
X370101D01*
Y456001D01*
X369592D01*
Y455491D01*
X368573D01*
Y454982D01*
X368063D01*
Y454473D01*
X367554D01*
Y453963D01*
X365516D01*
Y452944D01*
X365007D01*
Y452435D01*
X363478D01*
Y451925D01*
X362969D01*
Y451416D01*
X362459D01*
Y450906D01*
X361441D01*
Y449888D01*
X361950D01*
Y449378D01*
X362969D01*
Y448869D01*
X363988D01*
Y448359D01*
X365007D01*
Y447850D01*
X365516D01*
Y447340D01*
X366026D01*
Y446831D01*
X366535D01*
Y446321D01*
X367554D01*
Y445812D01*
X368063D01*
Y445303D01*
X368573D01*
Y444793D01*
X369592D01*
Y444284D01*
X370611D01*
Y443774D01*
X371120D01*
Y443265D01*
X371629D01*
Y442755D01*
X372139D01*
Y442246D01*
X372648D01*
Y441736D01*
X373158D01*
Y441227D01*
X373667D01*
Y440718D01*
X374177D01*
Y440208D01*
X374686D01*
Y439699D01*
X375196D01*
Y439189D01*
X376214D01*
Y438680D01*
X376724D01*
Y438170D01*
X377233D01*
Y437661D01*
X377743D01*
Y437151D01*
X378252D01*
Y436642D01*
X378762D01*
Y436133D01*
X379271D01*
Y435623D01*
X379780D01*
Y435114D01*
X380290D01*
Y434604D01*
X380799D01*
Y434095D01*
X381818D01*
Y433585D01*
X382328D01*
Y433076D01*
X382837D01*
Y432566D01*
X383347D01*
Y432057D01*
X383856D01*
Y431038D01*
X384365D01*
Y430529D01*
X384875D01*
Y430019D01*
X385384D01*
Y429510D01*
X385894D01*
Y429001D01*
X386403D01*
Y427982D01*
X387422D01*
Y427472D01*
X387932D01*
Y426963D01*
X388441D01*
Y427472D01*
X388950D01*
Y426963D01*
X389460D01*
Y426453D01*
X389969D01*
Y425434D01*
X390988D01*
Y424416D01*
X391498D01*
Y423906D01*
X392007D01*
Y423397D01*
X392517D01*
Y422887D01*
X393026D01*
Y421868D01*
X393535D01*
Y421359D01*
X394045D01*
Y420340D01*
X394554D01*
Y419321D01*
X395064D01*
Y417793D01*
X395573D01*
Y415755D01*
X395064D01*
Y415246D01*
X395573D01*
Y414736D01*
X396083D01*
Y415755D01*
X396592D01*
Y416264D01*
X397611D01*
Y416774D01*
X398120D01*
Y415755D01*
X397611D01*
Y415246D01*
X396592D01*
Y407604D01*
Y407094D01*
Y406076D01*
X396083D01*
Y408113D01*
X395573D01*
Y411679D01*
X395064D01*
Y414227D01*
X394554D01*
Y415755D01*
X394045D01*
Y417283D01*
X393535D01*
Y418812D01*
X393026D01*
Y420340D01*
X392517D01*
Y421359D01*
X392007D01*
Y422887D01*
X391498D01*
Y423906D01*
X390988D01*
Y424416D01*
X390479D01*
Y424925D01*
X389969D01*
Y425434D01*
X389460D01*
Y425944D01*
Y426453D01*
X388441D01*
Y425944D01*
X387932D01*
Y424925D01*
X388441D01*
Y423906D01*
X388950D01*
Y423397D01*
Y422887D01*
X388441D01*
Y423906D01*
X387932D01*
Y424925D01*
X387422D01*
Y425944D01*
X386913D01*
Y426963D01*
X386403D01*
Y427982D01*
X385894D01*
Y428491D01*
X385384D01*
Y429001D01*
X384875D01*
Y429510D01*
X384365D01*
Y430019D01*
X383856D01*
Y430529D01*
X383347D01*
Y431038D01*
X382837D01*
Y431548D01*
X382328D01*
Y432057D01*
X381818D01*
Y432566D01*
X381309D01*
Y433076D01*
X380290D01*
Y433585D01*
X379780D01*
Y434095D01*
X379271D01*
Y434604D01*
X378762D01*
Y435114D01*
X378252D01*
Y435623D01*
X377743D01*
Y436133D01*
X377233D01*
Y436642D01*
X376724D01*
Y437151D01*
X376214D01*
Y437661D01*
X375705D01*
Y438170D01*
X374686D01*
Y438680D01*
X374177D01*
Y439189D01*
X373667D01*
Y439699D01*
X373158D01*
Y440208D01*
X372648D01*
Y440718D01*
X372139D01*
Y441227D01*
X371629D01*
Y441736D01*
X370611D01*
Y442246D01*
X370101D01*
Y442755D01*
X368573D01*
Y443265D01*
X367554D01*
Y443774D01*
X366535D01*
Y444284D01*
X366026D01*
Y444793D01*
X365516D01*
Y445303D01*
X365007D01*
Y445812D01*
X363988D01*
Y446321D01*
X363478D01*
Y445812D01*
X363988D01*
Y444793D01*
X364497D01*
Y444284D01*
X365007D01*
Y443774D01*
X365516D01*
Y443265D01*
X366026D01*
Y442755D01*
X366535D01*
Y442246D01*
X367044D01*
Y441736D01*
X367554D01*
Y441227D01*
X368063D01*
Y440718D01*
X368573D01*
Y440208D01*
X369082D01*
Y439699D01*
X369592D01*
Y439189D01*
X370101D01*
Y438680D01*
X371120D01*
Y437661D01*
X371629D01*
Y437151D01*
X372648D01*
Y436133D01*
X373667D01*
Y435623D01*
X374177D01*
Y435114D01*
X375196D01*
Y434604D01*
X375705D01*
Y434095D01*
X376724D01*
Y433585D01*
X377233D01*
Y433076D01*
X377743D01*
Y432566D01*
X378252D01*
Y432057D01*
X378762D01*
Y431548D01*
X379780D01*
Y431038D01*
X380290D01*
Y430529D01*
X380799D01*
Y430019D01*
X381309D01*
Y429510D01*
X381818D01*
Y429001D01*
X382328D01*
Y428491D01*
X382837D01*
Y427982D01*
X383347D01*
Y427472D01*
X383856D01*
Y426453D01*
X384365D01*
Y425944D01*
X384875D01*
Y425434D01*
X385384D01*
Y424925D01*
X385894D01*
Y424416D01*
X386403D01*
Y423397D01*
X386913D01*
Y422887D01*
X387422D01*
Y421868D01*
X387932D01*
Y420340D01*
X388441D01*
Y419321D01*
X388950D01*
Y418302D01*
X389460D01*
Y416264D01*
X389969D01*
Y414227D01*
X390479D01*
Y411679D01*
X390988D01*
Y407604D01*
X391498D01*
Y402509D01*
X392007D01*
Y399962D01*
X391498D01*
Y399453D01*
X390988D01*
Y402000D01*
X390479D01*
Y406585D01*
X389969D01*
Y409642D01*
X389460D01*
Y411170D01*
X388950D01*
Y413717D01*
X388441D01*
Y415755D01*
X387932D01*
Y417793D01*
X387422D01*
Y418812D01*
X386913D01*
Y420340D01*
X386403D01*
Y421359D01*
X385894D01*
Y422378D01*
X385384D01*
Y422887D01*
X384365D01*
Y422378D01*
X382837D01*
Y421868D01*
X382328D01*
Y421359D01*
X381818D01*
Y420849D01*
X380799D01*
Y420340D01*
X379780D01*
Y419831D01*
X378252D01*
Y419321D01*
X376724D01*
Y419831D01*
X377743D01*
Y420340D01*
X378762D01*
Y420849D01*
X379780D01*
Y421359D01*
X380799D01*
Y421868D01*
X381309D01*
Y422378D01*
X382328D01*
Y422887D01*
X383347D01*
Y423397D01*
X383856D01*
Y424925D01*
X383347D01*
Y425944D01*
X382837D01*
Y426453D01*
X382328D01*
Y426963D01*
X381818D01*
Y427472D01*
X381309D01*
Y427982D01*
X380799D01*
Y428491D01*
X380290D01*
Y429001D01*
X379780D01*
Y429510D01*
X379271D01*
Y430019D01*
X378762D01*
Y430529D01*
X378252D01*
Y431038D01*
X377743D01*
Y431548D01*
X376724D01*
Y432057D01*
X376214D01*
Y432566D01*
X375705D01*
Y433076D01*
X374686D01*
Y433585D01*
X374177D01*
Y434095D01*
X373667D01*
Y434604D01*
X373158D01*
Y435114D01*
X372139D01*
Y435623D01*
X371629D01*
Y436133D01*
X370611D01*
Y437151D01*
X370101D01*
Y437661D01*
X369592D01*
Y438170D01*
X368573D01*
Y438680D01*
X368063D01*
Y439189D01*
X367554D01*
Y439699D01*
X367044D01*
Y440208D01*
X366535D01*
Y440718D01*
X366026D01*
Y441736D01*
X365516D01*
Y442246D01*
X365007D01*
Y442755D01*
X364497D01*
Y443265D01*
X363988D01*
Y444284D01*
X363478D01*
Y445303D01*
X362969D01*
Y445812D01*
X362459D01*
Y446321D01*
X361950D01*
Y447340D01*
X361441D01*
Y447850D01*
X360931D01*
Y448869D01*
X360422D01*
Y449378D01*
X359403D01*
Y448869D01*
X357874D01*
Y448359D01*
X357365D01*
Y447340D01*
X356856D01*
Y446831D01*
X355837D01*
Y446321D01*
X354818D01*
Y445812D01*
X354308D01*
Y445303D01*
X353799D01*
Y444793D01*
X353289D01*
Y444284D01*
X352271D01*
Y443774D01*
X350742D01*
Y443265D01*
X349723D01*
Y442755D01*
X349214D01*
Y441736D01*
X349723D01*
Y441227D01*
X350233D01*
Y440208D01*
X350742D01*
Y439699D01*
X351252D01*
Y439189D01*
X351761D01*
Y438680D01*
X352271D01*
Y437661D01*
X352780D01*
Y437151D01*
X353289D01*
Y436642D01*
X353799D01*
Y436133D01*
X354308D01*
Y435623D01*
X354818D01*
Y434095D01*
X354308D01*
Y433585D01*
X353799D01*
Y432566D01*
X353289D01*
Y432057D01*
X352780D01*
Y431548D01*
X352271D01*
Y431038D01*
X351761D01*
Y430529D01*
X351252D01*
Y429510D01*
X350742D01*
Y428491D01*
X350233D01*
Y427472D01*
X349723D01*
Y426453D01*
X349214D01*
Y425944D01*
X348704D01*
Y424925D01*
X348195D01*
Y423906D01*
X347686D01*
Y423397D01*
X347176D01*
Y422378D01*
X346667D01*
Y421868D01*
X346157D01*
Y420849D01*
X345648D01*
Y420340D01*
X345138D01*
Y419831D01*
X344629D01*
Y419321D01*
X344119D01*
Y418302D01*
X343610D01*
Y417793D01*
X343101D01*
Y417283D01*
X342591D01*
Y416774D01*
X342082D01*
Y416264D01*
X341572D01*
Y415755D01*
X341063D01*
Y415246D01*
X340553D01*
Y414736D01*
X340044D01*
Y414227D01*
X339535D01*
Y413717D01*
X339025D01*
Y413208D01*
X338516D01*
Y412698D01*
X338006D01*
Y412189D01*
X336987D01*
Y411679D01*
X336478D01*
Y411170D01*
X335459D01*
Y410661D01*
X334950D01*
Y410151D01*
X333931D01*
Y409642D01*
X332402D01*
Y409132D01*
X331384D01*
Y408623D01*
X329346D01*
Y408113D01*
X327308D01*
Y408623D01*
X323232D01*
Y408113D01*
X320176D01*
Y407604D01*
X318647D01*
Y407094D01*
X317119D01*
Y406585D01*
X316100D01*
Y406076D01*
X315591D01*
Y405566D01*
X315081D01*
Y404547D01*
X316100D01*
Y404038D01*
X318647D01*
Y403528D01*
X320176D01*
Y403019D01*
X322214D01*
Y402509D01*
X323742D01*
Y402000D01*
X325780D01*
Y401491D01*
X327308D01*
Y400981D01*
X328836D01*
Y400472D01*
X330874D01*
Y399962D01*
X332402D01*
Y399453D01*
X333421D01*
Y396906D01*
X333931D01*
Y394358D01*
X334440D01*
Y391302D01*
X334950D01*
Y388755D01*
X335459D01*
Y385698D01*
X335969D01*
Y383151D01*
X336478D01*
Y379585D01*
X336987D01*
Y375509D01*
X337497D01*
Y373981D01*
Y373471D01*
Y372962D01*
X338006D01*
Y371943D01*
X338516D01*
Y370924D01*
X339025D01*
Y369905D01*
X339535D01*
Y369396D01*
X340044D01*
Y368377D01*
X340553D01*
Y367358D01*
X341063D01*
Y366849D01*
X341572D01*
Y366339D01*
X342082D01*
Y365320D01*
X342591D01*
Y364301D01*
X343101D01*
Y363792D01*
X343610D01*
Y362773D01*
X344119D01*
Y362264D01*
X344629D01*
Y361754D01*
X345138D01*
Y360735D01*
X345648D01*
Y360226D01*
X346157D01*
Y359716D01*
X346667D01*
Y358698D01*
X347176D01*
Y357679D01*
X347686D01*
Y357169D01*
X348195D01*
Y356660D01*
X348704D01*
Y355641D01*
X349214D01*
Y355131D01*
X349723D01*
Y354113D01*
X350233D01*
Y353603D01*
X350742D01*
Y353094D01*
X351252D01*
Y352075D01*
X351761D01*
Y351565D01*
X352271D01*
Y351056D01*
X352780D01*
Y350546D01*
X353289D01*
Y350037D01*
X353799D01*
Y349528D01*
X354308D01*
Y350037D01*
X354818D01*
Y358188D01*
X354308D01*
Y361245D01*
X353799D01*
Y363792D01*
X353289D01*
Y366339D01*
X352780D01*
Y367867D01*
X352271D01*
Y369396D01*
X351761D01*
Y370924D01*
X351252D01*
Y371943D01*
X350742D01*
Y372452D01*
X351761D01*
Y371943D01*
X352271D01*
Y370415D01*
X352780D01*
Y369396D01*
X353289D01*
Y367867D01*
X353799D01*
Y366849D01*
X354308D01*
Y365320D01*
X354818D01*
Y362773D01*
X355327D01*
Y360735D01*
X355837D01*
Y359207D01*
X356346D01*
Y355641D01*
X356856D01*
Y350546D01*
X357365D01*
Y346980D01*
X356856D01*
Y345452D01*
X357365D01*
Y344943D01*
X357874D01*
Y344433D01*
X358384D01*
Y343924D01*
X359403D01*
Y344433D01*
X359912D01*
Y345452D01*
X360422D01*
Y345961D01*
X360931D01*
Y346980D01*
X361441D01*
Y347999D01*
X361950D01*
Y348509D01*
X362459D01*
Y349018D01*
X362969D01*
Y350037D01*
X363478D01*
Y351056D01*
X363988D01*
Y351565D01*
X364497D01*
Y352075D01*
X365007D01*
Y353094D01*
X365516D01*
Y353603D01*
X366026D01*
Y354113D01*
X366535D01*
Y354622D01*
X367044D01*
Y355641D01*
X367554D01*
Y356150D01*
X368063D01*
Y356660D01*
X368573D01*
Y357169D01*
X369082D01*
Y357679D01*
X369592D01*
Y358698D01*
X370101D01*
Y359207D01*
X370611D01*
Y359716D01*
X371120D01*
Y360226D01*
X371629D01*
Y361245D01*
X372139D01*
Y361754D01*
X372648D01*
Y362264D01*
X373158D01*
Y362773D01*
X373667D01*
Y363792D01*
X374177D01*
Y364301D01*
X374686D01*
Y364811D01*
X375196D01*
Y365320D01*
X375705D01*
Y366339D01*
X376214D01*
Y367358D01*
X376724D01*
Y367867D01*
X377233D01*
Y368886D01*
X377743D01*
Y369396D01*
X378252D01*
Y368377D01*
X378762D01*
Y368886D01*
X379271D01*
Y369396D01*
X379780D01*
Y369905D01*
X380290D01*
Y370415D01*
X381309D01*
Y370924D01*
X381818D01*
Y371433D01*
X382328D01*
Y371943D01*
X382837D01*
Y372452D01*
X383856D01*
Y373471D01*
X384875D01*
Y373981D01*
X385384D01*
Y374490D01*
X385894D01*
Y375000D01*
X386913D01*
Y376018D01*
X387932D01*
Y377037D01*
X388441D01*
Y378056D01*
X388950D01*
Y379075D01*
X389460D01*
Y379585D01*
X389969D01*
Y380094D01*
X390479D01*
Y381113D01*
X390988D01*
Y382132D01*
X391498D01*
Y382641D01*
X392007D01*
Y383660D01*
X392517D01*
Y384170D01*
X393026D01*
Y385188D01*
X393535D01*
Y386207D01*
X394045D01*
Y387226D01*
X394554D01*
Y387736D01*
X395064D01*
Y388245D01*
X395573D01*
Y389264D01*
X396083D01*
Y389773D01*
X396592D01*
Y390792D01*
X397102D01*
Y391302D01*
X397611D01*
Y392321D01*
X398120D01*
Y393340D01*
X398630D01*
Y393849D01*
X399139D01*
Y394358D01*
X399649D01*
Y395377D01*
X400158D01*
Y395887D01*
X400668D01*
Y396396D01*
X401177D01*
Y397415D01*
X401686D01*
Y397924D01*
X402196D01*
Y398434D01*
X401686D01*
Y398943D01*
X401177D01*
Y399453D01*
X400668D01*
Y399962D01*
X399649D01*
Y400472D01*
X398630D01*
Y400981D01*
X398120D01*
Y401491D01*
X397102D01*
Y402000D01*
X396083D01*
Y404038D01*
X396592D01*
Y403019D01*
X397102D01*
Y402509D01*
X398120D01*
Y402000D01*
X398630D01*
Y401491D01*
X399649D01*
Y400981D01*
X400668D01*
Y400472D01*
X401177D01*
Y399962D01*
X402196D01*
Y399453D01*
X403215D01*
Y398943D01*
X403724D01*
Y398434D01*
X404234D01*
Y397924D01*
X405253D01*
Y396396D01*
X404743D01*
Y395377D01*
X404234D01*
Y394868D01*
X403724D01*
Y394358D01*
X403215D01*
Y393340D01*
X402705D01*
Y392830D01*
X402196D01*
Y392321D01*
X401686D01*
Y391302D01*
X401177D01*
Y390792D01*
X400668D01*
Y390283D01*
X400158D01*
Y389264D01*
X399649D01*
Y388245D01*
X400668D01*
Y387736D01*
X401177D01*
Y386717D01*
X400668D01*
Y385698D01*
X400158D01*
Y385188D01*
X399649D01*
Y384679D01*
X399139D01*
Y384170D01*
X398630D01*
Y383151D01*
X398120D01*
Y382641D01*
X397611D01*
Y382132D01*
X397102D01*
Y381622D01*
X396592D01*
Y381113D01*
X396083D01*
Y380603D01*
X395064D01*
Y380094D01*
X394554D01*
Y379075D01*
X394045D01*
Y378566D01*
X393535D01*
Y378056D01*
X393026D01*
Y377037D01*
X392517D01*
Y376528D01*
X392007D01*
Y376018D01*
X391498D01*
Y375509D01*
X390988D01*
Y375000D01*
X390479D01*
Y374490D01*
X389969D01*
Y373471D01*
X389460D01*
Y372962D01*
X388950D01*
Y372452D01*
X388441D01*
Y371943D01*
X387932D01*
Y371433D01*
X387422D01*
Y370924D01*
X386403D01*
Y370415D01*
X385894D01*
Y369905D01*
X385384D01*
Y369396D01*
X384365D01*
Y368886D01*
X383856D01*
Y368377D01*
X383347D01*
Y367867D01*
X382328D01*
Y367358D01*
X381818D01*
Y366849D01*
X380799D01*
Y365830D01*
X380290D01*
Y365320D01*
X379780D01*
Y364811D01*
X379271D01*
Y364301D01*
X378762D01*
Y363792D01*
X378252D01*
Y363283D01*
X377743D01*
Y362773D01*
X376724D01*
Y361754D01*
X375705D01*
Y361245D01*
X375196D01*
Y360226D01*
X374177D01*
Y359207D01*
X373667D01*
Y358698D01*
X373158D01*
Y358188D01*
X372648D01*
Y357679D01*
X372139D01*
Y357169D01*
X371629D01*
Y356660D01*
X371120D01*
Y356150D01*
X370611D01*
Y355641D01*
X370101D01*
Y355131D01*
X369592D01*
Y354113D01*
X369082D01*
Y353603D01*
X368573D01*
Y352584D01*
X368063D01*
Y351565D01*
X367554D01*
Y351056D01*
X367044D01*
Y350546D01*
X366535D01*
Y349528D01*
X366026D01*
Y349018D01*
X365516D01*
Y347999D01*
X365007D01*
Y347490D01*
X364497D01*
Y346471D01*
X363988D01*
Y345961D01*
X363478D01*
Y344943D01*
X362969D01*
Y343924D01*
X362459D01*
Y342905D01*
X361950D01*
Y342395D01*
X362969D01*
Y342905D01*
X364497D01*
Y343414D01*
X365007D01*
Y343924D01*
X365516D01*
Y344943D01*
X366026D01*
Y345452D01*
X366535D01*
Y346471D01*
X367044D01*
Y346980D01*
X367554D01*
Y348509D01*
X368063D01*
Y349018D01*
X368573D01*
Y349528D01*
X369082D01*
Y350546D01*
X369592D01*
Y351565D01*
X370101D01*
Y352075D01*
X370611D01*
Y352584D01*
X371120D01*
Y353603D01*
X371629D01*
Y354113D01*
X372139D01*
Y355131D01*
X372648D01*
Y355641D01*
X373158D01*
Y356150D01*
X373667D01*
Y357169D01*
X374177D01*
Y357679D01*
X374686D01*
Y358188D01*
X375196D01*
Y358698D01*
X375705D01*
Y359716D01*
X376724D01*
Y360226D01*
X377233D01*
Y360735D01*
X377743D01*
Y361245D01*
X378252D01*
Y362264D01*
X378762D01*
Y362773D01*
X379271D01*
Y363283D01*
X379780D01*
Y363792D01*
X380799D01*
Y362773D01*
X380290D01*
Y362264D01*
X379780D01*
Y361754D01*
X379271D01*
Y361245D01*
X382328D01*
Y360735D01*
X382837D01*
Y360226D01*
X383347D01*
Y359716D01*
X383856D01*
Y357679D01*
X384365D01*
Y355641D01*
X384875D01*
Y353094D01*
X385384D01*
Y350546D01*
X385894D01*
Y345452D01*
X386403D01*
Y340358D01*
X386913D01*
Y335773D01*
X387422D01*
Y328131D01*
X387932D01*
Y325584D01*
X388441D01*
Y323546D01*
X388950D01*
Y322018D01*
X389460D01*
Y320489D01*
X389969D01*
Y318961D01*
X390479D01*
Y317942D01*
X390988D01*
Y316923D01*
X391498D01*
Y316414D01*
X392007D01*
Y314886D01*
X392517D01*
Y314376D01*
X393026D01*
Y313867D01*
X393535D01*
Y312848D01*
X394045D01*
Y312338D01*
X394554D01*
Y311829D01*
X395064D01*
Y311319D01*
X396083D01*
Y310301D01*
X396592D01*
Y309791D01*
X397611D01*
Y309282D01*
X398120D01*
Y308772D01*
X398630D01*
Y308263D01*
X399649D01*
Y307753D01*
X400158D01*
Y307244D01*
X401177D01*
Y306734D01*
X402196D01*
Y306225D01*
X403215D01*
Y305716D01*
X404743D01*
Y305206D01*
X406781D01*
Y304697D01*
X416970D01*
Y305206D01*
X418498D01*
Y305716D01*
X420026D01*
Y306225D01*
X421555D01*
Y306734D01*
X422064D01*
Y307244D01*
X422574D01*
Y307753D01*
X423592D01*
Y308263D01*
X424102D01*
Y308772D01*
X424611D01*
Y309282D01*
X425121D01*
Y309791D01*
X425630D01*
Y310301D01*
X426140D01*
Y310810D01*
X426649D01*
Y311319D01*
X427159D01*
Y311829D01*
X427668D01*
Y312848D01*
X428177D01*
Y313357D01*
X428687D01*
Y313867D01*
X429196D01*
Y314886D01*
X429706D01*
Y315904D01*
X430215D01*
Y316414D01*
X430725D01*
Y317942D01*
X431234D01*
Y319471D01*
X431744D01*
Y320999D01*
X432253D01*
Y323546D01*
X432762D01*
Y326093D01*
X433272D01*
Y329150D01*
X433781D01*
Y340867D01*
X433272D01*
Y343414D01*
X432762D01*
Y345961D01*
X432253D01*
Y347490D01*
X431744D01*
Y349528D01*
X431234D01*
Y350546D01*
X430725D01*
Y352075D01*
X430215D01*
Y353094D01*
X429706D01*
Y354622D01*
X429196D01*
Y355641D01*
X428687D01*
Y356660D01*
X428177D01*
Y357679D01*
X427668D01*
Y358188D01*
X427159D01*
Y359716D01*
X426649D01*
Y360735D01*
X426140D01*
Y361754D01*
X425630D01*
Y362773D01*
X425121D01*
Y363283D01*
X424611D01*
Y363792D01*
X424102D01*
Y364301D01*
X423592D01*
Y365320D01*
X423083D01*
Y365830D01*
X422574D01*
Y366849D01*
X422064D01*
Y367867D01*
X421555D01*
Y368377D01*
X421045D01*
Y368886D01*
X420536D01*
Y369905D01*
X420026D01*
Y370415D01*
X419517D01*
Y370924D01*
X419007D01*
Y371943D01*
X418498D01*
Y372452D01*
X417989D01*
Y372962D01*
X417479D01*
Y373981D01*
X416970D01*
Y374490D01*
X416460D01*
Y375000D01*
X415951D01*
Y375509D01*
X415441D01*
Y376018D01*
X414932D01*
Y376528D01*
X414422D01*
Y377037D01*
X413913D01*
Y377547D01*
X413404D01*
Y378566D01*
X412894D01*
Y379075D01*
X412385D01*
Y379585D01*
X411875D01*
Y380094D01*
X411366D01*
Y380603D01*
X410856D01*
Y381622D01*
X411366D01*
Y381113D01*
X411875D01*
Y386207D01*
X412385D01*
Y385188D01*
X412894D01*
Y381622D01*
X413404D01*
Y379075D01*
X413913D01*
Y378566D01*
X414422D01*
Y378056D01*
X414932D01*
Y377547D01*
X415441D01*
Y382641D01*
X414932D01*
Y388755D01*
X414422D01*
Y391811D01*
X413913D01*
Y394868D01*
X414422D01*
Y393849D01*
X414932D01*
Y389773D01*
X415441D01*
Y387736D01*
X415951D01*
Y382132D01*
X416460D01*
Y375509D01*
X416970D01*
Y375000D01*
X417479D01*
Y374490D01*
X417989D01*
Y373471D01*
X418498D01*
Y372962D01*
X419007D01*
Y372452D01*
X419517D01*
Y371433D01*
X420026D01*
Y370924D01*
X420536D01*
Y370415D01*
X421045D01*
Y369905D01*
X421555D01*
Y369396D01*
X422064D01*
Y368886D01*
X422574D01*
Y367867D01*
X423083D01*
Y367358D01*
X423592D01*
Y366339D01*
X424102D01*
Y365830D01*
X424611D01*
Y364811D01*
X425121D01*
Y364301D01*
X425630D01*
Y363283D01*
X426140D01*
Y362773D01*
X426649D01*
Y361754D01*
X427159D01*
Y360735D01*
X427668D01*
Y360226D01*
X428177D01*
Y358698D01*
X428687D01*
Y357679D01*
X429196D01*
Y356660D01*
X429706D01*
Y355641D01*
X430215D01*
Y354113D01*
X430725D01*
Y353094D01*
X431234D01*
Y351565D01*
X431744D01*
Y350546D01*
X432253D01*
Y349018D01*
X432762D01*
Y347490D01*
X433272D01*
Y346471D01*
X433781D01*
Y344943D01*
X434291D01*
Y342395D01*
X434800D01*
Y343924D01*
X435310D01*
Y344943D01*
X435819D01*
Y346471D01*
X436329D01*
Y347999D01*
X436838D01*
Y349018D01*
X437347D01*
Y350546D01*
X437857D01*
Y352075D01*
X438366D01*
Y353603D01*
X438876D01*
Y354622D01*
X439385D01*
Y356660D01*
X439895D01*
Y358698D01*
X440404D01*
Y360735D01*
X440914D01*
Y362264D01*
X441423D01*
Y363792D01*
X441932D01*
Y366849D01*
X442442D01*
Y382132D01*
X441932D01*
Y386207D01*
X441423D01*
Y389264D01*
X440914D01*
Y390792D01*
X440404D01*
Y392830D01*
X439895D01*
Y394358D01*
X439385D01*
Y396396D01*
X438876D01*
Y397415D01*
X438366D01*
Y398943D01*
X437857D01*
Y399962D01*
X437347D01*
Y400981D01*
X436329D01*
Y401491D01*
X435819D01*
Y402000D01*
X435310D01*
Y403019D01*
X434800D01*
Y404038D01*
X434291D01*
Y404547D01*
X433781D01*
Y405566D01*
X433272D01*
Y406076D01*
X432762D01*
Y406585D01*
X431744D01*
Y407094D01*
X430725D01*
Y407604D01*
X429706D01*
Y408113D01*
X428687D01*
Y408623D01*
X428177D01*
Y409132D01*
X427668D01*
Y409642D01*
X426649D01*
Y410151D01*
X426140D01*
Y410661D01*
X425121D01*
Y411170D01*
X424102D01*
Y411679D01*
X422574D01*
Y412189D01*
X421045D01*
Y412698D01*
X420026D01*
Y413208D01*
X419007D01*
Y413717D01*
X417989D01*
Y414227D01*
X416970D01*
Y414736D01*
X415951D01*
Y415246D01*
X414422D01*
Y415755D01*
X413913D01*
Y416264D01*
X412894D01*
Y416774D01*
X411366D01*
Y417283D01*
X408819D01*
Y417793D01*
X407290D01*
Y417283D01*
X405762D01*
Y417793D01*
X405253D01*
Y418302D01*
X404743D01*
Y418812D01*
X404234D01*
Y419831D01*
X403215D01*
Y420340D01*
X402705D01*
Y421359D01*
X403724D01*
Y421868D01*
X404234D01*
Y422378D01*
X405253D01*
Y422887D01*
X406271D01*
Y423906D01*
X406781D01*
Y424416D01*
X407290D01*
Y424925D01*
X407800D01*
Y425434D01*
X408309D01*
Y426453D01*
X408819D01*
Y426963D01*
X409837D01*
Y427472D01*
X410347D01*
Y427982D01*
X411366D01*
Y428491D01*
X411875D01*
Y429001D01*
X412894D01*
Y429510D01*
X414422D01*
Y430019D01*
X415441D01*
Y430529D01*
X415951D01*
Y431038D01*
X416460D01*
Y432566D01*
X416970D01*
Y433585D01*
X417479D01*
Y434604D01*
X417989D01*
Y435623D01*
X418498D01*
Y436133D01*
X419007D01*
Y437151D01*
X418498D01*
Y437661D01*
X417989D01*
Y438170D01*
X417479D01*
Y438680D01*
X416970D01*
Y439189D01*
X415951D01*
Y439699D01*
X415441D01*
Y440208D01*
X414932D01*
Y440718D01*
X413913D01*
Y441227D01*
X413404D01*
Y441736D01*
X412894D01*
Y442246D01*
X411875D01*
Y442755D01*
X411366D01*
Y443265D01*
X410347D01*
Y443774D01*
X409328D01*
Y444284D01*
X407800D01*
Y444793D01*
X406781D01*
Y445303D01*
X405762D01*
Y445812D01*
X404743D01*
Y446321D01*
X403215D01*
Y446831D01*
X401686D01*
Y447340D01*
X400668D01*
Y447850D01*
X399649D01*
Y448359D01*
X398630D01*
Y448869D01*
X397102D01*
Y449378D01*
X395573D01*
Y449888D01*
X394045D01*
Y450397D01*
X392517D01*
Y450906D01*
X391498D01*
Y451416D01*
X390479D01*
Y451925D01*
X388441D01*
Y452435D01*
X386913D01*
Y452944D01*
X385384D01*
Y453454D01*
X384365D01*
Y453963D01*
X382837D01*
Y454473D01*
X382328D01*
Y454982D01*
X380799D01*
Y455491D01*
X380290D01*
Y456001D01*
X379780D01*
Y456510D01*
X378252D01*
Y457020D01*
X377743D01*
Y457529D01*
X376724D01*
Y458039D01*
X376214D01*
Y458548D01*
X375705D01*
Y459058D01*
X374686D01*
Y459567D01*
D02*
G37*
G36*
X314572Y406585D02*
X314062D01*
Y406076D01*
X314572D01*
Y406585D01*
D02*
G37*
G36*
X196891Y405566D02*
X196381D01*
Y405057D01*
X196891D01*
Y405566D01*
D02*
G37*
G36*
X314062Y406076D02*
X313553D01*
Y405566D01*
X313044D01*
Y404547D01*
X313553D01*
Y405057D01*
X314062D01*
Y406076D01*
D02*
G37*
G36*
X308459Y403528D02*
X307949D01*
Y403019D01*
X308459D01*
Y403528D01*
D02*
G37*
G36*
X200966Y403019D02*
X200457D01*
Y402509D01*
X200966D01*
Y403019D01*
D02*
G37*
G36*
X312025Y405057D02*
X311515D01*
Y404547D01*
X311006D01*
Y404038D01*
X312025D01*
Y403528D01*
X311515D01*
Y403019D01*
X310496D01*
Y402000D01*
X309987D01*
Y400981D01*
X310496D01*
Y401491D01*
X311006D01*
Y402000D01*
X311515D01*
Y402509D01*
X312025D01*
Y403019D01*
X312534D01*
Y403528D01*
X313044D01*
Y404547D01*
X312534D01*
Y404038D01*
X312025D01*
Y405057D01*
D02*
G37*
G36*
X200966Y401491D02*
X200457D01*
Y400981D01*
X200966D01*
Y401491D01*
D02*
G37*
G36*
X303874Y400981D02*
X303364D01*
Y400472D01*
X303874D01*
Y400981D01*
D02*
G37*
G36*
X302345Y400472D02*
X301836D01*
Y399962D01*
X302345D01*
Y400472D01*
D02*
G37*
G36*
X301836Y399962D02*
X301326D01*
Y399453D01*
X301836D01*
Y399962D01*
D02*
G37*
G36*
X300817Y399453D02*
X299798D01*
Y398943D01*
X300817D01*
Y399453D01*
D02*
G37*
G36*
X298270Y398434D02*
X297251D01*
Y397924D01*
X298270D01*
Y398434D01*
D02*
G37*
G36*
X209117Y396396D02*
X208608D01*
Y395887D01*
X209117D01*
Y395377D01*
X209627D01*
Y395887D01*
X209117D01*
Y396396D01*
D02*
G37*
G36*
X267194Y396906D02*
X266175D01*
Y395887D01*
X265665D01*
Y395377D01*
X265156D01*
Y394868D01*
X264647D01*
Y394358D01*
X264137D01*
Y393849D01*
X263628D01*
Y393340D01*
X262609D01*
Y392830D01*
X259552D01*
Y393340D01*
X258533D01*
Y393849D01*
X257005D01*
Y392830D01*
X257514D01*
Y391811D01*
X258024D01*
Y390792D01*
X258533D01*
Y389264D01*
X259043D01*
Y388755D01*
X259552D01*
Y387736D01*
X260062D01*
Y386717D01*
X260571D01*
Y385698D01*
X261080D01*
Y385188D01*
X261590D01*
Y384170D01*
X262099D01*
Y383151D01*
X262609D01*
Y382641D01*
X263118D01*
Y382132D01*
X263628D01*
Y381113D01*
X264137D01*
Y380094D01*
X264647D01*
Y379585D01*
X265156D01*
Y379075D01*
X265665D01*
Y378056D01*
X266684D01*
Y377037D01*
X267194D01*
Y375509D01*
X268213D01*
Y378056D01*
X268722D01*
Y379585D01*
X269232D01*
Y381622D01*
X269741D01*
Y383151D01*
X270250D01*
Y385188D01*
X270760D01*
Y387226D01*
X271269D01*
Y383151D01*
X270760D01*
Y381113D01*
X271269D01*
Y380603D01*
X272288D01*
Y381113D01*
X272798D01*
Y384170D01*
X273307D01*
Y386207D01*
X273817D01*
Y388755D01*
X274326D01*
Y390283D01*
X274835D01*
Y387226D01*
X274326D01*
Y383660D01*
X273817D01*
Y380094D01*
X273307D01*
Y379075D01*
X273817D01*
Y378056D01*
X274326D01*
Y377547D01*
X275854D01*
Y378056D01*
X276364D01*
Y379075D01*
X276873D01*
Y380094D01*
X277383D01*
Y381113D01*
X277892D01*
Y382132D01*
X278402D01*
Y383151D01*
X278911D01*
Y383660D01*
X279420D01*
Y384170D01*
X279930D01*
Y384679D01*
X280439D01*
Y385698D01*
X280949D01*
Y386207D01*
X281458D01*
Y386717D01*
X281968D01*
Y387226D01*
X282477D01*
Y387736D01*
X282987D01*
Y387226D01*
X282477D01*
Y385698D01*
X281968D01*
Y384170D01*
X281458D01*
Y382641D01*
X280949D01*
Y381622D01*
X280439D01*
Y380094D01*
X284005D01*
Y380603D01*
X285024D01*
Y381622D01*
X285534D01*
Y382641D01*
X286043D01*
Y383660D01*
X286553D01*
Y384170D01*
X287062D01*
Y384679D01*
X287572D01*
Y385698D01*
X288081D01*
Y386207D01*
X288590D01*
Y386717D01*
X289100D01*
Y387226D01*
X289609D01*
Y387736D01*
X290119D01*
Y388245D01*
X290628D01*
Y388755D01*
X291138D01*
Y389264D01*
X291647D01*
Y389773D01*
X292157D01*
Y390283D01*
X293175D01*
Y390792D01*
X293685D01*
Y391302D01*
X294194D01*
Y391811D01*
X294704D01*
Y392321D01*
X284005D01*
Y392830D01*
X283496D01*
Y392321D01*
X282987D01*
Y390792D01*
X281968D01*
Y390283D01*
X277892D01*
Y390792D01*
X276873D01*
Y391302D01*
X275854D01*
Y391811D01*
X274835D01*
Y392321D01*
X273817D01*
Y392830D01*
X272798D01*
Y393340D01*
X271779D01*
Y393849D01*
X271269D01*
Y394358D01*
X270250D01*
Y394868D01*
X269232D01*
Y395377D01*
X268722D01*
Y395887D01*
X267703D01*
Y396396D01*
X267194D01*
Y396906D01*
D02*
G37*
G36*
X226439Y392830D02*
X225420D01*
Y392321D01*
X226439D01*
Y392830D01*
D02*
G37*
G36*
X253948Y395887D02*
X252420D01*
Y394358D01*
X251911D01*
Y392830D01*
X251401D01*
Y392321D01*
X250892D01*
Y390792D01*
X250382D01*
Y390283D01*
X249363D01*
Y389773D01*
X247835D01*
Y390283D01*
X245797D01*
Y389264D01*
X246307D01*
Y387736D01*
X246816D01*
Y386207D01*
X247326D01*
Y384679D01*
X247835D01*
Y383151D01*
X248344D01*
Y382132D01*
X248854D01*
Y381113D01*
X249363D01*
Y379075D01*
X249873D01*
Y378566D01*
X250382D01*
Y377037D01*
X250892D01*
Y376018D01*
X251401D01*
Y374490D01*
X251911D01*
Y373471D01*
X252420D01*
Y372962D01*
X252929D01*
Y371943D01*
X253948D01*
Y370924D01*
X254458D01*
Y370415D01*
X254967D01*
Y369905D01*
X255477D01*
Y369396D01*
X255986D01*
Y368886D01*
X256495D01*
Y368377D01*
X257005D01*
Y367867D01*
X257514D01*
Y366849D01*
X258533D01*
Y366339D01*
X259043D01*
Y365830D01*
X259552D01*
Y365320D01*
X260062D01*
Y364811D01*
X260571D01*
Y364301D01*
X262609D01*
Y364811D01*
X263118D01*
Y365320D01*
X263628D01*
Y365830D01*
X264137D01*
Y366849D01*
X264647D01*
Y367358D01*
X265156D01*
Y368377D01*
X265665D01*
Y368886D01*
X266175D01*
Y369396D01*
Y370415D01*
X266684D01*
Y371433D01*
X267194D01*
Y373471D01*
X266175D01*
Y374490D01*
X265665D01*
Y375000D01*
X265156D01*
Y376528D01*
X264647D01*
Y377547D01*
X264137D01*
Y378056D01*
X263628D01*
Y378566D01*
X263118D01*
Y379585D01*
X262609D01*
Y380603D01*
X262099D01*
Y381622D01*
X260571D01*
Y382132D01*
X260062D01*
Y383151D01*
X259552D01*
Y383660D01*
X259043D01*
Y384679D01*
X259552D01*
Y384170D01*
X260062D01*
Y384679D01*
X259552D01*
Y385698D01*
X259043D01*
Y386717D01*
X258533D01*
Y388245D01*
X258024D01*
Y389773D01*
X257514D01*
Y390792D01*
X257005D01*
Y392321D01*
X256495D01*
Y392830D01*
X255986D01*
Y394358D01*
X255477D01*
Y394868D01*
X254967D01*
Y395377D01*
X253948D01*
Y395887D01*
D02*
G37*
G36*
X324761Y400981D02*
X322723D01*
Y400472D01*
X320685D01*
Y395887D01*
X319157D01*
Y394868D01*
X318647D01*
Y394358D01*
X318138D01*
Y392830D01*
X318647D01*
Y392321D01*
X319157D01*
Y391811D01*
X319666D01*
Y391302D01*
X320685D01*
Y390792D01*
X321195D01*
Y390283D01*
X321704D01*
Y389773D01*
X322214D01*
Y388245D01*
X322723D01*
Y387226D01*
X323232D01*
Y386717D01*
X323742D01*
Y386207D01*
X324251D01*
Y385188D01*
X324761D01*
Y384170D01*
X325270D01*
Y383151D01*
X325780D01*
Y381622D01*
X324761D01*
Y382132D01*
X324251D01*
Y382641D01*
X323742D01*
Y383151D01*
X323232D01*
Y383660D01*
X322723D01*
Y384170D01*
X322214D01*
Y385188D01*
X321704D01*
Y385698D01*
X321195D01*
Y386717D01*
X320685D01*
Y387226D01*
X320176D01*
Y388245D01*
X319666D01*
Y388755D01*
X319157D01*
Y389264D01*
X318647D01*
Y390283D01*
X318138D01*
Y390792D01*
X317628D01*
Y391302D01*
X317119D01*
Y392321D01*
X316610D01*
Y392830D01*
X316100D01*
Y393849D01*
X315591D01*
Y394358D01*
X315081D01*
Y394868D01*
X314572D01*
Y395887D01*
X314062D01*
Y396396D01*
X313553D01*
Y397415D01*
X313044D01*
Y397924D01*
X312534D01*
Y398434D01*
X312025D01*
Y398943D01*
X311515D01*
Y399453D01*
X310496D01*
Y398943D01*
X311006D01*
Y398434D01*
X311515D01*
Y397415D01*
X312025D01*
Y396906D01*
X312534D01*
Y396396D01*
X313044D01*
Y395377D01*
X313553D01*
Y394358D01*
X314062D01*
Y393849D01*
X314572D01*
Y392830D01*
X315081D01*
Y391811D01*
X315591D01*
Y390792D01*
X315081D01*
Y390283D01*
X313553D01*
Y389773D01*
X310496D01*
Y389264D01*
X308459D01*
Y388755D01*
X306930D01*
Y388245D01*
X305402D01*
Y387736D01*
X304383D01*
Y387226D01*
X303364D01*
Y386717D01*
X302345D01*
Y386207D01*
X300817D01*
Y385698D01*
X300308D01*
Y385188D01*
X299289D01*
Y384679D01*
X298270D01*
Y384170D01*
X297760D01*
Y383660D01*
X297251D01*
Y383151D01*
X296232D01*
Y382641D01*
X295723D01*
Y382132D01*
X295213D01*
Y381622D01*
X294704D01*
Y381113D01*
X294194D01*
Y380603D01*
X293685D01*
Y380094D01*
X293175D01*
Y379585D01*
X292666D01*
Y379075D01*
X292157D01*
Y378566D01*
X291647D01*
Y378056D01*
X291138D01*
Y377037D01*
X290628D01*
Y376018D01*
X290119D01*
Y371943D01*
X289609D01*
Y370924D01*
X289100D01*
Y369905D01*
X288590D01*
Y369396D01*
X287572D01*
Y369905D01*
X285024D01*
Y368377D01*
X284515D01*
Y367867D01*
X283496D01*
Y367358D01*
X281458D01*
Y366849D01*
X279930D01*
Y366339D01*
X279420D01*
Y365830D01*
X278911D01*
Y365320D01*
X278402D01*
Y364811D01*
X277892D01*
Y363792D01*
X277383D01*
Y363283D01*
X276873D01*
Y362773D01*
X276364D01*
Y361245D01*
X275854D01*
Y360226D01*
X275345D01*
Y358698D01*
X274835D01*
Y356660D01*
X275345D01*
Y351565D01*
X275854D01*
Y349018D01*
X276364D01*
Y346980D01*
X276873D01*
Y344943D01*
X277383D01*
Y343414D01*
X277892D01*
Y341886D01*
X278402D01*
Y340867D01*
X278911D01*
Y340358D01*
X279420D01*
Y339848D01*
X279930D01*
Y339339D01*
X280439D01*
Y338320D01*
X280949D01*
Y337810D01*
X281458D01*
Y337301D01*
X281968D01*
Y336282D01*
X282477D01*
Y335773D01*
X282987D01*
Y335263D01*
X283496D01*
Y334754D01*
X284005D01*
Y334244D01*
X284515D01*
Y333735D01*
X285024D01*
Y333225D01*
X285534D01*
Y332716D01*
X286043D01*
Y332206D01*
X286553D01*
Y331697D01*
X287062D01*
Y331188D01*
X287572D01*
Y330678D01*
X288081D01*
Y330169D01*
X289100D01*
Y329659D01*
X289609D01*
Y329150D01*
X290119D01*
Y328640D01*
X291138D01*
Y328131D01*
X292157D01*
Y327621D01*
X292666D01*
Y327112D01*
X293685D01*
Y326603D01*
X294704D01*
Y326093D01*
X295723D01*
Y325584D01*
X296741D01*
Y325074D01*
X297760D01*
Y324565D01*
X299289D01*
Y324055D01*
X300308D01*
Y323546D01*
X302345D01*
Y323037D01*
X303874D01*
Y322527D01*
X306421D01*
Y322018D01*
X309478D01*
Y321508D01*
X317119D01*
Y322018D01*
X321704D01*
Y322527D01*
X324251D01*
Y323037D01*
X326289D01*
Y323546D01*
X327817D01*
Y324055D01*
X328327D01*
Y324565D01*
X329855D01*
Y325074D01*
X330874D01*
Y325584D01*
X331384D01*
Y326093D01*
X332402D01*
Y326603D01*
X333421D01*
Y327112D01*
X333931D01*
Y327621D01*
X334950D01*
Y328131D01*
X335969D01*
Y328640D01*
X336478D01*
Y329150D01*
X336987D01*
Y329659D01*
X337497D01*
Y330169D01*
X338516D01*
Y330678D01*
X339025D01*
Y331188D01*
X339535D01*
Y331697D01*
X340044D01*
Y332206D01*
X340553D01*
Y332716D01*
X341063D01*
Y333225D01*
X341572D01*
Y333735D01*
X342082D01*
Y334244D01*
X342591D01*
Y334754D01*
X343101D01*
Y335263D01*
X343610D01*
Y335773D01*
X344119D01*
Y336282D01*
X344629D01*
Y337301D01*
X345138D01*
Y337810D01*
X345648D01*
Y338320D01*
X346157D01*
Y339339D01*
X346667D01*
Y339848D01*
X347176D01*
Y340867D01*
X347686D01*
Y341376D01*
X348195D01*
Y342395D01*
X348704D01*
Y343414D01*
X349214D01*
Y344433D01*
X349723D01*
Y345452D01*
X350233D01*
Y347490D01*
X350742D01*
Y348509D01*
X350233D01*
Y349018D01*
X349723D01*
Y349528D01*
X349214D01*
Y350037D01*
X348704D01*
Y350546D01*
X348195D01*
Y351056D01*
X347686D01*
Y351565D01*
X346667D01*
Y352075D01*
X346157D01*
Y352584D01*
X345648D01*
Y353094D01*
X344629D01*
Y353603D01*
X344119D01*
Y354113D01*
X343101D01*
Y354622D01*
X342082D01*
Y355131D01*
X341572D01*
Y355641D01*
X340553D01*
Y356150D01*
X340044D01*
Y356660D01*
X339025D01*
Y357169D01*
X338516D01*
Y357679D01*
X337497D01*
Y358188D01*
X336987D01*
Y358698D01*
X335459D01*
Y359207D01*
X334440D01*
Y359716D01*
X333931D01*
Y360226D01*
X333421D01*
Y361754D01*
X332912D01*
Y363792D01*
X332402D01*
Y364811D01*
X331893D01*
Y366849D01*
X331384D01*
Y367867D01*
X330874D01*
Y369396D01*
X330365D01*
Y371943D01*
X329855D01*
Y375000D01*
X329346D01*
Y376018D01*
X328836D01*
Y378056D01*
X328327D01*
Y380094D01*
X327817D01*
Y381113D01*
X327308D01*
Y383151D01*
X326799D01*
Y384679D01*
X326289D01*
Y385698D01*
X325780D01*
Y386207D01*
X325270D01*
Y387226D01*
X324761D01*
Y388245D01*
X324251D01*
Y389264D01*
X323742D01*
Y390283D01*
X323232D01*
Y391302D01*
X324251D01*
Y390283D01*
X324761D01*
Y389773D01*
X325270D01*
Y388755D01*
X325780D01*
Y387736D01*
X326289D01*
Y387226D01*
X326799D01*
Y385698D01*
X327308D01*
Y384679D01*
X327817D01*
Y383660D01*
X328327D01*
Y382132D01*
X328836D01*
Y380094D01*
X329346D01*
Y378056D01*
X329855D01*
Y377547D01*
X330365D01*
Y376528D01*
X330874D01*
Y375509D01*
X331384D01*
Y375000D01*
X331893D01*
Y373981D01*
X332402D01*
Y372962D01*
X332912D01*
Y370924D01*
X333421D01*
Y369905D01*
X333931D01*
Y369396D01*
X334440D01*
Y368377D01*
X334950D01*
Y372962D01*
X334440D01*
Y376528D01*
X333931D01*
Y379585D01*
X333421D01*
Y382641D01*
X332912D01*
Y385188D01*
X332402D01*
Y387736D01*
X331893D01*
Y389264D01*
X331384D01*
Y391302D01*
X330874D01*
Y393849D01*
X330365D01*
Y395377D01*
X329855D01*
Y397415D01*
X329346D01*
Y399453D01*
X328836D01*
Y399962D01*
X326289D01*
Y400472D01*
X324761D01*
Y400981D01*
D02*
G37*
G36*
X445498Y368377D02*
X444989D01*
Y367867D01*
X444480D01*
Y367358D01*
Y366849D01*
Y366339D01*
X444989D01*
Y366849D01*
X445498D01*
Y367358D01*
X446008D01*
Y367867D01*
X445498D01*
Y368377D01*
D02*
G37*
G36*
X443970Y362773D02*
X443461D01*
Y362264D01*
Y361754D01*
Y361245D01*
X443970D01*
Y362773D01*
D02*
G37*
G36*
X339025Y368377D02*
X338516D01*
Y365830D01*
X339025D01*
Y363283D01*
X339535D01*
Y362773D01*
X340044D01*
Y362264D01*
X341063D01*
Y361754D01*
X341572D01*
Y361245D01*
X342082D01*
Y360735D01*
X342591D01*
Y360226D01*
X343101D01*
Y359716D01*
X343610D01*
Y359207D01*
X344119D01*
Y358698D01*
X344629D01*
Y358188D01*
X345648D01*
Y357679D01*
X346157D01*
Y358188D01*
X345648D01*
Y358698D01*
X345138D01*
Y359716D01*
X344629D01*
Y360226D01*
X344119D01*
Y361245D01*
X343610D01*
Y361754D01*
X343101D01*
Y362773D01*
X342591D01*
Y363283D01*
X342082D01*
Y364301D01*
X341572D01*
Y364811D01*
X341063D01*
Y365830D01*
X340553D01*
Y366339D01*
X340044D01*
Y366849D01*
X339535D01*
Y367867D01*
X339025D01*
Y368377D01*
D02*
G37*
G36*
X438876Y342905D02*
X438366D01*
Y342395D01*
X438876D01*
Y342905D01*
D02*
G37*
G36*
X441423Y338829D02*
X440914D01*
Y338320D01*
X441423D01*
Y338829D01*
D02*
G37*
G36*
X439895Y339339D02*
X439385D01*
Y338829D01*
X438876Y338320D01*
Y337810D01*
X439385D01*
Y338320D01*
X439895D01*
Y339339D01*
D02*
G37*
G36*
X436838Y339848D02*
X436329D01*
Y338829D01*
X435819D01*
Y338320D01*
X436329D01*
Y336791D01*
Y336282D01*
Y334754D01*
X436838D01*
Y339848D01*
D02*
G37*
G36*
X406781Y294508D02*
X405762D01*
Y293998D01*
X406781D01*
Y294508D01*
D02*
G37*
G36*
X400668Y289413D02*
X400158D01*
Y288904D01*
X400668D01*
Y289413D01*
D02*
G37*
G36*
X386403Y303678D02*
X384875D01*
Y303168D01*
X383856D01*
Y302659D01*
X382328D01*
Y302150D01*
X381309D01*
Y301640D01*
X379780D01*
Y301131D01*
X378252D01*
Y300621D01*
X377233D01*
Y300112D01*
X375705D01*
Y299602D01*
X374686D01*
Y298074D01*
X375196D01*
Y297055D01*
X375705D01*
Y296546D01*
X376214D01*
Y295527D01*
X376724D01*
Y294508D01*
X377233D01*
Y293998D01*
X377743D01*
Y293489D01*
X378252D01*
Y292470D01*
X378762D01*
Y291961D01*
X379271D01*
Y291451D01*
X379780D01*
Y290432D01*
X380799D01*
Y289413D01*
X381818D01*
Y288904D01*
X382328D01*
Y288395D01*
X383347D01*
Y287885D01*
X387932D01*
Y288395D01*
X390988D01*
Y288904D01*
X392517D01*
Y289413D01*
X394554D01*
Y289923D01*
X396083D01*
Y290432D01*
X397102D01*
Y290942D01*
X398120D01*
Y291451D01*
X398630D01*
Y291961D01*
X399139D01*
Y292470D01*
X399649D01*
Y292980D01*
X400158D01*
Y293489D01*
X401177D01*
Y293998D01*
X402196D01*
Y294508D01*
X402705D01*
Y295017D01*
X403215D01*
Y295527D01*
X404234D01*
Y296036D01*
X404743D01*
Y296546D01*
X405762D01*
Y297055D01*
X406271D01*
Y298074D01*
X399649D01*
Y298583D01*
X397611D01*
Y299093D01*
X396083D01*
Y299602D01*
X394045D01*
Y300112D01*
X393026D01*
Y300621D01*
X392007D01*
Y301131D01*
X390479D01*
Y301640D01*
X388950D01*
Y302150D01*
X387932D01*
Y302659D01*
X387422D01*
Y303168D01*
X386403D01*
Y303678D01*
D02*
G37*
G36*
X399649Y286357D02*
X398630D01*
Y285847D01*
X399649D01*
Y286357D01*
D02*
G37*
G36*
X454668Y285847D02*
X454159D01*
Y285338D01*
X454668D01*
Y285847D01*
D02*
G37*
G36*
X425121Y248658D02*
X423592D01*
Y248149D01*
X425121D01*
Y248658D01*
D02*
G37*
G36*
X427159Y248149D02*
X426140D01*
Y247639D01*
X427159D01*
Y248149D01*
D02*
G37*
G36*
X429196Y246620D02*
X428687D01*
Y246111D01*
X429196D01*
Y246620D01*
D02*
G37*
G36*
X283496Y233884D02*
X282987D01*
Y233375D01*
X283496D01*
Y233884D01*
D02*
G37*
G36*
X305402Y238979D02*
X304383D01*
Y238469D01*
X303874D01*
Y237960D01*
X303364D01*
Y236941D01*
X302855D01*
Y236432D01*
X302345D01*
Y235413D01*
X301836D01*
Y234903D01*
X301326D01*
Y233884D01*
X300817D01*
Y232865D01*
X301326D01*
Y232356D01*
X305911D01*
Y232865D01*
X306421D01*
Y233884D01*
X306930D01*
Y234394D01*
X306421D01*
Y237960D01*
X305911D01*
Y238469D01*
X305402D01*
Y238979D01*
D02*
G37*
G36*
X290628Y232865D02*
X290119D01*
Y231847D01*
X290628D01*
Y232356D01*
Y232865D01*
D02*
G37*
G36*
X397611Y234394D02*
X396592D01*
Y233375D01*
Y232865D01*
Y230318D01*
X397102D01*
Y229809D01*
X399139D01*
Y230318D01*
X399649D01*
Y230828D01*
X400668D01*
Y231337D01*
X400158D01*
Y232356D01*
X399649D01*
Y232865D01*
X398630D01*
Y233375D01*
X398120D01*
Y233884D01*
X397611D01*
Y234394D01*
D02*
G37*
G36*
X296741Y242035D02*
X296232D01*
Y241526D01*
X295723D01*
Y240507D01*
X295213D01*
Y238979D01*
X294704D01*
Y237960D01*
X294194D01*
Y236432D01*
X293685D01*
Y234903D01*
X293175D01*
Y233375D01*
X292666D01*
Y231847D01*
X292157D01*
Y229299D01*
X291647D01*
Y227771D01*
X291138D01*
Y226752D01*
X291647D01*
Y227262D01*
X292157D01*
Y227771D01*
X293175D01*
Y228280D01*
X293685D01*
Y228790D01*
X294194D01*
Y229299D01*
X294704D01*
Y229809D01*
X295213D01*
Y230318D01*
X296232D01*
Y230828D01*
X296741D01*
Y232356D01*
X297251D01*
Y233375D01*
X297760D01*
Y237960D01*
X297251D01*
Y239998D01*
X296741D01*
Y241526D01*
Y242035D01*
D02*
G37*
G36*
X420536Y247130D02*
X414932D01*
Y246620D01*
X413404D01*
Y246111D01*
X412385D01*
Y245601D01*
X411366D01*
Y245092D01*
X410347D01*
Y244583D01*
X409328D01*
Y244073D01*
X408309D01*
Y243564D01*
X407800D01*
Y243054D01*
X406781D01*
Y242545D01*
X406271D01*
Y242035D01*
X405762D01*
Y241016D01*
X405253D01*
Y240507D01*
X404234D01*
Y239488D01*
X403724D01*
Y238469D01*
X403215D01*
Y237960D01*
X402705D01*
Y233375D01*
Y232865D01*
Y231847D01*
X403215D01*
Y230828D01*
X403724D01*
Y228790D01*
X403215D01*
Y228280D01*
X402705D01*
Y226243D01*
X403215D01*
Y224714D01*
X403724D01*
Y224205D01*
X404234D01*
Y223186D01*
X404743D01*
Y222167D01*
X405253D01*
Y220639D01*
X405762D01*
Y219620D01*
X406271D01*
Y218601D01*
X406781D01*
Y217073D01*
X407290D01*
Y215544D01*
X407800D01*
Y214016D01*
X408309D01*
Y211978D01*
X408819D01*
Y210450D01*
X409328D01*
Y209431D01*
X409837D01*
Y207903D01*
X410347D01*
Y206374D01*
X410856D01*
Y204846D01*
X411366D01*
Y203827D01*
X411875D01*
Y201789D01*
X412385D01*
Y200770D01*
X412894D01*
Y199752D01*
X413404D01*
Y198223D01*
X413913D01*
Y196186D01*
X414422D01*
Y195167D01*
X414932D01*
Y193638D01*
X415441D01*
Y192619D01*
X415951D01*
Y190582D01*
X416460D01*
Y189053D01*
X416970D01*
Y187016D01*
X417479D01*
Y187525D01*
X417989D01*
Y189053D01*
X418498D01*
Y190072D01*
X419007D01*
Y191091D01*
X419517D01*
Y192110D01*
X420026D01*
Y193129D01*
X420536D01*
Y194148D01*
X421045D01*
Y194657D01*
X421555D01*
Y196186D01*
X422064D01*
Y197204D01*
X422574D01*
Y198223D01*
X423083D01*
Y199242D01*
X423592D01*
Y200770D01*
X424102D01*
Y201789D01*
X424611D01*
Y202808D01*
X425121D01*
Y204337D01*
X425630D01*
Y204846D01*
X426140D01*
Y206374D01*
X426649D01*
Y207393D01*
X427159D01*
Y208922D01*
X427668D01*
Y209940D01*
X428177D01*
Y211469D01*
X428687D01*
Y212488D01*
X429196D01*
Y213507D01*
X429706D01*
Y215035D01*
X430215D01*
Y216054D01*
X430725D01*
Y217582D01*
X431234D01*
Y219110D01*
X431744D01*
Y220129D01*
X432253D01*
Y221148D01*
X432762D01*
Y222677D01*
X433272D01*
Y223695D01*
X433781D01*
Y224714D01*
X434291D01*
Y226243D01*
X434800D01*
Y228280D01*
X435310D01*
Y229809D01*
X435819D01*
Y230828D01*
X436329D01*
Y232356D01*
X436838D01*
Y233884D01*
X437347D01*
Y235413D01*
X437857D01*
Y236432D01*
X437347D01*
Y236941D01*
X436838D01*
Y237960D01*
X436329D01*
Y238469D01*
X435819D01*
Y238979D01*
X435310D01*
Y239488D01*
X434291D01*
Y239998D01*
X433781D01*
Y240507D01*
X432762D01*
Y241016D01*
X432253D01*
Y241526D01*
X431744D01*
Y242035D01*
X431234D01*
Y242545D01*
X430215D01*
Y243054D01*
X428687D01*
Y243564D01*
X428177D01*
Y244073D01*
X427159D01*
Y244583D01*
X426140D01*
Y245092D01*
X425121D01*
Y245601D01*
X423592D01*
Y246111D01*
X422064D01*
Y246620D01*
X420536D01*
Y247130D01*
D02*
G37*
G36*
X406781Y201280D02*
X406271D01*
Y194657D01*
X405762D01*
Y189563D01*
X406271D01*
Y187525D01*
X405762D01*
Y181412D01*
X405253D01*
Y177336D01*
X404743D01*
Y174789D01*
Y174280D01*
Y173261D01*
X404234D01*
Y170204D01*
X403724D01*
Y166638D01*
X403215D01*
Y164600D01*
X402705D01*
Y162053D01*
X402196D01*
Y160015D01*
X401686D01*
Y155430D01*
X401177D01*
Y153392D01*
X400668D01*
Y151355D01*
X403215D01*
Y151864D01*
X412385D01*
Y152374D01*
X415951D01*
Y152883D01*
X419007D01*
Y153392D01*
X421555D01*
Y153902D01*
X423083D01*
Y154411D01*
X424102D01*
Y154921D01*
X425630D01*
Y155430D01*
X426649D01*
Y158487D01*
X426140D01*
Y160015D01*
X425630D01*
Y161034D01*
X425121D01*
Y162562D01*
X424611D01*
Y163581D01*
X424102D01*
Y164091D01*
X423592D01*
Y165110D01*
X423083D01*
Y165619D01*
X422574D01*
Y166638D01*
X422064D01*
Y167147D01*
X421555D01*
Y168676D01*
X421045D01*
Y169695D01*
X420536D01*
Y170714D01*
X420026D01*
Y171732D01*
X419517D01*
Y172751D01*
X419007D01*
Y174280D01*
X418498D01*
Y175298D01*
X417989D01*
Y176317D01*
X417479D01*
Y177336D01*
X416970D01*
Y178355D01*
X416460D01*
Y179374D01*
X415951D01*
Y180393D01*
X415441D01*
Y181412D01*
X414932D01*
Y183449D01*
X414422D01*
Y184468D01*
X413913D01*
Y185487D01*
X413404D01*
Y186506D01*
X412894D01*
Y187525D01*
X412385D01*
Y188544D01*
X411875D01*
Y189563D01*
X411366D01*
Y190582D01*
X410856D01*
Y192110D01*
X410347D01*
Y193129D01*
X409837D01*
Y194148D01*
X409328D01*
Y195167D01*
X408819D01*
Y196695D01*
X408309D01*
Y197714D01*
X407800D01*
Y199242D01*
X407290D01*
Y200261D01*
X406781D01*
Y201280D01*
D02*
G37*
G36*
X255986Y144732D02*
X255477D01*
Y141675D01*
X255986D01*
Y141166D01*
X256495D01*
Y140656D01*
X257514D01*
Y139637D01*
X258024D01*
Y138109D01*
X258533D01*
Y137600D01*
X259043D01*
Y137090D01*
X259552D01*
Y136581D01*
X260062D01*
Y136071D01*
X260571D01*
Y135562D01*
X261590D01*
Y135052D01*
X262099D01*
Y134543D01*
X262609D01*
Y134034D01*
X263118D01*
Y133524D01*
X264137D01*
Y133015D01*
X264647D01*
Y132505D01*
X265665D01*
Y131996D01*
X266175D01*
Y132505D01*
X265665D01*
Y133524D01*
X265156D01*
Y134034D01*
X264647D01*
Y134543D01*
X264137D01*
Y135562D01*
X263628D01*
Y136071D01*
X263118D01*
Y136581D01*
X262609D01*
Y137600D01*
X262099D01*
Y138109D01*
X261590D01*
Y138619D01*
X261080D01*
Y139128D01*
X260571D01*
Y140147D01*
X260062D01*
Y140656D01*
X259552D01*
Y141166D01*
X259043D01*
Y141675D01*
X258533D01*
Y142185D01*
X258024D01*
Y142694D01*
X257514D01*
Y143204D01*
X257005D01*
Y143713D01*
X256495D01*
Y144222D01*
X255986D01*
Y144732D01*
D02*
G37*
G36*
X386403Y144222D02*
X385894D01*
Y143204D01*
X385384D01*
Y142185D01*
X384875D01*
Y141166D01*
X384365D01*
Y140147D01*
Y139637D01*
X383856D01*
Y138619D01*
X383347D01*
Y137600D01*
X382837D01*
Y136581D01*
X382328D01*
Y136071D01*
X381818D01*
Y134543D01*
X381309D01*
Y134034D01*
X380799D01*
Y133524D01*
X380290D01*
Y132505D01*
X379780D01*
Y131996D01*
X379271D01*
Y131487D01*
X378762D01*
Y130468D01*
X377743D01*
Y129449D01*
X377233D01*
Y128939D01*
X376724D01*
Y128430D01*
X376214D01*
Y127920D01*
X375705D01*
Y127411D01*
X375196D01*
Y126392D01*
X374686D01*
Y125883D01*
X374177D01*
Y125373D01*
X375196D01*
Y125883D01*
X375705D01*
Y126392D01*
X376214D01*
Y126902D01*
X377233D01*
Y127411D01*
X377743D01*
Y127920D01*
X378252D01*
Y128430D01*
X379271D01*
Y128939D01*
X379780D01*
Y129449D01*
X380290D01*
Y129958D01*
X381309D01*
Y130468D01*
X381818D01*
Y130977D01*
X382328D01*
Y131487D01*
X382837D01*
Y131996D01*
X383856D01*
Y132505D01*
X384365D01*
Y133524D01*
X385384D01*
Y134034D01*
X385894D01*
Y134543D01*
X386403D01*
Y135052D01*
X386913D01*
Y135562D01*
X387422D01*
Y136071D01*
X387932D01*
Y137090D01*
X388441D01*
Y137600D01*
X388950D01*
Y138109D01*
X389460D01*
Y138619D01*
X389969D01*
Y139637D01*
X389460D01*
Y140656D01*
X388950D01*
Y141166D01*
X388441D01*
Y141675D01*
X387932D01*
Y142694D01*
X387422D01*
Y143204D01*
X386913D01*
Y143713D01*
X386403D01*
Y144222D01*
D02*
G37*
G36*
X374177Y125373D02*
X373667D01*
Y124864D01*
X374177D01*
Y125373D01*
D02*
G37*
G36*
X387422Y125883D02*
X385894D01*
Y125373D01*
X384875D01*
Y123845D01*
X385894D01*
Y124354D01*
X386403D01*
Y124864D01*
X387422D01*
Y125883D01*
D02*
G37*
G36*
X389969Y122317D02*
X387932D01*
Y121807D01*
X386913D01*
Y121298D01*
X385894D01*
Y120788D01*
X384875D01*
Y120279D01*
X383856D01*
Y119769D01*
X381818D01*
Y119260D01*
X380799D01*
Y118750D01*
X379271D01*
Y118241D01*
X377743D01*
Y117732D01*
X376724D01*
Y117222D01*
X375196D01*
Y116713D01*
X373667D01*
Y116203D01*
X373158D01*
Y115694D01*
X372139D01*
Y115184D01*
X371629D01*
Y114675D01*
X372139D01*
Y114165D01*
X375705D01*
Y113656D01*
X384365D01*
Y114165D01*
X385894D01*
Y114675D01*
X386913D01*
Y115184D01*
X387932D01*
Y115694D01*
X389460D01*
Y116203D01*
X390479D01*
Y116713D01*
X390988D01*
Y118241D01*
X390479D01*
Y121298D01*
X389969D01*
Y122317D01*
D02*
G37*
G36*
X257005Y132505D02*
X256495D01*
Y131996D01*
X255986D01*
Y131487D01*
X256495D01*
Y129958D01*
X257005D01*
Y128939D01*
X257514D01*
Y127920D01*
X258024D01*
Y127411D01*
X258533D01*
Y126902D01*
X259043D01*
Y126392D01*
X259552D01*
Y125883D01*
X260062D01*
Y125373D01*
X261080D01*
Y124354D01*
X261590D01*
Y123845D01*
X262099D01*
Y122826D01*
X262609D01*
Y122317D01*
X263628D01*
Y121298D01*
X264137D01*
Y120788D01*
X265156D01*
Y120279D01*
X265665D01*
Y119769D01*
X266175D01*
Y119260D01*
X267194D01*
Y118750D01*
X267703D01*
Y118241D01*
X268722D01*
Y117732D01*
X269232D01*
Y117222D01*
X269741D01*
Y116713D01*
X270250D01*
Y116203D01*
X271269D01*
Y115694D01*
X272288D01*
Y115184D01*
X273307D01*
Y114675D01*
X273817D01*
Y114165D01*
X274835D01*
Y113656D01*
X275345D01*
Y113146D01*
X275854D01*
Y112637D01*
X276364D01*
Y112128D01*
X276873D01*
Y111618D01*
X277383D01*
Y111109D01*
X277892D01*
Y110599D01*
X278911D01*
Y110090D01*
X279420D01*
Y109580D01*
X280439D01*
Y109071D01*
X280949D01*
Y108562D01*
X281458D01*
Y108052D01*
X282477D01*
Y107543D01*
X282987D01*
Y107033D01*
X284005D01*
Y106524D01*
X284515D01*
Y106014D01*
X285024D01*
Y105505D01*
X286043D01*
Y104995D01*
X286553D01*
Y104486D01*
X287062D01*
Y103977D01*
X288081D01*
Y103467D01*
X289100D01*
Y102958D01*
X289609D01*
Y102448D01*
X290628D01*
Y101939D01*
X291647D01*
Y101429D01*
X292157D01*
Y100920D01*
X293175D01*
Y100410D01*
X294194D01*
Y99901D01*
X294704D01*
Y99392D01*
X295723D01*
Y98882D01*
X296232D01*
Y98373D01*
X297251D01*
Y97863D01*
X298270D01*
Y97354D01*
X298779D01*
Y96844D01*
X299798D01*
Y96335D01*
X300817D01*
Y95826D01*
X301836D01*
Y95316D01*
X302345D01*
Y94807D01*
X303364D01*
Y94297D01*
X304383D01*
Y93788D01*
X305402D01*
Y93278D01*
X306421D01*
Y92769D01*
X307440D01*
Y92259D01*
X308459D01*
Y91750D01*
X309478D01*
Y91241D01*
X311006D01*
Y90731D01*
X311515D01*
Y90222D01*
X312534D01*
Y89712D01*
X313553D01*
Y89203D01*
X315081D01*
Y88693D01*
X316100D01*
Y89203D01*
X315591D01*
Y89712D01*
X314572D01*
Y90222D01*
X313553D01*
Y90731D01*
X312534D01*
Y91241D01*
X311515D01*
Y91750D01*
X311006D01*
Y92259D01*
X309987D01*
Y92769D01*
X308968D01*
Y93278D01*
X308459D01*
Y93788D01*
X307440D01*
Y94297D01*
X306421D01*
Y94807D01*
X305911D01*
Y95316D01*
X304893D01*
Y95826D01*
X304383D01*
Y96335D01*
X303874D01*
Y96844D01*
X302855D01*
Y97354D01*
X301836D01*
Y97863D01*
X301326D01*
Y98373D01*
X300308D01*
Y98882D01*
X299289D01*
Y99392D01*
X298779D01*
Y99901D01*
X297760D01*
Y100410D01*
X296741D01*
Y100920D01*
X295723D01*
Y101429D01*
X294704D01*
Y102448D01*
X293685D01*
Y102958D01*
X293175D01*
Y103467D01*
X292666D01*
Y103977D01*
X291647D01*
Y104486D01*
X290628D01*
Y104995D01*
X290119D01*
Y105505D01*
X289100D01*
Y106014D01*
X288590D01*
Y106524D01*
X287572D01*
Y107033D01*
X287062D01*
Y107543D01*
X286043D01*
Y108052D01*
X285534D01*
Y108562D01*
X284515D01*
Y109071D01*
X284005D01*
Y109580D01*
X283496D01*
Y110090D01*
X282477D01*
Y110599D01*
X281968D01*
Y111109D01*
X281458D01*
Y111618D01*
X280439D01*
Y112128D01*
X279930D01*
Y112637D01*
X278911D01*
Y113146D01*
X278402D01*
Y113656D01*
X277892D01*
Y114165D01*
X276873D01*
Y114675D01*
X276364D01*
Y115184D01*
X275854D01*
Y115694D01*
X274835D01*
Y116203D01*
X274326D01*
Y116713D01*
X273307D01*
Y117222D01*
X272798D01*
Y117732D01*
X271779D01*
Y118241D01*
X271269D01*
Y118750D01*
X270760D01*
Y119260D01*
X269741D01*
Y119769D01*
X269232D01*
Y120279D01*
X268722D01*
Y120788D01*
X268213D01*
Y121298D01*
X267194D01*
Y121807D01*
X266684D01*
Y122317D01*
X266175D01*
Y122826D01*
X265665D01*
Y123335D01*
X265156D01*
Y123845D01*
X264137D01*
Y124864D01*
X263628D01*
Y125373D01*
X263118D01*
Y125883D01*
X262609D01*
Y126392D01*
X262099D01*
Y126902D01*
X261590D01*
Y127411D01*
X261080D01*
Y127920D01*
X260571D01*
Y128430D01*
X260062D01*
Y128939D01*
X259552D01*
Y129449D01*
X259043D01*
Y129958D01*
X258533D01*
Y130468D01*
X258024D01*
Y131487D01*
X257514D01*
Y131996D01*
X257005D01*
Y132505D01*
D02*
G37*
%LPD*%
G36*
X342082Y523247D02*
X344629D01*
Y522738D01*
X347176D01*
Y522228D01*
X349214D01*
Y521719D01*
X351252D01*
Y521209D01*
X353289D01*
Y520700D01*
X354308D01*
Y520191D01*
X355837D01*
Y519681D01*
X357365D01*
Y519172D01*
X356856D01*
Y518662D01*
X356346D01*
Y519172D01*
X355327D01*
Y519681D01*
X353799D01*
Y520191D01*
X351252D01*
Y520700D01*
X348704D01*
Y521209D01*
X341572D01*
Y520700D01*
X336987D01*
Y520191D01*
X333931D01*
Y519681D01*
X330874D01*
Y519172D01*
X328327D01*
Y518662D01*
X326799D01*
Y518153D01*
X324761D01*
Y517643D01*
X323742D01*
Y517134D01*
X322214D01*
Y516624D01*
X321195D01*
Y516115D01*
X319157D01*
Y516624D01*
X318647D01*
Y517134D01*
X318138D01*
Y518153D01*
X317628D01*
Y518662D01*
X317119D01*
Y520700D01*
X317628D01*
Y521209D01*
X319157D01*
Y521719D01*
X320685D01*
Y522228D01*
X322723D01*
Y522738D01*
X325780D01*
Y523247D01*
X328836D01*
Y523757D01*
X342082D01*
Y523247D01*
D02*
G37*
G36*
X293685Y514587D02*
X293175D01*
Y515096D01*
X292666D01*
Y515606D01*
X293685D01*
Y514587D01*
D02*
G37*
G36*
X331384Y516624D02*
X336987D01*
Y516115D01*
X339025D01*
Y515606D01*
X341063D01*
Y515096D01*
X342591D01*
Y514587D01*
X343101D01*
Y514077D01*
X342082D01*
Y514587D01*
X340044D01*
Y515096D01*
X337497D01*
Y515606D01*
X331384D01*
Y515096D01*
X329855D01*
Y514587D01*
X328327D01*
Y514077D01*
X325780D01*
Y513568D01*
X325270D01*
Y513058D01*
X324251D01*
Y514077D01*
X323742D01*
Y513568D01*
X323232D01*
Y513058D01*
X322723D01*
Y514077D01*
X323232D01*
Y514587D01*
X323742D01*
Y515096D01*
X324761D01*
Y515606D01*
X325270D01*
Y515096D01*
X326289D01*
Y516115D01*
X327817D01*
Y516624D01*
X329346D01*
Y517134D01*
X331384D01*
Y516624D01*
D02*
G37*
G36*
X294194Y513568D02*
X293685D01*
Y514077D01*
X294194D01*
Y513568D01*
D02*
G37*
G36*
X348195Y503888D02*
X347176D01*
Y504398D01*
X348195D01*
Y503888D01*
D02*
G37*
G36*
X337497Y514077D02*
X340553D01*
Y513568D01*
X343101D01*
Y513058D01*
X344629D01*
Y512549D01*
X345648D01*
Y512039D01*
X346667D01*
Y511530D01*
X348195D01*
Y511021D01*
X348704D01*
Y510511D01*
X349723D01*
Y510002D01*
X350233D01*
Y509492D01*
X351252D01*
Y508983D01*
X353799D01*
Y509492D01*
X355837D01*
Y510002D01*
X356346D01*
Y508983D01*
X355327D01*
Y508473D01*
X354308D01*
Y507964D01*
X353289D01*
Y507454D01*
X352271D01*
Y506945D01*
X350742D01*
Y506436D01*
X348195D01*
Y505417D01*
X347176D01*
Y504907D01*
X346667D01*
Y502869D01*
X345648D01*
Y502360D01*
X344629D01*
Y501851D01*
X340553D01*
Y502360D01*
X339025D01*
Y502869D01*
X336987D01*
Y503379D01*
X334950D01*
Y503888D01*
X333421D01*
Y504398D01*
X332402D01*
Y504907D01*
X334440D01*
Y504398D01*
X336478D01*
Y503888D01*
X338516D01*
Y503379D01*
X340553D01*
Y502869D01*
X344119D01*
Y503379D01*
X345138D01*
Y503888D01*
X339535D01*
Y504398D01*
X338516D01*
Y504907D01*
X338006D01*
Y505417D01*
X336987D01*
Y506436D01*
X336478D01*
Y506945D01*
X335969D01*
Y507454D01*
X335459D01*
Y508473D01*
X334950D01*
Y510002D01*
X338006D01*
Y510511D01*
X339025D01*
Y511530D01*
X339535D01*
Y512039D01*
X339025D01*
Y512549D01*
X336478D01*
Y512039D01*
X334950D01*
Y512549D01*
X333931D01*
Y512039D01*
X329346D01*
Y511530D01*
X327817D01*
Y513058D01*
X329346D01*
Y513568D01*
X331893D01*
Y514077D01*
X336478D01*
Y514587D01*
X337497D01*
Y514077D01*
D02*
G37*
G36*
X303874Y502869D02*
Y502360D01*
Y501851D01*
X303364D01*
Y501341D01*
X302855D01*
Y502360D01*
X303364D01*
Y503379D01*
X303874D01*
Y502869D01*
D02*
G37*
G36*
X302855Y499303D02*
X302345D01*
Y498285D01*
X301836D01*
Y497266D01*
X301326D01*
Y496756D01*
X300817D01*
Y495737D01*
X300308D01*
Y495228D01*
X299798D01*
Y494719D01*
X299289D01*
Y494209D01*
X298779D01*
Y493700D01*
X299289D01*
Y493190D01*
X299798D01*
Y492681D01*
X300308D01*
Y490643D01*
X300817D01*
Y489624D01*
X301326D01*
Y489115D01*
Y488605D01*
X300817D01*
Y489115D01*
X300308D01*
Y490134D01*
X299798D01*
Y491152D01*
X299289D01*
Y492171D01*
X298779D01*
Y492681D01*
X297760D01*
Y493190D01*
X297251D01*
Y495228D01*
X298270D01*
Y496247D01*
X298779D01*
Y495737D01*
X299289D01*
Y496247D01*
X298779D01*
Y497266D01*
X299798D01*
Y496756D01*
X300308D01*
Y497266D01*
X299798D01*
Y498285D01*
X300308D01*
Y498794D01*
X300817D01*
Y499303D01*
X301326D01*
Y499813D01*
X301836D01*
Y500322D01*
X302345D01*
Y501341D01*
X302855D01*
Y499303D01*
D02*
G37*
G36*
X293685Y494719D02*
Y494209D01*
X294194D01*
Y493700D01*
X294704D01*
Y493190D01*
Y492681D01*
X294194D01*
Y493700D01*
X293685D01*
Y494209D01*
X293175D01*
Y495228D01*
X293685D01*
Y494719D01*
D02*
G37*
%LPC*%
G36*
X325270Y514587D02*
X324251D01*
Y514077D01*
X325270D01*
Y514587D01*
D02*
G37*
G36*
X343101Y505417D02*
X342082D01*
Y504907D01*
X343101D01*
Y505417D01*
D02*
G37*
%LPD*%
G36*
X303874Y420340D02*
X303364D01*
Y420849D01*
X303874D01*
Y420340D01*
D02*
G37*
G36*
Y418812D02*
X303364D01*
Y419321D01*
Y419831D01*
X303874D01*
Y418812D01*
D02*
G37*
G36*
X299289Y418302D02*
X298779D01*
Y418812D01*
X299289D01*
Y418302D01*
D02*
G37*
G36*
X174985Y413208D02*
X176513D01*
Y412698D01*
X178551D01*
Y412189D01*
X176004D01*
Y412698D01*
X171419D01*
Y413208D01*
X169890D01*
Y413717D01*
X174985D01*
Y413208D01*
D02*
G37*
G36*
X304383Y414736D02*
X304893D01*
Y412698D01*
X305402D01*
Y411679D01*
X305911D01*
Y410151D01*
X305402D01*
Y410661D01*
X304893D01*
Y412698D01*
X304383D01*
Y414736D01*
X303874D01*
Y415755D01*
X304383D01*
Y414736D01*
D02*
G37*
G36*
X288081Y411170D02*
X287572D01*
Y410151D01*
X287062D01*
Y409642D01*
X286553D01*
Y410661D01*
X287062D01*
Y412189D01*
X288081D01*
Y411170D01*
D02*
G37*
G36*
X302855Y409132D02*
X303874D01*
Y408623D01*
X304383D01*
Y407604D01*
X303874D01*
Y408113D01*
X303364D01*
Y408623D01*
X302855D01*
Y409132D01*
X302345D01*
Y409642D01*
X302855D01*
Y409132D01*
D02*
G37*
G36*
X241722Y427472D02*
X242741D01*
Y426963D01*
X243250D01*
Y426453D01*
X243759D01*
Y425944D01*
X244778D01*
Y425434D01*
X245288D01*
Y424925D01*
X246307D01*
Y424416D01*
X247326D01*
Y423906D01*
X248344D01*
Y423397D01*
X249873D01*
Y422887D01*
X250382D01*
Y422378D01*
X251401D01*
Y421868D01*
X252420D01*
Y421359D01*
X253439D01*
Y420849D01*
X254458D01*
Y420340D01*
X255477D01*
Y419831D01*
X255986D01*
Y419321D01*
X257005D01*
Y418812D01*
X258533D01*
Y418302D01*
X259552D01*
Y417793D01*
X260571D01*
Y417283D01*
X261590D01*
Y416774D01*
X262609D01*
Y415755D01*
X263118D01*
Y415246D01*
X263628D01*
Y414227D01*
X264137D01*
Y413717D01*
X264647D01*
Y413208D01*
X265156D01*
Y412189D01*
X265665D01*
Y411679D01*
X266175D01*
Y411170D01*
X267194D01*
Y410151D01*
X267703D01*
Y409642D01*
X268213D01*
Y409132D01*
X268722D01*
Y408623D01*
X269232D01*
Y408113D01*
X269741D01*
Y407604D01*
X270250D01*
Y407094D01*
X270760D01*
Y406585D01*
X271269D01*
Y406076D01*
X271779D01*
Y405057D01*
X272288D01*
Y404547D01*
X272798D01*
Y404038D01*
X273307D01*
Y403528D01*
X273817D01*
Y403019D01*
X274326D01*
Y401491D01*
X273307D01*
Y402000D01*
X272798D01*
Y402509D01*
X272288D01*
Y403019D01*
X271779D01*
Y403528D01*
X271269D01*
Y404038D01*
X270760D01*
Y404547D01*
X270250D01*
Y405057D01*
X269232D01*
Y405566D01*
X268722D01*
Y406076D01*
X267703D01*
Y406585D01*
X266684D01*
Y407094D01*
X266175D01*
Y407604D01*
X265665D01*
Y408113D01*
X264647D01*
Y408623D01*
X264137D01*
Y409132D01*
X263628D01*
Y409642D01*
X263118D01*
Y410151D01*
X262609D01*
Y410661D01*
X262099D01*
Y411170D01*
X261590D01*
Y411679D01*
X261080D01*
Y412698D01*
X261590D01*
Y412189D01*
X262099D01*
Y411679D01*
X262609D01*
Y411170D01*
X263628D01*
Y410661D01*
X264137D01*
Y410151D01*
X264647D01*
Y409642D01*
X265665D01*
Y408623D01*
X266175D01*
Y408113D01*
X267194D01*
Y407604D01*
X267703D01*
Y408623D01*
X267194D01*
Y409132D01*
X266684D01*
Y409642D01*
X266175D01*
Y410151D01*
X265665D01*
Y410661D01*
X265156D01*
Y411170D01*
X264647D01*
Y412189D01*
X264137D01*
Y412698D01*
X263628D01*
Y413208D01*
X263118D01*
Y413717D01*
X262609D01*
Y414736D01*
X262099D01*
Y415246D01*
X261590D01*
Y415755D01*
X261080D01*
Y416264D01*
X260062D01*
Y416774D01*
X259043D01*
Y417283D01*
X257514D01*
Y417793D01*
X256495D01*
Y418302D01*
X255477D01*
Y418812D01*
X254967D01*
Y419321D01*
X253439D01*
Y419831D01*
X252929D01*
Y419321D01*
X253439D01*
Y418812D01*
X253948D01*
Y418302D01*
X254967D01*
Y417793D01*
X255477D01*
Y417283D01*
X256495D01*
Y416774D01*
X257005D01*
Y416264D01*
X257514D01*
Y415755D01*
X258024D01*
Y415246D01*
X259043D01*
Y414736D01*
X259552D01*
Y413717D01*
Y413208D01*
X259043D01*
Y413717D01*
X258533D01*
Y414227D01*
X257514D01*
Y414736D01*
X257005D01*
Y415246D01*
X256495D01*
Y415755D01*
X255986D01*
Y416264D01*
X254967D01*
Y416774D01*
X254458D01*
Y417283D01*
X253948D01*
Y417793D01*
X253439D01*
Y418302D01*
X252420D01*
Y418812D01*
X251401D01*
Y419321D01*
X250892D01*
Y419831D01*
X250382D01*
Y420340D01*
X249363D01*
Y420849D01*
X248854D01*
Y421359D01*
X248344D01*
Y421868D01*
X247835D01*
Y422378D01*
X246816D01*
Y422887D01*
X246307D01*
Y423397D01*
X245797D01*
Y423906D01*
X245288D01*
Y424416D01*
X244778D01*
Y424925D01*
X243759D01*
Y425434D01*
X243250D01*
Y425944D01*
X242231D01*
Y426453D01*
X241722D01*
Y427472D01*
X241212D01*
Y427982D01*
Y428491D01*
X241722D01*
Y427472D01*
D02*
G37*
G36*
X389460Y421868D02*
X388950D01*
Y422378D01*
X389460D01*
Y421868D01*
D02*
G37*
G36*
X390479Y419321D02*
X389969D01*
Y419831D01*
X390479D01*
Y419321D01*
D02*
G37*
G36*
X407800Y416264D02*
X407290D01*
Y416774D01*
X407800D01*
Y416264D01*
D02*
G37*
G36*
X403215Y416774D02*
X403724D01*
Y416264D01*
Y415755D01*
X402705D01*
Y417283D01*
X403215D01*
Y416774D01*
D02*
G37*
G36*
X409837Y410151D02*
X410347D01*
Y409132D01*
X409837D01*
Y409642D01*
X409328D01*
Y411170D01*
X409837D01*
Y410151D01*
D02*
G37*
G36*
X406271Y408623D02*
X405762D01*
Y409132D01*
X406271D01*
Y408623D01*
D02*
G37*
G36*
X406781Y407604D02*
X406271D01*
Y408113D01*
X406781D01*
Y407604D01*
D02*
G37*
G36*
X410347D02*
X410856D01*
Y406076D01*
X410347D01*
Y406585D01*
Y407604D01*
X409837D01*
Y408113D01*
X410347D01*
Y407604D01*
D02*
G37*
G36*
X411875Y402509D02*
X412385D01*
Y400981D01*
X411875D01*
Y402000D01*
X411366D01*
Y403528D01*
X411875D01*
Y402509D01*
D02*
G37*
G36*
Y388755D02*
Y388245D01*
X411366D01*
Y389264D01*
X411875D01*
Y388755D01*
D02*
G37*
G36*
X390988Y393849D02*
Y393340D01*
Y392321D01*
X390479D01*
Y390792D01*
X389969D01*
Y388245D01*
X389460D01*
Y387226D01*
X388950D01*
Y385698D01*
X388441D01*
Y385188D01*
X387932D01*
Y384170D01*
X387422D01*
Y382641D01*
X386913D01*
Y382132D01*
X386403D01*
Y381113D01*
X385894D01*
Y380094D01*
X385384D01*
Y379075D01*
X384875D01*
Y378566D01*
X384365D01*
Y377547D01*
X383856D01*
Y376528D01*
X383347D01*
Y376018D01*
X382837D01*
Y375000D01*
X382328D01*
Y373981D01*
X381818D01*
Y373471D01*
X381309D01*
Y372452D01*
X380799D01*
Y371943D01*
X380290D01*
Y371433D01*
X379780D01*
Y370415D01*
X379271D01*
Y369905D01*
X378762D01*
Y369396D01*
X378252D01*
Y370415D01*
X378762D01*
Y370924D01*
X379271D01*
Y371943D01*
X379780D01*
Y372452D01*
X380290D01*
Y373471D01*
X380799D01*
Y373981D01*
X381309D01*
Y375000D01*
X381818D01*
Y375509D01*
X382328D01*
Y376528D01*
X382837D01*
Y377037D01*
X383347D01*
Y378056D01*
X383856D01*
Y379075D01*
X384365D01*
Y380094D01*
X384875D01*
Y381113D01*
X385384D01*
Y382132D01*
X385894D01*
Y383151D01*
X386403D01*
Y384679D01*
X386913D01*
Y385698D01*
X387422D01*
Y386717D01*
X387932D01*
Y387736D01*
X388441D01*
Y389264D01*
X388950D01*
Y391302D01*
X389460D01*
Y393340D01*
X389969D01*
Y395377D01*
X390988D01*
Y393849D01*
D02*
G37*
G36*
X381309Y363792D02*
X380799D01*
Y364301D01*
X381309D01*
Y363792D01*
D02*
G37*
G36*
X272288Y391811D02*
X271779D01*
Y392321D01*
X272288D01*
Y391811D01*
D02*
G37*
G36*
X271779Y389264D02*
Y388755D01*
Y387226D01*
X271269D01*
Y391302D01*
X271779D01*
Y389264D01*
D02*
G37*
G36*
X258024Y387226D02*
X257514D01*
Y387736D01*
X258024D01*
Y387226D01*
D02*
G37*
G36*
X258533Y385188D02*
X259043D01*
Y384679D01*
X258533D01*
Y385188D01*
X258024D01*
Y385698D01*
X258533D01*
Y385188D01*
D02*
G37*
G36*
X322214Y393340D02*
X322723D01*
Y392830D01*
X322214D01*
Y393340D01*
X321704D01*
Y393849D01*
X322214D01*
Y393340D01*
D02*
G37*
G36*
X323232Y391302D02*
X322723D01*
Y391811D01*
X323232D01*
Y391302D01*
D02*
G37*
M02*
