G04*
G04 #@! TF.GenerationSoftware,Altium Limited,Altium Designer,23.4.1 (23)*
G04*
G04 Layer_Physical_Order=2*
G04 Layer_Color=16711680*
%FSLAX44Y44*%
%MOMM*%
G71*
G04*
G04 #@! TF.SameCoordinates,3D8DB9D9-8021-40C2-9F22-367B33DB821F*
G04*
G04*
G04 #@! TF.FilePolarity,Positive*
G04*
G01*
G75*
%ADD10C,0.2540*%
%ADD15C,1.5240*%
%ADD16R,1.5240X1.5240*%
%ADD17C,6.0000*%
%ADD18C,1.2700*%
G36*
X556260Y628122D02*
X554990Y627817D01*
X552831Y632055D01*
X549820Y636198D01*
X546198Y639820D01*
X542055Y642831D01*
X537491Y645156D01*
X532620Y646739D01*
X527561Y647540D01*
X522439D01*
X517380Y646739D01*
X512509Y645156D01*
X507945Y642831D01*
X503802Y639820D01*
X500180Y636198D01*
X497169Y632055D01*
X494844Y627491D01*
X493261Y622620D01*
X492460Y617561D01*
Y612439D01*
X493261Y607380D01*
X494844Y602509D01*
X497169Y597945D01*
X500180Y593802D01*
X503802Y590180D01*
X507945Y587169D01*
X512509Y584844D01*
X517380Y583261D01*
X522439Y582460D01*
X527561D01*
X532620Y583261D01*
X537491Y584844D01*
X542055Y587169D01*
X546198Y590180D01*
X549820Y593802D01*
X552831Y597945D01*
X554990Y602183D01*
X556260Y601878D01*
Y48122D01*
X554990Y47817D01*
X552831Y52055D01*
X549820Y56198D01*
X546198Y59820D01*
X542055Y62831D01*
X537491Y65156D01*
X532620Y66739D01*
X527561Y67540D01*
X522439D01*
X517380Y66739D01*
X512509Y65156D01*
X507945Y62831D01*
X503802Y59820D01*
X500180Y56198D01*
X497169Y52055D01*
X494844Y47491D01*
X493261Y42620D01*
X492460Y37561D01*
Y32439D01*
X493261Y27380D01*
X494844Y22509D01*
X497169Y17945D01*
X500180Y13802D01*
X503802Y10180D01*
X507945Y7169D01*
X512509Y4844D01*
X515381Y3911D01*
X515180Y2641D01*
X44820D01*
X44619Y3911D01*
X47491Y4844D01*
X52055Y7169D01*
X56198Y10180D01*
X59820Y13802D01*
X62831Y17945D01*
X65156Y22509D01*
X66739Y27380D01*
X67540Y32439D01*
Y37561D01*
X66739Y42620D01*
X65156Y47491D01*
X62831Y52055D01*
X59820Y56198D01*
X56198Y59820D01*
X52055Y62831D01*
X47491Y65156D01*
X42620Y66739D01*
X37561Y67540D01*
X32439D01*
X27380Y66739D01*
X22509Y65156D01*
X17945Y62831D01*
X13802Y59820D01*
X10180Y56198D01*
X7169Y52055D01*
X4844Y47491D01*
X3911Y44619D01*
X2641Y44820D01*
Y605180D01*
X3911Y605381D01*
X4844Y602509D01*
X7169Y597945D01*
X10180Y593802D01*
X13802Y590180D01*
X17945Y587169D01*
X22509Y584844D01*
X27380Y583261D01*
X32439Y582460D01*
X37561D01*
X42620Y583261D01*
X47491Y584844D01*
X52055Y587169D01*
X56198Y590180D01*
X59820Y593802D01*
X62831Y597945D01*
X65156Y602509D01*
X66739Y607380D01*
X67540Y612439D01*
Y617561D01*
X66739Y622620D01*
X65156Y627491D01*
X62831Y632055D01*
X59820Y636198D01*
X56198Y639820D01*
X52055Y642831D01*
X47491Y645156D01*
X42620Y646739D01*
X37561Y647540D01*
X32439D01*
X27380Y646739D01*
X22509Y645156D01*
X17945Y642831D01*
X13802Y639820D01*
X10180Y636198D01*
X7169Y632055D01*
X4844Y627491D01*
X3911Y624619D01*
X2641Y624820D01*
Y667361D01*
X556260D01*
Y628122D01*
D02*
G37*
%LPC*%
G36*
X95318Y617220D02*
X92642D01*
X90058Y616528D01*
X87742Y615190D01*
X85850Y613298D01*
X84512Y610982D01*
X83820Y608398D01*
Y605722D01*
X84512Y603138D01*
X85850Y600822D01*
X87742Y598930D01*
X90058Y597592D01*
X92642Y596900D01*
X95318D01*
X97902Y597592D01*
X100218Y598930D01*
X102110Y600822D01*
X103448Y603138D01*
X104140Y605722D01*
Y608398D01*
X103448Y610982D01*
X102110Y613298D01*
X100218Y615190D01*
X97902Y616528D01*
X95318Y617220D01*
D02*
G37*
G36*
X431868Y610870D02*
X429192D01*
X426608Y610178D01*
X424292Y608840D01*
X422400Y606948D01*
X421062Y604632D01*
X420370Y602048D01*
Y599372D01*
X421062Y596788D01*
X422400Y594472D01*
X424292Y592580D01*
X426608Y591242D01*
X429192Y590550D01*
X431868D01*
X434452Y591242D01*
X436768Y592580D01*
X438660Y594472D01*
X439998Y596788D01*
X440690Y599372D01*
Y602048D01*
X439998Y604632D01*
X438660Y606948D01*
X436768Y608840D01*
X434452Y610178D01*
X431868Y610870D01*
D02*
G37*
G36*
X95318Y591820D02*
X92642D01*
X90058Y591128D01*
X87742Y589790D01*
X85850Y587898D01*
X84512Y585582D01*
X83820Y582998D01*
Y580322D01*
X84512Y577738D01*
X85850Y575422D01*
X87742Y573530D01*
X90058Y572192D01*
X92642Y571500D01*
X95318D01*
X97902Y572192D01*
X100218Y573530D01*
X102110Y575422D01*
X103448Y577738D01*
X104140Y580322D01*
Y582998D01*
X103448Y585582D01*
X102110Y587898D01*
X100218Y589790D01*
X97902Y591128D01*
X95318Y591820D01*
D02*
G37*
G36*
X49038Y576460D02*
X48970D01*
Y567570D01*
X57860D01*
Y567638D01*
X57168Y570222D01*
X55830Y572538D01*
X53938Y574430D01*
X51622Y575768D01*
X49038Y576460D01*
D02*
G37*
G36*
X46430D02*
X46362D01*
X43778Y575768D01*
X41462Y574430D01*
X39570Y572538D01*
X38232Y570222D01*
X37540Y567638D01*
Y567570D01*
X46430D01*
Y576460D01*
D02*
G37*
G36*
X431868Y585470D02*
X429192D01*
X426608Y584778D01*
X424292Y583440D01*
X422400Y581548D01*
X421062Y579232D01*
X420370Y576648D01*
Y573972D01*
X421062Y571388D01*
X422400Y569072D01*
X424292Y567180D01*
X426608Y565842D01*
X429192Y565150D01*
X431868D01*
X434452Y565842D01*
X436768Y567180D01*
X438660Y569072D01*
X439998Y571388D01*
X440690Y573972D01*
Y576648D01*
X439998Y579232D01*
X438660Y581548D01*
X436768Y583440D01*
X434452Y584778D01*
X431868Y585470D01*
D02*
G37*
G36*
X95318Y566420D02*
X95250D01*
Y557530D01*
X104140D01*
Y557598D01*
X103448Y560182D01*
X102110Y562498D01*
X100218Y564390D01*
X97902Y565728D01*
X95318Y566420D01*
D02*
G37*
G36*
X92710D02*
X92642D01*
X90058Y565728D01*
X87742Y564390D01*
X85850Y562498D01*
X84512Y560182D01*
X83820Y557598D01*
Y557530D01*
X92710D01*
Y566420D01*
D02*
G37*
G36*
X57860Y565030D02*
X48970D01*
Y556140D01*
X49038D01*
X51622Y556832D01*
X53938Y558170D01*
X55830Y560062D01*
X57168Y562378D01*
X57860Y564962D01*
Y565030D01*
D02*
G37*
G36*
X46430D02*
X37540D01*
Y564962D01*
X38232Y562378D01*
X39570Y560062D01*
X41462Y558170D01*
X43778Y556832D01*
X46362Y556140D01*
X46430D01*
Y565030D01*
D02*
G37*
G36*
X23638Y576460D02*
X20962D01*
X18378Y575768D01*
X16062Y574430D01*
X14170Y572538D01*
X12832Y570222D01*
X12140Y567638D01*
Y564962D01*
X12832Y562378D01*
X14170Y560062D01*
X16062Y558170D01*
X18378Y556832D01*
X20962Y556140D01*
X23638D01*
X26222Y556832D01*
X28538Y558170D01*
X30430Y560062D01*
X31768Y562378D01*
X32460Y564962D01*
Y567638D01*
X31768Y570222D01*
X30430Y572538D01*
X28538Y574430D01*
X26222Y575768D01*
X23638Y576460D01*
D02*
G37*
G36*
X104140Y554990D02*
X95250D01*
Y546100D01*
X95318D01*
X97902Y546792D01*
X100218Y548130D01*
X102110Y550022D01*
X103448Y552338D01*
X104140Y554922D01*
Y554990D01*
D02*
G37*
G36*
X92710D02*
X83820D01*
Y554922D01*
X84512Y552338D01*
X85850Y550022D01*
X87742Y548130D01*
X90058Y546792D01*
X92642Y546100D01*
X92710D01*
Y554990D01*
D02*
G37*
G36*
X431868Y560070D02*
X429192D01*
X426608Y559378D01*
X424292Y558040D01*
X422400Y556148D01*
X421062Y553832D01*
X420370Y551248D01*
Y548572D01*
X421062Y545988D01*
X422400Y543672D01*
X424292Y541780D01*
X426608Y540442D01*
X429192Y539750D01*
X431868D01*
X434452Y540442D01*
X436768Y541780D01*
X438660Y543672D01*
X439998Y545988D01*
X440690Y548572D01*
Y551248D01*
X439998Y553832D01*
X438660Y556148D01*
X436768Y558040D01*
X434452Y559378D01*
X431868Y560070D01*
D02*
G37*
G36*
X49038Y551060D02*
X46362D01*
X43778Y550368D01*
X41462Y549030D01*
X39570Y547138D01*
X38232Y544822D01*
X37540Y542238D01*
Y539562D01*
X38232Y536978D01*
X39570Y534662D01*
X41462Y532770D01*
X43778Y531432D01*
X46362Y530740D01*
X49038D01*
X51622Y531432D01*
X53938Y532770D01*
X55830Y534662D01*
X57168Y536978D01*
X57860Y539562D01*
Y542238D01*
X57168Y544822D01*
X55830Y547138D01*
X53938Y549030D01*
X51622Y550368D01*
X49038Y551060D01*
D02*
G37*
G36*
X23638D02*
X20962D01*
X18378Y550368D01*
X16062Y549030D01*
X14170Y547138D01*
X12832Y544822D01*
X12140Y542238D01*
Y539562D01*
X12832Y536978D01*
X14170Y534662D01*
X16062Y532770D01*
X18378Y531432D01*
X20962Y530740D01*
X23638D01*
X26222Y531432D01*
X28538Y532770D01*
X30430Y534662D01*
X31768Y536978D01*
X32460Y539562D01*
Y542238D01*
X31768Y544822D01*
X30430Y547138D01*
X28538Y549030D01*
X26222Y550368D01*
X23638Y551060D01*
D02*
G37*
G36*
X95318Y541020D02*
X92642D01*
X90058Y540328D01*
X87742Y538990D01*
X85850Y537098D01*
X84512Y534782D01*
X83820Y532198D01*
Y529522D01*
X84512Y526938D01*
X85850Y524622D01*
X87742Y522730D01*
X90058Y521392D01*
X92290Y520794D01*
Y519430D01*
X92585Y517943D01*
X93289Y516890D01*
X92907Y515620D01*
X92642D01*
X90058Y514928D01*
X87742Y513590D01*
X85850Y511698D01*
X84512Y509382D01*
X83820Y506798D01*
Y504122D01*
X84512Y501538D01*
X85850Y499222D01*
X87742Y497330D01*
X87993Y497184D01*
X88042Y495690D01*
X87769Y495507D01*
X79803Y487541D01*
X78961Y486281D01*
X78665Y484795D01*
Y343340D01*
X78961Y341853D01*
X79803Y340593D01*
X191322Y229075D01*
X191302Y229042D01*
X190610Y226458D01*
Y223782D01*
X191302Y221198D01*
X192640Y218882D01*
X194532Y216990D01*
X196848Y215652D01*
X199432Y214960D01*
X202108D01*
X204692Y215652D01*
X207008Y216990D01*
X208900Y218882D01*
X210238Y221198D01*
X210930Y223782D01*
Y226458D01*
X210238Y229042D01*
X208900Y231358D01*
X207008Y233250D01*
X204692Y234588D01*
X202108Y235280D01*
X199432D01*
X196848Y234588D01*
X196815Y234569D01*
X86435Y344949D01*
Y446178D01*
X87608Y446664D01*
X87742Y446530D01*
X90058Y445192D01*
X92642Y444500D01*
X95318D01*
X97902Y445192D01*
X100218Y446530D01*
X102110Y448422D01*
X103448Y450738D01*
X104140Y453322D01*
Y453511D01*
X105313Y453997D01*
X196885Y362425D01*
Y259998D01*
X196848Y259988D01*
X194532Y258650D01*
X192640Y256758D01*
X191302Y254442D01*
X190610Y251858D01*
Y249182D01*
X191302Y246598D01*
X192640Y244282D01*
X194532Y242390D01*
X196848Y241052D01*
X199432Y240360D01*
X202108D01*
X204692Y241052D01*
X207008Y242390D01*
X208900Y244282D01*
X210238Y246598D01*
X210930Y249182D01*
Y251858D01*
X210238Y254442D01*
X208900Y256758D01*
X207008Y258650D01*
X204692Y259988D01*
X204655Y259998D01*
Y364035D01*
X204359Y365521D01*
X203517Y366781D01*
X100059Y470239D01*
Y471838D01*
X100218Y471930D01*
X102110Y473822D01*
X103448Y476138D01*
X104140Y478722D01*
Y481398D01*
X103448Y483982D01*
X103428Y484015D01*
X140039Y520625D01*
X421053D01*
X421062Y520588D01*
X422400Y518272D01*
X424292Y516380D01*
X425479Y515695D01*
X425138Y514425D01*
X424180D01*
X422693Y514129D01*
X421433Y513287D01*
X250576Y342430D01*
X248820Y342900D01*
X246480D01*
X244219Y342294D01*
X242191Y341124D01*
X240536Y339469D01*
X239366Y337441D01*
X238760Y335180D01*
Y332840D01*
X239366Y330579D01*
X240536Y328551D01*
X242191Y326896D01*
X244219Y325726D01*
X246480Y325120D01*
X248820D01*
X251081Y325726D01*
X253109Y326896D01*
X254764Y328551D01*
X255934Y330579D01*
X256540Y332840D01*
Y335180D01*
X256070Y336936D01*
X419100Y499966D01*
X420370Y499440D01*
Y497772D01*
X421062Y495188D01*
X422400Y492872D01*
X424292Y490980D01*
X426608Y489642D01*
X429192Y488950D01*
X431868D01*
X434452Y489642D01*
X436768Y490980D01*
X438660Y492872D01*
X439998Y495188D01*
X440690Y497772D01*
Y500448D01*
X439998Y503032D01*
X438660Y505348D01*
X436768Y507240D01*
X436499Y507396D01*
X436333Y508655D01*
X449574Y521895D01*
X503602D01*
X503612Y521858D01*
X504950Y519542D01*
X506842Y517650D01*
X509158Y516312D01*
X511742Y515620D01*
X514418D01*
X517002Y516312D01*
X519318Y517650D01*
X521210Y519542D01*
X522548Y521858D01*
X523240Y524442D01*
Y527118D01*
X522548Y529702D01*
X521210Y532018D01*
X519318Y533910D01*
X517002Y535248D01*
X514418Y535940D01*
X511742D01*
X509158Y535248D01*
X506842Y533910D01*
X504950Y532018D01*
X503612Y529702D01*
X503602Y529665D01*
X447965D01*
X446478Y529369D01*
X445218Y528527D01*
X441863Y525173D01*
X440690Y525659D01*
Y525848D01*
X439998Y528432D01*
X438660Y530748D01*
X436768Y532640D01*
X434452Y533978D01*
X431868Y534670D01*
X429192D01*
X426608Y533978D01*
X424292Y532640D01*
X422400Y530748D01*
X421062Y528432D01*
X421053Y528395D01*
X138430D01*
X136943Y528099D01*
X135683Y527257D01*
X110468Y502042D01*
X109295Y502528D01*
Y510195D01*
X108999Y511681D01*
X108157Y512941D01*
X100059Y521039D01*
Y522638D01*
X100218Y522730D01*
X102110Y524622D01*
X103448Y526938D01*
X104140Y529522D01*
Y532198D01*
X103448Y534782D01*
X102110Y537098D01*
X100218Y538990D01*
X97902Y540328D01*
X95318Y541020D01*
D02*
G37*
G36*
X49038Y525660D02*
X46362D01*
X43778Y524968D01*
X41462Y523630D01*
X39570Y521738D01*
X38232Y519422D01*
X37540Y516838D01*
Y514162D01*
X38232Y511578D01*
X39570Y509262D01*
X41462Y507370D01*
X43778Y506032D01*
X46362Y505340D01*
X49038D01*
X51622Y506032D01*
X53938Y507370D01*
X55830Y509262D01*
X57168Y511578D01*
X57860Y514162D01*
Y516838D01*
X57168Y519422D01*
X55830Y521738D01*
X53938Y523630D01*
X51622Y524968D01*
X49038Y525660D01*
D02*
G37*
G36*
X23638D02*
X20962D01*
X18378Y524968D01*
X16062Y523630D01*
X14170Y521738D01*
X12832Y519422D01*
X12140Y516838D01*
Y514162D01*
X12832Y511578D01*
X14170Y509262D01*
X16062Y507370D01*
X18378Y506032D01*
X20962Y505340D01*
X23638D01*
X26222Y506032D01*
X28538Y507370D01*
X30430Y509262D01*
X31768Y511578D01*
X32460Y514162D01*
Y516838D01*
X31768Y519422D01*
X30430Y521738D01*
X28538Y523630D01*
X26222Y524968D01*
X23638Y525660D01*
D02*
G37*
G36*
Y500260D02*
X23570D01*
Y491370D01*
X32460D01*
Y491438D01*
X31768Y494022D01*
X30430Y496338D01*
X28538Y498230D01*
X26222Y499568D01*
X23638Y500260D01*
D02*
G37*
G36*
X21030D02*
X20962D01*
X18378Y499568D01*
X16062Y498230D01*
X14170Y496338D01*
X12832Y494022D01*
X12140Y491438D01*
Y491370D01*
X21030D01*
Y500260D01*
D02*
G37*
G36*
X514418Y510540D02*
X511742D01*
X509158Y509848D01*
X506842Y508510D01*
X504950Y506618D01*
X503612Y504302D01*
X502920Y501718D01*
Y499042D01*
X503612Y496458D01*
X503632Y496425D01*
X355330Y348124D01*
X354488Y346864D01*
X354193Y345377D01*
Y342472D01*
X212103Y200383D01*
X210930Y200869D01*
Y201058D01*
X210238Y203642D01*
X208900Y205958D01*
X207008Y207850D01*
X204692Y209188D01*
X202108Y209880D01*
X202040D01*
Y199720D01*
X200770D01*
Y198450D01*
X190610D01*
Y198382D01*
X191302Y195798D01*
X192640Y193482D01*
X194532Y191590D01*
X195719Y190905D01*
X195378Y189635D01*
X141605D01*
X140118Y189339D01*
X138858Y188497D01*
X102716Y152355D01*
X56182D01*
X55696Y153528D01*
X55830Y153662D01*
X57168Y155978D01*
X57860Y158562D01*
Y161238D01*
X57168Y163822D01*
X55830Y166138D01*
X53938Y168030D01*
X51622Y169368D01*
X49038Y170060D01*
X46362D01*
X43778Y169368D01*
X41462Y168030D01*
X39570Y166138D01*
X38232Y163822D01*
X37540Y161238D01*
Y158562D01*
X38232Y155978D01*
X39570Y153662D01*
X39704Y153528D01*
X39218Y152355D01*
X35339D01*
X31748Y155945D01*
X31768Y155978D01*
X32460Y158562D01*
Y161238D01*
X31768Y163822D01*
X30430Y166138D01*
X28538Y168030D01*
X26222Y169368D01*
X23638Y170060D01*
X20962D01*
X18378Y169368D01*
X16062Y168030D01*
X14170Y166138D01*
X12832Y163822D01*
X12140Y161238D01*
Y158562D01*
X12832Y155978D01*
X14170Y153662D01*
X16062Y151770D01*
X18378Y150432D01*
X20962Y149740D01*
X23638D01*
X26222Y150432D01*
X26255Y150451D01*
X30983Y145723D01*
X32243Y144881D01*
X33730Y144585D01*
X42308D01*
X42649Y143315D01*
X41462Y142630D01*
X39570Y140738D01*
X38232Y138422D01*
X37540Y135838D01*
Y133162D01*
X38232Y130578D01*
X39570Y128262D01*
X41462Y126370D01*
X43778Y125032D01*
X46362Y124340D01*
X49038D01*
X51622Y125032D01*
X53938Y126370D01*
X55830Y128262D01*
X57168Y130578D01*
X57860Y133162D01*
Y135838D01*
X57168Y138422D01*
X55830Y140738D01*
X53938Y142630D01*
X52751Y143315D01*
X53092Y144585D01*
X104325D01*
X105812Y144881D01*
X107072Y145723D01*
X143214Y181865D01*
X192288D01*
X192774Y180692D01*
X192640Y180558D01*
X191302Y178242D01*
X190610Y175658D01*
Y172982D01*
X191302Y170398D01*
X192640Y168082D01*
X194532Y166190D01*
X196848Y164852D01*
X199432Y164160D01*
X202108D01*
X204692Y164852D01*
X207008Y166190D01*
X208900Y168082D01*
X210238Y170398D01*
X210930Y172982D01*
Y175658D01*
X210238Y178242D01*
X208900Y180558D01*
X207008Y182450D01*
X206739Y182606D01*
X206573Y183865D01*
X360824Y338116D01*
X361666Y339376D01*
X361962Y340863D01*
Y343768D01*
X509125Y490932D01*
X509158Y490912D01*
X511742Y490220D01*
X514418D01*
X517002Y490912D01*
X519318Y492250D01*
X521210Y494142D01*
X522548Y496458D01*
X523240Y499042D01*
Y501718D01*
X522548Y504302D01*
X521210Y506618D01*
X519318Y508510D01*
X517002Y509848D01*
X514418Y510540D01*
D02*
G37*
G36*
X49038Y500260D02*
X46362D01*
X43778Y499568D01*
X41462Y498230D01*
X39570Y496338D01*
X38232Y494022D01*
X37540Y491438D01*
Y488762D01*
X38232Y486178D01*
X39570Y483862D01*
X41462Y481970D01*
X43778Y480632D01*
X46362Y479940D01*
X49038D01*
X51622Y480632D01*
X53938Y481970D01*
X55830Y483862D01*
X57168Y486178D01*
X57860Y488762D01*
Y491438D01*
X57168Y494022D01*
X55830Y496338D01*
X53938Y498230D01*
X51622Y499568D01*
X49038Y500260D01*
D02*
G37*
G36*
X32460Y488830D02*
X23570D01*
Y479940D01*
X23638D01*
X26222Y480632D01*
X28538Y481970D01*
X30430Y483862D01*
X31768Y486178D01*
X32460Y488762D01*
Y488830D01*
D02*
G37*
G36*
X21030D02*
X12140D01*
Y488762D01*
X12832Y486178D01*
X14170Y483862D01*
X16062Y481970D01*
X18378Y480632D01*
X20962Y479940D01*
X21030D01*
Y488830D01*
D02*
G37*
G36*
X514418Y485140D02*
X514350D01*
Y476250D01*
X523240D01*
Y476318D01*
X522548Y478902D01*
X521210Y481218D01*
X519318Y483110D01*
X517002Y484448D01*
X514418Y485140D01*
D02*
G37*
G36*
X511810D02*
X511742D01*
X509158Y484448D01*
X506842Y483110D01*
X504950Y481218D01*
X503612Y478902D01*
X502920Y476318D01*
Y476250D01*
X511810D01*
Y485140D01*
D02*
G37*
G36*
X431868Y483870D02*
X431800D01*
Y474980D01*
X440690D01*
Y475048D01*
X439998Y477632D01*
X438660Y479948D01*
X436768Y481840D01*
X434452Y483178D01*
X431868Y483870D01*
D02*
G37*
G36*
X429260D02*
X429192D01*
X426608Y483178D01*
X424292Y481840D01*
X422400Y479948D01*
X421062Y477632D01*
X420370Y475048D01*
Y474980D01*
X429260D01*
Y483870D01*
D02*
G37*
G36*
X523240Y473710D02*
X514350D01*
Y464820D01*
X514418D01*
X517002Y465512D01*
X519318Y466850D01*
X521210Y468742D01*
X522548Y471058D01*
X523240Y473642D01*
Y473710D01*
D02*
G37*
G36*
X511810D02*
X502920D01*
Y473642D01*
X503612Y471058D01*
X504950Y468742D01*
X506842Y466850D01*
X509158Y465512D01*
X511742Y464820D01*
X511810D01*
Y473710D01*
D02*
G37*
G36*
X440690Y472440D02*
X431800D01*
Y463550D01*
X431868D01*
X434452Y464242D01*
X436768Y465580D01*
X438660Y467472D01*
X439998Y469788D01*
X440690Y472372D01*
Y472440D01*
D02*
G37*
G36*
X429260D02*
X420370D01*
Y472372D01*
X421062Y469788D01*
X422400Y467472D01*
X424292Y465580D01*
X426608Y464242D01*
X429192Y463550D01*
X429260D01*
Y472440D01*
D02*
G37*
G36*
X49038Y474860D02*
X46362D01*
X43778Y474168D01*
X41462Y472830D01*
X39570Y470938D01*
X38232Y468622D01*
X37540Y466038D01*
Y463362D01*
X38232Y460778D01*
X39570Y458462D01*
X41462Y456570D01*
X43778Y455232D01*
X46362Y454540D01*
X49038D01*
X51622Y455232D01*
X53938Y456570D01*
X55830Y458462D01*
X57168Y460778D01*
X57860Y463362D01*
Y466038D01*
X57168Y468622D01*
X55830Y470938D01*
X53938Y472830D01*
X51622Y474168D01*
X49038Y474860D01*
D02*
G37*
G36*
X23638D02*
X20962D01*
X18378Y474168D01*
X16062Y472830D01*
X14170Y470938D01*
X12832Y468622D01*
X12140Y466038D01*
Y463362D01*
X12832Y460778D01*
X14170Y458462D01*
X16062Y456570D01*
X18378Y455232D01*
X20962Y454540D01*
X23638D01*
X26222Y455232D01*
X28538Y456570D01*
X30430Y458462D01*
X31768Y460778D01*
X32460Y463362D01*
Y466038D01*
X31768Y468622D01*
X30430Y470938D01*
X28538Y472830D01*
X26222Y474168D01*
X23638Y474860D01*
D02*
G37*
G36*
Y449460D02*
X23570D01*
Y440570D01*
X32460D01*
Y440638D01*
X31768Y443222D01*
X30430Y445538D01*
X28538Y447430D01*
X26222Y448768D01*
X23638Y449460D01*
D02*
G37*
G36*
X21030D02*
X20962D01*
X18378Y448768D01*
X16062Y447430D01*
X14170Y445538D01*
X12832Y443222D01*
X12140Y440638D01*
Y440570D01*
X21030D01*
Y449460D01*
D02*
G37*
G36*
X431868Y458470D02*
X429192D01*
X426608Y457778D01*
X424292Y456440D01*
X422400Y454548D01*
X421062Y452232D01*
X420370Y449648D01*
Y446972D01*
X421062Y444388D01*
X422400Y442072D01*
X424292Y440180D01*
X426608Y438842D01*
X429192Y438150D01*
X431868D01*
X434452Y438842D01*
X436768Y440180D01*
X438660Y442072D01*
X439998Y444388D01*
X440690Y446972D01*
Y449648D01*
X439998Y452232D01*
X438660Y454548D01*
X436768Y456440D01*
X434452Y457778D01*
X431868Y458470D01*
D02*
G37*
G36*
X49038Y449460D02*
X46362D01*
X43778Y448768D01*
X41462Y447430D01*
X39570Y445538D01*
X38232Y443222D01*
X37540Y440638D01*
Y437962D01*
X38232Y435378D01*
X39570Y433062D01*
X41462Y431170D01*
X43778Y429832D01*
X46362Y429140D01*
X49038D01*
X51622Y429832D01*
X53938Y431170D01*
X55830Y433062D01*
X57168Y435378D01*
X57860Y437962D01*
Y440638D01*
X57168Y443222D01*
X55830Y445538D01*
X53938Y447430D01*
X51622Y448768D01*
X49038Y449460D01*
D02*
G37*
G36*
X32460Y438030D02*
X23570D01*
Y429140D01*
X23638D01*
X26222Y429832D01*
X28538Y431170D01*
X30430Y433062D01*
X31768Y435378D01*
X32460Y437962D01*
Y438030D01*
D02*
G37*
G36*
X21030D02*
X12140D01*
Y437962D01*
X12832Y435378D01*
X14170Y433062D01*
X16062Y431170D01*
X18378Y429832D01*
X20962Y429140D01*
X21030D01*
Y438030D01*
D02*
G37*
G36*
X49038Y424060D02*
X46362D01*
X43778Y423368D01*
X41462Y422030D01*
X39570Y420138D01*
X38232Y417822D01*
X37540Y415238D01*
Y412562D01*
X38232Y409978D01*
X39570Y407662D01*
X41462Y405770D01*
X43778Y404432D01*
X46362Y403740D01*
X49038D01*
X51622Y404432D01*
X53938Y405770D01*
X55830Y407662D01*
X57168Y409978D01*
X57860Y412562D01*
Y415238D01*
X57168Y417822D01*
X55830Y420138D01*
X53938Y422030D01*
X51622Y423368D01*
X49038Y424060D01*
D02*
G37*
G36*
X23638D02*
X20962D01*
X18378Y423368D01*
X16062Y422030D01*
X14170Y420138D01*
X12832Y417822D01*
X12140Y415238D01*
Y412562D01*
X12832Y409978D01*
X14170Y407662D01*
X16062Y405770D01*
X18378Y404432D01*
X20962Y403740D01*
X23638D01*
X26222Y404432D01*
X28538Y405770D01*
X30430Y407662D01*
X31768Y409978D01*
X32460Y412562D01*
Y415238D01*
X31768Y417822D01*
X30430Y420138D01*
X28538Y422030D01*
X26222Y423368D01*
X23638Y424060D01*
D02*
G37*
G36*
X49038Y398660D02*
X48970D01*
Y389770D01*
X57860D01*
Y389838D01*
X57168Y392422D01*
X55830Y394738D01*
X53938Y396630D01*
X51622Y397968D01*
X49038Y398660D01*
D02*
G37*
G36*
X46430D02*
X46362D01*
X43778Y397968D01*
X41462Y396630D01*
X39570Y394738D01*
X38232Y392422D01*
X37540Y389838D01*
Y389770D01*
X46430D01*
Y398660D01*
D02*
G37*
G36*
X57860Y387230D02*
X48970D01*
Y378340D01*
X49038D01*
X51622Y379032D01*
X53938Y380370D01*
X55830Y382262D01*
X57168Y384578D01*
X57860Y387162D01*
Y387230D01*
D02*
G37*
G36*
X46430D02*
X37540D01*
Y387162D01*
X38232Y384578D01*
X39570Y382262D01*
X41462Y380370D01*
X43778Y379032D01*
X46362Y378340D01*
X46430D01*
Y387230D01*
D02*
G37*
G36*
X23638Y398660D02*
X20962D01*
X18378Y397968D01*
X16062Y396630D01*
X14170Y394738D01*
X12832Y392422D01*
X12140Y389838D01*
Y387162D01*
X12832Y384578D01*
X14170Y382262D01*
X16062Y380370D01*
X18378Y379032D01*
X20962Y378340D01*
X23638D01*
X26222Y379032D01*
X28538Y380370D01*
X30430Y382262D01*
X31768Y384578D01*
X32460Y387162D01*
Y389838D01*
X31768Y392422D01*
X30430Y394738D01*
X28538Y396630D01*
X26222Y397968D01*
X23638Y398660D01*
D02*
G37*
G36*
X49038Y373260D02*
X46362D01*
X43778Y372568D01*
X41462Y371230D01*
X39570Y369338D01*
X38232Y367022D01*
X37540Y364438D01*
Y361762D01*
X38232Y359178D01*
X39570Y356862D01*
X41462Y354970D01*
X43778Y353632D01*
X46362Y352940D01*
X49038D01*
X51622Y353632D01*
X53938Y354970D01*
X55830Y356862D01*
X57168Y359178D01*
X57860Y361762D01*
Y364438D01*
X57168Y367022D01*
X55830Y369338D01*
X53938Y371230D01*
X51622Y372568D01*
X49038Y373260D01*
D02*
G37*
G36*
X23638D02*
X20962D01*
X18378Y372568D01*
X16062Y371230D01*
X14170Y369338D01*
X12832Y367022D01*
X12140Y364438D01*
Y361762D01*
X12832Y359178D01*
X14170Y356862D01*
X16062Y354970D01*
X18378Y353632D01*
X20962Y352940D01*
X23638D01*
X26222Y353632D01*
X28538Y354970D01*
X30430Y356862D01*
X31768Y359178D01*
X32460Y361762D01*
Y364438D01*
X31768Y367022D01*
X30430Y369338D01*
X28538Y371230D01*
X26222Y372568D01*
X23638Y373260D01*
D02*
G37*
G36*
X49038Y347860D02*
X46362D01*
X43778Y347168D01*
X41462Y345830D01*
X39570Y343938D01*
X38232Y341622D01*
X37540Y339038D01*
Y336362D01*
X38232Y333778D01*
X39570Y331462D01*
X41462Y329570D01*
X43778Y328232D01*
X46362Y327540D01*
X49038D01*
X51622Y328232D01*
X53938Y329570D01*
X55830Y331462D01*
X57168Y333778D01*
X57860Y336362D01*
Y339038D01*
X57168Y341622D01*
X55830Y343938D01*
X53938Y345830D01*
X51622Y347168D01*
X49038Y347860D01*
D02*
G37*
G36*
X23638D02*
X20962D01*
X18378Y347168D01*
X16062Y345830D01*
X14170Y343938D01*
X12832Y341622D01*
X12140Y339038D01*
Y336362D01*
X12832Y333778D01*
X14170Y331462D01*
X16062Y329570D01*
X18378Y328232D01*
X20962Y327540D01*
X23638D01*
X26222Y328232D01*
X28538Y329570D01*
X30430Y331462D01*
X31768Y333778D01*
X32460Y336362D01*
Y339038D01*
X31768Y341622D01*
X30430Y343938D01*
X28538Y345830D01*
X26222Y347168D01*
X23638Y347860D01*
D02*
G37*
G36*
Y322460D02*
X23570D01*
Y313570D01*
X32460D01*
Y313638D01*
X31768Y316222D01*
X30430Y318538D01*
X28538Y320430D01*
X26222Y321768D01*
X23638Y322460D01*
D02*
G37*
G36*
X21030D02*
X20962D01*
X18378Y321768D01*
X16062Y320430D01*
X14170Y318538D01*
X12832Y316222D01*
X12140Y313638D01*
Y313570D01*
X21030D01*
Y322460D01*
D02*
G37*
G36*
X49038D02*
X46362D01*
X43778Y321768D01*
X41462Y320430D01*
X39570Y318538D01*
X38232Y316222D01*
X37540Y313638D01*
Y310962D01*
X38232Y308378D01*
X39570Y306062D01*
X41462Y304170D01*
X43778Y302832D01*
X46362Y302140D01*
X49038D01*
X51622Y302832D01*
X53938Y304170D01*
X55830Y306062D01*
X57168Y308378D01*
X57860Y310962D01*
Y313638D01*
X57168Y316222D01*
X55830Y318538D01*
X53938Y320430D01*
X51622Y321768D01*
X49038Y322460D01*
D02*
G37*
G36*
X32460Y311030D02*
X23570D01*
Y302140D01*
X23638D01*
X26222Y302832D01*
X28538Y304170D01*
X30430Y306062D01*
X31768Y308378D01*
X32460Y310962D01*
Y311030D01*
D02*
G37*
G36*
X21030D02*
X12140D01*
Y310962D01*
X12832Y308378D01*
X14170Y306062D01*
X16062Y304170D01*
X18378Y302832D01*
X20962Y302140D01*
X21030D01*
Y311030D01*
D02*
G37*
G36*
X49038Y297060D02*
X46362D01*
X43778Y296368D01*
X41462Y295030D01*
X39570Y293138D01*
X38232Y290822D01*
X37540Y288238D01*
Y285562D01*
X38232Y282978D01*
X39570Y280662D01*
X41462Y278770D01*
X43778Y277432D01*
X46362Y276740D01*
X49038D01*
X51622Y277432D01*
X53938Y278770D01*
X55830Y280662D01*
X57168Y282978D01*
X57860Y285562D01*
Y288238D01*
X57168Y290822D01*
X55830Y293138D01*
X53938Y295030D01*
X51622Y296368D01*
X49038Y297060D01*
D02*
G37*
G36*
X23638D02*
X20962D01*
X18378Y296368D01*
X16062Y295030D01*
X14170Y293138D01*
X12832Y290822D01*
X12140Y288238D01*
Y285562D01*
X12832Y282978D01*
X14170Y280662D01*
X16062Y278770D01*
X18378Y277432D01*
X20962Y276740D01*
X23638D01*
X26222Y277432D01*
X28538Y278770D01*
X30430Y280662D01*
X31768Y282978D01*
X32460Y285562D01*
Y288238D01*
X31768Y290822D01*
X30430Y293138D01*
X28538Y295030D01*
X26222Y296368D01*
X23638Y297060D01*
D02*
G37*
G36*
X49038Y271660D02*
X46362D01*
X43778Y270968D01*
X41462Y269630D01*
X39570Y267738D01*
X38232Y265422D01*
X37540Y262838D01*
Y260162D01*
X38232Y257578D01*
X39570Y255262D01*
X41462Y253370D01*
X43778Y252032D01*
X46362Y251340D01*
X49038D01*
X51622Y252032D01*
X53938Y253370D01*
X55830Y255262D01*
X57168Y257578D01*
X57860Y260162D01*
Y262838D01*
X57168Y265422D01*
X55830Y267738D01*
X53938Y269630D01*
X51622Y270968D01*
X49038Y271660D01*
D02*
G37*
G36*
X23638D02*
X20962D01*
X18378Y270968D01*
X16062Y269630D01*
X14170Y267738D01*
X12832Y265422D01*
X12140Y262838D01*
Y260162D01*
X12832Y257578D01*
X14170Y255262D01*
X16062Y253370D01*
X18378Y252032D01*
X20962Y251340D01*
X23638D01*
X26222Y252032D01*
X28538Y253370D01*
X30430Y255262D01*
X31768Y257578D01*
X32460Y260162D01*
Y262838D01*
X31768Y265422D01*
X30430Y267738D01*
X28538Y269630D01*
X26222Y270968D01*
X23638Y271660D01*
D02*
G37*
G36*
Y246260D02*
X23570D01*
Y237370D01*
X32460D01*
Y237438D01*
X31768Y240022D01*
X30430Y242338D01*
X28538Y244230D01*
X26222Y245568D01*
X23638Y246260D01*
D02*
G37*
G36*
X21030D02*
X20962D01*
X18378Y245568D01*
X16062Y244230D01*
X14170Y242338D01*
X12832Y240022D01*
X12140Y237438D01*
Y237370D01*
X21030D01*
Y246260D01*
D02*
G37*
G36*
X49038D02*
X46362D01*
X43778Y245568D01*
X41462Y244230D01*
X39570Y242338D01*
X38232Y240022D01*
X37540Y237438D01*
Y234762D01*
X38232Y232178D01*
X39570Y229862D01*
X41462Y227970D01*
X43778Y226632D01*
X46362Y225940D01*
X49038D01*
X51622Y226632D01*
X53938Y227970D01*
X55830Y229862D01*
X57168Y232178D01*
X57860Y234762D01*
Y237438D01*
X57168Y240022D01*
X55830Y242338D01*
X53938Y244230D01*
X51622Y245568D01*
X49038Y246260D01*
D02*
G37*
G36*
X32460Y234830D02*
X23570D01*
Y225940D01*
X23638D01*
X26222Y226632D01*
X28538Y227970D01*
X30430Y229862D01*
X31768Y232178D01*
X32460Y234762D01*
Y234830D01*
D02*
G37*
G36*
X21030D02*
X12140D01*
Y234762D01*
X12832Y232178D01*
X14170Y229862D01*
X16062Y227970D01*
X18378Y226632D01*
X20962Y225940D01*
X21030D01*
Y234830D01*
D02*
G37*
G36*
X458538Y226060D02*
X458470D01*
Y217170D01*
X467360D01*
Y217238D01*
X466668Y219822D01*
X465330Y222138D01*
X463438Y224030D01*
X461122Y225368D01*
X458538Y226060D01*
D02*
G37*
G36*
X455930D02*
X455862D01*
X453278Y225368D01*
X450962Y224030D01*
X449070Y222138D01*
X447732Y219822D01*
X447040Y217238D01*
Y217170D01*
X455930D01*
Y226060D01*
D02*
G37*
G36*
X467360Y214630D02*
X458470D01*
Y205740D01*
X458538D01*
X461122Y206432D01*
X463438Y207770D01*
X465330Y209662D01*
X466668Y211978D01*
X467360Y214562D01*
Y214630D01*
D02*
G37*
G36*
X455930D02*
X447040D01*
Y214562D01*
X447732Y211978D01*
X449070Y209662D01*
X450962Y207770D01*
X453278Y206432D01*
X455862Y205740D01*
X455930D01*
Y214630D01*
D02*
G37*
G36*
X199500Y209880D02*
X199432D01*
X196848Y209188D01*
X194532Y207850D01*
X192640Y205958D01*
X191302Y203642D01*
X190610Y201058D01*
Y200990D01*
X199500D01*
Y209880D01*
D02*
G37*
G36*
X49038Y220860D02*
X46362D01*
X43778Y220168D01*
X41462Y218830D01*
X39570Y216938D01*
X38232Y214622D01*
X37540Y212038D01*
Y209362D01*
X38232Y206778D01*
X39570Y204462D01*
X41462Y202570D01*
X43778Y201232D01*
X46362Y200540D01*
X49038D01*
X51622Y201232D01*
X53938Y202570D01*
X55830Y204462D01*
X57168Y206778D01*
X57860Y209362D01*
Y212038D01*
X57168Y214622D01*
X55830Y216938D01*
X53938Y218830D01*
X51622Y220168D01*
X49038Y220860D01*
D02*
G37*
G36*
X23638D02*
X20962D01*
X18378Y220168D01*
X16062Y218830D01*
X14170Y216938D01*
X12832Y214622D01*
X12140Y212038D01*
Y209362D01*
X12832Y206778D01*
X14170Y204462D01*
X16062Y202570D01*
X18378Y201232D01*
X20962Y200540D01*
X23638D01*
X26222Y201232D01*
X28538Y202570D01*
X30430Y204462D01*
X31768Y206778D01*
X32460Y209362D01*
Y212038D01*
X31768Y214622D01*
X30430Y216938D01*
X28538Y218830D01*
X26222Y220168D01*
X23638Y220860D01*
D02*
G37*
G36*
X49038Y195460D02*
X48970D01*
Y186570D01*
X57860D01*
Y186638D01*
X57168Y189222D01*
X55830Y191538D01*
X53938Y193430D01*
X51622Y194768D01*
X49038Y195460D01*
D02*
G37*
G36*
X46430D02*
X46362D01*
X43778Y194768D01*
X41462Y193430D01*
X39570Y191538D01*
X38232Y189222D01*
X37540Y186638D01*
Y186570D01*
X46430D01*
Y195460D01*
D02*
G37*
G36*
X458538Y200660D02*
X455862D01*
X453278Y199968D01*
X450962Y198630D01*
X449070Y196738D01*
X447732Y194422D01*
X447040Y191838D01*
Y189162D01*
X447732Y186578D01*
X449070Y184262D01*
X450962Y182370D01*
X453278Y181032D01*
X455862Y180340D01*
X458538D01*
X461122Y181032D01*
X463438Y182370D01*
X465330Y184262D01*
X466668Y186578D01*
X467360Y189162D01*
Y191838D01*
X466668Y194422D01*
X465330Y196738D01*
X463438Y198630D01*
X461122Y199968D01*
X458538Y200660D01*
D02*
G37*
G36*
X57860Y184030D02*
X48970D01*
Y175140D01*
X49038D01*
X51622Y175832D01*
X53938Y177170D01*
X55830Y179062D01*
X57168Y181378D01*
X57860Y183962D01*
Y184030D01*
D02*
G37*
G36*
X46430D02*
X37540D01*
Y183962D01*
X38232Y181378D01*
X39570Y179062D01*
X41462Y177170D01*
X43778Y175832D01*
X46362Y175140D01*
X46430D01*
Y184030D01*
D02*
G37*
G36*
X23638Y195460D02*
X20962D01*
X18378Y194768D01*
X16062Y193430D01*
X14170Y191538D01*
X12832Y189222D01*
X12140Y186638D01*
Y183962D01*
X12832Y181378D01*
X14170Y179062D01*
X16062Y177170D01*
X18378Y175832D01*
X20962Y175140D01*
X23638D01*
X26222Y175832D01*
X28538Y177170D01*
X30430Y179062D01*
X31768Y181378D01*
X32460Y183962D01*
Y186638D01*
X31768Y189222D01*
X30430Y191538D01*
X28538Y193430D01*
X26222Y194768D01*
X23638Y195460D01*
D02*
G37*
G36*
X458538Y175260D02*
X455862D01*
X453278Y174568D01*
X450962Y173230D01*
X449070Y171338D01*
X447732Y169022D01*
X447040Y166438D01*
Y163762D01*
X447732Y161178D01*
X449070Y158862D01*
X450962Y156970D01*
X453278Y155632D01*
X455862Y154940D01*
X458538D01*
X461122Y155632D01*
X463438Y156970D01*
X465330Y158862D01*
X466668Y161178D01*
X467360Y163762D01*
Y166438D01*
X466668Y169022D01*
X465330Y171338D01*
X463438Y173230D01*
X461122Y174568D01*
X458538Y175260D01*
D02*
G37*
G36*
X514418Y459740D02*
X511742D01*
X509158Y459048D01*
X506842Y457710D01*
X504950Y455818D01*
X503612Y453502D01*
X502920Y450918D01*
Y448242D01*
X503612Y445658D01*
X504950Y443342D01*
X505406Y442885D01*
X212103Y149583D01*
X210930Y150069D01*
Y150258D01*
X210238Y152842D01*
X208900Y155158D01*
X207008Y157050D01*
X204692Y158388D01*
X202108Y159080D01*
X199432D01*
X196848Y158388D01*
X194532Y157050D01*
X192640Y155158D01*
X191302Y152842D01*
X190610Y150258D01*
Y147582D01*
X191302Y144998D01*
X192640Y142682D01*
X194532Y140790D01*
X196848Y139452D01*
X199432Y138760D01*
X199621D01*
X200107Y137587D01*
X150105Y87585D01*
X57860D01*
Y93860D01*
X37540D01*
Y73540D01*
X57860D01*
Y79815D01*
X151714D01*
X153201Y80111D01*
X154461Y80953D01*
X512928Y439420D01*
X514418D01*
X517002Y440112D01*
X519318Y441450D01*
X521210Y443342D01*
X522548Y445658D01*
X523240Y448242D01*
Y450918D01*
X522548Y453502D01*
X521210Y455818D01*
X519318Y457710D01*
X517002Y459048D01*
X514418Y459740D01*
D02*
G37*
G36*
X23638Y144660D02*
X23570D01*
Y135770D01*
X32460D01*
Y135838D01*
X31768Y138422D01*
X30430Y140738D01*
X28538Y142630D01*
X26222Y143968D01*
X23638Y144660D01*
D02*
G37*
G36*
X21030D02*
X20962D01*
X18378Y143968D01*
X16062Y142630D01*
X14170Y140738D01*
X12832Y138422D01*
X12140Y135838D01*
Y135770D01*
X21030D01*
Y144660D01*
D02*
G37*
G36*
X32460Y133230D02*
X23570D01*
Y124340D01*
X23638D01*
X26222Y125032D01*
X28538Y126370D01*
X30430Y128262D01*
X31768Y130578D01*
X32460Y133162D01*
Y133230D01*
D02*
G37*
G36*
X21030D02*
X12140D01*
Y133162D01*
X12832Y130578D01*
X14170Y128262D01*
X16062Y126370D01*
X18378Y125032D01*
X20962Y124340D01*
X21030D01*
Y133230D01*
D02*
G37*
G36*
X49038Y119260D02*
X46362D01*
X43778Y118568D01*
X41462Y117230D01*
X39570Y115338D01*
X38232Y113022D01*
X37540Y110438D01*
Y107762D01*
X38232Y105178D01*
X39570Y102862D01*
X41462Y100970D01*
X43778Y99632D01*
X46362Y98940D01*
X49038D01*
X51622Y99632D01*
X53938Y100970D01*
X55830Y102862D01*
X57168Y105178D01*
X57860Y107762D01*
Y110438D01*
X57168Y113022D01*
X55830Y115338D01*
X53938Y117230D01*
X51622Y118568D01*
X49038Y119260D01*
D02*
G37*
G36*
X23638D02*
X20962D01*
X18378Y118568D01*
X16062Y117230D01*
X14170Y115338D01*
X12832Y113022D01*
X12140Y110438D01*
Y107762D01*
X12832Y105178D01*
X14170Y102862D01*
X16062Y100970D01*
X18378Y99632D01*
X20962Y98940D01*
X23638D01*
X26222Y99632D01*
X28538Y100970D01*
X30430Y102862D01*
X31768Y105178D01*
X32460Y107762D01*
Y110438D01*
X31768Y113022D01*
X30430Y115338D01*
X28538Y117230D01*
X26222Y118568D01*
X23638Y119260D01*
D02*
G37*
G36*
Y93860D02*
X20962D01*
X18378Y93168D01*
X16062Y91830D01*
X14170Y89938D01*
X12832Y87622D01*
X12140Y85038D01*
Y82362D01*
X12832Y79778D01*
X14170Y77462D01*
X16062Y75570D01*
X18378Y74232D01*
X20962Y73540D01*
X23638D01*
X26222Y74232D01*
X28538Y75570D01*
X30430Y77462D01*
X31768Y79778D01*
X32460Y82362D01*
Y85038D01*
X31768Y87622D01*
X30430Y89938D01*
X28538Y91830D01*
X26222Y93168D01*
X23638Y93860D01*
D02*
G37*
%LPD*%
D10*
X93980Y480060D02*
X96174Y477865D01*
Y468630D02*
Y477865D01*
Y468630D02*
X200770Y364035D01*
Y250520D02*
Y364035D01*
X82550Y343340D02*
Y484795D01*
X97444Y492760D02*
X105410Y500726D01*
X82550Y343340D02*
X200770Y225120D01*
X105410Y500726D02*
Y510195D01*
X96174Y519430D02*
Y528666D01*
Y519430D02*
X105410Y510195D01*
X93980Y530860D02*
X96174Y528666D01*
X90515Y492760D02*
X97444D01*
X82550Y484795D02*
X90515Y492760D01*
X138430Y524510D02*
X430530D01*
X93980Y480060D02*
X138430Y524510D01*
X447965Y525780D02*
X513080D01*
X432724Y510540D02*
X447965Y525780D01*
X424180Y510540D02*
X432724D01*
X247650Y334010D02*
X424180Y510540D01*
X22300Y159900D02*
X33730Y148470D01*
X104325D01*
X141605Y185750D01*
X202964D02*
X358077Y340863D01*
X141605Y185750D02*
X202964D01*
X358077Y345377D02*
X513080Y500380D01*
X358077Y340863D02*
Y345377D01*
X510650Y447150D02*
X513080Y449580D01*
X510650Y442635D02*
Y447150D01*
X151714Y83700D02*
X510650Y442635D01*
X47700Y83700D02*
X151714D01*
D15*
X200770Y250520D02*
D03*
Y225120D02*
D03*
Y199720D02*
D03*
Y174320D02*
D03*
Y148920D02*
D03*
X430530Y448310D02*
D03*
Y473710D02*
D03*
Y499110D02*
D03*
Y524510D02*
D03*
Y549910D02*
D03*
Y575310D02*
D03*
Y600710D02*
D03*
X47700Y109100D02*
D03*
Y134500D02*
D03*
Y159900D02*
D03*
Y185300D02*
D03*
Y210700D02*
D03*
X22300Y83700D02*
D03*
Y109100D02*
D03*
Y134500D02*
D03*
Y159900D02*
D03*
Y185300D02*
D03*
Y210700D02*
D03*
X47700Y236100D02*
D03*
X22300D02*
D03*
X47700Y261500D02*
D03*
Y286900D02*
D03*
Y312300D02*
D03*
Y337700D02*
D03*
Y363100D02*
D03*
X22300Y261500D02*
D03*
Y286900D02*
D03*
Y312300D02*
D03*
Y337700D02*
D03*
Y363100D02*
D03*
Y388500D02*
D03*
X47700Y413900D02*
D03*
X22300D02*
D03*
X47700Y439300D02*
D03*
Y464700D02*
D03*
Y490100D02*
D03*
Y515500D02*
D03*
Y540900D02*
D03*
Y566300D02*
D03*
X22300Y439300D02*
D03*
Y464700D02*
D03*
Y490100D02*
D03*
Y515500D02*
D03*
Y540900D02*
D03*
Y566300D02*
D03*
X47700Y388500D02*
D03*
X457200Y165100D02*
D03*
X513080Y525780D02*
D03*
Y500380D02*
D03*
Y449580D02*
D03*
X93980Y480060D02*
D03*
Y530860D02*
D03*
X457200Y215900D02*
D03*
X93980Y556260D02*
D03*
X513080Y474980D02*
D03*
X457200Y190500D02*
D03*
X93980Y607060D02*
D03*
Y454660D02*
D03*
Y505460D02*
D03*
Y581660D02*
D03*
D16*
X47700Y83700D02*
D03*
D17*
X35000Y615000D02*
D03*
X525000D02*
D03*
Y35000D02*
D03*
X35000D02*
D03*
D18*
X247650Y334010D02*
D03*
M02*
